G04 #@! TF.GenerationSoftware,KiCad,Pcbnew,(5.1.5)-3*
G04 #@! TF.CreationDate,2023-03-23T18:14:07-07:00*
G04 #@! TF.ProjectId,breakout_pcb,62726561-6b6f-4757-945f-7063622e6b69,rev?*
G04 #@! TF.SameCoordinates,Original*
G04 #@! TF.FileFunction,Copper,L2,Inr*
G04 #@! TF.FilePolarity,Positive*
%FSLAX46Y46*%
G04 Gerber Fmt 4.6, Leading zero omitted, Abs format (unit mm)*
G04 Created by KiCad (PCBNEW (5.1.5)-3) date 2023-03-23 18:14:07*
%MOMM*%
%LPD*%
G04 APERTURE LIST*
%ADD10C,4.700000*%
%ADD11O,1.700000X1.700000*%
%ADD12R,1.700000X1.700000*%
%ADD13C,1.600200*%
%ADD14C,1.950000*%
%ADD15C,0.800000*%
%ADD16C,0.254000*%
G04 APERTURE END LIST*
D10*
X176000000Y-168000000D03*
X104000000Y-168000000D03*
D11*
X129410000Y-84890000D03*
X129410000Y-82350000D03*
X131950000Y-84890000D03*
X131950000Y-82350000D03*
X134490000Y-84890000D03*
X134490000Y-82350000D03*
X137030000Y-84890000D03*
X137030000Y-82350000D03*
X139570000Y-84890000D03*
X139570000Y-82350000D03*
X142110000Y-84890000D03*
X142110000Y-82350000D03*
X144650000Y-84890000D03*
X144650000Y-82350000D03*
X147190000Y-84890000D03*
X147190000Y-82350000D03*
X149730000Y-84890000D03*
X149730000Y-82350000D03*
X152270000Y-84890000D03*
X152270000Y-82350000D03*
X154810000Y-84890000D03*
X154810000Y-82350000D03*
X157350000Y-84890000D03*
X157350000Y-82350000D03*
X159890000Y-84890000D03*
X159890000Y-82350000D03*
X162430000Y-84890000D03*
X162430000Y-82350000D03*
X164970000Y-84890000D03*
X164970000Y-82350000D03*
X167510000Y-84890000D03*
X167510000Y-82350000D03*
X170050000Y-84890000D03*
X170050000Y-82350000D03*
X172590000Y-84890000D03*
X172590000Y-82350000D03*
X175130000Y-84890000D03*
X175130000Y-82350000D03*
X177670000Y-84890000D03*
D12*
X177670000Y-82350000D03*
D13*
X116080000Y-167760000D03*
X116080000Y-165220000D03*
X118620000Y-167760000D03*
X118620000Y-165220000D03*
X121160000Y-167760000D03*
X121160000Y-165220000D03*
X123700000Y-167760000D03*
X123700000Y-165220000D03*
X126240000Y-167760000D03*
X126240000Y-165220000D03*
X128780000Y-167760000D03*
X128780000Y-165220000D03*
X131320000Y-167760000D03*
X131320000Y-165220000D03*
X133860000Y-167760000D03*
X133860000Y-165220000D03*
X136400000Y-167760000D03*
X136400000Y-165220000D03*
X138940000Y-167760000D03*
X138940000Y-165220000D03*
X141480000Y-167760000D03*
X141480000Y-165220000D03*
X144020000Y-167760000D03*
X144020000Y-165220000D03*
X146560000Y-167760000D03*
X146560000Y-165220000D03*
X149100000Y-167760000D03*
X149100000Y-165220000D03*
X151640000Y-167760000D03*
X151640000Y-165220000D03*
X154180000Y-167760000D03*
X154180000Y-165220000D03*
X156720000Y-167760000D03*
X156720000Y-165220000D03*
X159260000Y-167760000D03*
X159260000Y-165220000D03*
X161800000Y-167760000D03*
X161800000Y-165220000D03*
X164340000Y-167760000D03*
X164340000Y-165220000D03*
D14*
X107960000Y-97860000D03*
X107960000Y-94360000D03*
X107960000Y-105060000D03*
X107960000Y-101560000D03*
D11*
X170590000Y-130450000D03*
X173130000Y-130450000D03*
D12*
X175670000Y-130450000D03*
D11*
X170590000Y-112350000D03*
X173130000Y-112350000D03*
D12*
X175670000Y-112350000D03*
D11*
X129410000Y-105890000D03*
X129410000Y-103350000D03*
X131950000Y-105890000D03*
X131950000Y-103350000D03*
X134490000Y-105890000D03*
X134490000Y-103350000D03*
X137030000Y-105890000D03*
X137030000Y-103350000D03*
X139570000Y-105890000D03*
X139570000Y-103350000D03*
X142110000Y-105890000D03*
X142110000Y-103350000D03*
X144650000Y-105890000D03*
X144650000Y-103350000D03*
X147190000Y-105890000D03*
X147190000Y-103350000D03*
X149730000Y-105890000D03*
X149730000Y-103350000D03*
X152270000Y-105890000D03*
X152270000Y-103350000D03*
X154810000Y-105890000D03*
X154810000Y-103350000D03*
X157350000Y-105890000D03*
X157350000Y-103350000D03*
X159890000Y-105890000D03*
X159890000Y-103350000D03*
X162430000Y-105890000D03*
X162430000Y-103350000D03*
X164970000Y-105890000D03*
X164970000Y-103350000D03*
X167510000Y-105890000D03*
X167510000Y-103350000D03*
X170050000Y-105890000D03*
X170050000Y-103350000D03*
X172590000Y-105890000D03*
X172590000Y-103350000D03*
X175130000Y-105890000D03*
X175130000Y-103350000D03*
X177670000Y-105890000D03*
D12*
X177670000Y-103350000D03*
D15*
X171710000Y-90470000D03*
X176410000Y-90470000D03*
X176460000Y-93740000D03*
X171710000Y-93690000D03*
X173840000Y-109010000D03*
X177920000Y-108930000D03*
X177880000Y-134260000D03*
X170000000Y-108990000D03*
D16*
G36*
X179340001Y-171340000D02*
G01*
X100660000Y-171340000D01*
X100660000Y-167706003D01*
X101015000Y-167706003D01*
X101015000Y-168293997D01*
X101129712Y-168870692D01*
X101354727Y-169413928D01*
X101681399Y-169902826D01*
X102097174Y-170318601D01*
X102586072Y-170645273D01*
X103129308Y-170870288D01*
X103706003Y-170985000D01*
X104293997Y-170985000D01*
X104870692Y-170870288D01*
X105413928Y-170645273D01*
X105902826Y-170318601D01*
X106318601Y-169902826D01*
X106645273Y-169413928D01*
X106870288Y-168870692D01*
X106985000Y-168293997D01*
X106985000Y-167706003D01*
X106870288Y-167129308D01*
X106645273Y-166586072D01*
X106318601Y-166097174D01*
X105902826Y-165681399D01*
X105413928Y-165354727D01*
X104870692Y-165129712D01*
X104614012Y-165078655D01*
X114644900Y-165078655D01*
X114644900Y-165361345D01*
X114700050Y-165638603D01*
X114808231Y-165899775D01*
X114965285Y-166134823D01*
X115165177Y-166334715D01*
X115397578Y-166490000D01*
X115165177Y-166645285D01*
X114965285Y-166845177D01*
X114808231Y-167080225D01*
X114700050Y-167341397D01*
X114644900Y-167618655D01*
X114644900Y-167901345D01*
X114700050Y-168178603D01*
X114808231Y-168439775D01*
X114965285Y-168674823D01*
X115165177Y-168874715D01*
X115400225Y-169031769D01*
X115661397Y-169139950D01*
X115938655Y-169195100D01*
X116221345Y-169195100D01*
X116498603Y-169139950D01*
X116759775Y-169031769D01*
X116994823Y-168874715D01*
X117194715Y-168674823D01*
X117350000Y-168442422D01*
X117505285Y-168674823D01*
X117705177Y-168874715D01*
X117940225Y-169031769D01*
X118201397Y-169139950D01*
X118478655Y-169195100D01*
X118761345Y-169195100D01*
X119038603Y-169139950D01*
X119299775Y-169031769D01*
X119534823Y-168874715D01*
X119734715Y-168674823D01*
X119890000Y-168442422D01*
X120045285Y-168674823D01*
X120245177Y-168874715D01*
X120480225Y-169031769D01*
X120741397Y-169139950D01*
X121018655Y-169195100D01*
X121301345Y-169195100D01*
X121578603Y-169139950D01*
X121839775Y-169031769D01*
X122074823Y-168874715D01*
X122274715Y-168674823D01*
X122430000Y-168442422D01*
X122585285Y-168674823D01*
X122785177Y-168874715D01*
X123020225Y-169031769D01*
X123281397Y-169139950D01*
X123558655Y-169195100D01*
X123841345Y-169195100D01*
X124118603Y-169139950D01*
X124379775Y-169031769D01*
X124614823Y-168874715D01*
X124814715Y-168674823D01*
X124970000Y-168442422D01*
X125125285Y-168674823D01*
X125325177Y-168874715D01*
X125560225Y-169031769D01*
X125821397Y-169139950D01*
X126098655Y-169195100D01*
X126381345Y-169195100D01*
X126658603Y-169139950D01*
X126919775Y-169031769D01*
X127154823Y-168874715D01*
X127354715Y-168674823D01*
X127510000Y-168442422D01*
X127665285Y-168674823D01*
X127865177Y-168874715D01*
X128100225Y-169031769D01*
X128361397Y-169139950D01*
X128638655Y-169195100D01*
X128921345Y-169195100D01*
X129198603Y-169139950D01*
X129459775Y-169031769D01*
X129694823Y-168874715D01*
X129894715Y-168674823D01*
X130050000Y-168442422D01*
X130205285Y-168674823D01*
X130405177Y-168874715D01*
X130640225Y-169031769D01*
X130901397Y-169139950D01*
X131178655Y-169195100D01*
X131461345Y-169195100D01*
X131738603Y-169139950D01*
X131999775Y-169031769D01*
X132234823Y-168874715D01*
X132434715Y-168674823D01*
X132590000Y-168442422D01*
X132745285Y-168674823D01*
X132945177Y-168874715D01*
X133180225Y-169031769D01*
X133441397Y-169139950D01*
X133718655Y-169195100D01*
X134001345Y-169195100D01*
X134278603Y-169139950D01*
X134539775Y-169031769D01*
X134774823Y-168874715D01*
X134974715Y-168674823D01*
X135130000Y-168442422D01*
X135285285Y-168674823D01*
X135485177Y-168874715D01*
X135720225Y-169031769D01*
X135981397Y-169139950D01*
X136258655Y-169195100D01*
X136541345Y-169195100D01*
X136818603Y-169139950D01*
X137079775Y-169031769D01*
X137314823Y-168874715D01*
X137514715Y-168674823D01*
X137670000Y-168442422D01*
X137825285Y-168674823D01*
X138025177Y-168874715D01*
X138260225Y-169031769D01*
X138521397Y-169139950D01*
X138798655Y-169195100D01*
X139081345Y-169195100D01*
X139358603Y-169139950D01*
X139619775Y-169031769D01*
X139854823Y-168874715D01*
X140054715Y-168674823D01*
X140210000Y-168442422D01*
X140365285Y-168674823D01*
X140565177Y-168874715D01*
X140800225Y-169031769D01*
X141061397Y-169139950D01*
X141338655Y-169195100D01*
X141621345Y-169195100D01*
X141898603Y-169139950D01*
X142159775Y-169031769D01*
X142394823Y-168874715D01*
X142594715Y-168674823D01*
X142750000Y-168442422D01*
X142905285Y-168674823D01*
X143105177Y-168874715D01*
X143340225Y-169031769D01*
X143601397Y-169139950D01*
X143878655Y-169195100D01*
X144161345Y-169195100D01*
X144438603Y-169139950D01*
X144699775Y-169031769D01*
X144934823Y-168874715D01*
X145134715Y-168674823D01*
X145290000Y-168442422D01*
X145445285Y-168674823D01*
X145645177Y-168874715D01*
X145880225Y-169031769D01*
X146141397Y-169139950D01*
X146418655Y-169195100D01*
X146701345Y-169195100D01*
X146978603Y-169139950D01*
X147239775Y-169031769D01*
X147474823Y-168874715D01*
X147674715Y-168674823D01*
X147830000Y-168442422D01*
X147985285Y-168674823D01*
X148185177Y-168874715D01*
X148420225Y-169031769D01*
X148681397Y-169139950D01*
X148958655Y-169195100D01*
X149241345Y-169195100D01*
X149518603Y-169139950D01*
X149779775Y-169031769D01*
X150014823Y-168874715D01*
X150214715Y-168674823D01*
X150370000Y-168442422D01*
X150525285Y-168674823D01*
X150725177Y-168874715D01*
X150960225Y-169031769D01*
X151221397Y-169139950D01*
X151498655Y-169195100D01*
X151781345Y-169195100D01*
X152058603Y-169139950D01*
X152319775Y-169031769D01*
X152554823Y-168874715D01*
X152754715Y-168674823D01*
X152910000Y-168442422D01*
X153065285Y-168674823D01*
X153265177Y-168874715D01*
X153500225Y-169031769D01*
X153761397Y-169139950D01*
X154038655Y-169195100D01*
X154321345Y-169195100D01*
X154598603Y-169139950D01*
X154859775Y-169031769D01*
X155094823Y-168874715D01*
X155294715Y-168674823D01*
X155450000Y-168442422D01*
X155605285Y-168674823D01*
X155805177Y-168874715D01*
X156040225Y-169031769D01*
X156301397Y-169139950D01*
X156578655Y-169195100D01*
X156861345Y-169195100D01*
X157138603Y-169139950D01*
X157399775Y-169031769D01*
X157634823Y-168874715D01*
X157834715Y-168674823D01*
X157990000Y-168442422D01*
X158145285Y-168674823D01*
X158345177Y-168874715D01*
X158580225Y-169031769D01*
X158841397Y-169139950D01*
X159118655Y-169195100D01*
X159401345Y-169195100D01*
X159678603Y-169139950D01*
X159939775Y-169031769D01*
X160174823Y-168874715D01*
X160296764Y-168752774D01*
X160986831Y-168752774D01*
X161058426Y-168996754D01*
X161313954Y-169117664D01*
X161588161Y-169186400D01*
X161870508Y-169200320D01*
X162150147Y-169158889D01*
X162416328Y-169063700D01*
X162541574Y-168996754D01*
X162613169Y-168752774D01*
X161800000Y-167939605D01*
X160986831Y-168752774D01*
X160296764Y-168752774D01*
X160374715Y-168674823D01*
X160530905Y-168441068D01*
X160563246Y-168501574D01*
X160807226Y-168573169D01*
X161620395Y-167760000D01*
X160807226Y-166946831D01*
X160563246Y-167018426D01*
X160532812Y-167082744D01*
X160531769Y-167080225D01*
X160374715Y-166845177D01*
X160174823Y-166645285D01*
X159942422Y-166490000D01*
X160174823Y-166334715D01*
X160374715Y-166134823D01*
X160530000Y-165902422D01*
X160685285Y-166134823D01*
X160885177Y-166334715D01*
X161118932Y-166490905D01*
X161058426Y-166523246D01*
X160986831Y-166767226D01*
X161800000Y-167580395D01*
X162613169Y-166767226D01*
X162541574Y-166523246D01*
X162477256Y-166492812D01*
X162479775Y-166491769D01*
X162714823Y-166334715D01*
X162914715Y-166134823D01*
X163070000Y-165902422D01*
X163225285Y-166134823D01*
X163425177Y-166334715D01*
X163657578Y-166490000D01*
X163425177Y-166645285D01*
X163225285Y-166845177D01*
X163069095Y-167078932D01*
X163036754Y-167018426D01*
X162792774Y-166946831D01*
X161979605Y-167760000D01*
X162792774Y-168573169D01*
X163036754Y-168501574D01*
X163067188Y-168437256D01*
X163068231Y-168439775D01*
X163225285Y-168674823D01*
X163425177Y-168874715D01*
X163660225Y-169031769D01*
X163921397Y-169139950D01*
X164198655Y-169195100D01*
X164481345Y-169195100D01*
X164758603Y-169139950D01*
X165019775Y-169031769D01*
X165254823Y-168874715D01*
X165454715Y-168674823D01*
X165611769Y-168439775D01*
X165719950Y-168178603D01*
X165775100Y-167901345D01*
X165775100Y-167706003D01*
X173015000Y-167706003D01*
X173015000Y-168293997D01*
X173129712Y-168870692D01*
X173354727Y-169413928D01*
X173681399Y-169902826D01*
X174097174Y-170318601D01*
X174586072Y-170645273D01*
X175129308Y-170870288D01*
X175706003Y-170985000D01*
X176293997Y-170985000D01*
X176870692Y-170870288D01*
X177413928Y-170645273D01*
X177902826Y-170318601D01*
X178318601Y-169902826D01*
X178645273Y-169413928D01*
X178870288Y-168870692D01*
X178985000Y-168293997D01*
X178985000Y-167706003D01*
X178870288Y-167129308D01*
X178645273Y-166586072D01*
X178318601Y-166097174D01*
X177902826Y-165681399D01*
X177413928Y-165354727D01*
X176870692Y-165129712D01*
X176293997Y-165015000D01*
X175706003Y-165015000D01*
X175129308Y-165129712D01*
X174586072Y-165354727D01*
X174097174Y-165681399D01*
X173681399Y-166097174D01*
X173354727Y-166586072D01*
X173129712Y-167129308D01*
X173015000Y-167706003D01*
X165775100Y-167706003D01*
X165775100Y-167618655D01*
X165719950Y-167341397D01*
X165611769Y-167080225D01*
X165454715Y-166845177D01*
X165254823Y-166645285D01*
X165022422Y-166490000D01*
X165254823Y-166334715D01*
X165454715Y-166134823D01*
X165611769Y-165899775D01*
X165719950Y-165638603D01*
X165775100Y-165361345D01*
X165775100Y-165078655D01*
X165719950Y-164801397D01*
X165611769Y-164540225D01*
X165454715Y-164305177D01*
X165254823Y-164105285D01*
X165019775Y-163948231D01*
X164758603Y-163840050D01*
X164481345Y-163784900D01*
X164198655Y-163784900D01*
X163921397Y-163840050D01*
X163660225Y-163948231D01*
X163425177Y-164105285D01*
X163225285Y-164305177D01*
X163070000Y-164537578D01*
X162914715Y-164305177D01*
X162714823Y-164105285D01*
X162479775Y-163948231D01*
X162218603Y-163840050D01*
X161941345Y-163784900D01*
X161658655Y-163784900D01*
X161381397Y-163840050D01*
X161120225Y-163948231D01*
X160885177Y-164105285D01*
X160685285Y-164305177D01*
X160530000Y-164537578D01*
X160374715Y-164305177D01*
X160174823Y-164105285D01*
X159939775Y-163948231D01*
X159678603Y-163840050D01*
X159401345Y-163784900D01*
X159118655Y-163784900D01*
X158841397Y-163840050D01*
X158580225Y-163948231D01*
X158345177Y-164105285D01*
X158145285Y-164305177D01*
X157990000Y-164537578D01*
X157834715Y-164305177D01*
X157634823Y-164105285D01*
X157399775Y-163948231D01*
X157138603Y-163840050D01*
X156861345Y-163784900D01*
X156578655Y-163784900D01*
X156301397Y-163840050D01*
X156040225Y-163948231D01*
X155805177Y-164105285D01*
X155605285Y-164305177D01*
X155450000Y-164537578D01*
X155294715Y-164305177D01*
X155094823Y-164105285D01*
X154859775Y-163948231D01*
X154598603Y-163840050D01*
X154321345Y-163784900D01*
X154038655Y-163784900D01*
X153761397Y-163840050D01*
X153500225Y-163948231D01*
X153265177Y-164105285D01*
X153065285Y-164305177D01*
X152910000Y-164537578D01*
X152754715Y-164305177D01*
X152554823Y-164105285D01*
X152319775Y-163948231D01*
X152058603Y-163840050D01*
X151781345Y-163784900D01*
X151498655Y-163784900D01*
X151221397Y-163840050D01*
X150960225Y-163948231D01*
X150725177Y-164105285D01*
X150525285Y-164305177D01*
X150370000Y-164537578D01*
X150214715Y-164305177D01*
X150014823Y-164105285D01*
X149779775Y-163948231D01*
X149518603Y-163840050D01*
X149241345Y-163784900D01*
X148958655Y-163784900D01*
X148681397Y-163840050D01*
X148420225Y-163948231D01*
X148185177Y-164105285D01*
X147985285Y-164305177D01*
X147830000Y-164537578D01*
X147674715Y-164305177D01*
X147474823Y-164105285D01*
X147239775Y-163948231D01*
X146978603Y-163840050D01*
X146701345Y-163784900D01*
X146418655Y-163784900D01*
X146141397Y-163840050D01*
X145880225Y-163948231D01*
X145645177Y-164105285D01*
X145445285Y-164305177D01*
X145290000Y-164537578D01*
X145134715Y-164305177D01*
X144934823Y-164105285D01*
X144699775Y-163948231D01*
X144438603Y-163840050D01*
X144161345Y-163784900D01*
X143878655Y-163784900D01*
X143601397Y-163840050D01*
X143340225Y-163948231D01*
X143105177Y-164105285D01*
X142905285Y-164305177D01*
X142750000Y-164537578D01*
X142594715Y-164305177D01*
X142394823Y-164105285D01*
X142159775Y-163948231D01*
X141898603Y-163840050D01*
X141621345Y-163784900D01*
X141338655Y-163784900D01*
X141061397Y-163840050D01*
X140800225Y-163948231D01*
X140565177Y-164105285D01*
X140365285Y-164305177D01*
X140210000Y-164537578D01*
X140054715Y-164305177D01*
X139854823Y-164105285D01*
X139619775Y-163948231D01*
X139358603Y-163840050D01*
X139081345Y-163784900D01*
X138798655Y-163784900D01*
X138521397Y-163840050D01*
X138260225Y-163948231D01*
X138025177Y-164105285D01*
X137825285Y-164305177D01*
X137670000Y-164537578D01*
X137514715Y-164305177D01*
X137314823Y-164105285D01*
X137079775Y-163948231D01*
X136818603Y-163840050D01*
X136541345Y-163784900D01*
X136258655Y-163784900D01*
X135981397Y-163840050D01*
X135720225Y-163948231D01*
X135485177Y-164105285D01*
X135285285Y-164305177D01*
X135130000Y-164537578D01*
X134974715Y-164305177D01*
X134774823Y-164105285D01*
X134539775Y-163948231D01*
X134278603Y-163840050D01*
X134001345Y-163784900D01*
X133718655Y-163784900D01*
X133441397Y-163840050D01*
X133180225Y-163948231D01*
X132945177Y-164105285D01*
X132745285Y-164305177D01*
X132590000Y-164537578D01*
X132434715Y-164305177D01*
X132234823Y-164105285D01*
X131999775Y-163948231D01*
X131738603Y-163840050D01*
X131461345Y-163784900D01*
X131178655Y-163784900D01*
X130901397Y-163840050D01*
X130640225Y-163948231D01*
X130405177Y-164105285D01*
X130205285Y-164305177D01*
X130050000Y-164537578D01*
X129894715Y-164305177D01*
X129694823Y-164105285D01*
X129459775Y-163948231D01*
X129198603Y-163840050D01*
X128921345Y-163784900D01*
X128638655Y-163784900D01*
X128361397Y-163840050D01*
X128100225Y-163948231D01*
X127865177Y-164105285D01*
X127665285Y-164305177D01*
X127510000Y-164537578D01*
X127354715Y-164305177D01*
X127154823Y-164105285D01*
X126919775Y-163948231D01*
X126658603Y-163840050D01*
X126381345Y-163784900D01*
X126098655Y-163784900D01*
X125821397Y-163840050D01*
X125560225Y-163948231D01*
X125325177Y-164105285D01*
X125125285Y-164305177D01*
X124970000Y-164537578D01*
X124814715Y-164305177D01*
X124614823Y-164105285D01*
X124379775Y-163948231D01*
X124118603Y-163840050D01*
X123841345Y-163784900D01*
X123558655Y-163784900D01*
X123281397Y-163840050D01*
X123020225Y-163948231D01*
X122785177Y-164105285D01*
X122585285Y-164305177D01*
X122430000Y-164537578D01*
X122274715Y-164305177D01*
X122074823Y-164105285D01*
X121839775Y-163948231D01*
X121578603Y-163840050D01*
X121301345Y-163784900D01*
X121018655Y-163784900D01*
X120741397Y-163840050D01*
X120480225Y-163948231D01*
X120245177Y-164105285D01*
X120045285Y-164305177D01*
X119890000Y-164537578D01*
X119734715Y-164305177D01*
X119534823Y-164105285D01*
X119299775Y-163948231D01*
X119038603Y-163840050D01*
X118761345Y-163784900D01*
X118478655Y-163784900D01*
X118201397Y-163840050D01*
X117940225Y-163948231D01*
X117705177Y-164105285D01*
X117505285Y-164305177D01*
X117350000Y-164537578D01*
X117194715Y-164305177D01*
X116994823Y-164105285D01*
X116759775Y-163948231D01*
X116498603Y-163840050D01*
X116221345Y-163784900D01*
X115938655Y-163784900D01*
X115661397Y-163840050D01*
X115400225Y-163948231D01*
X115165177Y-164105285D01*
X114965285Y-164305177D01*
X114808231Y-164540225D01*
X114700050Y-164801397D01*
X114644900Y-165078655D01*
X104614012Y-165078655D01*
X104293997Y-165015000D01*
X103706003Y-165015000D01*
X103129308Y-165129712D01*
X102586072Y-165354727D01*
X102097174Y-165681399D01*
X101681399Y-166097174D01*
X101354727Y-166586072D01*
X101129712Y-167129308D01*
X101015000Y-167706003D01*
X100660000Y-167706003D01*
X100660000Y-134158061D01*
X176845000Y-134158061D01*
X176845000Y-134361939D01*
X176884774Y-134561898D01*
X176962795Y-134750256D01*
X177076063Y-134919774D01*
X177220226Y-135063937D01*
X177389744Y-135177205D01*
X177578102Y-135255226D01*
X177778061Y-135295000D01*
X177981939Y-135295000D01*
X178181898Y-135255226D01*
X178370256Y-135177205D01*
X178539774Y-135063937D01*
X178683937Y-134919774D01*
X178797205Y-134750256D01*
X178875226Y-134561898D01*
X178915000Y-134361939D01*
X178915000Y-134158061D01*
X178875226Y-133958102D01*
X178797205Y-133769744D01*
X178683937Y-133600226D01*
X178539774Y-133456063D01*
X178370256Y-133342795D01*
X178181898Y-133264774D01*
X177981939Y-133225000D01*
X177778061Y-133225000D01*
X177578102Y-133264774D01*
X177389744Y-133342795D01*
X177220226Y-133456063D01*
X177076063Y-133600226D01*
X176962795Y-133769744D01*
X176884774Y-133958102D01*
X176845000Y-134158061D01*
X100660000Y-134158061D01*
X100660000Y-130303740D01*
X169105000Y-130303740D01*
X169105000Y-130596260D01*
X169162068Y-130883158D01*
X169274010Y-131153411D01*
X169436525Y-131396632D01*
X169643368Y-131603475D01*
X169886589Y-131765990D01*
X170156842Y-131877932D01*
X170443740Y-131935000D01*
X170736260Y-131935000D01*
X171023158Y-131877932D01*
X171293411Y-131765990D01*
X171536632Y-131603475D01*
X171743475Y-131396632D01*
X171860000Y-131222240D01*
X171976525Y-131396632D01*
X172183368Y-131603475D01*
X172426589Y-131765990D01*
X172696842Y-131877932D01*
X172983740Y-131935000D01*
X173276260Y-131935000D01*
X173563158Y-131877932D01*
X173833411Y-131765990D01*
X174076632Y-131603475D01*
X174208487Y-131471620D01*
X174230498Y-131544180D01*
X174289463Y-131654494D01*
X174368815Y-131751185D01*
X174465506Y-131830537D01*
X174575820Y-131889502D01*
X174695518Y-131925812D01*
X174820000Y-131938072D01*
X175384250Y-131935000D01*
X175543000Y-131776250D01*
X175543000Y-130577000D01*
X175797000Y-130577000D01*
X175797000Y-131776250D01*
X175955750Y-131935000D01*
X176520000Y-131938072D01*
X176644482Y-131925812D01*
X176764180Y-131889502D01*
X176874494Y-131830537D01*
X176971185Y-131751185D01*
X177050537Y-131654494D01*
X177109502Y-131544180D01*
X177145812Y-131424482D01*
X177158072Y-131300000D01*
X177155000Y-130735750D01*
X176996250Y-130577000D01*
X175797000Y-130577000D01*
X175543000Y-130577000D01*
X175523000Y-130577000D01*
X175523000Y-130323000D01*
X175543000Y-130323000D01*
X175543000Y-129123750D01*
X175797000Y-129123750D01*
X175797000Y-130323000D01*
X176996250Y-130323000D01*
X177155000Y-130164250D01*
X177158072Y-129600000D01*
X177145812Y-129475518D01*
X177109502Y-129355820D01*
X177050537Y-129245506D01*
X176971185Y-129148815D01*
X176874494Y-129069463D01*
X176764180Y-129010498D01*
X176644482Y-128974188D01*
X176520000Y-128961928D01*
X175955750Y-128965000D01*
X175797000Y-129123750D01*
X175543000Y-129123750D01*
X175384250Y-128965000D01*
X174820000Y-128961928D01*
X174695518Y-128974188D01*
X174575820Y-129010498D01*
X174465506Y-129069463D01*
X174368815Y-129148815D01*
X174289463Y-129245506D01*
X174230498Y-129355820D01*
X174208487Y-129428380D01*
X174076632Y-129296525D01*
X173833411Y-129134010D01*
X173563158Y-129022068D01*
X173276260Y-128965000D01*
X172983740Y-128965000D01*
X172696842Y-129022068D01*
X172426589Y-129134010D01*
X172183368Y-129296525D01*
X171976525Y-129503368D01*
X171860000Y-129677760D01*
X171743475Y-129503368D01*
X171536632Y-129296525D01*
X171293411Y-129134010D01*
X171023158Y-129022068D01*
X170736260Y-128965000D01*
X170443740Y-128965000D01*
X170156842Y-129022068D01*
X169886589Y-129134010D01*
X169643368Y-129296525D01*
X169436525Y-129503368D01*
X169274010Y-129746589D01*
X169162068Y-130016842D01*
X169105000Y-130303740D01*
X100660000Y-130303740D01*
X100660000Y-112203740D01*
X169105000Y-112203740D01*
X169105000Y-112496260D01*
X169162068Y-112783158D01*
X169274010Y-113053411D01*
X169436525Y-113296632D01*
X169643368Y-113503475D01*
X169886589Y-113665990D01*
X170156842Y-113777932D01*
X170443740Y-113835000D01*
X170736260Y-113835000D01*
X171023158Y-113777932D01*
X171293411Y-113665990D01*
X171536632Y-113503475D01*
X171743475Y-113296632D01*
X171860000Y-113122240D01*
X171976525Y-113296632D01*
X172183368Y-113503475D01*
X172426589Y-113665990D01*
X172696842Y-113777932D01*
X172983740Y-113835000D01*
X173276260Y-113835000D01*
X173563158Y-113777932D01*
X173833411Y-113665990D01*
X174076632Y-113503475D01*
X174208487Y-113371620D01*
X174230498Y-113444180D01*
X174289463Y-113554494D01*
X174368815Y-113651185D01*
X174465506Y-113730537D01*
X174575820Y-113789502D01*
X174695518Y-113825812D01*
X174820000Y-113838072D01*
X176520000Y-113838072D01*
X176644482Y-113825812D01*
X176764180Y-113789502D01*
X176874494Y-113730537D01*
X176971185Y-113651185D01*
X177050537Y-113554494D01*
X177109502Y-113444180D01*
X177145812Y-113324482D01*
X177158072Y-113200000D01*
X177158072Y-111500000D01*
X177145812Y-111375518D01*
X177109502Y-111255820D01*
X177050537Y-111145506D01*
X176971185Y-111048815D01*
X176874494Y-110969463D01*
X176764180Y-110910498D01*
X176644482Y-110874188D01*
X176520000Y-110861928D01*
X174820000Y-110861928D01*
X174695518Y-110874188D01*
X174575820Y-110910498D01*
X174465506Y-110969463D01*
X174368815Y-111048815D01*
X174289463Y-111145506D01*
X174230498Y-111255820D01*
X174208487Y-111328380D01*
X174076632Y-111196525D01*
X173833411Y-111034010D01*
X173563158Y-110922068D01*
X173276260Y-110865000D01*
X172983740Y-110865000D01*
X172696842Y-110922068D01*
X172426589Y-111034010D01*
X172183368Y-111196525D01*
X171976525Y-111403368D01*
X171860000Y-111577760D01*
X171743475Y-111403368D01*
X171536632Y-111196525D01*
X171293411Y-111034010D01*
X171023158Y-110922068D01*
X170736260Y-110865000D01*
X170443740Y-110865000D01*
X170156842Y-110922068D01*
X169886589Y-111034010D01*
X169643368Y-111196525D01*
X169436525Y-111403368D01*
X169274010Y-111646589D01*
X169162068Y-111916842D01*
X169105000Y-112203740D01*
X100660000Y-112203740D01*
X100660000Y-108888061D01*
X168965000Y-108888061D01*
X168965000Y-109091939D01*
X169004774Y-109291898D01*
X169082795Y-109480256D01*
X169196063Y-109649774D01*
X169340226Y-109793937D01*
X169509744Y-109907205D01*
X169698102Y-109985226D01*
X169898061Y-110025000D01*
X170101939Y-110025000D01*
X170301898Y-109985226D01*
X170490256Y-109907205D01*
X170659774Y-109793937D01*
X170803937Y-109649774D01*
X170917205Y-109480256D01*
X170995226Y-109291898D01*
X171035000Y-109091939D01*
X171035000Y-108908061D01*
X172805000Y-108908061D01*
X172805000Y-109111939D01*
X172844774Y-109311898D01*
X172922795Y-109500256D01*
X173036063Y-109669774D01*
X173180226Y-109813937D01*
X173349744Y-109927205D01*
X173538102Y-110005226D01*
X173738061Y-110045000D01*
X173941939Y-110045000D01*
X174141898Y-110005226D01*
X174330256Y-109927205D01*
X174499774Y-109813937D01*
X174643937Y-109669774D01*
X174757205Y-109500256D01*
X174835226Y-109311898D01*
X174875000Y-109111939D01*
X174875000Y-108908061D01*
X174859088Y-108828061D01*
X176885000Y-108828061D01*
X176885000Y-109031939D01*
X176924774Y-109231898D01*
X177002795Y-109420256D01*
X177116063Y-109589774D01*
X177260226Y-109733937D01*
X177429744Y-109847205D01*
X177618102Y-109925226D01*
X177818061Y-109965000D01*
X178021939Y-109965000D01*
X178221898Y-109925226D01*
X178410256Y-109847205D01*
X178579774Y-109733937D01*
X178723937Y-109589774D01*
X178837205Y-109420256D01*
X178915226Y-109231898D01*
X178955000Y-109031939D01*
X178955000Y-108828061D01*
X178915226Y-108628102D01*
X178837205Y-108439744D01*
X178723937Y-108270226D01*
X178579774Y-108126063D01*
X178410256Y-108012795D01*
X178221898Y-107934774D01*
X178021939Y-107895000D01*
X177818061Y-107895000D01*
X177618102Y-107934774D01*
X177429744Y-108012795D01*
X177260226Y-108126063D01*
X177116063Y-108270226D01*
X177002795Y-108439744D01*
X176924774Y-108628102D01*
X176885000Y-108828061D01*
X174859088Y-108828061D01*
X174835226Y-108708102D01*
X174757205Y-108519744D01*
X174643937Y-108350226D01*
X174499774Y-108206063D01*
X174330256Y-108092795D01*
X174141898Y-108014774D01*
X173941939Y-107975000D01*
X173738061Y-107975000D01*
X173538102Y-108014774D01*
X173349744Y-108092795D01*
X173180226Y-108206063D01*
X173036063Y-108350226D01*
X172922795Y-108519744D01*
X172844774Y-108708102D01*
X172805000Y-108908061D01*
X171035000Y-108908061D01*
X171035000Y-108888061D01*
X170995226Y-108688102D01*
X170917205Y-108499744D01*
X170803937Y-108330226D01*
X170659774Y-108186063D01*
X170490256Y-108072795D01*
X170301898Y-107994774D01*
X170101939Y-107955000D01*
X169898061Y-107955000D01*
X169698102Y-107994774D01*
X169509744Y-108072795D01*
X169340226Y-108186063D01*
X169196063Y-108330226D01*
X169082795Y-108499744D01*
X169004774Y-108688102D01*
X168965000Y-108888061D01*
X100660000Y-108888061D01*
X100660000Y-106177584D01*
X107022021Y-106177584D01*
X107114766Y-106439429D01*
X107400120Y-106577820D01*
X107706990Y-106657883D01*
X108023584Y-106676540D01*
X108337733Y-106633074D01*
X108637367Y-106529156D01*
X108805234Y-106439429D01*
X108897979Y-106177584D01*
X107960000Y-105239605D01*
X107022021Y-106177584D01*
X100660000Y-106177584D01*
X100660000Y-105123584D01*
X106343460Y-105123584D01*
X106386926Y-105437733D01*
X106490844Y-105737367D01*
X106580571Y-105905234D01*
X106842416Y-105997979D01*
X107780395Y-105060000D01*
X108139605Y-105060000D01*
X109077584Y-105997979D01*
X109339429Y-105905234D01*
X109477820Y-105619880D01*
X109557883Y-105313010D01*
X109576540Y-104996416D01*
X109533074Y-104682267D01*
X109429156Y-104382633D01*
X109339429Y-104214766D01*
X109077584Y-104122021D01*
X108139605Y-105060000D01*
X107780395Y-105060000D01*
X106842416Y-104122021D01*
X106580571Y-104214766D01*
X106442180Y-104500120D01*
X106362117Y-104806990D01*
X106343460Y-105123584D01*
X100660000Y-105123584D01*
X100660000Y-103942416D01*
X107022021Y-103942416D01*
X107960000Y-104880395D01*
X108897979Y-103942416D01*
X108805234Y-103680571D01*
X108519880Y-103542180D01*
X108213010Y-103462117D01*
X107896416Y-103443460D01*
X107582267Y-103486926D01*
X107282633Y-103590844D01*
X107114766Y-103680571D01*
X107022021Y-103942416D01*
X100660000Y-103942416D01*
X100660000Y-103203740D01*
X127925000Y-103203740D01*
X127925000Y-103496260D01*
X127982068Y-103783158D01*
X128094010Y-104053411D01*
X128256525Y-104296632D01*
X128463368Y-104503475D01*
X128637760Y-104620000D01*
X128463368Y-104736525D01*
X128256525Y-104943368D01*
X128094010Y-105186589D01*
X127982068Y-105456842D01*
X127925000Y-105743740D01*
X127925000Y-106036260D01*
X127982068Y-106323158D01*
X128094010Y-106593411D01*
X128256525Y-106836632D01*
X128463368Y-107043475D01*
X128706589Y-107205990D01*
X128976842Y-107317932D01*
X129263740Y-107375000D01*
X129556260Y-107375000D01*
X129843158Y-107317932D01*
X130113411Y-107205990D01*
X130356632Y-107043475D01*
X130563475Y-106836632D01*
X130680000Y-106662240D01*
X130796525Y-106836632D01*
X131003368Y-107043475D01*
X131246589Y-107205990D01*
X131516842Y-107317932D01*
X131803740Y-107375000D01*
X132096260Y-107375000D01*
X132383158Y-107317932D01*
X132653411Y-107205990D01*
X132896632Y-107043475D01*
X133103475Y-106836632D01*
X133220000Y-106662240D01*
X133336525Y-106836632D01*
X133543368Y-107043475D01*
X133786589Y-107205990D01*
X134056842Y-107317932D01*
X134343740Y-107375000D01*
X134636260Y-107375000D01*
X134923158Y-107317932D01*
X135193411Y-107205990D01*
X135436632Y-107043475D01*
X135643475Y-106836632D01*
X135760000Y-106662240D01*
X135876525Y-106836632D01*
X136083368Y-107043475D01*
X136326589Y-107205990D01*
X136596842Y-107317932D01*
X136883740Y-107375000D01*
X137176260Y-107375000D01*
X137463158Y-107317932D01*
X137733411Y-107205990D01*
X137976632Y-107043475D01*
X138183475Y-106836632D01*
X138300000Y-106662240D01*
X138416525Y-106836632D01*
X138623368Y-107043475D01*
X138866589Y-107205990D01*
X139136842Y-107317932D01*
X139423740Y-107375000D01*
X139716260Y-107375000D01*
X140003158Y-107317932D01*
X140273411Y-107205990D01*
X140516632Y-107043475D01*
X140723475Y-106836632D01*
X140840000Y-106662240D01*
X140956525Y-106836632D01*
X141163368Y-107043475D01*
X141406589Y-107205990D01*
X141676842Y-107317932D01*
X141963740Y-107375000D01*
X142256260Y-107375000D01*
X142543158Y-107317932D01*
X142813411Y-107205990D01*
X143056632Y-107043475D01*
X143263475Y-106836632D01*
X143380000Y-106662240D01*
X143496525Y-106836632D01*
X143703368Y-107043475D01*
X143946589Y-107205990D01*
X144216842Y-107317932D01*
X144503740Y-107375000D01*
X144796260Y-107375000D01*
X145083158Y-107317932D01*
X145353411Y-107205990D01*
X145596632Y-107043475D01*
X145803475Y-106836632D01*
X145920000Y-106662240D01*
X146036525Y-106836632D01*
X146243368Y-107043475D01*
X146486589Y-107205990D01*
X146756842Y-107317932D01*
X147043740Y-107375000D01*
X147336260Y-107375000D01*
X147623158Y-107317932D01*
X147893411Y-107205990D01*
X148136632Y-107043475D01*
X148343475Y-106836632D01*
X148460000Y-106662240D01*
X148576525Y-106836632D01*
X148783368Y-107043475D01*
X149026589Y-107205990D01*
X149296842Y-107317932D01*
X149583740Y-107375000D01*
X149876260Y-107375000D01*
X150163158Y-107317932D01*
X150433411Y-107205990D01*
X150676632Y-107043475D01*
X150883475Y-106836632D01*
X151000000Y-106662240D01*
X151116525Y-106836632D01*
X151323368Y-107043475D01*
X151566589Y-107205990D01*
X151836842Y-107317932D01*
X152123740Y-107375000D01*
X152416260Y-107375000D01*
X152703158Y-107317932D01*
X152973411Y-107205990D01*
X153216632Y-107043475D01*
X153423475Y-106836632D01*
X153540000Y-106662240D01*
X153656525Y-106836632D01*
X153863368Y-107043475D01*
X154106589Y-107205990D01*
X154376842Y-107317932D01*
X154663740Y-107375000D01*
X154956260Y-107375000D01*
X155243158Y-107317932D01*
X155513411Y-107205990D01*
X155756632Y-107043475D01*
X155963475Y-106836632D01*
X156080000Y-106662240D01*
X156196525Y-106836632D01*
X156403368Y-107043475D01*
X156646589Y-107205990D01*
X156916842Y-107317932D01*
X157203740Y-107375000D01*
X157496260Y-107375000D01*
X157783158Y-107317932D01*
X158053411Y-107205990D01*
X158296632Y-107043475D01*
X158503475Y-106836632D01*
X158620000Y-106662240D01*
X158736525Y-106836632D01*
X158943368Y-107043475D01*
X159186589Y-107205990D01*
X159456842Y-107317932D01*
X159743740Y-107375000D01*
X160036260Y-107375000D01*
X160323158Y-107317932D01*
X160593411Y-107205990D01*
X160836632Y-107043475D01*
X161043475Y-106836632D01*
X161160000Y-106662240D01*
X161276525Y-106836632D01*
X161483368Y-107043475D01*
X161726589Y-107205990D01*
X161996842Y-107317932D01*
X162283740Y-107375000D01*
X162576260Y-107375000D01*
X162863158Y-107317932D01*
X163133411Y-107205990D01*
X163376632Y-107043475D01*
X163583475Y-106836632D01*
X163700000Y-106662240D01*
X163816525Y-106836632D01*
X164023368Y-107043475D01*
X164266589Y-107205990D01*
X164536842Y-107317932D01*
X164823740Y-107375000D01*
X165116260Y-107375000D01*
X165403158Y-107317932D01*
X165673411Y-107205990D01*
X165916632Y-107043475D01*
X166123475Y-106836632D01*
X166240000Y-106662240D01*
X166356525Y-106836632D01*
X166563368Y-107043475D01*
X166806589Y-107205990D01*
X167076842Y-107317932D01*
X167363740Y-107375000D01*
X167656260Y-107375000D01*
X167943158Y-107317932D01*
X168213411Y-107205990D01*
X168456632Y-107043475D01*
X168663475Y-106836632D01*
X168780000Y-106662240D01*
X168896525Y-106836632D01*
X169103368Y-107043475D01*
X169346589Y-107205990D01*
X169616842Y-107317932D01*
X169903740Y-107375000D01*
X170196260Y-107375000D01*
X170483158Y-107317932D01*
X170753411Y-107205990D01*
X170996632Y-107043475D01*
X171203475Y-106836632D01*
X171320000Y-106662240D01*
X171436525Y-106836632D01*
X171643368Y-107043475D01*
X171886589Y-107205990D01*
X172156842Y-107317932D01*
X172443740Y-107375000D01*
X172736260Y-107375000D01*
X173023158Y-107317932D01*
X173293411Y-107205990D01*
X173536632Y-107043475D01*
X173743475Y-106836632D01*
X173860000Y-106662240D01*
X173976525Y-106836632D01*
X174183368Y-107043475D01*
X174426589Y-107205990D01*
X174696842Y-107317932D01*
X174983740Y-107375000D01*
X175276260Y-107375000D01*
X175563158Y-107317932D01*
X175833411Y-107205990D01*
X176076632Y-107043475D01*
X176283475Y-106836632D01*
X176400000Y-106662240D01*
X176516525Y-106836632D01*
X176723368Y-107043475D01*
X176966589Y-107205990D01*
X177236842Y-107317932D01*
X177523740Y-107375000D01*
X177816260Y-107375000D01*
X178103158Y-107317932D01*
X178373411Y-107205990D01*
X178616632Y-107043475D01*
X178823475Y-106836632D01*
X178985990Y-106593411D01*
X179097932Y-106323158D01*
X179155000Y-106036260D01*
X179155000Y-105743740D01*
X179097932Y-105456842D01*
X178985990Y-105186589D01*
X178823475Y-104943368D01*
X178691620Y-104811513D01*
X178764180Y-104789502D01*
X178874494Y-104730537D01*
X178971185Y-104651185D01*
X179050537Y-104554494D01*
X179109502Y-104444180D01*
X179145812Y-104324482D01*
X179158072Y-104200000D01*
X179158072Y-102500000D01*
X179145812Y-102375518D01*
X179109502Y-102255820D01*
X179050537Y-102145506D01*
X178971185Y-102048815D01*
X178874494Y-101969463D01*
X178764180Y-101910498D01*
X178644482Y-101874188D01*
X178520000Y-101861928D01*
X176820000Y-101861928D01*
X176695518Y-101874188D01*
X176575820Y-101910498D01*
X176465506Y-101969463D01*
X176368815Y-102048815D01*
X176289463Y-102145506D01*
X176230498Y-102255820D01*
X176208487Y-102328380D01*
X176076632Y-102196525D01*
X175833411Y-102034010D01*
X175563158Y-101922068D01*
X175276260Y-101865000D01*
X174983740Y-101865000D01*
X174696842Y-101922068D01*
X174426589Y-102034010D01*
X174183368Y-102196525D01*
X173976525Y-102403368D01*
X173860000Y-102577760D01*
X173743475Y-102403368D01*
X173536632Y-102196525D01*
X173293411Y-102034010D01*
X173023158Y-101922068D01*
X172736260Y-101865000D01*
X172443740Y-101865000D01*
X172156842Y-101922068D01*
X171886589Y-102034010D01*
X171643368Y-102196525D01*
X171436525Y-102403368D01*
X171320000Y-102577760D01*
X171203475Y-102403368D01*
X170996632Y-102196525D01*
X170753411Y-102034010D01*
X170483158Y-101922068D01*
X170196260Y-101865000D01*
X169903740Y-101865000D01*
X169616842Y-101922068D01*
X169346589Y-102034010D01*
X169103368Y-102196525D01*
X168896525Y-102403368D01*
X168780000Y-102577760D01*
X168663475Y-102403368D01*
X168456632Y-102196525D01*
X168213411Y-102034010D01*
X167943158Y-101922068D01*
X167656260Y-101865000D01*
X167363740Y-101865000D01*
X167076842Y-101922068D01*
X166806589Y-102034010D01*
X166563368Y-102196525D01*
X166356525Y-102403368D01*
X166234805Y-102585534D01*
X166165178Y-102468645D01*
X165970269Y-102252412D01*
X165736920Y-102078359D01*
X165474099Y-101953175D01*
X165326890Y-101908524D01*
X165097000Y-102029845D01*
X165097000Y-103223000D01*
X165117000Y-103223000D01*
X165117000Y-103477000D01*
X165097000Y-103477000D01*
X165097000Y-103497000D01*
X164843000Y-103497000D01*
X164843000Y-103477000D01*
X164823000Y-103477000D01*
X164823000Y-103223000D01*
X164843000Y-103223000D01*
X164843000Y-102029845D01*
X164613110Y-101908524D01*
X164465901Y-101953175D01*
X164203080Y-102078359D01*
X163969731Y-102252412D01*
X163774822Y-102468645D01*
X163705195Y-102585534D01*
X163583475Y-102403368D01*
X163376632Y-102196525D01*
X163133411Y-102034010D01*
X162863158Y-101922068D01*
X162576260Y-101865000D01*
X162283740Y-101865000D01*
X161996842Y-101922068D01*
X161726589Y-102034010D01*
X161483368Y-102196525D01*
X161276525Y-102403368D01*
X161160000Y-102577760D01*
X161043475Y-102403368D01*
X160836632Y-102196525D01*
X160593411Y-102034010D01*
X160323158Y-101922068D01*
X160036260Y-101865000D01*
X159743740Y-101865000D01*
X159456842Y-101922068D01*
X159186589Y-102034010D01*
X158943368Y-102196525D01*
X158736525Y-102403368D01*
X158620000Y-102577760D01*
X158503475Y-102403368D01*
X158296632Y-102196525D01*
X158053411Y-102034010D01*
X157783158Y-101922068D01*
X157496260Y-101865000D01*
X157203740Y-101865000D01*
X156916842Y-101922068D01*
X156646589Y-102034010D01*
X156403368Y-102196525D01*
X156196525Y-102403368D01*
X156080000Y-102577760D01*
X155963475Y-102403368D01*
X155756632Y-102196525D01*
X155513411Y-102034010D01*
X155243158Y-101922068D01*
X154956260Y-101865000D01*
X154663740Y-101865000D01*
X154376842Y-101922068D01*
X154106589Y-102034010D01*
X153863368Y-102196525D01*
X153656525Y-102403368D01*
X153540000Y-102577760D01*
X153423475Y-102403368D01*
X153216632Y-102196525D01*
X152973411Y-102034010D01*
X152703158Y-101922068D01*
X152416260Y-101865000D01*
X152123740Y-101865000D01*
X151836842Y-101922068D01*
X151566589Y-102034010D01*
X151323368Y-102196525D01*
X151116525Y-102403368D01*
X151000000Y-102577760D01*
X150883475Y-102403368D01*
X150676632Y-102196525D01*
X150433411Y-102034010D01*
X150163158Y-101922068D01*
X149876260Y-101865000D01*
X149583740Y-101865000D01*
X149296842Y-101922068D01*
X149026589Y-102034010D01*
X148783368Y-102196525D01*
X148576525Y-102403368D01*
X148460000Y-102577760D01*
X148343475Y-102403368D01*
X148136632Y-102196525D01*
X147893411Y-102034010D01*
X147623158Y-101922068D01*
X147336260Y-101865000D01*
X147043740Y-101865000D01*
X146756842Y-101922068D01*
X146486589Y-102034010D01*
X146243368Y-102196525D01*
X146036525Y-102403368D01*
X145920000Y-102577760D01*
X145803475Y-102403368D01*
X145596632Y-102196525D01*
X145353411Y-102034010D01*
X145083158Y-101922068D01*
X144796260Y-101865000D01*
X144503740Y-101865000D01*
X144216842Y-101922068D01*
X143946589Y-102034010D01*
X143703368Y-102196525D01*
X143496525Y-102403368D01*
X143380000Y-102577760D01*
X143263475Y-102403368D01*
X143056632Y-102196525D01*
X142813411Y-102034010D01*
X142543158Y-101922068D01*
X142256260Y-101865000D01*
X141963740Y-101865000D01*
X141676842Y-101922068D01*
X141406589Y-102034010D01*
X141163368Y-102196525D01*
X140956525Y-102403368D01*
X140840000Y-102577760D01*
X140723475Y-102403368D01*
X140516632Y-102196525D01*
X140273411Y-102034010D01*
X140003158Y-101922068D01*
X139716260Y-101865000D01*
X139423740Y-101865000D01*
X139136842Y-101922068D01*
X138866589Y-102034010D01*
X138623368Y-102196525D01*
X138416525Y-102403368D01*
X138300000Y-102577760D01*
X138183475Y-102403368D01*
X137976632Y-102196525D01*
X137733411Y-102034010D01*
X137463158Y-101922068D01*
X137176260Y-101865000D01*
X136883740Y-101865000D01*
X136596842Y-101922068D01*
X136326589Y-102034010D01*
X136083368Y-102196525D01*
X135876525Y-102403368D01*
X135760000Y-102577760D01*
X135643475Y-102403368D01*
X135436632Y-102196525D01*
X135193411Y-102034010D01*
X134923158Y-101922068D01*
X134636260Y-101865000D01*
X134343740Y-101865000D01*
X134056842Y-101922068D01*
X133786589Y-102034010D01*
X133543368Y-102196525D01*
X133336525Y-102403368D01*
X133220000Y-102577760D01*
X133103475Y-102403368D01*
X132896632Y-102196525D01*
X132653411Y-102034010D01*
X132383158Y-101922068D01*
X132096260Y-101865000D01*
X131803740Y-101865000D01*
X131516842Y-101922068D01*
X131246589Y-102034010D01*
X131003368Y-102196525D01*
X130796525Y-102403368D01*
X130680000Y-102577760D01*
X130563475Y-102403368D01*
X130356632Y-102196525D01*
X130113411Y-102034010D01*
X129843158Y-101922068D01*
X129556260Y-101865000D01*
X129263740Y-101865000D01*
X128976842Y-101922068D01*
X128706589Y-102034010D01*
X128463368Y-102196525D01*
X128256525Y-102403368D01*
X128094010Y-102646589D01*
X127982068Y-102916842D01*
X127925000Y-103203740D01*
X100660000Y-103203740D01*
X100660000Y-101401429D01*
X106350000Y-101401429D01*
X106350000Y-101718571D01*
X106411871Y-102029620D01*
X106533237Y-102322621D01*
X106709431Y-102586315D01*
X106933685Y-102810569D01*
X107197379Y-102986763D01*
X107490380Y-103108129D01*
X107801429Y-103170000D01*
X108118571Y-103170000D01*
X108429620Y-103108129D01*
X108722621Y-102986763D01*
X108986315Y-102810569D01*
X109210569Y-102586315D01*
X109386763Y-102322621D01*
X109508129Y-102029620D01*
X109570000Y-101718571D01*
X109570000Y-101401429D01*
X109508129Y-101090380D01*
X109386763Y-100797379D01*
X109210569Y-100533685D01*
X108986315Y-100309431D01*
X108722621Y-100133237D01*
X108429620Y-100011871D01*
X108118571Y-99950000D01*
X107801429Y-99950000D01*
X107490380Y-100011871D01*
X107197379Y-100133237D01*
X106933685Y-100309431D01*
X106709431Y-100533685D01*
X106533237Y-100797379D01*
X106411871Y-101090380D01*
X106350000Y-101401429D01*
X100660000Y-101401429D01*
X100660000Y-97701429D01*
X106350000Y-97701429D01*
X106350000Y-98018571D01*
X106411871Y-98329620D01*
X106533237Y-98622621D01*
X106709431Y-98886315D01*
X106933685Y-99110569D01*
X107197379Y-99286763D01*
X107490380Y-99408129D01*
X107801429Y-99470000D01*
X108118571Y-99470000D01*
X108429620Y-99408129D01*
X108722621Y-99286763D01*
X108986315Y-99110569D01*
X109210569Y-98886315D01*
X109386763Y-98622621D01*
X109508129Y-98329620D01*
X109570000Y-98018571D01*
X109570000Y-97701429D01*
X109508129Y-97390380D01*
X109386763Y-97097379D01*
X109210569Y-96833685D01*
X108986315Y-96609431D01*
X108722621Y-96433237D01*
X108429620Y-96311871D01*
X108118571Y-96250000D01*
X107801429Y-96250000D01*
X107490380Y-96311871D01*
X107197379Y-96433237D01*
X106933685Y-96609431D01*
X106709431Y-96833685D01*
X106533237Y-97097379D01*
X106411871Y-97390380D01*
X106350000Y-97701429D01*
X100660000Y-97701429D01*
X100660000Y-94201429D01*
X106350000Y-94201429D01*
X106350000Y-94518571D01*
X106411871Y-94829620D01*
X106533237Y-95122621D01*
X106709431Y-95386315D01*
X106933685Y-95610569D01*
X107197379Y-95786763D01*
X107490380Y-95908129D01*
X107801429Y-95970000D01*
X108118571Y-95970000D01*
X108429620Y-95908129D01*
X108722621Y-95786763D01*
X108986315Y-95610569D01*
X109210569Y-95386315D01*
X109386763Y-95122621D01*
X109508129Y-94829620D01*
X109570000Y-94518571D01*
X109570000Y-94201429D01*
X109508129Y-93890380D01*
X109386763Y-93597379D01*
X109380537Y-93588061D01*
X170675000Y-93588061D01*
X170675000Y-93791939D01*
X170714774Y-93991898D01*
X170792795Y-94180256D01*
X170906063Y-94349774D01*
X171050226Y-94493937D01*
X171219744Y-94607205D01*
X171408102Y-94685226D01*
X171608061Y-94725000D01*
X171811939Y-94725000D01*
X172011898Y-94685226D01*
X172200256Y-94607205D01*
X172369774Y-94493937D01*
X172513937Y-94349774D01*
X172627205Y-94180256D01*
X172705226Y-93991898D01*
X172745000Y-93791939D01*
X172745000Y-93638061D01*
X175425000Y-93638061D01*
X175425000Y-93841939D01*
X175464774Y-94041898D01*
X175542795Y-94230256D01*
X175656063Y-94399774D01*
X175800226Y-94543937D01*
X175969744Y-94657205D01*
X176158102Y-94735226D01*
X176358061Y-94775000D01*
X176561939Y-94775000D01*
X176761898Y-94735226D01*
X176950256Y-94657205D01*
X177119774Y-94543937D01*
X177263937Y-94399774D01*
X177377205Y-94230256D01*
X177455226Y-94041898D01*
X177495000Y-93841939D01*
X177495000Y-93638061D01*
X177455226Y-93438102D01*
X177377205Y-93249744D01*
X177263937Y-93080226D01*
X177119774Y-92936063D01*
X176950256Y-92822795D01*
X176761898Y-92744774D01*
X176561939Y-92705000D01*
X176358061Y-92705000D01*
X176158102Y-92744774D01*
X175969744Y-92822795D01*
X175800226Y-92936063D01*
X175656063Y-93080226D01*
X175542795Y-93249744D01*
X175464774Y-93438102D01*
X175425000Y-93638061D01*
X172745000Y-93638061D01*
X172745000Y-93588061D01*
X172705226Y-93388102D01*
X172627205Y-93199744D01*
X172513937Y-93030226D01*
X172369774Y-92886063D01*
X172200256Y-92772795D01*
X172011898Y-92694774D01*
X171811939Y-92655000D01*
X171608061Y-92655000D01*
X171408102Y-92694774D01*
X171219744Y-92772795D01*
X171050226Y-92886063D01*
X170906063Y-93030226D01*
X170792795Y-93199744D01*
X170714774Y-93388102D01*
X170675000Y-93588061D01*
X109380537Y-93588061D01*
X109210569Y-93333685D01*
X108986315Y-93109431D01*
X108722621Y-92933237D01*
X108429620Y-92811871D01*
X108118571Y-92750000D01*
X107801429Y-92750000D01*
X107490380Y-92811871D01*
X107197379Y-92933237D01*
X106933685Y-93109431D01*
X106709431Y-93333685D01*
X106533237Y-93597379D01*
X106411871Y-93890380D01*
X106350000Y-94201429D01*
X100660000Y-94201429D01*
X100660000Y-90368061D01*
X170675000Y-90368061D01*
X170675000Y-90571939D01*
X170714774Y-90771898D01*
X170792795Y-90960256D01*
X170906063Y-91129774D01*
X171050226Y-91273937D01*
X171219744Y-91387205D01*
X171408102Y-91465226D01*
X171608061Y-91505000D01*
X171811939Y-91505000D01*
X172011898Y-91465226D01*
X172200256Y-91387205D01*
X172369774Y-91273937D01*
X172513937Y-91129774D01*
X172627205Y-90960256D01*
X172705226Y-90771898D01*
X172745000Y-90571939D01*
X172745000Y-90368061D01*
X175375000Y-90368061D01*
X175375000Y-90571939D01*
X175414774Y-90771898D01*
X175492795Y-90960256D01*
X175606063Y-91129774D01*
X175750226Y-91273937D01*
X175919744Y-91387205D01*
X176108102Y-91465226D01*
X176308061Y-91505000D01*
X176511939Y-91505000D01*
X176711898Y-91465226D01*
X176900256Y-91387205D01*
X177069774Y-91273937D01*
X177213937Y-91129774D01*
X177327205Y-90960256D01*
X177405226Y-90771898D01*
X177445000Y-90571939D01*
X177445000Y-90368061D01*
X177405226Y-90168102D01*
X177327205Y-89979744D01*
X177213937Y-89810226D01*
X177069774Y-89666063D01*
X176900256Y-89552795D01*
X176711898Y-89474774D01*
X176511939Y-89435000D01*
X176308061Y-89435000D01*
X176108102Y-89474774D01*
X175919744Y-89552795D01*
X175750226Y-89666063D01*
X175606063Y-89810226D01*
X175492795Y-89979744D01*
X175414774Y-90168102D01*
X175375000Y-90368061D01*
X172745000Y-90368061D01*
X172705226Y-90168102D01*
X172627205Y-89979744D01*
X172513937Y-89810226D01*
X172369774Y-89666063D01*
X172200256Y-89552795D01*
X172011898Y-89474774D01*
X171811939Y-89435000D01*
X171608061Y-89435000D01*
X171408102Y-89474774D01*
X171219744Y-89552795D01*
X171050226Y-89666063D01*
X170906063Y-89810226D01*
X170792795Y-89979744D01*
X170714774Y-90168102D01*
X170675000Y-90368061D01*
X100660000Y-90368061D01*
X100660000Y-82203740D01*
X127925000Y-82203740D01*
X127925000Y-82496260D01*
X127982068Y-82783158D01*
X128094010Y-83053411D01*
X128256525Y-83296632D01*
X128463368Y-83503475D01*
X128637760Y-83620000D01*
X128463368Y-83736525D01*
X128256525Y-83943368D01*
X128094010Y-84186589D01*
X127982068Y-84456842D01*
X127925000Y-84743740D01*
X127925000Y-85036260D01*
X127982068Y-85323158D01*
X128094010Y-85593411D01*
X128256525Y-85836632D01*
X128463368Y-86043475D01*
X128706589Y-86205990D01*
X128976842Y-86317932D01*
X129263740Y-86375000D01*
X129556260Y-86375000D01*
X129843158Y-86317932D01*
X130113411Y-86205990D01*
X130356632Y-86043475D01*
X130563475Y-85836632D01*
X130680000Y-85662240D01*
X130796525Y-85836632D01*
X131003368Y-86043475D01*
X131246589Y-86205990D01*
X131516842Y-86317932D01*
X131803740Y-86375000D01*
X132096260Y-86375000D01*
X132383158Y-86317932D01*
X132653411Y-86205990D01*
X132896632Y-86043475D01*
X133103475Y-85836632D01*
X133220000Y-85662240D01*
X133336525Y-85836632D01*
X133543368Y-86043475D01*
X133786589Y-86205990D01*
X134056842Y-86317932D01*
X134343740Y-86375000D01*
X134636260Y-86375000D01*
X134923158Y-86317932D01*
X135193411Y-86205990D01*
X135436632Y-86043475D01*
X135643475Y-85836632D01*
X135760000Y-85662240D01*
X135876525Y-85836632D01*
X136083368Y-86043475D01*
X136326589Y-86205990D01*
X136596842Y-86317932D01*
X136883740Y-86375000D01*
X137176260Y-86375000D01*
X137463158Y-86317932D01*
X137733411Y-86205990D01*
X137976632Y-86043475D01*
X138183475Y-85836632D01*
X138300000Y-85662240D01*
X138416525Y-85836632D01*
X138623368Y-86043475D01*
X138866589Y-86205990D01*
X139136842Y-86317932D01*
X139423740Y-86375000D01*
X139716260Y-86375000D01*
X140003158Y-86317932D01*
X140273411Y-86205990D01*
X140516632Y-86043475D01*
X140723475Y-85836632D01*
X140840000Y-85662240D01*
X140956525Y-85836632D01*
X141163368Y-86043475D01*
X141406589Y-86205990D01*
X141676842Y-86317932D01*
X141963740Y-86375000D01*
X142256260Y-86375000D01*
X142543158Y-86317932D01*
X142813411Y-86205990D01*
X143056632Y-86043475D01*
X143263475Y-85836632D01*
X143380000Y-85662240D01*
X143496525Y-85836632D01*
X143703368Y-86043475D01*
X143946589Y-86205990D01*
X144216842Y-86317932D01*
X144503740Y-86375000D01*
X144796260Y-86375000D01*
X145083158Y-86317932D01*
X145353411Y-86205990D01*
X145596632Y-86043475D01*
X145803475Y-85836632D01*
X145920000Y-85662240D01*
X146036525Y-85836632D01*
X146243368Y-86043475D01*
X146486589Y-86205990D01*
X146756842Y-86317932D01*
X147043740Y-86375000D01*
X147336260Y-86375000D01*
X147623158Y-86317932D01*
X147893411Y-86205990D01*
X148136632Y-86043475D01*
X148343475Y-85836632D01*
X148460000Y-85662240D01*
X148576525Y-85836632D01*
X148783368Y-86043475D01*
X149026589Y-86205990D01*
X149296842Y-86317932D01*
X149583740Y-86375000D01*
X149876260Y-86375000D01*
X150163158Y-86317932D01*
X150433411Y-86205990D01*
X150676632Y-86043475D01*
X150883475Y-85836632D01*
X151000000Y-85662240D01*
X151116525Y-85836632D01*
X151323368Y-86043475D01*
X151566589Y-86205990D01*
X151836842Y-86317932D01*
X152123740Y-86375000D01*
X152416260Y-86375000D01*
X152703158Y-86317932D01*
X152973411Y-86205990D01*
X153216632Y-86043475D01*
X153423475Y-85836632D01*
X153540000Y-85662240D01*
X153656525Y-85836632D01*
X153863368Y-86043475D01*
X154106589Y-86205990D01*
X154376842Y-86317932D01*
X154663740Y-86375000D01*
X154956260Y-86375000D01*
X155243158Y-86317932D01*
X155513411Y-86205990D01*
X155756632Y-86043475D01*
X155963475Y-85836632D01*
X156080000Y-85662240D01*
X156196525Y-85836632D01*
X156403368Y-86043475D01*
X156646589Y-86205990D01*
X156916842Y-86317932D01*
X157203740Y-86375000D01*
X157496260Y-86375000D01*
X157783158Y-86317932D01*
X158053411Y-86205990D01*
X158296632Y-86043475D01*
X158503475Y-85836632D01*
X158620000Y-85662240D01*
X158736525Y-85836632D01*
X158943368Y-86043475D01*
X159186589Y-86205990D01*
X159456842Y-86317932D01*
X159743740Y-86375000D01*
X160036260Y-86375000D01*
X160323158Y-86317932D01*
X160593411Y-86205990D01*
X160836632Y-86043475D01*
X161043475Y-85836632D01*
X161160000Y-85662240D01*
X161276525Y-85836632D01*
X161483368Y-86043475D01*
X161726589Y-86205990D01*
X161996842Y-86317932D01*
X162283740Y-86375000D01*
X162576260Y-86375000D01*
X162863158Y-86317932D01*
X163133411Y-86205990D01*
X163376632Y-86043475D01*
X163583475Y-85836632D01*
X163700000Y-85662240D01*
X163816525Y-85836632D01*
X164023368Y-86043475D01*
X164266589Y-86205990D01*
X164536842Y-86317932D01*
X164823740Y-86375000D01*
X165116260Y-86375000D01*
X165403158Y-86317932D01*
X165673411Y-86205990D01*
X165916632Y-86043475D01*
X166123475Y-85836632D01*
X166240000Y-85662240D01*
X166356525Y-85836632D01*
X166563368Y-86043475D01*
X166806589Y-86205990D01*
X167076842Y-86317932D01*
X167363740Y-86375000D01*
X167656260Y-86375000D01*
X167943158Y-86317932D01*
X168213411Y-86205990D01*
X168456632Y-86043475D01*
X168663475Y-85836632D01*
X168780000Y-85662240D01*
X168896525Y-85836632D01*
X169103368Y-86043475D01*
X169346589Y-86205990D01*
X169616842Y-86317932D01*
X169903740Y-86375000D01*
X170196260Y-86375000D01*
X170483158Y-86317932D01*
X170753411Y-86205990D01*
X170996632Y-86043475D01*
X171203475Y-85836632D01*
X171320000Y-85662240D01*
X171436525Y-85836632D01*
X171643368Y-86043475D01*
X171886589Y-86205990D01*
X172156842Y-86317932D01*
X172443740Y-86375000D01*
X172736260Y-86375000D01*
X173023158Y-86317932D01*
X173293411Y-86205990D01*
X173536632Y-86043475D01*
X173743475Y-85836632D01*
X173860000Y-85662240D01*
X173976525Y-85836632D01*
X174183368Y-86043475D01*
X174426589Y-86205990D01*
X174696842Y-86317932D01*
X174983740Y-86375000D01*
X175276260Y-86375000D01*
X175563158Y-86317932D01*
X175833411Y-86205990D01*
X176076632Y-86043475D01*
X176283475Y-85836632D01*
X176400000Y-85662240D01*
X176516525Y-85836632D01*
X176723368Y-86043475D01*
X176966589Y-86205990D01*
X177236842Y-86317932D01*
X177523740Y-86375000D01*
X177816260Y-86375000D01*
X178103158Y-86317932D01*
X178373411Y-86205990D01*
X178616632Y-86043475D01*
X178823475Y-85836632D01*
X178985990Y-85593411D01*
X179097932Y-85323158D01*
X179155000Y-85036260D01*
X179155000Y-84743740D01*
X179097932Y-84456842D01*
X178985990Y-84186589D01*
X178823475Y-83943368D01*
X178691620Y-83811513D01*
X178764180Y-83789502D01*
X178874494Y-83730537D01*
X178971185Y-83651185D01*
X179050537Y-83554494D01*
X179109502Y-83444180D01*
X179145812Y-83324482D01*
X179158072Y-83200000D01*
X179158072Y-81500000D01*
X179145812Y-81375518D01*
X179109502Y-81255820D01*
X179050537Y-81145506D01*
X178971185Y-81048815D01*
X178874494Y-80969463D01*
X178764180Y-80910498D01*
X178644482Y-80874188D01*
X178520000Y-80861928D01*
X176820000Y-80861928D01*
X176695518Y-80874188D01*
X176575820Y-80910498D01*
X176465506Y-80969463D01*
X176368815Y-81048815D01*
X176289463Y-81145506D01*
X176230498Y-81255820D01*
X176208487Y-81328380D01*
X176076632Y-81196525D01*
X175833411Y-81034010D01*
X175563158Y-80922068D01*
X175276260Y-80865000D01*
X174983740Y-80865000D01*
X174696842Y-80922068D01*
X174426589Y-81034010D01*
X174183368Y-81196525D01*
X173976525Y-81403368D01*
X173860000Y-81577760D01*
X173743475Y-81403368D01*
X173536632Y-81196525D01*
X173293411Y-81034010D01*
X173023158Y-80922068D01*
X172736260Y-80865000D01*
X172443740Y-80865000D01*
X172156842Y-80922068D01*
X171886589Y-81034010D01*
X171643368Y-81196525D01*
X171436525Y-81403368D01*
X171320000Y-81577760D01*
X171203475Y-81403368D01*
X170996632Y-81196525D01*
X170753411Y-81034010D01*
X170483158Y-80922068D01*
X170196260Y-80865000D01*
X169903740Y-80865000D01*
X169616842Y-80922068D01*
X169346589Y-81034010D01*
X169103368Y-81196525D01*
X168896525Y-81403368D01*
X168780000Y-81577760D01*
X168663475Y-81403368D01*
X168456632Y-81196525D01*
X168213411Y-81034010D01*
X167943158Y-80922068D01*
X167656260Y-80865000D01*
X167363740Y-80865000D01*
X167076842Y-80922068D01*
X166806589Y-81034010D01*
X166563368Y-81196525D01*
X166356525Y-81403368D01*
X166234805Y-81585534D01*
X166165178Y-81468645D01*
X165970269Y-81252412D01*
X165736920Y-81078359D01*
X165474099Y-80953175D01*
X165326890Y-80908524D01*
X165097000Y-81029845D01*
X165097000Y-82223000D01*
X165117000Y-82223000D01*
X165117000Y-82477000D01*
X165097000Y-82477000D01*
X165097000Y-82497000D01*
X164843000Y-82497000D01*
X164843000Y-82477000D01*
X164823000Y-82477000D01*
X164823000Y-82223000D01*
X164843000Y-82223000D01*
X164843000Y-81029845D01*
X164613110Y-80908524D01*
X164465901Y-80953175D01*
X164203080Y-81078359D01*
X163969731Y-81252412D01*
X163774822Y-81468645D01*
X163705195Y-81585534D01*
X163583475Y-81403368D01*
X163376632Y-81196525D01*
X163133411Y-81034010D01*
X162863158Y-80922068D01*
X162576260Y-80865000D01*
X162283740Y-80865000D01*
X161996842Y-80922068D01*
X161726589Y-81034010D01*
X161483368Y-81196525D01*
X161276525Y-81403368D01*
X161160000Y-81577760D01*
X161043475Y-81403368D01*
X160836632Y-81196525D01*
X160593411Y-81034010D01*
X160323158Y-80922068D01*
X160036260Y-80865000D01*
X159743740Y-80865000D01*
X159456842Y-80922068D01*
X159186589Y-81034010D01*
X158943368Y-81196525D01*
X158736525Y-81403368D01*
X158620000Y-81577760D01*
X158503475Y-81403368D01*
X158296632Y-81196525D01*
X158053411Y-81034010D01*
X157783158Y-80922068D01*
X157496260Y-80865000D01*
X157203740Y-80865000D01*
X156916842Y-80922068D01*
X156646589Y-81034010D01*
X156403368Y-81196525D01*
X156196525Y-81403368D01*
X156080000Y-81577760D01*
X155963475Y-81403368D01*
X155756632Y-81196525D01*
X155513411Y-81034010D01*
X155243158Y-80922068D01*
X154956260Y-80865000D01*
X154663740Y-80865000D01*
X154376842Y-80922068D01*
X154106589Y-81034010D01*
X153863368Y-81196525D01*
X153656525Y-81403368D01*
X153540000Y-81577760D01*
X153423475Y-81403368D01*
X153216632Y-81196525D01*
X152973411Y-81034010D01*
X152703158Y-80922068D01*
X152416260Y-80865000D01*
X152123740Y-80865000D01*
X151836842Y-80922068D01*
X151566589Y-81034010D01*
X151323368Y-81196525D01*
X151116525Y-81403368D01*
X151000000Y-81577760D01*
X150883475Y-81403368D01*
X150676632Y-81196525D01*
X150433411Y-81034010D01*
X150163158Y-80922068D01*
X149876260Y-80865000D01*
X149583740Y-80865000D01*
X149296842Y-80922068D01*
X149026589Y-81034010D01*
X148783368Y-81196525D01*
X148576525Y-81403368D01*
X148460000Y-81577760D01*
X148343475Y-81403368D01*
X148136632Y-81196525D01*
X147893411Y-81034010D01*
X147623158Y-80922068D01*
X147336260Y-80865000D01*
X147043740Y-80865000D01*
X146756842Y-80922068D01*
X146486589Y-81034010D01*
X146243368Y-81196525D01*
X146036525Y-81403368D01*
X145920000Y-81577760D01*
X145803475Y-81403368D01*
X145596632Y-81196525D01*
X145353411Y-81034010D01*
X145083158Y-80922068D01*
X144796260Y-80865000D01*
X144503740Y-80865000D01*
X144216842Y-80922068D01*
X143946589Y-81034010D01*
X143703368Y-81196525D01*
X143496525Y-81403368D01*
X143380000Y-81577760D01*
X143263475Y-81403368D01*
X143056632Y-81196525D01*
X142813411Y-81034010D01*
X142543158Y-80922068D01*
X142256260Y-80865000D01*
X141963740Y-80865000D01*
X141676842Y-80922068D01*
X141406589Y-81034010D01*
X141163368Y-81196525D01*
X140956525Y-81403368D01*
X140840000Y-81577760D01*
X140723475Y-81403368D01*
X140516632Y-81196525D01*
X140273411Y-81034010D01*
X140003158Y-80922068D01*
X139716260Y-80865000D01*
X139423740Y-80865000D01*
X139136842Y-80922068D01*
X138866589Y-81034010D01*
X138623368Y-81196525D01*
X138416525Y-81403368D01*
X138300000Y-81577760D01*
X138183475Y-81403368D01*
X137976632Y-81196525D01*
X137733411Y-81034010D01*
X137463158Y-80922068D01*
X137176260Y-80865000D01*
X136883740Y-80865000D01*
X136596842Y-80922068D01*
X136326589Y-81034010D01*
X136083368Y-81196525D01*
X135876525Y-81403368D01*
X135760000Y-81577760D01*
X135643475Y-81403368D01*
X135436632Y-81196525D01*
X135193411Y-81034010D01*
X134923158Y-80922068D01*
X134636260Y-80865000D01*
X134343740Y-80865000D01*
X134056842Y-80922068D01*
X133786589Y-81034010D01*
X133543368Y-81196525D01*
X133336525Y-81403368D01*
X133220000Y-81577760D01*
X133103475Y-81403368D01*
X132896632Y-81196525D01*
X132653411Y-81034010D01*
X132383158Y-80922068D01*
X132096260Y-80865000D01*
X131803740Y-80865000D01*
X131516842Y-80922068D01*
X131246589Y-81034010D01*
X131003368Y-81196525D01*
X130796525Y-81403368D01*
X130680000Y-81577760D01*
X130563475Y-81403368D01*
X130356632Y-81196525D01*
X130113411Y-81034010D01*
X129843158Y-80922068D01*
X129556260Y-80865000D01*
X129263740Y-80865000D01*
X128976842Y-80922068D01*
X128706589Y-81034010D01*
X128463368Y-81196525D01*
X128256525Y-81403368D01*
X128094010Y-81646589D01*
X127982068Y-81916842D01*
X127925000Y-82203740D01*
X100660000Y-82203740D01*
X100660000Y-80660000D01*
X179340000Y-80660000D01*
X179340001Y-171340000D01*
G37*
X179340001Y-171340000D02*
X100660000Y-171340000D01*
X100660000Y-167706003D01*
X101015000Y-167706003D01*
X101015000Y-168293997D01*
X101129712Y-168870692D01*
X101354727Y-169413928D01*
X101681399Y-169902826D01*
X102097174Y-170318601D01*
X102586072Y-170645273D01*
X103129308Y-170870288D01*
X103706003Y-170985000D01*
X104293997Y-170985000D01*
X104870692Y-170870288D01*
X105413928Y-170645273D01*
X105902826Y-170318601D01*
X106318601Y-169902826D01*
X106645273Y-169413928D01*
X106870288Y-168870692D01*
X106985000Y-168293997D01*
X106985000Y-167706003D01*
X106870288Y-167129308D01*
X106645273Y-166586072D01*
X106318601Y-166097174D01*
X105902826Y-165681399D01*
X105413928Y-165354727D01*
X104870692Y-165129712D01*
X104614012Y-165078655D01*
X114644900Y-165078655D01*
X114644900Y-165361345D01*
X114700050Y-165638603D01*
X114808231Y-165899775D01*
X114965285Y-166134823D01*
X115165177Y-166334715D01*
X115397578Y-166490000D01*
X115165177Y-166645285D01*
X114965285Y-166845177D01*
X114808231Y-167080225D01*
X114700050Y-167341397D01*
X114644900Y-167618655D01*
X114644900Y-167901345D01*
X114700050Y-168178603D01*
X114808231Y-168439775D01*
X114965285Y-168674823D01*
X115165177Y-168874715D01*
X115400225Y-169031769D01*
X115661397Y-169139950D01*
X115938655Y-169195100D01*
X116221345Y-169195100D01*
X116498603Y-169139950D01*
X116759775Y-169031769D01*
X116994823Y-168874715D01*
X117194715Y-168674823D01*
X117350000Y-168442422D01*
X117505285Y-168674823D01*
X117705177Y-168874715D01*
X117940225Y-169031769D01*
X118201397Y-169139950D01*
X118478655Y-169195100D01*
X118761345Y-169195100D01*
X119038603Y-169139950D01*
X119299775Y-169031769D01*
X119534823Y-168874715D01*
X119734715Y-168674823D01*
X119890000Y-168442422D01*
X120045285Y-168674823D01*
X120245177Y-168874715D01*
X120480225Y-169031769D01*
X120741397Y-169139950D01*
X121018655Y-169195100D01*
X121301345Y-169195100D01*
X121578603Y-169139950D01*
X121839775Y-169031769D01*
X122074823Y-168874715D01*
X122274715Y-168674823D01*
X122430000Y-168442422D01*
X122585285Y-168674823D01*
X122785177Y-168874715D01*
X123020225Y-169031769D01*
X123281397Y-169139950D01*
X123558655Y-169195100D01*
X123841345Y-169195100D01*
X124118603Y-169139950D01*
X124379775Y-169031769D01*
X124614823Y-168874715D01*
X124814715Y-168674823D01*
X124970000Y-168442422D01*
X125125285Y-168674823D01*
X125325177Y-168874715D01*
X125560225Y-169031769D01*
X125821397Y-169139950D01*
X126098655Y-169195100D01*
X126381345Y-169195100D01*
X126658603Y-169139950D01*
X126919775Y-169031769D01*
X127154823Y-168874715D01*
X127354715Y-168674823D01*
X127510000Y-168442422D01*
X127665285Y-168674823D01*
X127865177Y-168874715D01*
X128100225Y-169031769D01*
X128361397Y-169139950D01*
X128638655Y-169195100D01*
X128921345Y-169195100D01*
X129198603Y-169139950D01*
X129459775Y-169031769D01*
X129694823Y-168874715D01*
X129894715Y-168674823D01*
X130050000Y-168442422D01*
X130205285Y-168674823D01*
X130405177Y-168874715D01*
X130640225Y-169031769D01*
X130901397Y-169139950D01*
X131178655Y-169195100D01*
X131461345Y-169195100D01*
X131738603Y-169139950D01*
X131999775Y-169031769D01*
X132234823Y-168874715D01*
X132434715Y-168674823D01*
X132590000Y-168442422D01*
X132745285Y-168674823D01*
X132945177Y-168874715D01*
X133180225Y-169031769D01*
X133441397Y-169139950D01*
X133718655Y-169195100D01*
X134001345Y-169195100D01*
X134278603Y-169139950D01*
X134539775Y-169031769D01*
X134774823Y-168874715D01*
X134974715Y-168674823D01*
X135130000Y-168442422D01*
X135285285Y-168674823D01*
X135485177Y-168874715D01*
X135720225Y-169031769D01*
X135981397Y-169139950D01*
X136258655Y-169195100D01*
X136541345Y-169195100D01*
X136818603Y-169139950D01*
X137079775Y-169031769D01*
X137314823Y-168874715D01*
X137514715Y-168674823D01*
X137670000Y-168442422D01*
X137825285Y-168674823D01*
X138025177Y-168874715D01*
X138260225Y-169031769D01*
X138521397Y-169139950D01*
X138798655Y-169195100D01*
X139081345Y-169195100D01*
X139358603Y-169139950D01*
X139619775Y-169031769D01*
X139854823Y-168874715D01*
X140054715Y-168674823D01*
X140210000Y-168442422D01*
X140365285Y-168674823D01*
X140565177Y-168874715D01*
X140800225Y-169031769D01*
X141061397Y-169139950D01*
X141338655Y-169195100D01*
X141621345Y-169195100D01*
X141898603Y-169139950D01*
X142159775Y-169031769D01*
X142394823Y-168874715D01*
X142594715Y-168674823D01*
X142750000Y-168442422D01*
X142905285Y-168674823D01*
X143105177Y-168874715D01*
X143340225Y-169031769D01*
X143601397Y-169139950D01*
X143878655Y-169195100D01*
X144161345Y-169195100D01*
X144438603Y-169139950D01*
X144699775Y-169031769D01*
X144934823Y-168874715D01*
X145134715Y-168674823D01*
X145290000Y-168442422D01*
X145445285Y-168674823D01*
X145645177Y-168874715D01*
X145880225Y-169031769D01*
X146141397Y-169139950D01*
X146418655Y-169195100D01*
X146701345Y-169195100D01*
X146978603Y-169139950D01*
X147239775Y-169031769D01*
X147474823Y-168874715D01*
X147674715Y-168674823D01*
X147830000Y-168442422D01*
X147985285Y-168674823D01*
X148185177Y-168874715D01*
X148420225Y-169031769D01*
X148681397Y-169139950D01*
X148958655Y-169195100D01*
X149241345Y-169195100D01*
X149518603Y-169139950D01*
X149779775Y-169031769D01*
X150014823Y-168874715D01*
X150214715Y-168674823D01*
X150370000Y-168442422D01*
X150525285Y-168674823D01*
X150725177Y-168874715D01*
X150960225Y-169031769D01*
X151221397Y-169139950D01*
X151498655Y-169195100D01*
X151781345Y-169195100D01*
X152058603Y-169139950D01*
X152319775Y-169031769D01*
X152554823Y-168874715D01*
X152754715Y-168674823D01*
X152910000Y-168442422D01*
X153065285Y-168674823D01*
X153265177Y-168874715D01*
X153500225Y-169031769D01*
X153761397Y-169139950D01*
X154038655Y-169195100D01*
X154321345Y-169195100D01*
X154598603Y-169139950D01*
X154859775Y-169031769D01*
X155094823Y-168874715D01*
X155294715Y-168674823D01*
X155450000Y-168442422D01*
X155605285Y-168674823D01*
X155805177Y-168874715D01*
X156040225Y-169031769D01*
X156301397Y-169139950D01*
X156578655Y-169195100D01*
X156861345Y-169195100D01*
X157138603Y-169139950D01*
X157399775Y-169031769D01*
X157634823Y-168874715D01*
X157834715Y-168674823D01*
X157990000Y-168442422D01*
X158145285Y-168674823D01*
X158345177Y-168874715D01*
X158580225Y-169031769D01*
X158841397Y-169139950D01*
X159118655Y-169195100D01*
X159401345Y-169195100D01*
X159678603Y-169139950D01*
X159939775Y-169031769D01*
X160174823Y-168874715D01*
X160296764Y-168752774D01*
X160986831Y-168752774D01*
X161058426Y-168996754D01*
X161313954Y-169117664D01*
X161588161Y-169186400D01*
X161870508Y-169200320D01*
X162150147Y-169158889D01*
X162416328Y-169063700D01*
X162541574Y-168996754D01*
X162613169Y-168752774D01*
X161800000Y-167939605D01*
X160986831Y-168752774D01*
X160296764Y-168752774D01*
X160374715Y-168674823D01*
X160530905Y-168441068D01*
X160563246Y-168501574D01*
X160807226Y-168573169D01*
X161620395Y-167760000D01*
X160807226Y-166946831D01*
X160563246Y-167018426D01*
X160532812Y-167082744D01*
X160531769Y-167080225D01*
X160374715Y-166845177D01*
X160174823Y-166645285D01*
X159942422Y-166490000D01*
X160174823Y-166334715D01*
X160374715Y-166134823D01*
X160530000Y-165902422D01*
X160685285Y-166134823D01*
X160885177Y-166334715D01*
X161118932Y-166490905D01*
X161058426Y-166523246D01*
X160986831Y-166767226D01*
X161800000Y-167580395D01*
X162613169Y-166767226D01*
X162541574Y-166523246D01*
X162477256Y-166492812D01*
X162479775Y-166491769D01*
X162714823Y-166334715D01*
X162914715Y-166134823D01*
X163070000Y-165902422D01*
X163225285Y-166134823D01*
X163425177Y-166334715D01*
X163657578Y-166490000D01*
X163425177Y-166645285D01*
X163225285Y-166845177D01*
X163069095Y-167078932D01*
X163036754Y-167018426D01*
X162792774Y-166946831D01*
X161979605Y-167760000D01*
X162792774Y-168573169D01*
X163036754Y-168501574D01*
X163067188Y-168437256D01*
X163068231Y-168439775D01*
X163225285Y-168674823D01*
X163425177Y-168874715D01*
X163660225Y-169031769D01*
X163921397Y-169139950D01*
X164198655Y-169195100D01*
X164481345Y-169195100D01*
X164758603Y-169139950D01*
X165019775Y-169031769D01*
X165254823Y-168874715D01*
X165454715Y-168674823D01*
X165611769Y-168439775D01*
X165719950Y-168178603D01*
X165775100Y-167901345D01*
X165775100Y-167706003D01*
X173015000Y-167706003D01*
X173015000Y-168293997D01*
X173129712Y-168870692D01*
X173354727Y-169413928D01*
X173681399Y-169902826D01*
X174097174Y-170318601D01*
X174586072Y-170645273D01*
X175129308Y-170870288D01*
X175706003Y-170985000D01*
X176293997Y-170985000D01*
X176870692Y-170870288D01*
X177413928Y-170645273D01*
X177902826Y-170318601D01*
X178318601Y-169902826D01*
X178645273Y-169413928D01*
X178870288Y-168870692D01*
X178985000Y-168293997D01*
X178985000Y-167706003D01*
X178870288Y-167129308D01*
X178645273Y-166586072D01*
X178318601Y-166097174D01*
X177902826Y-165681399D01*
X177413928Y-165354727D01*
X176870692Y-165129712D01*
X176293997Y-165015000D01*
X175706003Y-165015000D01*
X175129308Y-165129712D01*
X174586072Y-165354727D01*
X174097174Y-165681399D01*
X173681399Y-166097174D01*
X173354727Y-166586072D01*
X173129712Y-167129308D01*
X173015000Y-167706003D01*
X165775100Y-167706003D01*
X165775100Y-167618655D01*
X165719950Y-167341397D01*
X165611769Y-167080225D01*
X165454715Y-166845177D01*
X165254823Y-166645285D01*
X165022422Y-166490000D01*
X165254823Y-166334715D01*
X165454715Y-166134823D01*
X165611769Y-165899775D01*
X165719950Y-165638603D01*
X165775100Y-165361345D01*
X165775100Y-165078655D01*
X165719950Y-164801397D01*
X165611769Y-164540225D01*
X165454715Y-164305177D01*
X165254823Y-164105285D01*
X165019775Y-163948231D01*
X164758603Y-163840050D01*
X164481345Y-163784900D01*
X164198655Y-163784900D01*
X163921397Y-163840050D01*
X163660225Y-163948231D01*
X163425177Y-164105285D01*
X163225285Y-164305177D01*
X163070000Y-164537578D01*
X162914715Y-164305177D01*
X162714823Y-164105285D01*
X162479775Y-163948231D01*
X162218603Y-163840050D01*
X161941345Y-163784900D01*
X161658655Y-163784900D01*
X161381397Y-163840050D01*
X161120225Y-163948231D01*
X160885177Y-164105285D01*
X160685285Y-164305177D01*
X160530000Y-164537578D01*
X160374715Y-164305177D01*
X160174823Y-164105285D01*
X159939775Y-163948231D01*
X159678603Y-163840050D01*
X159401345Y-163784900D01*
X159118655Y-163784900D01*
X158841397Y-163840050D01*
X158580225Y-163948231D01*
X158345177Y-164105285D01*
X158145285Y-164305177D01*
X157990000Y-164537578D01*
X157834715Y-164305177D01*
X157634823Y-164105285D01*
X157399775Y-163948231D01*
X157138603Y-163840050D01*
X156861345Y-163784900D01*
X156578655Y-163784900D01*
X156301397Y-163840050D01*
X156040225Y-163948231D01*
X155805177Y-164105285D01*
X155605285Y-164305177D01*
X155450000Y-164537578D01*
X155294715Y-164305177D01*
X155094823Y-164105285D01*
X154859775Y-163948231D01*
X154598603Y-163840050D01*
X154321345Y-163784900D01*
X154038655Y-163784900D01*
X153761397Y-163840050D01*
X153500225Y-163948231D01*
X153265177Y-164105285D01*
X153065285Y-164305177D01*
X152910000Y-164537578D01*
X152754715Y-164305177D01*
X152554823Y-164105285D01*
X152319775Y-163948231D01*
X152058603Y-163840050D01*
X151781345Y-163784900D01*
X151498655Y-163784900D01*
X151221397Y-163840050D01*
X150960225Y-163948231D01*
X150725177Y-164105285D01*
X150525285Y-164305177D01*
X150370000Y-164537578D01*
X150214715Y-164305177D01*
X150014823Y-164105285D01*
X149779775Y-163948231D01*
X149518603Y-163840050D01*
X149241345Y-163784900D01*
X148958655Y-163784900D01*
X148681397Y-163840050D01*
X148420225Y-163948231D01*
X148185177Y-164105285D01*
X147985285Y-164305177D01*
X147830000Y-164537578D01*
X147674715Y-164305177D01*
X147474823Y-164105285D01*
X147239775Y-163948231D01*
X146978603Y-163840050D01*
X146701345Y-163784900D01*
X146418655Y-163784900D01*
X146141397Y-163840050D01*
X145880225Y-163948231D01*
X145645177Y-164105285D01*
X145445285Y-164305177D01*
X145290000Y-164537578D01*
X145134715Y-164305177D01*
X144934823Y-164105285D01*
X144699775Y-163948231D01*
X144438603Y-163840050D01*
X144161345Y-163784900D01*
X143878655Y-163784900D01*
X143601397Y-163840050D01*
X143340225Y-163948231D01*
X143105177Y-164105285D01*
X142905285Y-164305177D01*
X142750000Y-164537578D01*
X142594715Y-164305177D01*
X142394823Y-164105285D01*
X142159775Y-163948231D01*
X141898603Y-163840050D01*
X141621345Y-163784900D01*
X141338655Y-163784900D01*
X141061397Y-163840050D01*
X140800225Y-163948231D01*
X140565177Y-164105285D01*
X140365285Y-164305177D01*
X140210000Y-164537578D01*
X140054715Y-164305177D01*
X139854823Y-164105285D01*
X139619775Y-163948231D01*
X139358603Y-163840050D01*
X139081345Y-163784900D01*
X138798655Y-163784900D01*
X138521397Y-163840050D01*
X138260225Y-163948231D01*
X138025177Y-164105285D01*
X137825285Y-164305177D01*
X137670000Y-164537578D01*
X137514715Y-164305177D01*
X137314823Y-164105285D01*
X137079775Y-163948231D01*
X136818603Y-163840050D01*
X136541345Y-163784900D01*
X136258655Y-163784900D01*
X135981397Y-163840050D01*
X135720225Y-163948231D01*
X135485177Y-164105285D01*
X135285285Y-164305177D01*
X135130000Y-164537578D01*
X134974715Y-164305177D01*
X134774823Y-164105285D01*
X134539775Y-163948231D01*
X134278603Y-163840050D01*
X134001345Y-163784900D01*
X133718655Y-163784900D01*
X133441397Y-163840050D01*
X133180225Y-163948231D01*
X132945177Y-164105285D01*
X132745285Y-164305177D01*
X132590000Y-164537578D01*
X132434715Y-164305177D01*
X132234823Y-164105285D01*
X131999775Y-163948231D01*
X131738603Y-163840050D01*
X131461345Y-163784900D01*
X131178655Y-163784900D01*
X130901397Y-163840050D01*
X130640225Y-163948231D01*
X130405177Y-164105285D01*
X130205285Y-164305177D01*
X130050000Y-164537578D01*
X129894715Y-164305177D01*
X129694823Y-164105285D01*
X129459775Y-163948231D01*
X129198603Y-163840050D01*
X128921345Y-163784900D01*
X128638655Y-163784900D01*
X128361397Y-163840050D01*
X128100225Y-163948231D01*
X127865177Y-164105285D01*
X127665285Y-164305177D01*
X127510000Y-164537578D01*
X127354715Y-164305177D01*
X127154823Y-164105285D01*
X126919775Y-163948231D01*
X126658603Y-163840050D01*
X126381345Y-163784900D01*
X126098655Y-163784900D01*
X125821397Y-163840050D01*
X125560225Y-163948231D01*
X125325177Y-164105285D01*
X125125285Y-164305177D01*
X124970000Y-164537578D01*
X124814715Y-164305177D01*
X124614823Y-164105285D01*
X124379775Y-163948231D01*
X124118603Y-163840050D01*
X123841345Y-163784900D01*
X123558655Y-163784900D01*
X123281397Y-163840050D01*
X123020225Y-163948231D01*
X122785177Y-164105285D01*
X122585285Y-164305177D01*
X122430000Y-164537578D01*
X122274715Y-164305177D01*
X122074823Y-164105285D01*
X121839775Y-163948231D01*
X121578603Y-163840050D01*
X121301345Y-163784900D01*
X121018655Y-163784900D01*
X120741397Y-163840050D01*
X120480225Y-163948231D01*
X120245177Y-164105285D01*
X120045285Y-164305177D01*
X119890000Y-164537578D01*
X119734715Y-164305177D01*
X119534823Y-164105285D01*
X119299775Y-163948231D01*
X119038603Y-163840050D01*
X118761345Y-163784900D01*
X118478655Y-163784900D01*
X118201397Y-163840050D01*
X117940225Y-163948231D01*
X117705177Y-164105285D01*
X117505285Y-164305177D01*
X117350000Y-164537578D01*
X117194715Y-164305177D01*
X116994823Y-164105285D01*
X116759775Y-163948231D01*
X116498603Y-163840050D01*
X116221345Y-163784900D01*
X115938655Y-163784900D01*
X115661397Y-163840050D01*
X115400225Y-163948231D01*
X115165177Y-164105285D01*
X114965285Y-164305177D01*
X114808231Y-164540225D01*
X114700050Y-164801397D01*
X114644900Y-165078655D01*
X104614012Y-165078655D01*
X104293997Y-165015000D01*
X103706003Y-165015000D01*
X103129308Y-165129712D01*
X102586072Y-165354727D01*
X102097174Y-165681399D01*
X101681399Y-166097174D01*
X101354727Y-166586072D01*
X101129712Y-167129308D01*
X101015000Y-167706003D01*
X100660000Y-167706003D01*
X100660000Y-134158061D01*
X176845000Y-134158061D01*
X176845000Y-134361939D01*
X176884774Y-134561898D01*
X176962795Y-134750256D01*
X177076063Y-134919774D01*
X177220226Y-135063937D01*
X177389744Y-135177205D01*
X177578102Y-135255226D01*
X177778061Y-135295000D01*
X177981939Y-135295000D01*
X178181898Y-135255226D01*
X178370256Y-135177205D01*
X178539774Y-135063937D01*
X178683937Y-134919774D01*
X178797205Y-134750256D01*
X178875226Y-134561898D01*
X178915000Y-134361939D01*
X178915000Y-134158061D01*
X178875226Y-133958102D01*
X178797205Y-133769744D01*
X178683937Y-133600226D01*
X178539774Y-133456063D01*
X178370256Y-133342795D01*
X178181898Y-133264774D01*
X177981939Y-133225000D01*
X177778061Y-133225000D01*
X177578102Y-133264774D01*
X177389744Y-133342795D01*
X177220226Y-133456063D01*
X177076063Y-133600226D01*
X176962795Y-133769744D01*
X176884774Y-133958102D01*
X176845000Y-134158061D01*
X100660000Y-134158061D01*
X100660000Y-130303740D01*
X169105000Y-130303740D01*
X169105000Y-130596260D01*
X169162068Y-130883158D01*
X169274010Y-131153411D01*
X169436525Y-131396632D01*
X169643368Y-131603475D01*
X169886589Y-131765990D01*
X170156842Y-131877932D01*
X170443740Y-131935000D01*
X170736260Y-131935000D01*
X171023158Y-131877932D01*
X171293411Y-131765990D01*
X171536632Y-131603475D01*
X171743475Y-131396632D01*
X171860000Y-131222240D01*
X171976525Y-131396632D01*
X172183368Y-131603475D01*
X172426589Y-131765990D01*
X172696842Y-131877932D01*
X172983740Y-131935000D01*
X173276260Y-131935000D01*
X173563158Y-131877932D01*
X173833411Y-131765990D01*
X174076632Y-131603475D01*
X174208487Y-131471620D01*
X174230498Y-131544180D01*
X174289463Y-131654494D01*
X174368815Y-131751185D01*
X174465506Y-131830537D01*
X174575820Y-131889502D01*
X174695518Y-131925812D01*
X174820000Y-131938072D01*
X175384250Y-131935000D01*
X175543000Y-131776250D01*
X175543000Y-130577000D01*
X175797000Y-130577000D01*
X175797000Y-131776250D01*
X175955750Y-131935000D01*
X176520000Y-131938072D01*
X176644482Y-131925812D01*
X176764180Y-131889502D01*
X176874494Y-131830537D01*
X176971185Y-131751185D01*
X177050537Y-131654494D01*
X177109502Y-131544180D01*
X177145812Y-131424482D01*
X177158072Y-131300000D01*
X177155000Y-130735750D01*
X176996250Y-130577000D01*
X175797000Y-130577000D01*
X175543000Y-130577000D01*
X175523000Y-130577000D01*
X175523000Y-130323000D01*
X175543000Y-130323000D01*
X175543000Y-129123750D01*
X175797000Y-129123750D01*
X175797000Y-130323000D01*
X176996250Y-130323000D01*
X177155000Y-130164250D01*
X177158072Y-129600000D01*
X177145812Y-129475518D01*
X177109502Y-129355820D01*
X177050537Y-129245506D01*
X176971185Y-129148815D01*
X176874494Y-129069463D01*
X176764180Y-129010498D01*
X176644482Y-128974188D01*
X176520000Y-128961928D01*
X175955750Y-128965000D01*
X175797000Y-129123750D01*
X175543000Y-129123750D01*
X175384250Y-128965000D01*
X174820000Y-128961928D01*
X174695518Y-128974188D01*
X174575820Y-129010498D01*
X174465506Y-129069463D01*
X174368815Y-129148815D01*
X174289463Y-129245506D01*
X174230498Y-129355820D01*
X174208487Y-129428380D01*
X174076632Y-129296525D01*
X173833411Y-129134010D01*
X173563158Y-129022068D01*
X173276260Y-128965000D01*
X172983740Y-128965000D01*
X172696842Y-129022068D01*
X172426589Y-129134010D01*
X172183368Y-129296525D01*
X171976525Y-129503368D01*
X171860000Y-129677760D01*
X171743475Y-129503368D01*
X171536632Y-129296525D01*
X171293411Y-129134010D01*
X171023158Y-129022068D01*
X170736260Y-128965000D01*
X170443740Y-128965000D01*
X170156842Y-129022068D01*
X169886589Y-129134010D01*
X169643368Y-129296525D01*
X169436525Y-129503368D01*
X169274010Y-129746589D01*
X169162068Y-130016842D01*
X169105000Y-130303740D01*
X100660000Y-130303740D01*
X100660000Y-112203740D01*
X169105000Y-112203740D01*
X169105000Y-112496260D01*
X169162068Y-112783158D01*
X169274010Y-113053411D01*
X169436525Y-113296632D01*
X169643368Y-113503475D01*
X169886589Y-113665990D01*
X170156842Y-113777932D01*
X170443740Y-113835000D01*
X170736260Y-113835000D01*
X171023158Y-113777932D01*
X171293411Y-113665990D01*
X171536632Y-113503475D01*
X171743475Y-113296632D01*
X171860000Y-113122240D01*
X171976525Y-113296632D01*
X172183368Y-113503475D01*
X172426589Y-113665990D01*
X172696842Y-113777932D01*
X172983740Y-113835000D01*
X173276260Y-113835000D01*
X173563158Y-113777932D01*
X173833411Y-113665990D01*
X174076632Y-113503475D01*
X174208487Y-113371620D01*
X174230498Y-113444180D01*
X174289463Y-113554494D01*
X174368815Y-113651185D01*
X174465506Y-113730537D01*
X174575820Y-113789502D01*
X174695518Y-113825812D01*
X174820000Y-113838072D01*
X176520000Y-113838072D01*
X176644482Y-113825812D01*
X176764180Y-113789502D01*
X176874494Y-113730537D01*
X176971185Y-113651185D01*
X177050537Y-113554494D01*
X177109502Y-113444180D01*
X177145812Y-113324482D01*
X177158072Y-113200000D01*
X177158072Y-111500000D01*
X177145812Y-111375518D01*
X177109502Y-111255820D01*
X177050537Y-111145506D01*
X176971185Y-111048815D01*
X176874494Y-110969463D01*
X176764180Y-110910498D01*
X176644482Y-110874188D01*
X176520000Y-110861928D01*
X174820000Y-110861928D01*
X174695518Y-110874188D01*
X174575820Y-110910498D01*
X174465506Y-110969463D01*
X174368815Y-111048815D01*
X174289463Y-111145506D01*
X174230498Y-111255820D01*
X174208487Y-111328380D01*
X174076632Y-111196525D01*
X173833411Y-111034010D01*
X173563158Y-110922068D01*
X173276260Y-110865000D01*
X172983740Y-110865000D01*
X172696842Y-110922068D01*
X172426589Y-111034010D01*
X172183368Y-111196525D01*
X171976525Y-111403368D01*
X171860000Y-111577760D01*
X171743475Y-111403368D01*
X171536632Y-111196525D01*
X171293411Y-111034010D01*
X171023158Y-110922068D01*
X170736260Y-110865000D01*
X170443740Y-110865000D01*
X170156842Y-110922068D01*
X169886589Y-111034010D01*
X169643368Y-111196525D01*
X169436525Y-111403368D01*
X169274010Y-111646589D01*
X169162068Y-111916842D01*
X169105000Y-112203740D01*
X100660000Y-112203740D01*
X100660000Y-108888061D01*
X168965000Y-108888061D01*
X168965000Y-109091939D01*
X169004774Y-109291898D01*
X169082795Y-109480256D01*
X169196063Y-109649774D01*
X169340226Y-109793937D01*
X169509744Y-109907205D01*
X169698102Y-109985226D01*
X169898061Y-110025000D01*
X170101939Y-110025000D01*
X170301898Y-109985226D01*
X170490256Y-109907205D01*
X170659774Y-109793937D01*
X170803937Y-109649774D01*
X170917205Y-109480256D01*
X170995226Y-109291898D01*
X171035000Y-109091939D01*
X171035000Y-108908061D01*
X172805000Y-108908061D01*
X172805000Y-109111939D01*
X172844774Y-109311898D01*
X172922795Y-109500256D01*
X173036063Y-109669774D01*
X173180226Y-109813937D01*
X173349744Y-109927205D01*
X173538102Y-110005226D01*
X173738061Y-110045000D01*
X173941939Y-110045000D01*
X174141898Y-110005226D01*
X174330256Y-109927205D01*
X174499774Y-109813937D01*
X174643937Y-109669774D01*
X174757205Y-109500256D01*
X174835226Y-109311898D01*
X174875000Y-109111939D01*
X174875000Y-108908061D01*
X174859088Y-108828061D01*
X176885000Y-108828061D01*
X176885000Y-109031939D01*
X176924774Y-109231898D01*
X177002795Y-109420256D01*
X177116063Y-109589774D01*
X177260226Y-109733937D01*
X177429744Y-109847205D01*
X177618102Y-109925226D01*
X177818061Y-109965000D01*
X178021939Y-109965000D01*
X178221898Y-109925226D01*
X178410256Y-109847205D01*
X178579774Y-109733937D01*
X178723937Y-109589774D01*
X178837205Y-109420256D01*
X178915226Y-109231898D01*
X178955000Y-109031939D01*
X178955000Y-108828061D01*
X178915226Y-108628102D01*
X178837205Y-108439744D01*
X178723937Y-108270226D01*
X178579774Y-108126063D01*
X178410256Y-108012795D01*
X178221898Y-107934774D01*
X178021939Y-107895000D01*
X177818061Y-107895000D01*
X177618102Y-107934774D01*
X177429744Y-108012795D01*
X177260226Y-108126063D01*
X177116063Y-108270226D01*
X177002795Y-108439744D01*
X176924774Y-108628102D01*
X176885000Y-108828061D01*
X174859088Y-108828061D01*
X174835226Y-108708102D01*
X174757205Y-108519744D01*
X174643937Y-108350226D01*
X174499774Y-108206063D01*
X174330256Y-108092795D01*
X174141898Y-108014774D01*
X173941939Y-107975000D01*
X173738061Y-107975000D01*
X173538102Y-108014774D01*
X173349744Y-108092795D01*
X173180226Y-108206063D01*
X173036063Y-108350226D01*
X172922795Y-108519744D01*
X172844774Y-108708102D01*
X172805000Y-108908061D01*
X171035000Y-108908061D01*
X171035000Y-108888061D01*
X170995226Y-108688102D01*
X170917205Y-108499744D01*
X170803937Y-108330226D01*
X170659774Y-108186063D01*
X170490256Y-108072795D01*
X170301898Y-107994774D01*
X170101939Y-107955000D01*
X169898061Y-107955000D01*
X169698102Y-107994774D01*
X169509744Y-108072795D01*
X169340226Y-108186063D01*
X169196063Y-108330226D01*
X169082795Y-108499744D01*
X169004774Y-108688102D01*
X168965000Y-108888061D01*
X100660000Y-108888061D01*
X100660000Y-106177584D01*
X107022021Y-106177584D01*
X107114766Y-106439429D01*
X107400120Y-106577820D01*
X107706990Y-106657883D01*
X108023584Y-106676540D01*
X108337733Y-106633074D01*
X108637367Y-106529156D01*
X108805234Y-106439429D01*
X108897979Y-106177584D01*
X107960000Y-105239605D01*
X107022021Y-106177584D01*
X100660000Y-106177584D01*
X100660000Y-105123584D01*
X106343460Y-105123584D01*
X106386926Y-105437733D01*
X106490844Y-105737367D01*
X106580571Y-105905234D01*
X106842416Y-105997979D01*
X107780395Y-105060000D01*
X108139605Y-105060000D01*
X109077584Y-105997979D01*
X109339429Y-105905234D01*
X109477820Y-105619880D01*
X109557883Y-105313010D01*
X109576540Y-104996416D01*
X109533074Y-104682267D01*
X109429156Y-104382633D01*
X109339429Y-104214766D01*
X109077584Y-104122021D01*
X108139605Y-105060000D01*
X107780395Y-105060000D01*
X106842416Y-104122021D01*
X106580571Y-104214766D01*
X106442180Y-104500120D01*
X106362117Y-104806990D01*
X106343460Y-105123584D01*
X100660000Y-105123584D01*
X100660000Y-103942416D01*
X107022021Y-103942416D01*
X107960000Y-104880395D01*
X108897979Y-103942416D01*
X108805234Y-103680571D01*
X108519880Y-103542180D01*
X108213010Y-103462117D01*
X107896416Y-103443460D01*
X107582267Y-103486926D01*
X107282633Y-103590844D01*
X107114766Y-103680571D01*
X107022021Y-103942416D01*
X100660000Y-103942416D01*
X100660000Y-103203740D01*
X127925000Y-103203740D01*
X127925000Y-103496260D01*
X127982068Y-103783158D01*
X128094010Y-104053411D01*
X128256525Y-104296632D01*
X128463368Y-104503475D01*
X128637760Y-104620000D01*
X128463368Y-104736525D01*
X128256525Y-104943368D01*
X128094010Y-105186589D01*
X127982068Y-105456842D01*
X127925000Y-105743740D01*
X127925000Y-106036260D01*
X127982068Y-106323158D01*
X128094010Y-106593411D01*
X128256525Y-106836632D01*
X128463368Y-107043475D01*
X128706589Y-107205990D01*
X128976842Y-107317932D01*
X129263740Y-107375000D01*
X129556260Y-107375000D01*
X129843158Y-107317932D01*
X130113411Y-107205990D01*
X130356632Y-107043475D01*
X130563475Y-106836632D01*
X130680000Y-106662240D01*
X130796525Y-106836632D01*
X131003368Y-107043475D01*
X131246589Y-107205990D01*
X131516842Y-107317932D01*
X131803740Y-107375000D01*
X132096260Y-107375000D01*
X132383158Y-107317932D01*
X132653411Y-107205990D01*
X132896632Y-107043475D01*
X133103475Y-106836632D01*
X133220000Y-106662240D01*
X133336525Y-106836632D01*
X133543368Y-107043475D01*
X133786589Y-107205990D01*
X134056842Y-107317932D01*
X134343740Y-107375000D01*
X134636260Y-107375000D01*
X134923158Y-107317932D01*
X135193411Y-107205990D01*
X135436632Y-107043475D01*
X135643475Y-106836632D01*
X135760000Y-106662240D01*
X135876525Y-106836632D01*
X136083368Y-107043475D01*
X136326589Y-107205990D01*
X136596842Y-107317932D01*
X136883740Y-107375000D01*
X137176260Y-107375000D01*
X137463158Y-107317932D01*
X137733411Y-107205990D01*
X137976632Y-107043475D01*
X138183475Y-106836632D01*
X138300000Y-106662240D01*
X138416525Y-106836632D01*
X138623368Y-107043475D01*
X138866589Y-107205990D01*
X139136842Y-107317932D01*
X139423740Y-107375000D01*
X139716260Y-107375000D01*
X140003158Y-107317932D01*
X140273411Y-107205990D01*
X140516632Y-107043475D01*
X140723475Y-106836632D01*
X140840000Y-106662240D01*
X140956525Y-106836632D01*
X141163368Y-107043475D01*
X141406589Y-107205990D01*
X141676842Y-107317932D01*
X141963740Y-107375000D01*
X142256260Y-107375000D01*
X142543158Y-107317932D01*
X142813411Y-107205990D01*
X143056632Y-107043475D01*
X143263475Y-106836632D01*
X143380000Y-106662240D01*
X143496525Y-106836632D01*
X143703368Y-107043475D01*
X143946589Y-107205990D01*
X144216842Y-107317932D01*
X144503740Y-107375000D01*
X144796260Y-107375000D01*
X145083158Y-107317932D01*
X145353411Y-107205990D01*
X145596632Y-107043475D01*
X145803475Y-106836632D01*
X145920000Y-106662240D01*
X146036525Y-106836632D01*
X146243368Y-107043475D01*
X146486589Y-107205990D01*
X146756842Y-107317932D01*
X147043740Y-107375000D01*
X147336260Y-107375000D01*
X147623158Y-107317932D01*
X147893411Y-107205990D01*
X148136632Y-107043475D01*
X148343475Y-106836632D01*
X148460000Y-106662240D01*
X148576525Y-106836632D01*
X148783368Y-107043475D01*
X149026589Y-107205990D01*
X149296842Y-107317932D01*
X149583740Y-107375000D01*
X149876260Y-107375000D01*
X150163158Y-107317932D01*
X150433411Y-107205990D01*
X150676632Y-107043475D01*
X150883475Y-106836632D01*
X151000000Y-106662240D01*
X151116525Y-106836632D01*
X151323368Y-107043475D01*
X151566589Y-107205990D01*
X151836842Y-107317932D01*
X152123740Y-107375000D01*
X152416260Y-107375000D01*
X152703158Y-107317932D01*
X152973411Y-107205990D01*
X153216632Y-107043475D01*
X153423475Y-106836632D01*
X153540000Y-106662240D01*
X153656525Y-106836632D01*
X153863368Y-107043475D01*
X154106589Y-107205990D01*
X154376842Y-107317932D01*
X154663740Y-107375000D01*
X154956260Y-107375000D01*
X155243158Y-107317932D01*
X155513411Y-107205990D01*
X155756632Y-107043475D01*
X155963475Y-106836632D01*
X156080000Y-106662240D01*
X156196525Y-106836632D01*
X156403368Y-107043475D01*
X156646589Y-107205990D01*
X156916842Y-107317932D01*
X157203740Y-107375000D01*
X157496260Y-107375000D01*
X157783158Y-107317932D01*
X158053411Y-107205990D01*
X158296632Y-107043475D01*
X158503475Y-106836632D01*
X158620000Y-106662240D01*
X158736525Y-106836632D01*
X158943368Y-107043475D01*
X159186589Y-107205990D01*
X159456842Y-107317932D01*
X159743740Y-107375000D01*
X160036260Y-107375000D01*
X160323158Y-107317932D01*
X160593411Y-107205990D01*
X160836632Y-107043475D01*
X161043475Y-106836632D01*
X161160000Y-106662240D01*
X161276525Y-106836632D01*
X161483368Y-107043475D01*
X161726589Y-107205990D01*
X161996842Y-107317932D01*
X162283740Y-107375000D01*
X162576260Y-107375000D01*
X162863158Y-107317932D01*
X163133411Y-107205990D01*
X163376632Y-107043475D01*
X163583475Y-106836632D01*
X163700000Y-106662240D01*
X163816525Y-106836632D01*
X164023368Y-107043475D01*
X164266589Y-107205990D01*
X164536842Y-107317932D01*
X164823740Y-107375000D01*
X165116260Y-107375000D01*
X165403158Y-107317932D01*
X165673411Y-107205990D01*
X165916632Y-107043475D01*
X166123475Y-106836632D01*
X166240000Y-106662240D01*
X166356525Y-106836632D01*
X166563368Y-107043475D01*
X166806589Y-107205990D01*
X167076842Y-107317932D01*
X167363740Y-107375000D01*
X167656260Y-107375000D01*
X167943158Y-107317932D01*
X168213411Y-107205990D01*
X168456632Y-107043475D01*
X168663475Y-106836632D01*
X168780000Y-106662240D01*
X168896525Y-106836632D01*
X169103368Y-107043475D01*
X169346589Y-107205990D01*
X169616842Y-107317932D01*
X169903740Y-107375000D01*
X170196260Y-107375000D01*
X170483158Y-107317932D01*
X170753411Y-107205990D01*
X170996632Y-107043475D01*
X171203475Y-106836632D01*
X171320000Y-106662240D01*
X171436525Y-106836632D01*
X171643368Y-107043475D01*
X171886589Y-107205990D01*
X172156842Y-107317932D01*
X172443740Y-107375000D01*
X172736260Y-107375000D01*
X173023158Y-107317932D01*
X173293411Y-107205990D01*
X173536632Y-107043475D01*
X173743475Y-106836632D01*
X173860000Y-106662240D01*
X173976525Y-106836632D01*
X174183368Y-107043475D01*
X174426589Y-107205990D01*
X174696842Y-107317932D01*
X174983740Y-107375000D01*
X175276260Y-107375000D01*
X175563158Y-107317932D01*
X175833411Y-107205990D01*
X176076632Y-107043475D01*
X176283475Y-106836632D01*
X176400000Y-106662240D01*
X176516525Y-106836632D01*
X176723368Y-107043475D01*
X176966589Y-107205990D01*
X177236842Y-107317932D01*
X177523740Y-107375000D01*
X177816260Y-107375000D01*
X178103158Y-107317932D01*
X178373411Y-107205990D01*
X178616632Y-107043475D01*
X178823475Y-106836632D01*
X178985990Y-106593411D01*
X179097932Y-106323158D01*
X179155000Y-106036260D01*
X179155000Y-105743740D01*
X179097932Y-105456842D01*
X178985990Y-105186589D01*
X178823475Y-104943368D01*
X178691620Y-104811513D01*
X178764180Y-104789502D01*
X178874494Y-104730537D01*
X178971185Y-104651185D01*
X179050537Y-104554494D01*
X179109502Y-104444180D01*
X179145812Y-104324482D01*
X179158072Y-104200000D01*
X179158072Y-102500000D01*
X179145812Y-102375518D01*
X179109502Y-102255820D01*
X179050537Y-102145506D01*
X178971185Y-102048815D01*
X178874494Y-101969463D01*
X178764180Y-101910498D01*
X178644482Y-101874188D01*
X178520000Y-101861928D01*
X176820000Y-101861928D01*
X176695518Y-101874188D01*
X176575820Y-101910498D01*
X176465506Y-101969463D01*
X176368815Y-102048815D01*
X176289463Y-102145506D01*
X176230498Y-102255820D01*
X176208487Y-102328380D01*
X176076632Y-102196525D01*
X175833411Y-102034010D01*
X175563158Y-101922068D01*
X175276260Y-101865000D01*
X174983740Y-101865000D01*
X174696842Y-101922068D01*
X174426589Y-102034010D01*
X174183368Y-102196525D01*
X173976525Y-102403368D01*
X173860000Y-102577760D01*
X173743475Y-102403368D01*
X173536632Y-102196525D01*
X173293411Y-102034010D01*
X173023158Y-101922068D01*
X172736260Y-101865000D01*
X172443740Y-101865000D01*
X172156842Y-101922068D01*
X171886589Y-102034010D01*
X171643368Y-102196525D01*
X171436525Y-102403368D01*
X171320000Y-102577760D01*
X171203475Y-102403368D01*
X170996632Y-102196525D01*
X170753411Y-102034010D01*
X170483158Y-101922068D01*
X170196260Y-101865000D01*
X169903740Y-101865000D01*
X169616842Y-101922068D01*
X169346589Y-102034010D01*
X169103368Y-102196525D01*
X168896525Y-102403368D01*
X168780000Y-102577760D01*
X168663475Y-102403368D01*
X168456632Y-102196525D01*
X168213411Y-102034010D01*
X167943158Y-101922068D01*
X167656260Y-101865000D01*
X167363740Y-101865000D01*
X167076842Y-101922068D01*
X166806589Y-102034010D01*
X166563368Y-102196525D01*
X166356525Y-102403368D01*
X166234805Y-102585534D01*
X166165178Y-102468645D01*
X165970269Y-102252412D01*
X165736920Y-102078359D01*
X165474099Y-101953175D01*
X165326890Y-101908524D01*
X165097000Y-102029845D01*
X165097000Y-103223000D01*
X165117000Y-103223000D01*
X165117000Y-103477000D01*
X165097000Y-103477000D01*
X165097000Y-103497000D01*
X164843000Y-103497000D01*
X164843000Y-103477000D01*
X164823000Y-103477000D01*
X164823000Y-103223000D01*
X164843000Y-103223000D01*
X164843000Y-102029845D01*
X164613110Y-101908524D01*
X164465901Y-101953175D01*
X164203080Y-102078359D01*
X163969731Y-102252412D01*
X163774822Y-102468645D01*
X163705195Y-102585534D01*
X163583475Y-102403368D01*
X163376632Y-102196525D01*
X163133411Y-102034010D01*
X162863158Y-101922068D01*
X162576260Y-101865000D01*
X162283740Y-101865000D01*
X161996842Y-101922068D01*
X161726589Y-102034010D01*
X161483368Y-102196525D01*
X161276525Y-102403368D01*
X161160000Y-102577760D01*
X161043475Y-102403368D01*
X160836632Y-102196525D01*
X160593411Y-102034010D01*
X160323158Y-101922068D01*
X160036260Y-101865000D01*
X159743740Y-101865000D01*
X159456842Y-101922068D01*
X159186589Y-102034010D01*
X158943368Y-102196525D01*
X158736525Y-102403368D01*
X158620000Y-102577760D01*
X158503475Y-102403368D01*
X158296632Y-102196525D01*
X158053411Y-102034010D01*
X157783158Y-101922068D01*
X157496260Y-101865000D01*
X157203740Y-101865000D01*
X156916842Y-101922068D01*
X156646589Y-102034010D01*
X156403368Y-102196525D01*
X156196525Y-102403368D01*
X156080000Y-102577760D01*
X155963475Y-102403368D01*
X155756632Y-102196525D01*
X155513411Y-102034010D01*
X155243158Y-101922068D01*
X154956260Y-101865000D01*
X154663740Y-101865000D01*
X154376842Y-101922068D01*
X154106589Y-102034010D01*
X153863368Y-102196525D01*
X153656525Y-102403368D01*
X153540000Y-102577760D01*
X153423475Y-102403368D01*
X153216632Y-102196525D01*
X152973411Y-102034010D01*
X152703158Y-101922068D01*
X152416260Y-101865000D01*
X152123740Y-101865000D01*
X151836842Y-101922068D01*
X151566589Y-102034010D01*
X151323368Y-102196525D01*
X151116525Y-102403368D01*
X151000000Y-102577760D01*
X150883475Y-102403368D01*
X150676632Y-102196525D01*
X150433411Y-102034010D01*
X150163158Y-101922068D01*
X149876260Y-101865000D01*
X149583740Y-101865000D01*
X149296842Y-101922068D01*
X149026589Y-102034010D01*
X148783368Y-102196525D01*
X148576525Y-102403368D01*
X148460000Y-102577760D01*
X148343475Y-102403368D01*
X148136632Y-102196525D01*
X147893411Y-102034010D01*
X147623158Y-101922068D01*
X147336260Y-101865000D01*
X147043740Y-101865000D01*
X146756842Y-101922068D01*
X146486589Y-102034010D01*
X146243368Y-102196525D01*
X146036525Y-102403368D01*
X145920000Y-102577760D01*
X145803475Y-102403368D01*
X145596632Y-102196525D01*
X145353411Y-102034010D01*
X145083158Y-101922068D01*
X144796260Y-101865000D01*
X144503740Y-101865000D01*
X144216842Y-101922068D01*
X143946589Y-102034010D01*
X143703368Y-102196525D01*
X143496525Y-102403368D01*
X143380000Y-102577760D01*
X143263475Y-102403368D01*
X143056632Y-102196525D01*
X142813411Y-102034010D01*
X142543158Y-101922068D01*
X142256260Y-101865000D01*
X141963740Y-101865000D01*
X141676842Y-101922068D01*
X141406589Y-102034010D01*
X141163368Y-102196525D01*
X140956525Y-102403368D01*
X140840000Y-102577760D01*
X140723475Y-102403368D01*
X140516632Y-102196525D01*
X140273411Y-102034010D01*
X140003158Y-101922068D01*
X139716260Y-101865000D01*
X139423740Y-101865000D01*
X139136842Y-101922068D01*
X138866589Y-102034010D01*
X138623368Y-102196525D01*
X138416525Y-102403368D01*
X138300000Y-102577760D01*
X138183475Y-102403368D01*
X137976632Y-102196525D01*
X137733411Y-102034010D01*
X137463158Y-101922068D01*
X137176260Y-101865000D01*
X136883740Y-101865000D01*
X136596842Y-101922068D01*
X136326589Y-102034010D01*
X136083368Y-102196525D01*
X135876525Y-102403368D01*
X135760000Y-102577760D01*
X135643475Y-102403368D01*
X135436632Y-102196525D01*
X135193411Y-102034010D01*
X134923158Y-101922068D01*
X134636260Y-101865000D01*
X134343740Y-101865000D01*
X134056842Y-101922068D01*
X133786589Y-102034010D01*
X133543368Y-102196525D01*
X133336525Y-102403368D01*
X133220000Y-102577760D01*
X133103475Y-102403368D01*
X132896632Y-102196525D01*
X132653411Y-102034010D01*
X132383158Y-101922068D01*
X132096260Y-101865000D01*
X131803740Y-101865000D01*
X131516842Y-101922068D01*
X131246589Y-102034010D01*
X131003368Y-102196525D01*
X130796525Y-102403368D01*
X130680000Y-102577760D01*
X130563475Y-102403368D01*
X130356632Y-102196525D01*
X130113411Y-102034010D01*
X129843158Y-101922068D01*
X129556260Y-101865000D01*
X129263740Y-101865000D01*
X128976842Y-101922068D01*
X128706589Y-102034010D01*
X128463368Y-102196525D01*
X128256525Y-102403368D01*
X128094010Y-102646589D01*
X127982068Y-102916842D01*
X127925000Y-103203740D01*
X100660000Y-103203740D01*
X100660000Y-101401429D01*
X106350000Y-101401429D01*
X106350000Y-101718571D01*
X106411871Y-102029620D01*
X106533237Y-102322621D01*
X106709431Y-102586315D01*
X106933685Y-102810569D01*
X107197379Y-102986763D01*
X107490380Y-103108129D01*
X107801429Y-103170000D01*
X108118571Y-103170000D01*
X108429620Y-103108129D01*
X108722621Y-102986763D01*
X108986315Y-102810569D01*
X109210569Y-102586315D01*
X109386763Y-102322621D01*
X109508129Y-102029620D01*
X109570000Y-101718571D01*
X109570000Y-101401429D01*
X109508129Y-101090380D01*
X109386763Y-100797379D01*
X109210569Y-100533685D01*
X108986315Y-100309431D01*
X108722621Y-100133237D01*
X108429620Y-100011871D01*
X108118571Y-99950000D01*
X107801429Y-99950000D01*
X107490380Y-100011871D01*
X107197379Y-100133237D01*
X106933685Y-100309431D01*
X106709431Y-100533685D01*
X106533237Y-100797379D01*
X106411871Y-101090380D01*
X106350000Y-101401429D01*
X100660000Y-101401429D01*
X100660000Y-97701429D01*
X106350000Y-97701429D01*
X106350000Y-98018571D01*
X106411871Y-98329620D01*
X106533237Y-98622621D01*
X106709431Y-98886315D01*
X106933685Y-99110569D01*
X107197379Y-99286763D01*
X107490380Y-99408129D01*
X107801429Y-99470000D01*
X108118571Y-99470000D01*
X108429620Y-99408129D01*
X108722621Y-99286763D01*
X108986315Y-99110569D01*
X109210569Y-98886315D01*
X109386763Y-98622621D01*
X109508129Y-98329620D01*
X109570000Y-98018571D01*
X109570000Y-97701429D01*
X109508129Y-97390380D01*
X109386763Y-97097379D01*
X109210569Y-96833685D01*
X108986315Y-96609431D01*
X108722621Y-96433237D01*
X108429620Y-96311871D01*
X108118571Y-96250000D01*
X107801429Y-96250000D01*
X107490380Y-96311871D01*
X107197379Y-96433237D01*
X106933685Y-96609431D01*
X106709431Y-96833685D01*
X106533237Y-97097379D01*
X106411871Y-97390380D01*
X106350000Y-97701429D01*
X100660000Y-97701429D01*
X100660000Y-94201429D01*
X106350000Y-94201429D01*
X106350000Y-94518571D01*
X106411871Y-94829620D01*
X106533237Y-95122621D01*
X106709431Y-95386315D01*
X106933685Y-95610569D01*
X107197379Y-95786763D01*
X107490380Y-95908129D01*
X107801429Y-95970000D01*
X108118571Y-95970000D01*
X108429620Y-95908129D01*
X108722621Y-95786763D01*
X108986315Y-95610569D01*
X109210569Y-95386315D01*
X109386763Y-95122621D01*
X109508129Y-94829620D01*
X109570000Y-94518571D01*
X109570000Y-94201429D01*
X109508129Y-93890380D01*
X109386763Y-93597379D01*
X109380537Y-93588061D01*
X170675000Y-93588061D01*
X170675000Y-93791939D01*
X170714774Y-93991898D01*
X170792795Y-94180256D01*
X170906063Y-94349774D01*
X171050226Y-94493937D01*
X171219744Y-94607205D01*
X171408102Y-94685226D01*
X171608061Y-94725000D01*
X171811939Y-94725000D01*
X172011898Y-94685226D01*
X172200256Y-94607205D01*
X172369774Y-94493937D01*
X172513937Y-94349774D01*
X172627205Y-94180256D01*
X172705226Y-93991898D01*
X172745000Y-93791939D01*
X172745000Y-93638061D01*
X175425000Y-93638061D01*
X175425000Y-93841939D01*
X175464774Y-94041898D01*
X175542795Y-94230256D01*
X175656063Y-94399774D01*
X175800226Y-94543937D01*
X175969744Y-94657205D01*
X176158102Y-94735226D01*
X176358061Y-94775000D01*
X176561939Y-94775000D01*
X176761898Y-94735226D01*
X176950256Y-94657205D01*
X177119774Y-94543937D01*
X177263937Y-94399774D01*
X177377205Y-94230256D01*
X177455226Y-94041898D01*
X177495000Y-93841939D01*
X177495000Y-93638061D01*
X177455226Y-93438102D01*
X177377205Y-93249744D01*
X177263937Y-93080226D01*
X177119774Y-92936063D01*
X176950256Y-92822795D01*
X176761898Y-92744774D01*
X176561939Y-92705000D01*
X176358061Y-92705000D01*
X176158102Y-92744774D01*
X175969744Y-92822795D01*
X175800226Y-92936063D01*
X175656063Y-93080226D01*
X175542795Y-93249744D01*
X175464774Y-93438102D01*
X175425000Y-93638061D01*
X172745000Y-93638061D01*
X172745000Y-93588061D01*
X172705226Y-93388102D01*
X172627205Y-93199744D01*
X172513937Y-93030226D01*
X172369774Y-92886063D01*
X172200256Y-92772795D01*
X172011898Y-92694774D01*
X171811939Y-92655000D01*
X171608061Y-92655000D01*
X171408102Y-92694774D01*
X171219744Y-92772795D01*
X171050226Y-92886063D01*
X170906063Y-93030226D01*
X170792795Y-93199744D01*
X170714774Y-93388102D01*
X170675000Y-93588061D01*
X109380537Y-93588061D01*
X109210569Y-93333685D01*
X108986315Y-93109431D01*
X108722621Y-92933237D01*
X108429620Y-92811871D01*
X108118571Y-92750000D01*
X107801429Y-92750000D01*
X107490380Y-92811871D01*
X107197379Y-92933237D01*
X106933685Y-93109431D01*
X106709431Y-93333685D01*
X106533237Y-93597379D01*
X106411871Y-93890380D01*
X106350000Y-94201429D01*
X100660000Y-94201429D01*
X100660000Y-90368061D01*
X170675000Y-90368061D01*
X170675000Y-90571939D01*
X170714774Y-90771898D01*
X170792795Y-90960256D01*
X170906063Y-91129774D01*
X171050226Y-91273937D01*
X171219744Y-91387205D01*
X171408102Y-91465226D01*
X171608061Y-91505000D01*
X171811939Y-91505000D01*
X172011898Y-91465226D01*
X172200256Y-91387205D01*
X172369774Y-91273937D01*
X172513937Y-91129774D01*
X172627205Y-90960256D01*
X172705226Y-90771898D01*
X172745000Y-90571939D01*
X172745000Y-90368061D01*
X175375000Y-90368061D01*
X175375000Y-90571939D01*
X175414774Y-90771898D01*
X175492795Y-90960256D01*
X175606063Y-91129774D01*
X175750226Y-91273937D01*
X175919744Y-91387205D01*
X176108102Y-91465226D01*
X176308061Y-91505000D01*
X176511939Y-91505000D01*
X176711898Y-91465226D01*
X176900256Y-91387205D01*
X177069774Y-91273937D01*
X177213937Y-91129774D01*
X177327205Y-90960256D01*
X177405226Y-90771898D01*
X177445000Y-90571939D01*
X177445000Y-90368061D01*
X177405226Y-90168102D01*
X177327205Y-89979744D01*
X177213937Y-89810226D01*
X177069774Y-89666063D01*
X176900256Y-89552795D01*
X176711898Y-89474774D01*
X176511939Y-89435000D01*
X176308061Y-89435000D01*
X176108102Y-89474774D01*
X175919744Y-89552795D01*
X175750226Y-89666063D01*
X175606063Y-89810226D01*
X175492795Y-89979744D01*
X175414774Y-90168102D01*
X175375000Y-90368061D01*
X172745000Y-90368061D01*
X172705226Y-90168102D01*
X172627205Y-89979744D01*
X172513937Y-89810226D01*
X172369774Y-89666063D01*
X172200256Y-89552795D01*
X172011898Y-89474774D01*
X171811939Y-89435000D01*
X171608061Y-89435000D01*
X171408102Y-89474774D01*
X171219744Y-89552795D01*
X171050226Y-89666063D01*
X170906063Y-89810226D01*
X170792795Y-89979744D01*
X170714774Y-90168102D01*
X170675000Y-90368061D01*
X100660000Y-90368061D01*
X100660000Y-82203740D01*
X127925000Y-82203740D01*
X127925000Y-82496260D01*
X127982068Y-82783158D01*
X128094010Y-83053411D01*
X128256525Y-83296632D01*
X128463368Y-83503475D01*
X128637760Y-83620000D01*
X128463368Y-83736525D01*
X128256525Y-83943368D01*
X128094010Y-84186589D01*
X127982068Y-84456842D01*
X127925000Y-84743740D01*
X127925000Y-85036260D01*
X127982068Y-85323158D01*
X128094010Y-85593411D01*
X128256525Y-85836632D01*
X128463368Y-86043475D01*
X128706589Y-86205990D01*
X128976842Y-86317932D01*
X129263740Y-86375000D01*
X129556260Y-86375000D01*
X129843158Y-86317932D01*
X130113411Y-86205990D01*
X130356632Y-86043475D01*
X130563475Y-85836632D01*
X130680000Y-85662240D01*
X130796525Y-85836632D01*
X131003368Y-86043475D01*
X131246589Y-86205990D01*
X131516842Y-86317932D01*
X131803740Y-86375000D01*
X132096260Y-86375000D01*
X132383158Y-86317932D01*
X132653411Y-86205990D01*
X132896632Y-86043475D01*
X133103475Y-85836632D01*
X133220000Y-85662240D01*
X133336525Y-85836632D01*
X133543368Y-86043475D01*
X133786589Y-86205990D01*
X134056842Y-86317932D01*
X134343740Y-86375000D01*
X134636260Y-86375000D01*
X134923158Y-86317932D01*
X135193411Y-86205990D01*
X135436632Y-86043475D01*
X135643475Y-85836632D01*
X135760000Y-85662240D01*
X135876525Y-85836632D01*
X136083368Y-86043475D01*
X136326589Y-86205990D01*
X136596842Y-86317932D01*
X136883740Y-86375000D01*
X137176260Y-86375000D01*
X137463158Y-86317932D01*
X137733411Y-86205990D01*
X137976632Y-86043475D01*
X138183475Y-85836632D01*
X138300000Y-85662240D01*
X138416525Y-85836632D01*
X138623368Y-86043475D01*
X138866589Y-86205990D01*
X139136842Y-86317932D01*
X139423740Y-86375000D01*
X139716260Y-86375000D01*
X140003158Y-86317932D01*
X140273411Y-86205990D01*
X140516632Y-86043475D01*
X140723475Y-85836632D01*
X140840000Y-85662240D01*
X140956525Y-85836632D01*
X141163368Y-86043475D01*
X141406589Y-86205990D01*
X141676842Y-86317932D01*
X141963740Y-86375000D01*
X142256260Y-86375000D01*
X142543158Y-86317932D01*
X142813411Y-86205990D01*
X143056632Y-86043475D01*
X143263475Y-85836632D01*
X143380000Y-85662240D01*
X143496525Y-85836632D01*
X143703368Y-86043475D01*
X143946589Y-86205990D01*
X144216842Y-86317932D01*
X144503740Y-86375000D01*
X144796260Y-86375000D01*
X145083158Y-86317932D01*
X145353411Y-86205990D01*
X145596632Y-86043475D01*
X145803475Y-85836632D01*
X145920000Y-85662240D01*
X146036525Y-85836632D01*
X146243368Y-86043475D01*
X146486589Y-86205990D01*
X146756842Y-86317932D01*
X147043740Y-86375000D01*
X147336260Y-86375000D01*
X147623158Y-86317932D01*
X147893411Y-86205990D01*
X148136632Y-86043475D01*
X148343475Y-85836632D01*
X148460000Y-85662240D01*
X148576525Y-85836632D01*
X148783368Y-86043475D01*
X149026589Y-86205990D01*
X149296842Y-86317932D01*
X149583740Y-86375000D01*
X149876260Y-86375000D01*
X150163158Y-86317932D01*
X150433411Y-86205990D01*
X150676632Y-86043475D01*
X150883475Y-85836632D01*
X151000000Y-85662240D01*
X151116525Y-85836632D01*
X151323368Y-86043475D01*
X151566589Y-86205990D01*
X151836842Y-86317932D01*
X152123740Y-86375000D01*
X152416260Y-86375000D01*
X152703158Y-86317932D01*
X152973411Y-86205990D01*
X153216632Y-86043475D01*
X153423475Y-85836632D01*
X153540000Y-85662240D01*
X153656525Y-85836632D01*
X153863368Y-86043475D01*
X154106589Y-86205990D01*
X154376842Y-86317932D01*
X154663740Y-86375000D01*
X154956260Y-86375000D01*
X155243158Y-86317932D01*
X155513411Y-86205990D01*
X155756632Y-86043475D01*
X155963475Y-85836632D01*
X156080000Y-85662240D01*
X156196525Y-85836632D01*
X156403368Y-86043475D01*
X156646589Y-86205990D01*
X156916842Y-86317932D01*
X157203740Y-86375000D01*
X157496260Y-86375000D01*
X157783158Y-86317932D01*
X158053411Y-86205990D01*
X158296632Y-86043475D01*
X158503475Y-85836632D01*
X158620000Y-85662240D01*
X158736525Y-85836632D01*
X158943368Y-86043475D01*
X159186589Y-86205990D01*
X159456842Y-86317932D01*
X159743740Y-86375000D01*
X160036260Y-86375000D01*
X160323158Y-86317932D01*
X160593411Y-86205990D01*
X160836632Y-86043475D01*
X161043475Y-85836632D01*
X161160000Y-85662240D01*
X161276525Y-85836632D01*
X161483368Y-86043475D01*
X161726589Y-86205990D01*
X161996842Y-86317932D01*
X162283740Y-86375000D01*
X162576260Y-86375000D01*
X162863158Y-86317932D01*
X163133411Y-86205990D01*
X163376632Y-86043475D01*
X163583475Y-85836632D01*
X163700000Y-85662240D01*
X163816525Y-85836632D01*
X164023368Y-86043475D01*
X164266589Y-86205990D01*
X164536842Y-86317932D01*
X164823740Y-86375000D01*
X165116260Y-86375000D01*
X165403158Y-86317932D01*
X165673411Y-86205990D01*
X165916632Y-86043475D01*
X166123475Y-85836632D01*
X166240000Y-85662240D01*
X166356525Y-85836632D01*
X166563368Y-86043475D01*
X166806589Y-86205990D01*
X167076842Y-86317932D01*
X167363740Y-86375000D01*
X167656260Y-86375000D01*
X167943158Y-86317932D01*
X168213411Y-86205990D01*
X168456632Y-86043475D01*
X168663475Y-85836632D01*
X168780000Y-85662240D01*
X168896525Y-85836632D01*
X169103368Y-86043475D01*
X169346589Y-86205990D01*
X169616842Y-86317932D01*
X169903740Y-86375000D01*
X170196260Y-86375000D01*
X170483158Y-86317932D01*
X170753411Y-86205990D01*
X170996632Y-86043475D01*
X171203475Y-85836632D01*
X171320000Y-85662240D01*
X171436525Y-85836632D01*
X171643368Y-86043475D01*
X171886589Y-86205990D01*
X172156842Y-86317932D01*
X172443740Y-86375000D01*
X172736260Y-86375000D01*
X173023158Y-86317932D01*
X173293411Y-86205990D01*
X173536632Y-86043475D01*
X173743475Y-85836632D01*
X173860000Y-85662240D01*
X173976525Y-85836632D01*
X174183368Y-86043475D01*
X174426589Y-86205990D01*
X174696842Y-86317932D01*
X174983740Y-86375000D01*
X175276260Y-86375000D01*
X175563158Y-86317932D01*
X175833411Y-86205990D01*
X176076632Y-86043475D01*
X176283475Y-85836632D01*
X176400000Y-85662240D01*
X176516525Y-85836632D01*
X176723368Y-86043475D01*
X176966589Y-86205990D01*
X177236842Y-86317932D01*
X177523740Y-86375000D01*
X177816260Y-86375000D01*
X178103158Y-86317932D01*
X178373411Y-86205990D01*
X178616632Y-86043475D01*
X178823475Y-85836632D01*
X178985990Y-85593411D01*
X179097932Y-85323158D01*
X179155000Y-85036260D01*
X179155000Y-84743740D01*
X179097932Y-84456842D01*
X178985990Y-84186589D01*
X178823475Y-83943368D01*
X178691620Y-83811513D01*
X178764180Y-83789502D01*
X178874494Y-83730537D01*
X178971185Y-83651185D01*
X179050537Y-83554494D01*
X179109502Y-83444180D01*
X179145812Y-83324482D01*
X179158072Y-83200000D01*
X179158072Y-81500000D01*
X179145812Y-81375518D01*
X179109502Y-81255820D01*
X179050537Y-81145506D01*
X178971185Y-81048815D01*
X178874494Y-80969463D01*
X178764180Y-80910498D01*
X178644482Y-80874188D01*
X178520000Y-80861928D01*
X176820000Y-80861928D01*
X176695518Y-80874188D01*
X176575820Y-80910498D01*
X176465506Y-80969463D01*
X176368815Y-81048815D01*
X176289463Y-81145506D01*
X176230498Y-81255820D01*
X176208487Y-81328380D01*
X176076632Y-81196525D01*
X175833411Y-81034010D01*
X175563158Y-80922068D01*
X175276260Y-80865000D01*
X174983740Y-80865000D01*
X174696842Y-80922068D01*
X174426589Y-81034010D01*
X174183368Y-81196525D01*
X173976525Y-81403368D01*
X173860000Y-81577760D01*
X173743475Y-81403368D01*
X173536632Y-81196525D01*
X173293411Y-81034010D01*
X173023158Y-80922068D01*
X172736260Y-80865000D01*
X172443740Y-80865000D01*
X172156842Y-80922068D01*
X171886589Y-81034010D01*
X171643368Y-81196525D01*
X171436525Y-81403368D01*
X171320000Y-81577760D01*
X171203475Y-81403368D01*
X170996632Y-81196525D01*
X170753411Y-81034010D01*
X170483158Y-80922068D01*
X170196260Y-80865000D01*
X169903740Y-80865000D01*
X169616842Y-80922068D01*
X169346589Y-81034010D01*
X169103368Y-81196525D01*
X168896525Y-81403368D01*
X168780000Y-81577760D01*
X168663475Y-81403368D01*
X168456632Y-81196525D01*
X168213411Y-81034010D01*
X167943158Y-80922068D01*
X167656260Y-80865000D01*
X167363740Y-80865000D01*
X167076842Y-80922068D01*
X166806589Y-81034010D01*
X166563368Y-81196525D01*
X166356525Y-81403368D01*
X166234805Y-81585534D01*
X166165178Y-81468645D01*
X165970269Y-81252412D01*
X165736920Y-81078359D01*
X165474099Y-80953175D01*
X165326890Y-80908524D01*
X165097000Y-81029845D01*
X165097000Y-82223000D01*
X165117000Y-82223000D01*
X165117000Y-82477000D01*
X165097000Y-82477000D01*
X165097000Y-82497000D01*
X164843000Y-82497000D01*
X164843000Y-82477000D01*
X164823000Y-82477000D01*
X164823000Y-82223000D01*
X164843000Y-82223000D01*
X164843000Y-81029845D01*
X164613110Y-80908524D01*
X164465901Y-80953175D01*
X164203080Y-81078359D01*
X163969731Y-81252412D01*
X163774822Y-81468645D01*
X163705195Y-81585534D01*
X163583475Y-81403368D01*
X163376632Y-81196525D01*
X163133411Y-81034010D01*
X162863158Y-80922068D01*
X162576260Y-80865000D01*
X162283740Y-80865000D01*
X161996842Y-80922068D01*
X161726589Y-81034010D01*
X161483368Y-81196525D01*
X161276525Y-81403368D01*
X161160000Y-81577760D01*
X161043475Y-81403368D01*
X160836632Y-81196525D01*
X160593411Y-81034010D01*
X160323158Y-80922068D01*
X160036260Y-80865000D01*
X159743740Y-80865000D01*
X159456842Y-80922068D01*
X159186589Y-81034010D01*
X158943368Y-81196525D01*
X158736525Y-81403368D01*
X158620000Y-81577760D01*
X158503475Y-81403368D01*
X158296632Y-81196525D01*
X158053411Y-81034010D01*
X157783158Y-80922068D01*
X157496260Y-80865000D01*
X157203740Y-80865000D01*
X156916842Y-80922068D01*
X156646589Y-81034010D01*
X156403368Y-81196525D01*
X156196525Y-81403368D01*
X156080000Y-81577760D01*
X155963475Y-81403368D01*
X155756632Y-81196525D01*
X155513411Y-81034010D01*
X155243158Y-80922068D01*
X154956260Y-80865000D01*
X154663740Y-80865000D01*
X154376842Y-80922068D01*
X154106589Y-81034010D01*
X153863368Y-81196525D01*
X153656525Y-81403368D01*
X153540000Y-81577760D01*
X153423475Y-81403368D01*
X153216632Y-81196525D01*
X152973411Y-81034010D01*
X152703158Y-80922068D01*
X152416260Y-80865000D01*
X152123740Y-80865000D01*
X151836842Y-80922068D01*
X151566589Y-81034010D01*
X151323368Y-81196525D01*
X151116525Y-81403368D01*
X151000000Y-81577760D01*
X150883475Y-81403368D01*
X150676632Y-81196525D01*
X150433411Y-81034010D01*
X150163158Y-80922068D01*
X149876260Y-80865000D01*
X149583740Y-80865000D01*
X149296842Y-80922068D01*
X149026589Y-81034010D01*
X148783368Y-81196525D01*
X148576525Y-81403368D01*
X148460000Y-81577760D01*
X148343475Y-81403368D01*
X148136632Y-81196525D01*
X147893411Y-81034010D01*
X147623158Y-80922068D01*
X147336260Y-80865000D01*
X147043740Y-80865000D01*
X146756842Y-80922068D01*
X146486589Y-81034010D01*
X146243368Y-81196525D01*
X146036525Y-81403368D01*
X145920000Y-81577760D01*
X145803475Y-81403368D01*
X145596632Y-81196525D01*
X145353411Y-81034010D01*
X145083158Y-80922068D01*
X144796260Y-80865000D01*
X144503740Y-80865000D01*
X144216842Y-80922068D01*
X143946589Y-81034010D01*
X143703368Y-81196525D01*
X143496525Y-81403368D01*
X143380000Y-81577760D01*
X143263475Y-81403368D01*
X143056632Y-81196525D01*
X142813411Y-81034010D01*
X142543158Y-80922068D01*
X142256260Y-80865000D01*
X141963740Y-80865000D01*
X141676842Y-80922068D01*
X141406589Y-81034010D01*
X141163368Y-81196525D01*
X140956525Y-81403368D01*
X140840000Y-81577760D01*
X140723475Y-81403368D01*
X140516632Y-81196525D01*
X140273411Y-81034010D01*
X140003158Y-80922068D01*
X139716260Y-80865000D01*
X139423740Y-80865000D01*
X139136842Y-80922068D01*
X138866589Y-81034010D01*
X138623368Y-81196525D01*
X138416525Y-81403368D01*
X138300000Y-81577760D01*
X138183475Y-81403368D01*
X137976632Y-81196525D01*
X137733411Y-81034010D01*
X137463158Y-80922068D01*
X137176260Y-80865000D01*
X136883740Y-80865000D01*
X136596842Y-80922068D01*
X136326589Y-81034010D01*
X136083368Y-81196525D01*
X135876525Y-81403368D01*
X135760000Y-81577760D01*
X135643475Y-81403368D01*
X135436632Y-81196525D01*
X135193411Y-81034010D01*
X134923158Y-80922068D01*
X134636260Y-80865000D01*
X134343740Y-80865000D01*
X134056842Y-80922068D01*
X133786589Y-81034010D01*
X133543368Y-81196525D01*
X133336525Y-81403368D01*
X133220000Y-81577760D01*
X133103475Y-81403368D01*
X132896632Y-81196525D01*
X132653411Y-81034010D01*
X132383158Y-80922068D01*
X132096260Y-80865000D01*
X131803740Y-80865000D01*
X131516842Y-80922068D01*
X131246589Y-81034010D01*
X131003368Y-81196525D01*
X130796525Y-81403368D01*
X130680000Y-81577760D01*
X130563475Y-81403368D01*
X130356632Y-81196525D01*
X130113411Y-81034010D01*
X129843158Y-80922068D01*
X129556260Y-80865000D01*
X129263740Y-80865000D01*
X128976842Y-80922068D01*
X128706589Y-81034010D01*
X128463368Y-81196525D01*
X128256525Y-81403368D01*
X128094010Y-81646589D01*
X127982068Y-81916842D01*
X127925000Y-82203740D01*
X100660000Y-82203740D01*
X100660000Y-80660000D01*
X179340000Y-80660000D01*
X179340001Y-171340000D01*
M02*
