G04 #@! TF.GenerationSoftware,KiCad,Pcbnew,(5.1.5)-3*
G04 #@! TF.CreationDate,2023-03-23T18:14:07-07:00*
G04 #@! TF.ProjectId,breakout_pcb,62726561-6b6f-4757-945f-7063622e6b69,rev?*
G04 #@! TF.SameCoordinates,Original*
G04 #@! TF.FileFunction,Copper,L4,Bot*
G04 #@! TF.FilePolarity,Positive*
%FSLAX46Y46*%
G04 Gerber Fmt 4.6, Leading zero omitted, Abs format (unit mm)*
G04 Created by KiCad (PCBNEW (5.1.5)-3) date 2023-03-23 18:14:07*
%MOMM*%
%LPD*%
G04 APERTURE LIST*
%ADD10C,4.700000*%
%ADD11O,1.700000X1.700000*%
%ADD12R,1.700000X1.700000*%
%ADD13C,1.600200*%
%ADD14C,1.950000*%
%ADD15C,0.800000*%
%ADD16C,0.250000*%
%ADD17C,0.254000*%
G04 APERTURE END LIST*
D10*
X176000000Y-168000000D03*
X104000000Y-168000000D03*
D11*
X129410000Y-84890000D03*
X129410000Y-82350000D03*
X131950000Y-84890000D03*
X131950000Y-82350000D03*
X134490000Y-84890000D03*
X134490000Y-82350000D03*
X137030000Y-84890000D03*
X137030000Y-82350000D03*
X139570000Y-84890000D03*
X139570000Y-82350000D03*
X142110000Y-84890000D03*
X142110000Y-82350000D03*
X144650000Y-84890000D03*
X144650000Y-82350000D03*
X147190000Y-84890000D03*
X147190000Y-82350000D03*
X149730000Y-84890000D03*
X149730000Y-82350000D03*
X152270000Y-84890000D03*
X152270000Y-82350000D03*
X154810000Y-84890000D03*
X154810000Y-82350000D03*
X157350000Y-84890000D03*
X157350000Y-82350000D03*
X159890000Y-84890000D03*
X159890000Y-82350000D03*
X162430000Y-84890000D03*
X162430000Y-82350000D03*
X164970000Y-84890000D03*
X164970000Y-82350000D03*
X167510000Y-84890000D03*
X167510000Y-82350000D03*
X170050000Y-84890000D03*
X170050000Y-82350000D03*
X172590000Y-84890000D03*
X172590000Y-82350000D03*
X175130000Y-84890000D03*
X175130000Y-82350000D03*
X177670000Y-84890000D03*
D12*
X177670000Y-82350000D03*
D13*
X116080000Y-167760000D03*
X116080000Y-165220000D03*
X118620000Y-167760000D03*
X118620000Y-165220000D03*
X121160000Y-167760000D03*
X121160000Y-165220000D03*
X123700000Y-167760000D03*
X123700000Y-165220000D03*
X126240000Y-167760000D03*
X126240000Y-165220000D03*
X128780000Y-167760000D03*
X128780000Y-165220000D03*
X131320000Y-167760000D03*
X131320000Y-165220000D03*
X133860000Y-167760000D03*
X133860000Y-165220000D03*
X136400000Y-167760000D03*
X136400000Y-165220000D03*
X138940000Y-167760000D03*
X138940000Y-165220000D03*
X141480000Y-167760000D03*
X141480000Y-165220000D03*
X144020000Y-167760000D03*
X144020000Y-165220000D03*
X146560000Y-167760000D03*
X146560000Y-165220000D03*
X149100000Y-167760000D03*
X149100000Y-165220000D03*
X151640000Y-167760000D03*
X151640000Y-165220000D03*
X154180000Y-167760000D03*
X154180000Y-165220000D03*
X156720000Y-167760000D03*
X156720000Y-165220000D03*
X159260000Y-167760000D03*
X159260000Y-165220000D03*
X161800000Y-167760000D03*
X161800000Y-165220000D03*
X164340000Y-167760000D03*
X164340000Y-165220000D03*
D14*
X107960000Y-97860000D03*
X107960000Y-94360000D03*
X107960000Y-105060000D03*
X107960000Y-101560000D03*
D11*
X170590000Y-130450000D03*
X173130000Y-130450000D03*
D12*
X175670000Y-130450000D03*
D11*
X170590000Y-112350000D03*
X173130000Y-112350000D03*
D12*
X175670000Y-112350000D03*
D11*
X129410000Y-105890000D03*
X129410000Y-103350000D03*
X131950000Y-105890000D03*
X131950000Y-103350000D03*
X134490000Y-105890000D03*
X134490000Y-103350000D03*
X137030000Y-105890000D03*
X137030000Y-103350000D03*
X139570000Y-105890000D03*
X139570000Y-103350000D03*
X142110000Y-105890000D03*
X142110000Y-103350000D03*
X144650000Y-105890000D03*
X144650000Y-103350000D03*
X147190000Y-105890000D03*
X147190000Y-103350000D03*
X149730000Y-105890000D03*
X149730000Y-103350000D03*
X152270000Y-105890000D03*
X152270000Y-103350000D03*
X154810000Y-105890000D03*
X154810000Y-103350000D03*
X157350000Y-105890000D03*
X157350000Y-103350000D03*
X159890000Y-105890000D03*
X159890000Y-103350000D03*
X162430000Y-105890000D03*
X162430000Y-103350000D03*
X164970000Y-105890000D03*
X164970000Y-103350000D03*
X167510000Y-105890000D03*
X167510000Y-103350000D03*
X170050000Y-105890000D03*
X170050000Y-103350000D03*
X172590000Y-105890000D03*
X172590000Y-103350000D03*
X175130000Y-105890000D03*
X175130000Y-103350000D03*
X177670000Y-105890000D03*
D12*
X177670000Y-103350000D03*
D15*
X171710000Y-90470000D03*
X176410000Y-90470000D03*
X176460000Y-93740000D03*
X171710000Y-93690000D03*
X173840000Y-109010000D03*
X177920000Y-108930000D03*
X177880000Y-134260000D03*
X170000000Y-108990000D03*
D16*
X168874999Y-83525001D02*
X169200001Y-83199999D01*
X168874999Y-110634999D02*
X168874999Y-84525001D01*
X169200001Y-83199999D02*
X170050000Y-82350000D01*
X170590000Y-112350000D02*
X168874999Y-110634999D01*
X173765001Y-83525001D02*
X172590000Y-82350000D01*
X175504003Y-83525001D02*
X173765001Y-83525001D01*
X176305001Y-84325999D02*
X175504003Y-83525001D01*
X156720000Y-157986000D02*
X178845001Y-135860999D01*
X156720000Y-165220000D02*
X156720000Y-157986000D01*
X178845001Y-135860999D02*
X178845001Y-88365001D01*
X178845001Y-88365001D02*
X176305001Y-85825001D01*
X176305001Y-85825001D02*
X176305001Y-84325999D01*
X155594899Y-168885101D02*
X156720000Y-167760000D01*
X153639951Y-168885101D02*
X155594899Y-168885101D01*
X152870000Y-168115150D02*
X153639951Y-168885101D01*
X152870000Y-139210000D02*
X152870000Y-168115150D01*
X173954999Y-81174999D02*
X128845999Y-81174999D01*
X126290000Y-112630000D02*
X152870000Y-139210000D01*
X128845999Y-81174999D02*
X126290000Y-83730998D01*
X175130000Y-82350000D02*
X173954999Y-81174999D01*
X126290000Y-83730998D02*
X126290000Y-112630000D01*
X177670000Y-81250000D02*
X177670000Y-82350000D01*
X177144990Y-80724990D02*
X177670000Y-81250000D01*
X119671008Y-80724990D02*
X177144990Y-80724990D01*
X106659999Y-93735999D02*
X119671008Y-80724990D01*
X106659999Y-96559999D02*
X106659999Y-93735999D01*
X107960000Y-97860000D02*
X106659999Y-96559999D01*
X176305001Y-110699999D02*
X176305001Y-104325999D01*
X155594899Y-166345101D02*
X155594899Y-157333101D01*
X155594899Y-157333101D02*
X177154999Y-135773001D01*
X176305001Y-104325999D02*
X175130000Y-103150998D01*
X154180000Y-167760000D02*
X155594899Y-166345101D01*
X177154999Y-135773001D02*
X177154999Y-111549997D01*
X177154999Y-111549997D02*
X176305001Y-110699999D01*
X171225001Y-110445001D02*
X173130000Y-112350000D01*
X171225001Y-104525001D02*
X171225001Y-110445001D01*
X171225001Y-104525001D02*
X170050000Y-103350000D01*
D17*
G36*
X106148997Y-93172200D02*
G01*
X106119999Y-93195998D01*
X106096201Y-93224996D01*
X106096200Y-93224997D01*
X106025025Y-93311723D01*
X105954453Y-93443753D01*
X105910997Y-93587014D01*
X105896323Y-93735999D01*
X105900000Y-93773331D01*
X105899999Y-96522676D01*
X105896323Y-96559999D01*
X105899999Y-96597321D01*
X105899999Y-96597331D01*
X105910996Y-96708984D01*
X105948823Y-96833685D01*
X105954453Y-96852245D01*
X106025025Y-96984275D01*
X106064870Y-97032825D01*
X106119998Y-97100000D01*
X106149002Y-97123803D01*
X106412957Y-97387758D01*
X106411871Y-97390380D01*
X106350000Y-97701429D01*
X106350000Y-98018571D01*
X106411871Y-98329620D01*
X106533237Y-98622621D01*
X106709431Y-98886315D01*
X106933685Y-99110569D01*
X107197379Y-99286763D01*
X107490380Y-99408129D01*
X107801429Y-99470000D01*
X108118571Y-99470000D01*
X108429620Y-99408129D01*
X108722621Y-99286763D01*
X108986315Y-99110569D01*
X109210569Y-98886315D01*
X109386763Y-98622621D01*
X109508129Y-98329620D01*
X109570000Y-98018571D01*
X109570000Y-97701429D01*
X109508129Y-97390380D01*
X109386763Y-97097379D01*
X109210569Y-96833685D01*
X108986315Y-96609431D01*
X108722621Y-96433237D01*
X108429620Y-96311871D01*
X108118571Y-96250000D01*
X107801429Y-96250000D01*
X107490380Y-96311871D01*
X107487758Y-96312957D01*
X107419999Y-96245198D01*
X107419999Y-95878976D01*
X107490380Y-95908129D01*
X107801429Y-95970000D01*
X108118571Y-95970000D01*
X108429620Y-95908129D01*
X108722621Y-95786763D01*
X108986315Y-95610569D01*
X109210569Y-95386315D01*
X109386763Y-95122621D01*
X109508129Y-94829620D01*
X109570000Y-94518571D01*
X109570000Y-94201429D01*
X109508129Y-93890380D01*
X109386763Y-93597379D01*
X109210569Y-93333685D01*
X108986315Y-93109431D01*
X108722621Y-92933237D01*
X108591765Y-92879034D01*
X119985811Y-81484990D01*
X127461206Y-81484990D01*
X125779003Y-83167194D01*
X125749999Y-83190997D01*
X125694871Y-83258172D01*
X125655026Y-83306722D01*
X125602495Y-83405000D01*
X125584454Y-83438752D01*
X125540997Y-83582013D01*
X125530000Y-83693666D01*
X125530000Y-83693676D01*
X125526324Y-83730998D01*
X125530000Y-83768320D01*
X125530001Y-112592667D01*
X125526324Y-112630000D01*
X125540998Y-112778985D01*
X125584454Y-112922246D01*
X125655026Y-113054276D01*
X125691733Y-113099003D01*
X125750000Y-113170001D01*
X125778998Y-113193799D01*
X152110000Y-139524803D01*
X152110001Y-163861340D01*
X152058603Y-163840050D01*
X151781345Y-163784900D01*
X151498655Y-163784900D01*
X151221397Y-163840050D01*
X150960225Y-163948231D01*
X150725177Y-164105285D01*
X150525285Y-164305177D01*
X150370000Y-164537578D01*
X150214715Y-164305177D01*
X150014823Y-164105285D01*
X149779775Y-163948231D01*
X149518603Y-163840050D01*
X149241345Y-163784900D01*
X148958655Y-163784900D01*
X148681397Y-163840050D01*
X148420225Y-163948231D01*
X148185177Y-164105285D01*
X147985285Y-164305177D01*
X147830000Y-164537578D01*
X147674715Y-164305177D01*
X147474823Y-164105285D01*
X147239775Y-163948231D01*
X146978603Y-163840050D01*
X146701345Y-163784900D01*
X146418655Y-163784900D01*
X146141397Y-163840050D01*
X145880225Y-163948231D01*
X145645177Y-164105285D01*
X145445285Y-164305177D01*
X145290000Y-164537578D01*
X145134715Y-164305177D01*
X144934823Y-164105285D01*
X144699775Y-163948231D01*
X144438603Y-163840050D01*
X144161345Y-163784900D01*
X143878655Y-163784900D01*
X143601397Y-163840050D01*
X143340225Y-163948231D01*
X143105177Y-164105285D01*
X142905285Y-164305177D01*
X142750000Y-164537578D01*
X142594715Y-164305177D01*
X142394823Y-164105285D01*
X142159775Y-163948231D01*
X141898603Y-163840050D01*
X141621345Y-163784900D01*
X141338655Y-163784900D01*
X141061397Y-163840050D01*
X140800225Y-163948231D01*
X140565177Y-164105285D01*
X140365285Y-164305177D01*
X140210000Y-164537578D01*
X140054715Y-164305177D01*
X139854823Y-164105285D01*
X139619775Y-163948231D01*
X139358603Y-163840050D01*
X139081345Y-163784900D01*
X138798655Y-163784900D01*
X138521397Y-163840050D01*
X138260225Y-163948231D01*
X138025177Y-164105285D01*
X137825285Y-164305177D01*
X137670000Y-164537578D01*
X137514715Y-164305177D01*
X137314823Y-164105285D01*
X137079775Y-163948231D01*
X136818603Y-163840050D01*
X136541345Y-163784900D01*
X136258655Y-163784900D01*
X135981397Y-163840050D01*
X135720225Y-163948231D01*
X135485177Y-164105285D01*
X135285285Y-164305177D01*
X135129095Y-164538932D01*
X135096754Y-164478426D01*
X134852774Y-164406831D01*
X134039605Y-165220000D01*
X134852774Y-166033169D01*
X135096754Y-165961574D01*
X135127188Y-165897256D01*
X135128231Y-165899775D01*
X135285285Y-166134823D01*
X135485177Y-166334715D01*
X135717578Y-166490000D01*
X135485177Y-166645285D01*
X135285285Y-166845177D01*
X135130000Y-167077578D01*
X134974715Y-166845177D01*
X134774823Y-166645285D01*
X134541068Y-166489095D01*
X134601574Y-166456754D01*
X134673169Y-166212774D01*
X133860000Y-165399605D01*
X133046831Y-166212774D01*
X133118426Y-166456754D01*
X133182744Y-166487188D01*
X133180225Y-166488231D01*
X132945177Y-166645285D01*
X132745285Y-166845177D01*
X132590000Y-167077578D01*
X132434715Y-166845177D01*
X132234823Y-166645285D01*
X132002422Y-166490000D01*
X132234823Y-166334715D01*
X132434715Y-166134823D01*
X132590905Y-165901068D01*
X132623246Y-165961574D01*
X132867226Y-166033169D01*
X133680395Y-165220000D01*
X132867226Y-164406831D01*
X132623246Y-164478426D01*
X132592812Y-164542744D01*
X132591769Y-164540225D01*
X132434715Y-164305177D01*
X132356764Y-164227226D01*
X133046831Y-164227226D01*
X133860000Y-165040395D01*
X134673169Y-164227226D01*
X134601574Y-163983246D01*
X134346046Y-163862336D01*
X134071839Y-163793600D01*
X133789492Y-163779680D01*
X133509853Y-163821111D01*
X133243672Y-163916300D01*
X133118426Y-163983246D01*
X133046831Y-164227226D01*
X132356764Y-164227226D01*
X132234823Y-164105285D01*
X131999775Y-163948231D01*
X131738603Y-163840050D01*
X131461345Y-163784900D01*
X131178655Y-163784900D01*
X130901397Y-163840050D01*
X130640225Y-163948231D01*
X130405177Y-164105285D01*
X130205285Y-164305177D01*
X130050000Y-164537578D01*
X129894715Y-164305177D01*
X129694823Y-164105285D01*
X129459775Y-163948231D01*
X129198603Y-163840050D01*
X128921345Y-163784900D01*
X128638655Y-163784900D01*
X128361397Y-163840050D01*
X128100225Y-163948231D01*
X127865177Y-164105285D01*
X127665285Y-164305177D01*
X127510000Y-164537578D01*
X127354715Y-164305177D01*
X127154823Y-164105285D01*
X126919775Y-163948231D01*
X126658603Y-163840050D01*
X126381345Y-163784900D01*
X126098655Y-163784900D01*
X125821397Y-163840050D01*
X125560225Y-163948231D01*
X125325177Y-164105285D01*
X125125285Y-164305177D01*
X124970000Y-164537578D01*
X124814715Y-164305177D01*
X124614823Y-164105285D01*
X124379775Y-163948231D01*
X124118603Y-163840050D01*
X123841345Y-163784900D01*
X123558655Y-163784900D01*
X123281397Y-163840050D01*
X123020225Y-163948231D01*
X122785177Y-164105285D01*
X122585285Y-164305177D01*
X122430000Y-164537578D01*
X122274715Y-164305177D01*
X122074823Y-164105285D01*
X121839775Y-163948231D01*
X121578603Y-163840050D01*
X121301345Y-163784900D01*
X121018655Y-163784900D01*
X120741397Y-163840050D01*
X120480225Y-163948231D01*
X120245177Y-164105285D01*
X120045285Y-164305177D01*
X119890000Y-164537578D01*
X119734715Y-164305177D01*
X119534823Y-164105285D01*
X119299775Y-163948231D01*
X119038603Y-163840050D01*
X118761345Y-163784900D01*
X118478655Y-163784900D01*
X118201397Y-163840050D01*
X117940225Y-163948231D01*
X117705177Y-164105285D01*
X117505285Y-164305177D01*
X117349095Y-164538932D01*
X117316754Y-164478426D01*
X117072774Y-164406831D01*
X116259605Y-165220000D01*
X117072774Y-166033169D01*
X117316754Y-165961574D01*
X117347188Y-165897256D01*
X117348231Y-165899775D01*
X117505285Y-166134823D01*
X117705177Y-166334715D01*
X117937578Y-166490000D01*
X117705177Y-166645285D01*
X117505285Y-166845177D01*
X117350000Y-167077578D01*
X117194715Y-166845177D01*
X116994823Y-166645285D01*
X116761068Y-166489095D01*
X116821574Y-166456754D01*
X116893169Y-166212774D01*
X116080000Y-165399605D01*
X115266831Y-166212774D01*
X115338426Y-166456754D01*
X115402744Y-166487188D01*
X115400225Y-166488231D01*
X115165177Y-166645285D01*
X114965285Y-166845177D01*
X114808231Y-167080225D01*
X114700050Y-167341397D01*
X114644900Y-167618655D01*
X114644900Y-167901345D01*
X114700050Y-168178603D01*
X114808231Y-168439775D01*
X114965285Y-168674823D01*
X115165177Y-168874715D01*
X115400225Y-169031769D01*
X115661397Y-169139950D01*
X115938655Y-169195100D01*
X116221345Y-169195100D01*
X116498603Y-169139950D01*
X116759775Y-169031769D01*
X116994823Y-168874715D01*
X117194715Y-168674823D01*
X117350000Y-168442422D01*
X117505285Y-168674823D01*
X117705177Y-168874715D01*
X117940225Y-169031769D01*
X118201397Y-169139950D01*
X118478655Y-169195100D01*
X118761345Y-169195100D01*
X119038603Y-169139950D01*
X119299775Y-169031769D01*
X119534823Y-168874715D01*
X119734715Y-168674823D01*
X119890000Y-168442422D01*
X120045285Y-168674823D01*
X120245177Y-168874715D01*
X120480225Y-169031769D01*
X120741397Y-169139950D01*
X121018655Y-169195100D01*
X121301345Y-169195100D01*
X121578603Y-169139950D01*
X121839775Y-169031769D01*
X122074823Y-168874715D01*
X122196764Y-168752774D01*
X122886831Y-168752774D01*
X122958426Y-168996754D01*
X123213954Y-169117664D01*
X123488161Y-169186400D01*
X123770508Y-169200320D01*
X124050147Y-169158889D01*
X124316328Y-169063700D01*
X124441574Y-168996754D01*
X124513169Y-168752774D01*
X123700000Y-167939605D01*
X122886831Y-168752774D01*
X122196764Y-168752774D01*
X122274715Y-168674823D01*
X122430905Y-168441068D01*
X122463246Y-168501574D01*
X122707226Y-168573169D01*
X123520395Y-167760000D01*
X122707226Y-166946831D01*
X122463246Y-167018426D01*
X122432812Y-167082744D01*
X122431769Y-167080225D01*
X122274715Y-166845177D01*
X122074823Y-166645285D01*
X121842422Y-166490000D01*
X122074823Y-166334715D01*
X122274715Y-166134823D01*
X122430000Y-165902422D01*
X122585285Y-166134823D01*
X122785177Y-166334715D01*
X123018932Y-166490905D01*
X122958426Y-166523246D01*
X122886831Y-166767226D01*
X123700000Y-167580395D01*
X124513169Y-166767226D01*
X124441574Y-166523246D01*
X124377256Y-166492812D01*
X124379775Y-166491769D01*
X124614823Y-166334715D01*
X124814715Y-166134823D01*
X124970000Y-165902422D01*
X125125285Y-166134823D01*
X125325177Y-166334715D01*
X125557578Y-166490000D01*
X125325177Y-166645285D01*
X125125285Y-166845177D01*
X124969095Y-167078932D01*
X124936754Y-167018426D01*
X124692774Y-166946831D01*
X123879605Y-167760000D01*
X124692774Y-168573169D01*
X124936754Y-168501574D01*
X124967188Y-168437256D01*
X124968231Y-168439775D01*
X125125285Y-168674823D01*
X125325177Y-168874715D01*
X125560225Y-169031769D01*
X125821397Y-169139950D01*
X126098655Y-169195100D01*
X126381345Y-169195100D01*
X126658603Y-169139950D01*
X126919775Y-169031769D01*
X127154823Y-168874715D01*
X127276764Y-168752774D01*
X127966831Y-168752774D01*
X128038426Y-168996754D01*
X128293954Y-169117664D01*
X128568161Y-169186400D01*
X128850508Y-169200320D01*
X129130147Y-169158889D01*
X129396328Y-169063700D01*
X129521574Y-168996754D01*
X129593169Y-168752774D01*
X128780000Y-167939605D01*
X127966831Y-168752774D01*
X127276764Y-168752774D01*
X127354715Y-168674823D01*
X127510905Y-168441068D01*
X127543246Y-168501574D01*
X127787226Y-168573169D01*
X128600395Y-167760000D01*
X127787226Y-166946831D01*
X127543246Y-167018426D01*
X127512812Y-167082744D01*
X127511769Y-167080225D01*
X127354715Y-166845177D01*
X127154823Y-166645285D01*
X126922422Y-166490000D01*
X127154823Y-166334715D01*
X127354715Y-166134823D01*
X127510000Y-165902422D01*
X127665285Y-166134823D01*
X127865177Y-166334715D01*
X128098932Y-166490905D01*
X128038426Y-166523246D01*
X127966831Y-166767226D01*
X128780000Y-167580395D01*
X129593169Y-166767226D01*
X129521574Y-166523246D01*
X129457256Y-166492812D01*
X129459775Y-166491769D01*
X129694823Y-166334715D01*
X129894715Y-166134823D01*
X130050000Y-165902422D01*
X130205285Y-166134823D01*
X130405177Y-166334715D01*
X130637578Y-166490000D01*
X130405177Y-166645285D01*
X130205285Y-166845177D01*
X130049095Y-167078932D01*
X130016754Y-167018426D01*
X129772774Y-166946831D01*
X128959605Y-167760000D01*
X129772774Y-168573169D01*
X130016754Y-168501574D01*
X130047188Y-168437256D01*
X130048231Y-168439775D01*
X130205285Y-168674823D01*
X130405177Y-168874715D01*
X130640225Y-169031769D01*
X130901397Y-169139950D01*
X131178655Y-169195100D01*
X131461345Y-169195100D01*
X131738603Y-169139950D01*
X131999775Y-169031769D01*
X132234823Y-168874715D01*
X132434715Y-168674823D01*
X132590000Y-168442422D01*
X132745285Y-168674823D01*
X132945177Y-168874715D01*
X133180225Y-169031769D01*
X133441397Y-169139950D01*
X133718655Y-169195100D01*
X134001345Y-169195100D01*
X134278603Y-169139950D01*
X134539775Y-169031769D01*
X134774823Y-168874715D01*
X134974715Y-168674823D01*
X135130000Y-168442422D01*
X135285285Y-168674823D01*
X135485177Y-168874715D01*
X135720225Y-169031769D01*
X135981397Y-169139950D01*
X136258655Y-169195100D01*
X136541345Y-169195100D01*
X136818603Y-169139950D01*
X137079775Y-169031769D01*
X137314823Y-168874715D01*
X137514715Y-168674823D01*
X137670000Y-168442422D01*
X137825285Y-168674823D01*
X138025177Y-168874715D01*
X138260225Y-169031769D01*
X138521397Y-169139950D01*
X138798655Y-169195100D01*
X139081345Y-169195100D01*
X139358603Y-169139950D01*
X139619775Y-169031769D01*
X139854823Y-168874715D01*
X139976764Y-168752774D01*
X140666831Y-168752774D01*
X140738426Y-168996754D01*
X140993954Y-169117664D01*
X141268161Y-169186400D01*
X141550508Y-169200320D01*
X141830147Y-169158889D01*
X142096328Y-169063700D01*
X142221574Y-168996754D01*
X142293169Y-168752774D01*
X141480000Y-167939605D01*
X140666831Y-168752774D01*
X139976764Y-168752774D01*
X140054715Y-168674823D01*
X140210905Y-168441068D01*
X140243246Y-168501574D01*
X140487226Y-168573169D01*
X141300395Y-167760000D01*
X140487226Y-166946831D01*
X140243246Y-167018426D01*
X140212812Y-167082744D01*
X140211769Y-167080225D01*
X140054715Y-166845177D01*
X139854823Y-166645285D01*
X139622422Y-166490000D01*
X139854823Y-166334715D01*
X140054715Y-166134823D01*
X140210000Y-165902422D01*
X140365285Y-166134823D01*
X140565177Y-166334715D01*
X140798932Y-166490905D01*
X140738426Y-166523246D01*
X140666831Y-166767226D01*
X141480000Y-167580395D01*
X142293169Y-166767226D01*
X142221574Y-166523246D01*
X142157256Y-166492812D01*
X142159775Y-166491769D01*
X142394823Y-166334715D01*
X142594715Y-166134823D01*
X142750000Y-165902422D01*
X142905285Y-166134823D01*
X143105177Y-166334715D01*
X143337578Y-166490000D01*
X143105177Y-166645285D01*
X142905285Y-166845177D01*
X142749095Y-167078932D01*
X142716754Y-167018426D01*
X142472774Y-166946831D01*
X141659605Y-167760000D01*
X142472774Y-168573169D01*
X142716754Y-168501574D01*
X142747188Y-168437256D01*
X142748231Y-168439775D01*
X142905285Y-168674823D01*
X143105177Y-168874715D01*
X143340225Y-169031769D01*
X143601397Y-169139950D01*
X143878655Y-169195100D01*
X144161345Y-169195100D01*
X144438603Y-169139950D01*
X144699775Y-169031769D01*
X144934823Y-168874715D01*
X145134715Y-168674823D01*
X145290000Y-168442422D01*
X145445285Y-168674823D01*
X145645177Y-168874715D01*
X145880225Y-169031769D01*
X146141397Y-169139950D01*
X146418655Y-169195100D01*
X146701345Y-169195100D01*
X146978603Y-169139950D01*
X147239775Y-169031769D01*
X147474823Y-168874715D01*
X147596764Y-168752774D01*
X148286831Y-168752774D01*
X148358426Y-168996754D01*
X148613954Y-169117664D01*
X148888161Y-169186400D01*
X149170508Y-169200320D01*
X149450147Y-169158889D01*
X149716328Y-169063700D01*
X149841574Y-168996754D01*
X149913169Y-168752774D01*
X149100000Y-167939605D01*
X148286831Y-168752774D01*
X147596764Y-168752774D01*
X147674715Y-168674823D01*
X147830905Y-168441068D01*
X147863246Y-168501574D01*
X148107226Y-168573169D01*
X148920395Y-167760000D01*
X148107226Y-166946831D01*
X147863246Y-167018426D01*
X147832812Y-167082744D01*
X147831769Y-167080225D01*
X147674715Y-166845177D01*
X147474823Y-166645285D01*
X147242422Y-166490000D01*
X147474823Y-166334715D01*
X147674715Y-166134823D01*
X147830000Y-165902422D01*
X147985285Y-166134823D01*
X148185177Y-166334715D01*
X148418932Y-166490905D01*
X148358426Y-166523246D01*
X148286831Y-166767226D01*
X149100000Y-167580395D01*
X149913169Y-166767226D01*
X149841574Y-166523246D01*
X149777256Y-166492812D01*
X149779775Y-166491769D01*
X150014823Y-166334715D01*
X150214715Y-166134823D01*
X150370000Y-165902422D01*
X150525285Y-166134823D01*
X150725177Y-166334715D01*
X150957578Y-166490000D01*
X150725177Y-166645285D01*
X150525285Y-166845177D01*
X150369095Y-167078932D01*
X150336754Y-167018426D01*
X150092774Y-166946831D01*
X149279605Y-167760000D01*
X150092774Y-168573169D01*
X150336754Y-168501574D01*
X150367188Y-168437256D01*
X150368231Y-168439775D01*
X150525285Y-168674823D01*
X150725177Y-168874715D01*
X150960225Y-169031769D01*
X151221397Y-169139950D01*
X151498655Y-169195100D01*
X151781345Y-169195100D01*
X152058603Y-169139950D01*
X152319775Y-169031769D01*
X152554787Y-168874739D01*
X153076152Y-169396103D01*
X153099950Y-169425102D01*
X153128948Y-169448900D01*
X153215674Y-169520075D01*
X153347704Y-169590647D01*
X153490965Y-169634104D01*
X153602618Y-169645101D01*
X153602627Y-169645101D01*
X153639950Y-169648777D01*
X153677273Y-169645101D01*
X155557577Y-169645101D01*
X155594899Y-169648777D01*
X155632221Y-169645101D01*
X155632232Y-169645101D01*
X155743885Y-169634104D01*
X155887146Y-169590647D01*
X156019175Y-169520075D01*
X156134900Y-169425102D01*
X156158703Y-169396099D01*
X156396028Y-169158773D01*
X156578655Y-169195100D01*
X156861345Y-169195100D01*
X157138603Y-169139950D01*
X157399775Y-169031769D01*
X157634823Y-168874715D01*
X157756764Y-168752774D01*
X158446831Y-168752774D01*
X158518426Y-168996754D01*
X158773954Y-169117664D01*
X159048161Y-169186400D01*
X159330508Y-169200320D01*
X159610147Y-169158889D01*
X159876328Y-169063700D01*
X160001574Y-168996754D01*
X160073169Y-168752774D01*
X159260000Y-167939605D01*
X158446831Y-168752774D01*
X157756764Y-168752774D01*
X157834715Y-168674823D01*
X157990905Y-168441068D01*
X158023246Y-168501574D01*
X158267226Y-168573169D01*
X159080395Y-167760000D01*
X158267226Y-166946831D01*
X158023246Y-167018426D01*
X157992812Y-167082744D01*
X157991769Y-167080225D01*
X157834715Y-166845177D01*
X157634823Y-166645285D01*
X157402422Y-166490000D01*
X157634823Y-166334715D01*
X157834715Y-166134823D01*
X157990000Y-165902422D01*
X158145285Y-166134823D01*
X158345177Y-166334715D01*
X158578932Y-166490905D01*
X158518426Y-166523246D01*
X158446831Y-166767226D01*
X159260000Y-167580395D01*
X160073169Y-166767226D01*
X160001574Y-166523246D01*
X159937256Y-166492812D01*
X159939775Y-166491769D01*
X160174823Y-166334715D01*
X160374715Y-166134823D01*
X160530000Y-165902422D01*
X160685285Y-166134823D01*
X160885177Y-166334715D01*
X161117578Y-166490000D01*
X160885177Y-166645285D01*
X160685285Y-166845177D01*
X160529095Y-167078932D01*
X160496754Y-167018426D01*
X160252774Y-166946831D01*
X159439605Y-167760000D01*
X160252774Y-168573169D01*
X160496754Y-168501574D01*
X160527188Y-168437256D01*
X160528231Y-168439775D01*
X160685285Y-168674823D01*
X160885177Y-168874715D01*
X161120225Y-169031769D01*
X161381397Y-169139950D01*
X161658655Y-169195100D01*
X161941345Y-169195100D01*
X162218603Y-169139950D01*
X162479775Y-169031769D01*
X162714823Y-168874715D01*
X162914715Y-168674823D01*
X163070000Y-168442422D01*
X163225285Y-168674823D01*
X163425177Y-168874715D01*
X163660225Y-169031769D01*
X163921397Y-169139950D01*
X164198655Y-169195100D01*
X164481345Y-169195100D01*
X164758603Y-169139950D01*
X165019775Y-169031769D01*
X165254823Y-168874715D01*
X165454715Y-168674823D01*
X165611769Y-168439775D01*
X165719950Y-168178603D01*
X165753636Y-168009250D01*
X173000570Y-168009250D01*
X173060008Y-168594233D01*
X173232429Y-169156379D01*
X173500927Y-169658702D01*
X173903532Y-169916863D01*
X175820395Y-168000000D01*
X176179605Y-168000000D01*
X178096468Y-169916863D01*
X178499073Y-169658702D01*
X178774651Y-169139285D01*
X178943601Y-168576087D01*
X178999430Y-167990750D01*
X178939992Y-167405767D01*
X178767571Y-166843621D01*
X178499073Y-166341298D01*
X178096468Y-166083137D01*
X176179605Y-168000000D01*
X175820395Y-168000000D01*
X173903532Y-166083137D01*
X173500927Y-166341298D01*
X173225349Y-166860715D01*
X173056399Y-167423913D01*
X173000570Y-168009250D01*
X165753636Y-168009250D01*
X165775100Y-167901345D01*
X165775100Y-167618655D01*
X165719950Y-167341397D01*
X165611769Y-167080225D01*
X165454715Y-166845177D01*
X165254823Y-166645285D01*
X165022422Y-166490000D01*
X165254823Y-166334715D01*
X165454715Y-166134823D01*
X165609258Y-165903532D01*
X174083137Y-165903532D01*
X176000000Y-167820395D01*
X177916863Y-165903532D01*
X177658702Y-165500927D01*
X177139285Y-165225349D01*
X176576087Y-165056399D01*
X175990750Y-165000570D01*
X175405767Y-165060008D01*
X174843621Y-165232429D01*
X174341298Y-165500927D01*
X174083137Y-165903532D01*
X165609258Y-165903532D01*
X165611769Y-165899775D01*
X165719950Y-165638603D01*
X165775100Y-165361345D01*
X165775100Y-165078655D01*
X165719950Y-164801397D01*
X165611769Y-164540225D01*
X165454715Y-164305177D01*
X165254823Y-164105285D01*
X165019775Y-163948231D01*
X164758603Y-163840050D01*
X164481345Y-163784900D01*
X164198655Y-163784900D01*
X163921397Y-163840050D01*
X163660225Y-163948231D01*
X163425177Y-164105285D01*
X163225285Y-164305177D01*
X163070000Y-164537578D01*
X162914715Y-164305177D01*
X162714823Y-164105285D01*
X162479775Y-163948231D01*
X162218603Y-163840050D01*
X161941345Y-163784900D01*
X161658655Y-163784900D01*
X161381397Y-163840050D01*
X161120225Y-163948231D01*
X160885177Y-164105285D01*
X160685285Y-164305177D01*
X160530000Y-164537578D01*
X160374715Y-164305177D01*
X160174823Y-164105285D01*
X159939775Y-163948231D01*
X159678603Y-163840050D01*
X159401345Y-163784900D01*
X159118655Y-163784900D01*
X158841397Y-163840050D01*
X158580225Y-163948231D01*
X158345177Y-164105285D01*
X158145285Y-164305177D01*
X157990000Y-164537578D01*
X157834715Y-164305177D01*
X157634823Y-164105285D01*
X157480000Y-164001836D01*
X157480000Y-158300801D01*
X179340001Y-136440802D01*
X179340001Y-171340000D01*
X100660000Y-171340000D01*
X100660000Y-170096468D01*
X102083137Y-170096468D01*
X102341298Y-170499073D01*
X102860715Y-170774651D01*
X103423913Y-170943601D01*
X104009250Y-170999430D01*
X104594233Y-170939992D01*
X105156379Y-170767571D01*
X105658702Y-170499073D01*
X105916863Y-170096468D01*
X174083137Y-170096468D01*
X174341298Y-170499073D01*
X174860715Y-170774651D01*
X175423913Y-170943601D01*
X176009250Y-170999430D01*
X176594233Y-170939992D01*
X177156379Y-170767571D01*
X177658702Y-170499073D01*
X177916863Y-170096468D01*
X176000000Y-168179605D01*
X174083137Y-170096468D01*
X105916863Y-170096468D01*
X104000000Y-168179605D01*
X102083137Y-170096468D01*
X100660000Y-170096468D01*
X100660000Y-168009250D01*
X101000570Y-168009250D01*
X101060008Y-168594233D01*
X101232429Y-169156379D01*
X101500927Y-169658702D01*
X101903532Y-169916863D01*
X103820395Y-168000000D01*
X104179605Y-168000000D01*
X106096468Y-169916863D01*
X106499073Y-169658702D01*
X106774651Y-169139285D01*
X106943601Y-168576087D01*
X106999430Y-167990750D01*
X106939992Y-167405767D01*
X106767571Y-166843621D01*
X106499073Y-166341298D01*
X106096468Y-166083137D01*
X104179605Y-168000000D01*
X103820395Y-168000000D01*
X101903532Y-166083137D01*
X101500927Y-166341298D01*
X101225349Y-166860715D01*
X101056399Y-167423913D01*
X101000570Y-168009250D01*
X100660000Y-168009250D01*
X100660000Y-165903532D01*
X102083137Y-165903532D01*
X104000000Y-167820395D01*
X105916863Y-165903532D01*
X105658702Y-165500927D01*
X105262099Y-165290508D01*
X114639680Y-165290508D01*
X114681111Y-165570147D01*
X114776300Y-165836328D01*
X114843246Y-165961574D01*
X115087226Y-166033169D01*
X115900395Y-165220000D01*
X115087226Y-164406831D01*
X114843246Y-164478426D01*
X114722336Y-164733954D01*
X114653600Y-165008161D01*
X114639680Y-165290508D01*
X105262099Y-165290508D01*
X105139285Y-165225349D01*
X104576087Y-165056399D01*
X103990750Y-165000570D01*
X103405767Y-165060008D01*
X102843621Y-165232429D01*
X102341298Y-165500927D01*
X102083137Y-165903532D01*
X100660000Y-165903532D01*
X100660000Y-164227226D01*
X115266831Y-164227226D01*
X116080000Y-165040395D01*
X116893169Y-164227226D01*
X116821574Y-163983246D01*
X116566046Y-163862336D01*
X116291839Y-163793600D01*
X116009492Y-163779680D01*
X115729853Y-163821111D01*
X115463672Y-163916300D01*
X115338426Y-163983246D01*
X115266831Y-164227226D01*
X100660000Y-164227226D01*
X100660000Y-104901429D01*
X106350000Y-104901429D01*
X106350000Y-105218571D01*
X106411871Y-105529620D01*
X106533237Y-105822621D01*
X106709431Y-106086315D01*
X106933685Y-106310569D01*
X107197379Y-106486763D01*
X107490380Y-106608129D01*
X107801429Y-106670000D01*
X108118571Y-106670000D01*
X108429620Y-106608129D01*
X108722621Y-106486763D01*
X108986315Y-106310569D01*
X109210569Y-106086315D01*
X109386763Y-105822621D01*
X109508129Y-105529620D01*
X109570000Y-105218571D01*
X109570000Y-104901429D01*
X109508129Y-104590380D01*
X109386763Y-104297379D01*
X109210569Y-104033685D01*
X108986315Y-103809431D01*
X108722621Y-103633237D01*
X108429620Y-103511871D01*
X108118571Y-103450000D01*
X107801429Y-103450000D01*
X107490380Y-103511871D01*
X107197379Y-103633237D01*
X106933685Y-103809431D01*
X106709431Y-104033685D01*
X106533237Y-104297379D01*
X106411871Y-104590380D01*
X106350000Y-104901429D01*
X100660000Y-104901429D01*
X100660000Y-102677584D01*
X107022021Y-102677584D01*
X107114766Y-102939429D01*
X107400120Y-103077820D01*
X107706990Y-103157883D01*
X108023584Y-103176540D01*
X108337733Y-103133074D01*
X108637367Y-103029156D01*
X108805234Y-102939429D01*
X108897979Y-102677584D01*
X107960000Y-101739605D01*
X107022021Y-102677584D01*
X100660000Y-102677584D01*
X100660000Y-101623584D01*
X106343460Y-101623584D01*
X106386926Y-101937733D01*
X106490844Y-102237367D01*
X106580571Y-102405234D01*
X106842416Y-102497979D01*
X107780395Y-101560000D01*
X108139605Y-101560000D01*
X109077584Y-102497979D01*
X109339429Y-102405234D01*
X109477820Y-102119880D01*
X109557883Y-101813010D01*
X109576540Y-101496416D01*
X109533074Y-101182267D01*
X109429156Y-100882633D01*
X109339429Y-100714766D01*
X109077584Y-100622021D01*
X108139605Y-101560000D01*
X107780395Y-101560000D01*
X106842416Y-100622021D01*
X106580571Y-100714766D01*
X106442180Y-101000120D01*
X106362117Y-101306990D01*
X106343460Y-101623584D01*
X100660000Y-101623584D01*
X100660000Y-100442416D01*
X107022021Y-100442416D01*
X107960000Y-101380395D01*
X108897979Y-100442416D01*
X108805234Y-100180571D01*
X108519880Y-100042180D01*
X108213010Y-99962117D01*
X107896416Y-99943460D01*
X107582267Y-99986926D01*
X107282633Y-100090844D01*
X107114766Y-100180571D01*
X107022021Y-100442416D01*
X100660000Y-100442416D01*
X100660000Y-80660000D01*
X118661195Y-80660000D01*
X106148997Y-93172200D01*
G37*
X106148997Y-93172200D02*
X106119999Y-93195998D01*
X106096201Y-93224996D01*
X106096200Y-93224997D01*
X106025025Y-93311723D01*
X105954453Y-93443753D01*
X105910997Y-93587014D01*
X105896323Y-93735999D01*
X105900000Y-93773331D01*
X105899999Y-96522676D01*
X105896323Y-96559999D01*
X105899999Y-96597321D01*
X105899999Y-96597331D01*
X105910996Y-96708984D01*
X105948823Y-96833685D01*
X105954453Y-96852245D01*
X106025025Y-96984275D01*
X106064870Y-97032825D01*
X106119998Y-97100000D01*
X106149002Y-97123803D01*
X106412957Y-97387758D01*
X106411871Y-97390380D01*
X106350000Y-97701429D01*
X106350000Y-98018571D01*
X106411871Y-98329620D01*
X106533237Y-98622621D01*
X106709431Y-98886315D01*
X106933685Y-99110569D01*
X107197379Y-99286763D01*
X107490380Y-99408129D01*
X107801429Y-99470000D01*
X108118571Y-99470000D01*
X108429620Y-99408129D01*
X108722621Y-99286763D01*
X108986315Y-99110569D01*
X109210569Y-98886315D01*
X109386763Y-98622621D01*
X109508129Y-98329620D01*
X109570000Y-98018571D01*
X109570000Y-97701429D01*
X109508129Y-97390380D01*
X109386763Y-97097379D01*
X109210569Y-96833685D01*
X108986315Y-96609431D01*
X108722621Y-96433237D01*
X108429620Y-96311871D01*
X108118571Y-96250000D01*
X107801429Y-96250000D01*
X107490380Y-96311871D01*
X107487758Y-96312957D01*
X107419999Y-96245198D01*
X107419999Y-95878976D01*
X107490380Y-95908129D01*
X107801429Y-95970000D01*
X108118571Y-95970000D01*
X108429620Y-95908129D01*
X108722621Y-95786763D01*
X108986315Y-95610569D01*
X109210569Y-95386315D01*
X109386763Y-95122621D01*
X109508129Y-94829620D01*
X109570000Y-94518571D01*
X109570000Y-94201429D01*
X109508129Y-93890380D01*
X109386763Y-93597379D01*
X109210569Y-93333685D01*
X108986315Y-93109431D01*
X108722621Y-92933237D01*
X108591765Y-92879034D01*
X119985811Y-81484990D01*
X127461206Y-81484990D01*
X125779003Y-83167194D01*
X125749999Y-83190997D01*
X125694871Y-83258172D01*
X125655026Y-83306722D01*
X125602495Y-83405000D01*
X125584454Y-83438752D01*
X125540997Y-83582013D01*
X125530000Y-83693666D01*
X125530000Y-83693676D01*
X125526324Y-83730998D01*
X125530000Y-83768320D01*
X125530001Y-112592667D01*
X125526324Y-112630000D01*
X125540998Y-112778985D01*
X125584454Y-112922246D01*
X125655026Y-113054276D01*
X125691733Y-113099003D01*
X125750000Y-113170001D01*
X125778998Y-113193799D01*
X152110000Y-139524803D01*
X152110001Y-163861340D01*
X152058603Y-163840050D01*
X151781345Y-163784900D01*
X151498655Y-163784900D01*
X151221397Y-163840050D01*
X150960225Y-163948231D01*
X150725177Y-164105285D01*
X150525285Y-164305177D01*
X150370000Y-164537578D01*
X150214715Y-164305177D01*
X150014823Y-164105285D01*
X149779775Y-163948231D01*
X149518603Y-163840050D01*
X149241345Y-163784900D01*
X148958655Y-163784900D01*
X148681397Y-163840050D01*
X148420225Y-163948231D01*
X148185177Y-164105285D01*
X147985285Y-164305177D01*
X147830000Y-164537578D01*
X147674715Y-164305177D01*
X147474823Y-164105285D01*
X147239775Y-163948231D01*
X146978603Y-163840050D01*
X146701345Y-163784900D01*
X146418655Y-163784900D01*
X146141397Y-163840050D01*
X145880225Y-163948231D01*
X145645177Y-164105285D01*
X145445285Y-164305177D01*
X145290000Y-164537578D01*
X145134715Y-164305177D01*
X144934823Y-164105285D01*
X144699775Y-163948231D01*
X144438603Y-163840050D01*
X144161345Y-163784900D01*
X143878655Y-163784900D01*
X143601397Y-163840050D01*
X143340225Y-163948231D01*
X143105177Y-164105285D01*
X142905285Y-164305177D01*
X142750000Y-164537578D01*
X142594715Y-164305177D01*
X142394823Y-164105285D01*
X142159775Y-163948231D01*
X141898603Y-163840050D01*
X141621345Y-163784900D01*
X141338655Y-163784900D01*
X141061397Y-163840050D01*
X140800225Y-163948231D01*
X140565177Y-164105285D01*
X140365285Y-164305177D01*
X140210000Y-164537578D01*
X140054715Y-164305177D01*
X139854823Y-164105285D01*
X139619775Y-163948231D01*
X139358603Y-163840050D01*
X139081345Y-163784900D01*
X138798655Y-163784900D01*
X138521397Y-163840050D01*
X138260225Y-163948231D01*
X138025177Y-164105285D01*
X137825285Y-164305177D01*
X137670000Y-164537578D01*
X137514715Y-164305177D01*
X137314823Y-164105285D01*
X137079775Y-163948231D01*
X136818603Y-163840050D01*
X136541345Y-163784900D01*
X136258655Y-163784900D01*
X135981397Y-163840050D01*
X135720225Y-163948231D01*
X135485177Y-164105285D01*
X135285285Y-164305177D01*
X135129095Y-164538932D01*
X135096754Y-164478426D01*
X134852774Y-164406831D01*
X134039605Y-165220000D01*
X134852774Y-166033169D01*
X135096754Y-165961574D01*
X135127188Y-165897256D01*
X135128231Y-165899775D01*
X135285285Y-166134823D01*
X135485177Y-166334715D01*
X135717578Y-166490000D01*
X135485177Y-166645285D01*
X135285285Y-166845177D01*
X135130000Y-167077578D01*
X134974715Y-166845177D01*
X134774823Y-166645285D01*
X134541068Y-166489095D01*
X134601574Y-166456754D01*
X134673169Y-166212774D01*
X133860000Y-165399605D01*
X133046831Y-166212774D01*
X133118426Y-166456754D01*
X133182744Y-166487188D01*
X133180225Y-166488231D01*
X132945177Y-166645285D01*
X132745285Y-166845177D01*
X132590000Y-167077578D01*
X132434715Y-166845177D01*
X132234823Y-166645285D01*
X132002422Y-166490000D01*
X132234823Y-166334715D01*
X132434715Y-166134823D01*
X132590905Y-165901068D01*
X132623246Y-165961574D01*
X132867226Y-166033169D01*
X133680395Y-165220000D01*
X132867226Y-164406831D01*
X132623246Y-164478426D01*
X132592812Y-164542744D01*
X132591769Y-164540225D01*
X132434715Y-164305177D01*
X132356764Y-164227226D01*
X133046831Y-164227226D01*
X133860000Y-165040395D01*
X134673169Y-164227226D01*
X134601574Y-163983246D01*
X134346046Y-163862336D01*
X134071839Y-163793600D01*
X133789492Y-163779680D01*
X133509853Y-163821111D01*
X133243672Y-163916300D01*
X133118426Y-163983246D01*
X133046831Y-164227226D01*
X132356764Y-164227226D01*
X132234823Y-164105285D01*
X131999775Y-163948231D01*
X131738603Y-163840050D01*
X131461345Y-163784900D01*
X131178655Y-163784900D01*
X130901397Y-163840050D01*
X130640225Y-163948231D01*
X130405177Y-164105285D01*
X130205285Y-164305177D01*
X130050000Y-164537578D01*
X129894715Y-164305177D01*
X129694823Y-164105285D01*
X129459775Y-163948231D01*
X129198603Y-163840050D01*
X128921345Y-163784900D01*
X128638655Y-163784900D01*
X128361397Y-163840050D01*
X128100225Y-163948231D01*
X127865177Y-164105285D01*
X127665285Y-164305177D01*
X127510000Y-164537578D01*
X127354715Y-164305177D01*
X127154823Y-164105285D01*
X126919775Y-163948231D01*
X126658603Y-163840050D01*
X126381345Y-163784900D01*
X126098655Y-163784900D01*
X125821397Y-163840050D01*
X125560225Y-163948231D01*
X125325177Y-164105285D01*
X125125285Y-164305177D01*
X124970000Y-164537578D01*
X124814715Y-164305177D01*
X124614823Y-164105285D01*
X124379775Y-163948231D01*
X124118603Y-163840050D01*
X123841345Y-163784900D01*
X123558655Y-163784900D01*
X123281397Y-163840050D01*
X123020225Y-163948231D01*
X122785177Y-164105285D01*
X122585285Y-164305177D01*
X122430000Y-164537578D01*
X122274715Y-164305177D01*
X122074823Y-164105285D01*
X121839775Y-163948231D01*
X121578603Y-163840050D01*
X121301345Y-163784900D01*
X121018655Y-163784900D01*
X120741397Y-163840050D01*
X120480225Y-163948231D01*
X120245177Y-164105285D01*
X120045285Y-164305177D01*
X119890000Y-164537578D01*
X119734715Y-164305177D01*
X119534823Y-164105285D01*
X119299775Y-163948231D01*
X119038603Y-163840050D01*
X118761345Y-163784900D01*
X118478655Y-163784900D01*
X118201397Y-163840050D01*
X117940225Y-163948231D01*
X117705177Y-164105285D01*
X117505285Y-164305177D01*
X117349095Y-164538932D01*
X117316754Y-164478426D01*
X117072774Y-164406831D01*
X116259605Y-165220000D01*
X117072774Y-166033169D01*
X117316754Y-165961574D01*
X117347188Y-165897256D01*
X117348231Y-165899775D01*
X117505285Y-166134823D01*
X117705177Y-166334715D01*
X117937578Y-166490000D01*
X117705177Y-166645285D01*
X117505285Y-166845177D01*
X117350000Y-167077578D01*
X117194715Y-166845177D01*
X116994823Y-166645285D01*
X116761068Y-166489095D01*
X116821574Y-166456754D01*
X116893169Y-166212774D01*
X116080000Y-165399605D01*
X115266831Y-166212774D01*
X115338426Y-166456754D01*
X115402744Y-166487188D01*
X115400225Y-166488231D01*
X115165177Y-166645285D01*
X114965285Y-166845177D01*
X114808231Y-167080225D01*
X114700050Y-167341397D01*
X114644900Y-167618655D01*
X114644900Y-167901345D01*
X114700050Y-168178603D01*
X114808231Y-168439775D01*
X114965285Y-168674823D01*
X115165177Y-168874715D01*
X115400225Y-169031769D01*
X115661397Y-169139950D01*
X115938655Y-169195100D01*
X116221345Y-169195100D01*
X116498603Y-169139950D01*
X116759775Y-169031769D01*
X116994823Y-168874715D01*
X117194715Y-168674823D01*
X117350000Y-168442422D01*
X117505285Y-168674823D01*
X117705177Y-168874715D01*
X117940225Y-169031769D01*
X118201397Y-169139950D01*
X118478655Y-169195100D01*
X118761345Y-169195100D01*
X119038603Y-169139950D01*
X119299775Y-169031769D01*
X119534823Y-168874715D01*
X119734715Y-168674823D01*
X119890000Y-168442422D01*
X120045285Y-168674823D01*
X120245177Y-168874715D01*
X120480225Y-169031769D01*
X120741397Y-169139950D01*
X121018655Y-169195100D01*
X121301345Y-169195100D01*
X121578603Y-169139950D01*
X121839775Y-169031769D01*
X122074823Y-168874715D01*
X122196764Y-168752774D01*
X122886831Y-168752774D01*
X122958426Y-168996754D01*
X123213954Y-169117664D01*
X123488161Y-169186400D01*
X123770508Y-169200320D01*
X124050147Y-169158889D01*
X124316328Y-169063700D01*
X124441574Y-168996754D01*
X124513169Y-168752774D01*
X123700000Y-167939605D01*
X122886831Y-168752774D01*
X122196764Y-168752774D01*
X122274715Y-168674823D01*
X122430905Y-168441068D01*
X122463246Y-168501574D01*
X122707226Y-168573169D01*
X123520395Y-167760000D01*
X122707226Y-166946831D01*
X122463246Y-167018426D01*
X122432812Y-167082744D01*
X122431769Y-167080225D01*
X122274715Y-166845177D01*
X122074823Y-166645285D01*
X121842422Y-166490000D01*
X122074823Y-166334715D01*
X122274715Y-166134823D01*
X122430000Y-165902422D01*
X122585285Y-166134823D01*
X122785177Y-166334715D01*
X123018932Y-166490905D01*
X122958426Y-166523246D01*
X122886831Y-166767226D01*
X123700000Y-167580395D01*
X124513169Y-166767226D01*
X124441574Y-166523246D01*
X124377256Y-166492812D01*
X124379775Y-166491769D01*
X124614823Y-166334715D01*
X124814715Y-166134823D01*
X124970000Y-165902422D01*
X125125285Y-166134823D01*
X125325177Y-166334715D01*
X125557578Y-166490000D01*
X125325177Y-166645285D01*
X125125285Y-166845177D01*
X124969095Y-167078932D01*
X124936754Y-167018426D01*
X124692774Y-166946831D01*
X123879605Y-167760000D01*
X124692774Y-168573169D01*
X124936754Y-168501574D01*
X124967188Y-168437256D01*
X124968231Y-168439775D01*
X125125285Y-168674823D01*
X125325177Y-168874715D01*
X125560225Y-169031769D01*
X125821397Y-169139950D01*
X126098655Y-169195100D01*
X126381345Y-169195100D01*
X126658603Y-169139950D01*
X126919775Y-169031769D01*
X127154823Y-168874715D01*
X127276764Y-168752774D01*
X127966831Y-168752774D01*
X128038426Y-168996754D01*
X128293954Y-169117664D01*
X128568161Y-169186400D01*
X128850508Y-169200320D01*
X129130147Y-169158889D01*
X129396328Y-169063700D01*
X129521574Y-168996754D01*
X129593169Y-168752774D01*
X128780000Y-167939605D01*
X127966831Y-168752774D01*
X127276764Y-168752774D01*
X127354715Y-168674823D01*
X127510905Y-168441068D01*
X127543246Y-168501574D01*
X127787226Y-168573169D01*
X128600395Y-167760000D01*
X127787226Y-166946831D01*
X127543246Y-167018426D01*
X127512812Y-167082744D01*
X127511769Y-167080225D01*
X127354715Y-166845177D01*
X127154823Y-166645285D01*
X126922422Y-166490000D01*
X127154823Y-166334715D01*
X127354715Y-166134823D01*
X127510000Y-165902422D01*
X127665285Y-166134823D01*
X127865177Y-166334715D01*
X128098932Y-166490905D01*
X128038426Y-166523246D01*
X127966831Y-166767226D01*
X128780000Y-167580395D01*
X129593169Y-166767226D01*
X129521574Y-166523246D01*
X129457256Y-166492812D01*
X129459775Y-166491769D01*
X129694823Y-166334715D01*
X129894715Y-166134823D01*
X130050000Y-165902422D01*
X130205285Y-166134823D01*
X130405177Y-166334715D01*
X130637578Y-166490000D01*
X130405177Y-166645285D01*
X130205285Y-166845177D01*
X130049095Y-167078932D01*
X130016754Y-167018426D01*
X129772774Y-166946831D01*
X128959605Y-167760000D01*
X129772774Y-168573169D01*
X130016754Y-168501574D01*
X130047188Y-168437256D01*
X130048231Y-168439775D01*
X130205285Y-168674823D01*
X130405177Y-168874715D01*
X130640225Y-169031769D01*
X130901397Y-169139950D01*
X131178655Y-169195100D01*
X131461345Y-169195100D01*
X131738603Y-169139950D01*
X131999775Y-169031769D01*
X132234823Y-168874715D01*
X132434715Y-168674823D01*
X132590000Y-168442422D01*
X132745285Y-168674823D01*
X132945177Y-168874715D01*
X133180225Y-169031769D01*
X133441397Y-169139950D01*
X133718655Y-169195100D01*
X134001345Y-169195100D01*
X134278603Y-169139950D01*
X134539775Y-169031769D01*
X134774823Y-168874715D01*
X134974715Y-168674823D01*
X135130000Y-168442422D01*
X135285285Y-168674823D01*
X135485177Y-168874715D01*
X135720225Y-169031769D01*
X135981397Y-169139950D01*
X136258655Y-169195100D01*
X136541345Y-169195100D01*
X136818603Y-169139950D01*
X137079775Y-169031769D01*
X137314823Y-168874715D01*
X137514715Y-168674823D01*
X137670000Y-168442422D01*
X137825285Y-168674823D01*
X138025177Y-168874715D01*
X138260225Y-169031769D01*
X138521397Y-169139950D01*
X138798655Y-169195100D01*
X139081345Y-169195100D01*
X139358603Y-169139950D01*
X139619775Y-169031769D01*
X139854823Y-168874715D01*
X139976764Y-168752774D01*
X140666831Y-168752774D01*
X140738426Y-168996754D01*
X140993954Y-169117664D01*
X141268161Y-169186400D01*
X141550508Y-169200320D01*
X141830147Y-169158889D01*
X142096328Y-169063700D01*
X142221574Y-168996754D01*
X142293169Y-168752774D01*
X141480000Y-167939605D01*
X140666831Y-168752774D01*
X139976764Y-168752774D01*
X140054715Y-168674823D01*
X140210905Y-168441068D01*
X140243246Y-168501574D01*
X140487226Y-168573169D01*
X141300395Y-167760000D01*
X140487226Y-166946831D01*
X140243246Y-167018426D01*
X140212812Y-167082744D01*
X140211769Y-167080225D01*
X140054715Y-166845177D01*
X139854823Y-166645285D01*
X139622422Y-166490000D01*
X139854823Y-166334715D01*
X140054715Y-166134823D01*
X140210000Y-165902422D01*
X140365285Y-166134823D01*
X140565177Y-166334715D01*
X140798932Y-166490905D01*
X140738426Y-166523246D01*
X140666831Y-166767226D01*
X141480000Y-167580395D01*
X142293169Y-166767226D01*
X142221574Y-166523246D01*
X142157256Y-166492812D01*
X142159775Y-166491769D01*
X142394823Y-166334715D01*
X142594715Y-166134823D01*
X142750000Y-165902422D01*
X142905285Y-166134823D01*
X143105177Y-166334715D01*
X143337578Y-166490000D01*
X143105177Y-166645285D01*
X142905285Y-166845177D01*
X142749095Y-167078932D01*
X142716754Y-167018426D01*
X142472774Y-166946831D01*
X141659605Y-167760000D01*
X142472774Y-168573169D01*
X142716754Y-168501574D01*
X142747188Y-168437256D01*
X142748231Y-168439775D01*
X142905285Y-168674823D01*
X143105177Y-168874715D01*
X143340225Y-169031769D01*
X143601397Y-169139950D01*
X143878655Y-169195100D01*
X144161345Y-169195100D01*
X144438603Y-169139950D01*
X144699775Y-169031769D01*
X144934823Y-168874715D01*
X145134715Y-168674823D01*
X145290000Y-168442422D01*
X145445285Y-168674823D01*
X145645177Y-168874715D01*
X145880225Y-169031769D01*
X146141397Y-169139950D01*
X146418655Y-169195100D01*
X146701345Y-169195100D01*
X146978603Y-169139950D01*
X147239775Y-169031769D01*
X147474823Y-168874715D01*
X147596764Y-168752774D01*
X148286831Y-168752774D01*
X148358426Y-168996754D01*
X148613954Y-169117664D01*
X148888161Y-169186400D01*
X149170508Y-169200320D01*
X149450147Y-169158889D01*
X149716328Y-169063700D01*
X149841574Y-168996754D01*
X149913169Y-168752774D01*
X149100000Y-167939605D01*
X148286831Y-168752774D01*
X147596764Y-168752774D01*
X147674715Y-168674823D01*
X147830905Y-168441068D01*
X147863246Y-168501574D01*
X148107226Y-168573169D01*
X148920395Y-167760000D01*
X148107226Y-166946831D01*
X147863246Y-167018426D01*
X147832812Y-167082744D01*
X147831769Y-167080225D01*
X147674715Y-166845177D01*
X147474823Y-166645285D01*
X147242422Y-166490000D01*
X147474823Y-166334715D01*
X147674715Y-166134823D01*
X147830000Y-165902422D01*
X147985285Y-166134823D01*
X148185177Y-166334715D01*
X148418932Y-166490905D01*
X148358426Y-166523246D01*
X148286831Y-166767226D01*
X149100000Y-167580395D01*
X149913169Y-166767226D01*
X149841574Y-166523246D01*
X149777256Y-166492812D01*
X149779775Y-166491769D01*
X150014823Y-166334715D01*
X150214715Y-166134823D01*
X150370000Y-165902422D01*
X150525285Y-166134823D01*
X150725177Y-166334715D01*
X150957578Y-166490000D01*
X150725177Y-166645285D01*
X150525285Y-166845177D01*
X150369095Y-167078932D01*
X150336754Y-167018426D01*
X150092774Y-166946831D01*
X149279605Y-167760000D01*
X150092774Y-168573169D01*
X150336754Y-168501574D01*
X150367188Y-168437256D01*
X150368231Y-168439775D01*
X150525285Y-168674823D01*
X150725177Y-168874715D01*
X150960225Y-169031769D01*
X151221397Y-169139950D01*
X151498655Y-169195100D01*
X151781345Y-169195100D01*
X152058603Y-169139950D01*
X152319775Y-169031769D01*
X152554787Y-168874739D01*
X153076152Y-169396103D01*
X153099950Y-169425102D01*
X153128948Y-169448900D01*
X153215674Y-169520075D01*
X153347704Y-169590647D01*
X153490965Y-169634104D01*
X153602618Y-169645101D01*
X153602627Y-169645101D01*
X153639950Y-169648777D01*
X153677273Y-169645101D01*
X155557577Y-169645101D01*
X155594899Y-169648777D01*
X155632221Y-169645101D01*
X155632232Y-169645101D01*
X155743885Y-169634104D01*
X155887146Y-169590647D01*
X156019175Y-169520075D01*
X156134900Y-169425102D01*
X156158703Y-169396099D01*
X156396028Y-169158773D01*
X156578655Y-169195100D01*
X156861345Y-169195100D01*
X157138603Y-169139950D01*
X157399775Y-169031769D01*
X157634823Y-168874715D01*
X157756764Y-168752774D01*
X158446831Y-168752774D01*
X158518426Y-168996754D01*
X158773954Y-169117664D01*
X159048161Y-169186400D01*
X159330508Y-169200320D01*
X159610147Y-169158889D01*
X159876328Y-169063700D01*
X160001574Y-168996754D01*
X160073169Y-168752774D01*
X159260000Y-167939605D01*
X158446831Y-168752774D01*
X157756764Y-168752774D01*
X157834715Y-168674823D01*
X157990905Y-168441068D01*
X158023246Y-168501574D01*
X158267226Y-168573169D01*
X159080395Y-167760000D01*
X158267226Y-166946831D01*
X158023246Y-167018426D01*
X157992812Y-167082744D01*
X157991769Y-167080225D01*
X157834715Y-166845177D01*
X157634823Y-166645285D01*
X157402422Y-166490000D01*
X157634823Y-166334715D01*
X157834715Y-166134823D01*
X157990000Y-165902422D01*
X158145285Y-166134823D01*
X158345177Y-166334715D01*
X158578932Y-166490905D01*
X158518426Y-166523246D01*
X158446831Y-166767226D01*
X159260000Y-167580395D01*
X160073169Y-166767226D01*
X160001574Y-166523246D01*
X159937256Y-166492812D01*
X159939775Y-166491769D01*
X160174823Y-166334715D01*
X160374715Y-166134823D01*
X160530000Y-165902422D01*
X160685285Y-166134823D01*
X160885177Y-166334715D01*
X161117578Y-166490000D01*
X160885177Y-166645285D01*
X160685285Y-166845177D01*
X160529095Y-167078932D01*
X160496754Y-167018426D01*
X160252774Y-166946831D01*
X159439605Y-167760000D01*
X160252774Y-168573169D01*
X160496754Y-168501574D01*
X160527188Y-168437256D01*
X160528231Y-168439775D01*
X160685285Y-168674823D01*
X160885177Y-168874715D01*
X161120225Y-169031769D01*
X161381397Y-169139950D01*
X161658655Y-169195100D01*
X161941345Y-169195100D01*
X162218603Y-169139950D01*
X162479775Y-169031769D01*
X162714823Y-168874715D01*
X162914715Y-168674823D01*
X163070000Y-168442422D01*
X163225285Y-168674823D01*
X163425177Y-168874715D01*
X163660225Y-169031769D01*
X163921397Y-169139950D01*
X164198655Y-169195100D01*
X164481345Y-169195100D01*
X164758603Y-169139950D01*
X165019775Y-169031769D01*
X165254823Y-168874715D01*
X165454715Y-168674823D01*
X165611769Y-168439775D01*
X165719950Y-168178603D01*
X165753636Y-168009250D01*
X173000570Y-168009250D01*
X173060008Y-168594233D01*
X173232429Y-169156379D01*
X173500927Y-169658702D01*
X173903532Y-169916863D01*
X175820395Y-168000000D01*
X176179605Y-168000000D01*
X178096468Y-169916863D01*
X178499073Y-169658702D01*
X178774651Y-169139285D01*
X178943601Y-168576087D01*
X178999430Y-167990750D01*
X178939992Y-167405767D01*
X178767571Y-166843621D01*
X178499073Y-166341298D01*
X178096468Y-166083137D01*
X176179605Y-168000000D01*
X175820395Y-168000000D01*
X173903532Y-166083137D01*
X173500927Y-166341298D01*
X173225349Y-166860715D01*
X173056399Y-167423913D01*
X173000570Y-168009250D01*
X165753636Y-168009250D01*
X165775100Y-167901345D01*
X165775100Y-167618655D01*
X165719950Y-167341397D01*
X165611769Y-167080225D01*
X165454715Y-166845177D01*
X165254823Y-166645285D01*
X165022422Y-166490000D01*
X165254823Y-166334715D01*
X165454715Y-166134823D01*
X165609258Y-165903532D01*
X174083137Y-165903532D01*
X176000000Y-167820395D01*
X177916863Y-165903532D01*
X177658702Y-165500927D01*
X177139285Y-165225349D01*
X176576087Y-165056399D01*
X175990750Y-165000570D01*
X175405767Y-165060008D01*
X174843621Y-165232429D01*
X174341298Y-165500927D01*
X174083137Y-165903532D01*
X165609258Y-165903532D01*
X165611769Y-165899775D01*
X165719950Y-165638603D01*
X165775100Y-165361345D01*
X165775100Y-165078655D01*
X165719950Y-164801397D01*
X165611769Y-164540225D01*
X165454715Y-164305177D01*
X165254823Y-164105285D01*
X165019775Y-163948231D01*
X164758603Y-163840050D01*
X164481345Y-163784900D01*
X164198655Y-163784900D01*
X163921397Y-163840050D01*
X163660225Y-163948231D01*
X163425177Y-164105285D01*
X163225285Y-164305177D01*
X163070000Y-164537578D01*
X162914715Y-164305177D01*
X162714823Y-164105285D01*
X162479775Y-163948231D01*
X162218603Y-163840050D01*
X161941345Y-163784900D01*
X161658655Y-163784900D01*
X161381397Y-163840050D01*
X161120225Y-163948231D01*
X160885177Y-164105285D01*
X160685285Y-164305177D01*
X160530000Y-164537578D01*
X160374715Y-164305177D01*
X160174823Y-164105285D01*
X159939775Y-163948231D01*
X159678603Y-163840050D01*
X159401345Y-163784900D01*
X159118655Y-163784900D01*
X158841397Y-163840050D01*
X158580225Y-163948231D01*
X158345177Y-164105285D01*
X158145285Y-164305177D01*
X157990000Y-164537578D01*
X157834715Y-164305177D01*
X157634823Y-164105285D01*
X157480000Y-164001836D01*
X157480000Y-158300801D01*
X179340001Y-136440802D01*
X179340001Y-171340000D01*
X100660000Y-171340000D01*
X100660000Y-170096468D01*
X102083137Y-170096468D01*
X102341298Y-170499073D01*
X102860715Y-170774651D01*
X103423913Y-170943601D01*
X104009250Y-170999430D01*
X104594233Y-170939992D01*
X105156379Y-170767571D01*
X105658702Y-170499073D01*
X105916863Y-170096468D01*
X174083137Y-170096468D01*
X174341298Y-170499073D01*
X174860715Y-170774651D01*
X175423913Y-170943601D01*
X176009250Y-170999430D01*
X176594233Y-170939992D01*
X177156379Y-170767571D01*
X177658702Y-170499073D01*
X177916863Y-170096468D01*
X176000000Y-168179605D01*
X174083137Y-170096468D01*
X105916863Y-170096468D01*
X104000000Y-168179605D01*
X102083137Y-170096468D01*
X100660000Y-170096468D01*
X100660000Y-168009250D01*
X101000570Y-168009250D01*
X101060008Y-168594233D01*
X101232429Y-169156379D01*
X101500927Y-169658702D01*
X101903532Y-169916863D01*
X103820395Y-168000000D01*
X104179605Y-168000000D01*
X106096468Y-169916863D01*
X106499073Y-169658702D01*
X106774651Y-169139285D01*
X106943601Y-168576087D01*
X106999430Y-167990750D01*
X106939992Y-167405767D01*
X106767571Y-166843621D01*
X106499073Y-166341298D01*
X106096468Y-166083137D01*
X104179605Y-168000000D01*
X103820395Y-168000000D01*
X101903532Y-166083137D01*
X101500927Y-166341298D01*
X101225349Y-166860715D01*
X101056399Y-167423913D01*
X101000570Y-168009250D01*
X100660000Y-168009250D01*
X100660000Y-165903532D01*
X102083137Y-165903532D01*
X104000000Y-167820395D01*
X105916863Y-165903532D01*
X105658702Y-165500927D01*
X105262099Y-165290508D01*
X114639680Y-165290508D01*
X114681111Y-165570147D01*
X114776300Y-165836328D01*
X114843246Y-165961574D01*
X115087226Y-166033169D01*
X115900395Y-165220000D01*
X115087226Y-164406831D01*
X114843246Y-164478426D01*
X114722336Y-164733954D01*
X114653600Y-165008161D01*
X114639680Y-165290508D01*
X105262099Y-165290508D01*
X105139285Y-165225349D01*
X104576087Y-165056399D01*
X103990750Y-165000570D01*
X103405767Y-165060008D01*
X102843621Y-165232429D01*
X102341298Y-165500927D01*
X102083137Y-165903532D01*
X100660000Y-165903532D01*
X100660000Y-164227226D01*
X115266831Y-164227226D01*
X116080000Y-165040395D01*
X116893169Y-164227226D01*
X116821574Y-163983246D01*
X116566046Y-163862336D01*
X116291839Y-163793600D01*
X116009492Y-163779680D01*
X115729853Y-163821111D01*
X115463672Y-163916300D01*
X115338426Y-163983246D01*
X115266831Y-164227226D01*
X100660000Y-164227226D01*
X100660000Y-104901429D01*
X106350000Y-104901429D01*
X106350000Y-105218571D01*
X106411871Y-105529620D01*
X106533237Y-105822621D01*
X106709431Y-106086315D01*
X106933685Y-106310569D01*
X107197379Y-106486763D01*
X107490380Y-106608129D01*
X107801429Y-106670000D01*
X108118571Y-106670000D01*
X108429620Y-106608129D01*
X108722621Y-106486763D01*
X108986315Y-106310569D01*
X109210569Y-106086315D01*
X109386763Y-105822621D01*
X109508129Y-105529620D01*
X109570000Y-105218571D01*
X109570000Y-104901429D01*
X109508129Y-104590380D01*
X109386763Y-104297379D01*
X109210569Y-104033685D01*
X108986315Y-103809431D01*
X108722621Y-103633237D01*
X108429620Y-103511871D01*
X108118571Y-103450000D01*
X107801429Y-103450000D01*
X107490380Y-103511871D01*
X107197379Y-103633237D01*
X106933685Y-103809431D01*
X106709431Y-104033685D01*
X106533237Y-104297379D01*
X106411871Y-104590380D01*
X106350000Y-104901429D01*
X100660000Y-104901429D01*
X100660000Y-102677584D01*
X107022021Y-102677584D01*
X107114766Y-102939429D01*
X107400120Y-103077820D01*
X107706990Y-103157883D01*
X108023584Y-103176540D01*
X108337733Y-103133074D01*
X108637367Y-103029156D01*
X108805234Y-102939429D01*
X108897979Y-102677584D01*
X107960000Y-101739605D01*
X107022021Y-102677584D01*
X100660000Y-102677584D01*
X100660000Y-101623584D01*
X106343460Y-101623584D01*
X106386926Y-101937733D01*
X106490844Y-102237367D01*
X106580571Y-102405234D01*
X106842416Y-102497979D01*
X107780395Y-101560000D01*
X108139605Y-101560000D01*
X109077584Y-102497979D01*
X109339429Y-102405234D01*
X109477820Y-102119880D01*
X109557883Y-101813010D01*
X109576540Y-101496416D01*
X109533074Y-101182267D01*
X109429156Y-100882633D01*
X109339429Y-100714766D01*
X109077584Y-100622021D01*
X108139605Y-101560000D01*
X107780395Y-101560000D01*
X106842416Y-100622021D01*
X106580571Y-100714766D01*
X106442180Y-101000120D01*
X106362117Y-101306990D01*
X106343460Y-101623584D01*
X100660000Y-101623584D01*
X100660000Y-100442416D01*
X107022021Y-100442416D01*
X107960000Y-101380395D01*
X108897979Y-100442416D01*
X108805234Y-100180571D01*
X108519880Y-100042180D01*
X108213010Y-99962117D01*
X107896416Y-99943460D01*
X107582267Y-99986926D01*
X107282633Y-100090844D01*
X107114766Y-100180571D01*
X107022021Y-100442416D01*
X100660000Y-100442416D01*
X100660000Y-80660000D01*
X118661195Y-80660000D01*
X106148997Y-93172200D01*
G36*
X154373748Y-165205858D02*
G01*
X154359605Y-165220000D01*
X154373748Y-165234143D01*
X154194143Y-165413748D01*
X154180000Y-165399605D01*
X154165858Y-165413748D01*
X153986253Y-165234143D01*
X154000395Y-165220000D01*
X153986253Y-165205858D01*
X154165858Y-165026253D01*
X154180000Y-165040395D01*
X154194143Y-165026253D01*
X154373748Y-165205858D01*
G37*
X154373748Y-165205858D02*
X154359605Y-165220000D01*
X154373748Y-165234143D01*
X154194143Y-165413748D01*
X154180000Y-165399605D01*
X154165858Y-165413748D01*
X153986253Y-165234143D01*
X154000395Y-165220000D01*
X153986253Y-165205858D01*
X154165858Y-165026253D01*
X154180000Y-165040395D01*
X154194143Y-165026253D01*
X154373748Y-165205858D01*
G36*
X128094010Y-83053411D02*
G01*
X128256525Y-83296632D01*
X128463368Y-83503475D01*
X128637760Y-83620000D01*
X128463368Y-83736525D01*
X128256525Y-83943368D01*
X128094010Y-84186589D01*
X127982068Y-84456842D01*
X127925000Y-84743740D01*
X127925000Y-85036260D01*
X127982068Y-85323158D01*
X128094010Y-85593411D01*
X128256525Y-85836632D01*
X128463368Y-86043475D01*
X128706589Y-86205990D01*
X128976842Y-86317932D01*
X129263740Y-86375000D01*
X129556260Y-86375000D01*
X129843158Y-86317932D01*
X130113411Y-86205990D01*
X130356632Y-86043475D01*
X130563475Y-85836632D01*
X130680000Y-85662240D01*
X130796525Y-85836632D01*
X131003368Y-86043475D01*
X131246589Y-86205990D01*
X131516842Y-86317932D01*
X131803740Y-86375000D01*
X132096260Y-86375000D01*
X132383158Y-86317932D01*
X132653411Y-86205990D01*
X132896632Y-86043475D01*
X133103475Y-85836632D01*
X133220000Y-85662240D01*
X133336525Y-85836632D01*
X133543368Y-86043475D01*
X133786589Y-86205990D01*
X134056842Y-86317932D01*
X134343740Y-86375000D01*
X134636260Y-86375000D01*
X134923158Y-86317932D01*
X135193411Y-86205990D01*
X135436632Y-86043475D01*
X135643475Y-85836632D01*
X135760000Y-85662240D01*
X135876525Y-85836632D01*
X136083368Y-86043475D01*
X136326589Y-86205990D01*
X136596842Y-86317932D01*
X136883740Y-86375000D01*
X137176260Y-86375000D01*
X137463158Y-86317932D01*
X137733411Y-86205990D01*
X137976632Y-86043475D01*
X138183475Y-85836632D01*
X138300000Y-85662240D01*
X138416525Y-85836632D01*
X138623368Y-86043475D01*
X138866589Y-86205990D01*
X139136842Y-86317932D01*
X139423740Y-86375000D01*
X139716260Y-86375000D01*
X140003158Y-86317932D01*
X140273411Y-86205990D01*
X140516632Y-86043475D01*
X140723475Y-85836632D01*
X140845195Y-85654466D01*
X140914822Y-85771355D01*
X141109731Y-85987588D01*
X141343080Y-86161641D01*
X141605901Y-86286825D01*
X141753110Y-86331476D01*
X141983000Y-86210155D01*
X141983000Y-85017000D01*
X141963000Y-85017000D01*
X141963000Y-84763000D01*
X141983000Y-84763000D01*
X141983000Y-84743000D01*
X142237000Y-84743000D01*
X142237000Y-84763000D01*
X142257000Y-84763000D01*
X142257000Y-85017000D01*
X142237000Y-85017000D01*
X142237000Y-86210155D01*
X142466890Y-86331476D01*
X142614099Y-86286825D01*
X142876920Y-86161641D01*
X143110269Y-85987588D01*
X143305178Y-85771355D01*
X143374805Y-85654466D01*
X143496525Y-85836632D01*
X143703368Y-86043475D01*
X143946589Y-86205990D01*
X144216842Y-86317932D01*
X144503740Y-86375000D01*
X144796260Y-86375000D01*
X145083158Y-86317932D01*
X145353411Y-86205990D01*
X145596632Y-86043475D01*
X145803475Y-85836632D01*
X145920000Y-85662240D01*
X146036525Y-85836632D01*
X146243368Y-86043475D01*
X146486589Y-86205990D01*
X146756842Y-86317932D01*
X147043740Y-86375000D01*
X147336260Y-86375000D01*
X147623158Y-86317932D01*
X147893411Y-86205990D01*
X148136632Y-86043475D01*
X148343475Y-85836632D01*
X148460000Y-85662240D01*
X148576525Y-85836632D01*
X148783368Y-86043475D01*
X149026589Y-86205990D01*
X149296842Y-86317932D01*
X149583740Y-86375000D01*
X149876260Y-86375000D01*
X150163158Y-86317932D01*
X150433411Y-86205990D01*
X150676632Y-86043475D01*
X150883475Y-85836632D01*
X151000000Y-85662240D01*
X151116525Y-85836632D01*
X151323368Y-86043475D01*
X151566589Y-86205990D01*
X151836842Y-86317932D01*
X152123740Y-86375000D01*
X152416260Y-86375000D01*
X152703158Y-86317932D01*
X152973411Y-86205990D01*
X153216632Y-86043475D01*
X153423475Y-85836632D01*
X153540000Y-85662240D01*
X153656525Y-85836632D01*
X153863368Y-86043475D01*
X154106589Y-86205990D01*
X154376842Y-86317932D01*
X154663740Y-86375000D01*
X154956260Y-86375000D01*
X155243158Y-86317932D01*
X155513411Y-86205990D01*
X155756632Y-86043475D01*
X155963475Y-85836632D01*
X156080000Y-85662240D01*
X156196525Y-85836632D01*
X156403368Y-86043475D01*
X156646589Y-86205990D01*
X156916842Y-86317932D01*
X157203740Y-86375000D01*
X157496260Y-86375000D01*
X157783158Y-86317932D01*
X158053411Y-86205990D01*
X158296632Y-86043475D01*
X158503475Y-85836632D01*
X158620000Y-85662240D01*
X158736525Y-85836632D01*
X158943368Y-86043475D01*
X159186589Y-86205990D01*
X159456842Y-86317932D01*
X159743740Y-86375000D01*
X160036260Y-86375000D01*
X160323158Y-86317932D01*
X160593411Y-86205990D01*
X160836632Y-86043475D01*
X161043475Y-85836632D01*
X161160000Y-85662240D01*
X161276525Y-85836632D01*
X161483368Y-86043475D01*
X161726589Y-86205990D01*
X161996842Y-86317932D01*
X162283740Y-86375000D01*
X162576260Y-86375000D01*
X162863158Y-86317932D01*
X163133411Y-86205990D01*
X163376632Y-86043475D01*
X163583475Y-85836632D01*
X163705195Y-85654466D01*
X163774822Y-85771355D01*
X163969731Y-85987588D01*
X164203080Y-86161641D01*
X164465901Y-86286825D01*
X164613110Y-86331476D01*
X164843000Y-86210155D01*
X164843000Y-85017000D01*
X164823000Y-85017000D01*
X164823000Y-84763000D01*
X164843000Y-84763000D01*
X164843000Y-84743000D01*
X165097000Y-84743000D01*
X165097000Y-84763000D01*
X165117000Y-84763000D01*
X165117000Y-85017000D01*
X165097000Y-85017000D01*
X165097000Y-86210155D01*
X165326890Y-86331476D01*
X165474099Y-86286825D01*
X165736920Y-86161641D01*
X165970269Y-85987588D01*
X166165178Y-85771355D01*
X166234805Y-85654466D01*
X166356525Y-85836632D01*
X166563368Y-86043475D01*
X166806589Y-86205990D01*
X167076842Y-86317932D01*
X167363740Y-86375000D01*
X167656260Y-86375000D01*
X167943158Y-86317932D01*
X168115000Y-86246753D01*
X168114999Y-101993247D01*
X167943158Y-101922068D01*
X167656260Y-101865000D01*
X167363740Y-101865000D01*
X167076842Y-101922068D01*
X166806589Y-102034010D01*
X166563368Y-102196525D01*
X166356525Y-102403368D01*
X166240000Y-102577760D01*
X166123475Y-102403368D01*
X165916632Y-102196525D01*
X165673411Y-102034010D01*
X165403158Y-101922068D01*
X165116260Y-101865000D01*
X164823740Y-101865000D01*
X164536842Y-101922068D01*
X164266589Y-102034010D01*
X164023368Y-102196525D01*
X163816525Y-102403368D01*
X163700000Y-102577760D01*
X163583475Y-102403368D01*
X163376632Y-102196525D01*
X163133411Y-102034010D01*
X162863158Y-101922068D01*
X162576260Y-101865000D01*
X162283740Y-101865000D01*
X161996842Y-101922068D01*
X161726589Y-102034010D01*
X161483368Y-102196525D01*
X161276525Y-102403368D01*
X161160000Y-102577760D01*
X161043475Y-102403368D01*
X160836632Y-102196525D01*
X160593411Y-102034010D01*
X160323158Y-101922068D01*
X160036260Y-101865000D01*
X159743740Y-101865000D01*
X159456842Y-101922068D01*
X159186589Y-102034010D01*
X158943368Y-102196525D01*
X158736525Y-102403368D01*
X158620000Y-102577760D01*
X158503475Y-102403368D01*
X158296632Y-102196525D01*
X158053411Y-102034010D01*
X157783158Y-101922068D01*
X157496260Y-101865000D01*
X157203740Y-101865000D01*
X156916842Y-101922068D01*
X156646589Y-102034010D01*
X156403368Y-102196525D01*
X156196525Y-102403368D01*
X156080000Y-102577760D01*
X155963475Y-102403368D01*
X155756632Y-102196525D01*
X155513411Y-102034010D01*
X155243158Y-101922068D01*
X154956260Y-101865000D01*
X154663740Y-101865000D01*
X154376842Y-101922068D01*
X154106589Y-102034010D01*
X153863368Y-102196525D01*
X153656525Y-102403368D01*
X153540000Y-102577760D01*
X153423475Y-102403368D01*
X153216632Y-102196525D01*
X152973411Y-102034010D01*
X152703158Y-101922068D01*
X152416260Y-101865000D01*
X152123740Y-101865000D01*
X151836842Y-101922068D01*
X151566589Y-102034010D01*
X151323368Y-102196525D01*
X151116525Y-102403368D01*
X151000000Y-102577760D01*
X150883475Y-102403368D01*
X150676632Y-102196525D01*
X150433411Y-102034010D01*
X150163158Y-101922068D01*
X149876260Y-101865000D01*
X149583740Y-101865000D01*
X149296842Y-101922068D01*
X149026589Y-102034010D01*
X148783368Y-102196525D01*
X148576525Y-102403368D01*
X148460000Y-102577760D01*
X148343475Y-102403368D01*
X148136632Y-102196525D01*
X147893411Y-102034010D01*
X147623158Y-101922068D01*
X147336260Y-101865000D01*
X147043740Y-101865000D01*
X146756842Y-101922068D01*
X146486589Y-102034010D01*
X146243368Y-102196525D01*
X146036525Y-102403368D01*
X145920000Y-102577760D01*
X145803475Y-102403368D01*
X145596632Y-102196525D01*
X145353411Y-102034010D01*
X145083158Y-101922068D01*
X144796260Y-101865000D01*
X144503740Y-101865000D01*
X144216842Y-101922068D01*
X143946589Y-102034010D01*
X143703368Y-102196525D01*
X143496525Y-102403368D01*
X143380000Y-102577760D01*
X143263475Y-102403368D01*
X143056632Y-102196525D01*
X142813411Y-102034010D01*
X142543158Y-101922068D01*
X142256260Y-101865000D01*
X141963740Y-101865000D01*
X141676842Y-101922068D01*
X141406589Y-102034010D01*
X141163368Y-102196525D01*
X140956525Y-102403368D01*
X140840000Y-102577760D01*
X140723475Y-102403368D01*
X140516632Y-102196525D01*
X140273411Y-102034010D01*
X140003158Y-101922068D01*
X139716260Y-101865000D01*
X139423740Y-101865000D01*
X139136842Y-101922068D01*
X138866589Y-102034010D01*
X138623368Y-102196525D01*
X138416525Y-102403368D01*
X138300000Y-102577760D01*
X138183475Y-102403368D01*
X137976632Y-102196525D01*
X137733411Y-102034010D01*
X137463158Y-101922068D01*
X137176260Y-101865000D01*
X136883740Y-101865000D01*
X136596842Y-101922068D01*
X136326589Y-102034010D01*
X136083368Y-102196525D01*
X135876525Y-102403368D01*
X135760000Y-102577760D01*
X135643475Y-102403368D01*
X135436632Y-102196525D01*
X135193411Y-102034010D01*
X134923158Y-101922068D01*
X134636260Y-101865000D01*
X134343740Y-101865000D01*
X134056842Y-101922068D01*
X133786589Y-102034010D01*
X133543368Y-102196525D01*
X133336525Y-102403368D01*
X133220000Y-102577760D01*
X133103475Y-102403368D01*
X132896632Y-102196525D01*
X132653411Y-102034010D01*
X132383158Y-101922068D01*
X132096260Y-101865000D01*
X131803740Y-101865000D01*
X131516842Y-101922068D01*
X131246589Y-102034010D01*
X131003368Y-102196525D01*
X130796525Y-102403368D01*
X130680000Y-102577760D01*
X130563475Y-102403368D01*
X130356632Y-102196525D01*
X130113411Y-102034010D01*
X129843158Y-101922068D01*
X129556260Y-101865000D01*
X129263740Y-101865000D01*
X128976842Y-101922068D01*
X128706589Y-102034010D01*
X128463368Y-102196525D01*
X128256525Y-102403368D01*
X128094010Y-102646589D01*
X127982068Y-102916842D01*
X127925000Y-103203740D01*
X127925000Y-103496260D01*
X127982068Y-103783158D01*
X128094010Y-104053411D01*
X128256525Y-104296632D01*
X128463368Y-104503475D01*
X128637760Y-104620000D01*
X128463368Y-104736525D01*
X128256525Y-104943368D01*
X128094010Y-105186589D01*
X127982068Y-105456842D01*
X127925000Y-105743740D01*
X127925000Y-106036260D01*
X127982068Y-106323158D01*
X128094010Y-106593411D01*
X128256525Y-106836632D01*
X128463368Y-107043475D01*
X128706589Y-107205990D01*
X128976842Y-107317932D01*
X129263740Y-107375000D01*
X129556260Y-107375000D01*
X129843158Y-107317932D01*
X130113411Y-107205990D01*
X130356632Y-107043475D01*
X130563475Y-106836632D01*
X130680000Y-106662240D01*
X130796525Y-106836632D01*
X131003368Y-107043475D01*
X131246589Y-107205990D01*
X131516842Y-107317932D01*
X131803740Y-107375000D01*
X132096260Y-107375000D01*
X132383158Y-107317932D01*
X132653411Y-107205990D01*
X132896632Y-107043475D01*
X133103475Y-106836632D01*
X133220000Y-106662240D01*
X133336525Y-106836632D01*
X133543368Y-107043475D01*
X133786589Y-107205990D01*
X134056842Y-107317932D01*
X134343740Y-107375000D01*
X134636260Y-107375000D01*
X134923158Y-107317932D01*
X135193411Y-107205990D01*
X135436632Y-107043475D01*
X135643475Y-106836632D01*
X135760000Y-106662240D01*
X135876525Y-106836632D01*
X136083368Y-107043475D01*
X136326589Y-107205990D01*
X136596842Y-107317932D01*
X136883740Y-107375000D01*
X137176260Y-107375000D01*
X137463158Y-107317932D01*
X137733411Y-107205990D01*
X137976632Y-107043475D01*
X138183475Y-106836632D01*
X138300000Y-106662240D01*
X138416525Y-106836632D01*
X138623368Y-107043475D01*
X138866589Y-107205990D01*
X139136842Y-107317932D01*
X139423740Y-107375000D01*
X139716260Y-107375000D01*
X140003158Y-107317932D01*
X140273411Y-107205990D01*
X140516632Y-107043475D01*
X140723475Y-106836632D01*
X140845195Y-106654466D01*
X140914822Y-106771355D01*
X141109731Y-106987588D01*
X141343080Y-107161641D01*
X141605901Y-107286825D01*
X141753110Y-107331476D01*
X141983000Y-107210155D01*
X141983000Y-106017000D01*
X141963000Y-106017000D01*
X141963000Y-105763000D01*
X141983000Y-105763000D01*
X141983000Y-105743000D01*
X142237000Y-105743000D01*
X142237000Y-105763000D01*
X142257000Y-105763000D01*
X142257000Y-106017000D01*
X142237000Y-106017000D01*
X142237000Y-107210155D01*
X142466890Y-107331476D01*
X142614099Y-107286825D01*
X142876920Y-107161641D01*
X143110269Y-106987588D01*
X143305178Y-106771355D01*
X143374805Y-106654466D01*
X143496525Y-106836632D01*
X143703368Y-107043475D01*
X143946589Y-107205990D01*
X144216842Y-107317932D01*
X144503740Y-107375000D01*
X144796260Y-107375000D01*
X145083158Y-107317932D01*
X145353411Y-107205990D01*
X145596632Y-107043475D01*
X145803475Y-106836632D01*
X145920000Y-106662240D01*
X146036525Y-106836632D01*
X146243368Y-107043475D01*
X146486589Y-107205990D01*
X146756842Y-107317932D01*
X147043740Y-107375000D01*
X147336260Y-107375000D01*
X147623158Y-107317932D01*
X147893411Y-107205990D01*
X148136632Y-107043475D01*
X148343475Y-106836632D01*
X148460000Y-106662240D01*
X148576525Y-106836632D01*
X148783368Y-107043475D01*
X149026589Y-107205990D01*
X149296842Y-107317932D01*
X149583740Y-107375000D01*
X149876260Y-107375000D01*
X150163158Y-107317932D01*
X150433411Y-107205990D01*
X150676632Y-107043475D01*
X150883475Y-106836632D01*
X151000000Y-106662240D01*
X151116525Y-106836632D01*
X151323368Y-107043475D01*
X151566589Y-107205990D01*
X151836842Y-107317932D01*
X152123740Y-107375000D01*
X152416260Y-107375000D01*
X152703158Y-107317932D01*
X152973411Y-107205990D01*
X153216632Y-107043475D01*
X153423475Y-106836632D01*
X153540000Y-106662240D01*
X153656525Y-106836632D01*
X153863368Y-107043475D01*
X154106589Y-107205990D01*
X154376842Y-107317932D01*
X154663740Y-107375000D01*
X154956260Y-107375000D01*
X155243158Y-107317932D01*
X155513411Y-107205990D01*
X155756632Y-107043475D01*
X155963475Y-106836632D01*
X156080000Y-106662240D01*
X156196525Y-106836632D01*
X156403368Y-107043475D01*
X156646589Y-107205990D01*
X156916842Y-107317932D01*
X157203740Y-107375000D01*
X157496260Y-107375000D01*
X157783158Y-107317932D01*
X158053411Y-107205990D01*
X158296632Y-107043475D01*
X158503475Y-106836632D01*
X158620000Y-106662240D01*
X158736525Y-106836632D01*
X158943368Y-107043475D01*
X159186589Y-107205990D01*
X159456842Y-107317932D01*
X159743740Y-107375000D01*
X160036260Y-107375000D01*
X160323158Y-107317932D01*
X160593411Y-107205990D01*
X160836632Y-107043475D01*
X161043475Y-106836632D01*
X161160000Y-106662240D01*
X161276525Y-106836632D01*
X161483368Y-107043475D01*
X161726589Y-107205990D01*
X161996842Y-107317932D01*
X162283740Y-107375000D01*
X162576260Y-107375000D01*
X162863158Y-107317932D01*
X163133411Y-107205990D01*
X163376632Y-107043475D01*
X163583475Y-106836632D01*
X163705195Y-106654466D01*
X163774822Y-106771355D01*
X163969731Y-106987588D01*
X164203080Y-107161641D01*
X164465901Y-107286825D01*
X164613110Y-107331476D01*
X164843000Y-107210155D01*
X164843000Y-106017000D01*
X164823000Y-106017000D01*
X164823000Y-105763000D01*
X164843000Y-105763000D01*
X164843000Y-105743000D01*
X165097000Y-105743000D01*
X165097000Y-105763000D01*
X165117000Y-105763000D01*
X165117000Y-106017000D01*
X165097000Y-106017000D01*
X165097000Y-107210155D01*
X165326890Y-107331476D01*
X165474099Y-107286825D01*
X165736920Y-107161641D01*
X165970269Y-106987588D01*
X166165178Y-106771355D01*
X166234805Y-106654466D01*
X166356525Y-106836632D01*
X166563368Y-107043475D01*
X166806589Y-107205990D01*
X167076842Y-107317932D01*
X167363740Y-107375000D01*
X167656260Y-107375000D01*
X167943158Y-107317932D01*
X168114999Y-107246753D01*
X168114999Y-110597677D01*
X168111323Y-110634999D01*
X168114999Y-110672321D01*
X168114999Y-110672331D01*
X168125996Y-110783984D01*
X168149640Y-110861928D01*
X168169453Y-110927245D01*
X168240025Y-111059275D01*
X168279870Y-111107825D01*
X168334998Y-111175000D01*
X168364002Y-111198803D01*
X169148791Y-111983592D01*
X169105000Y-112203740D01*
X169105000Y-112496260D01*
X169162068Y-112783158D01*
X169274010Y-113053411D01*
X169436525Y-113296632D01*
X169643368Y-113503475D01*
X169886589Y-113665990D01*
X170156842Y-113777932D01*
X170443740Y-113835000D01*
X170736260Y-113835000D01*
X171023158Y-113777932D01*
X171293411Y-113665990D01*
X171536632Y-113503475D01*
X171743475Y-113296632D01*
X171860000Y-113122240D01*
X171976525Y-113296632D01*
X172183368Y-113503475D01*
X172426589Y-113665990D01*
X172696842Y-113777932D01*
X172983740Y-113835000D01*
X173276260Y-113835000D01*
X173563158Y-113777932D01*
X173833411Y-113665990D01*
X174076632Y-113503475D01*
X174208487Y-113371620D01*
X174230498Y-113444180D01*
X174289463Y-113554494D01*
X174368815Y-113651185D01*
X174465506Y-113730537D01*
X174575820Y-113789502D01*
X174695518Y-113825812D01*
X174820000Y-113838072D01*
X176395000Y-113838072D01*
X176394999Y-128961928D01*
X174820000Y-128961928D01*
X174695518Y-128974188D01*
X174575820Y-129010498D01*
X174465506Y-129069463D01*
X174368815Y-129148815D01*
X174289463Y-129245506D01*
X174230498Y-129355820D01*
X174208487Y-129428380D01*
X174076632Y-129296525D01*
X173833411Y-129134010D01*
X173563158Y-129022068D01*
X173276260Y-128965000D01*
X172983740Y-128965000D01*
X172696842Y-129022068D01*
X172426589Y-129134010D01*
X172183368Y-129296525D01*
X171976525Y-129503368D01*
X171854805Y-129685534D01*
X171785178Y-129568645D01*
X171590269Y-129352412D01*
X171356920Y-129178359D01*
X171094099Y-129053175D01*
X170946890Y-129008524D01*
X170717000Y-129129845D01*
X170717000Y-130323000D01*
X170737000Y-130323000D01*
X170737000Y-130577000D01*
X170717000Y-130577000D01*
X170717000Y-131770155D01*
X170946890Y-131891476D01*
X171094099Y-131846825D01*
X171356920Y-131721641D01*
X171590269Y-131547588D01*
X171785178Y-131331355D01*
X171854805Y-131214466D01*
X171976525Y-131396632D01*
X172183368Y-131603475D01*
X172426589Y-131765990D01*
X172696842Y-131877932D01*
X172983740Y-131935000D01*
X173276260Y-131935000D01*
X173563158Y-131877932D01*
X173833411Y-131765990D01*
X174076632Y-131603475D01*
X174208487Y-131471620D01*
X174230498Y-131544180D01*
X174289463Y-131654494D01*
X174368815Y-131751185D01*
X174465506Y-131830537D01*
X174575820Y-131889502D01*
X174695518Y-131925812D01*
X174820000Y-131938072D01*
X176394999Y-131938072D01*
X176394999Y-135458199D01*
X155083897Y-156769302D01*
X155054899Y-156793100D01*
X155031101Y-156822098D01*
X155031100Y-156822099D01*
X154959925Y-156908825D01*
X154889353Y-157040855D01*
X154845897Y-157184116D01*
X154831223Y-157333101D01*
X154834900Y-157370433D01*
X154834899Y-163942234D01*
X154666046Y-163862336D01*
X154391839Y-163793600D01*
X154109492Y-163779680D01*
X153829853Y-163821111D01*
X153630000Y-163892580D01*
X153630000Y-139247322D01*
X153633676Y-139209999D01*
X153630000Y-139172676D01*
X153630000Y-139172667D01*
X153619003Y-139061014D01*
X153575546Y-138917753D01*
X153504974Y-138785724D01*
X153491811Y-138769685D01*
X153433799Y-138698996D01*
X153433795Y-138698992D01*
X153410001Y-138669999D01*
X153381010Y-138646207D01*
X145541694Y-130806891D01*
X169148519Y-130806891D01*
X169245843Y-131081252D01*
X169394822Y-131331355D01*
X169589731Y-131547588D01*
X169823080Y-131721641D01*
X170085901Y-131846825D01*
X170233110Y-131891476D01*
X170463000Y-131770155D01*
X170463000Y-130577000D01*
X169269186Y-130577000D01*
X169148519Y-130806891D01*
X145541694Y-130806891D01*
X144827912Y-130093109D01*
X169148519Y-130093109D01*
X169269186Y-130323000D01*
X170463000Y-130323000D01*
X170463000Y-129129845D01*
X170233110Y-129008524D01*
X170085901Y-129053175D01*
X169823080Y-129178359D01*
X169589731Y-129352412D01*
X169394822Y-129568645D01*
X169245843Y-129818748D01*
X169148519Y-130093109D01*
X144827912Y-130093109D01*
X127050000Y-112315199D01*
X127050000Y-84045799D01*
X128078891Y-83016909D01*
X128094010Y-83053411D01*
G37*
X128094010Y-83053411D02*
X128256525Y-83296632D01*
X128463368Y-83503475D01*
X128637760Y-83620000D01*
X128463368Y-83736525D01*
X128256525Y-83943368D01*
X128094010Y-84186589D01*
X127982068Y-84456842D01*
X127925000Y-84743740D01*
X127925000Y-85036260D01*
X127982068Y-85323158D01*
X128094010Y-85593411D01*
X128256525Y-85836632D01*
X128463368Y-86043475D01*
X128706589Y-86205990D01*
X128976842Y-86317932D01*
X129263740Y-86375000D01*
X129556260Y-86375000D01*
X129843158Y-86317932D01*
X130113411Y-86205990D01*
X130356632Y-86043475D01*
X130563475Y-85836632D01*
X130680000Y-85662240D01*
X130796525Y-85836632D01*
X131003368Y-86043475D01*
X131246589Y-86205990D01*
X131516842Y-86317932D01*
X131803740Y-86375000D01*
X132096260Y-86375000D01*
X132383158Y-86317932D01*
X132653411Y-86205990D01*
X132896632Y-86043475D01*
X133103475Y-85836632D01*
X133220000Y-85662240D01*
X133336525Y-85836632D01*
X133543368Y-86043475D01*
X133786589Y-86205990D01*
X134056842Y-86317932D01*
X134343740Y-86375000D01*
X134636260Y-86375000D01*
X134923158Y-86317932D01*
X135193411Y-86205990D01*
X135436632Y-86043475D01*
X135643475Y-85836632D01*
X135760000Y-85662240D01*
X135876525Y-85836632D01*
X136083368Y-86043475D01*
X136326589Y-86205990D01*
X136596842Y-86317932D01*
X136883740Y-86375000D01*
X137176260Y-86375000D01*
X137463158Y-86317932D01*
X137733411Y-86205990D01*
X137976632Y-86043475D01*
X138183475Y-85836632D01*
X138300000Y-85662240D01*
X138416525Y-85836632D01*
X138623368Y-86043475D01*
X138866589Y-86205990D01*
X139136842Y-86317932D01*
X139423740Y-86375000D01*
X139716260Y-86375000D01*
X140003158Y-86317932D01*
X140273411Y-86205990D01*
X140516632Y-86043475D01*
X140723475Y-85836632D01*
X140845195Y-85654466D01*
X140914822Y-85771355D01*
X141109731Y-85987588D01*
X141343080Y-86161641D01*
X141605901Y-86286825D01*
X141753110Y-86331476D01*
X141983000Y-86210155D01*
X141983000Y-85017000D01*
X141963000Y-85017000D01*
X141963000Y-84763000D01*
X141983000Y-84763000D01*
X141983000Y-84743000D01*
X142237000Y-84743000D01*
X142237000Y-84763000D01*
X142257000Y-84763000D01*
X142257000Y-85017000D01*
X142237000Y-85017000D01*
X142237000Y-86210155D01*
X142466890Y-86331476D01*
X142614099Y-86286825D01*
X142876920Y-86161641D01*
X143110269Y-85987588D01*
X143305178Y-85771355D01*
X143374805Y-85654466D01*
X143496525Y-85836632D01*
X143703368Y-86043475D01*
X143946589Y-86205990D01*
X144216842Y-86317932D01*
X144503740Y-86375000D01*
X144796260Y-86375000D01*
X145083158Y-86317932D01*
X145353411Y-86205990D01*
X145596632Y-86043475D01*
X145803475Y-85836632D01*
X145920000Y-85662240D01*
X146036525Y-85836632D01*
X146243368Y-86043475D01*
X146486589Y-86205990D01*
X146756842Y-86317932D01*
X147043740Y-86375000D01*
X147336260Y-86375000D01*
X147623158Y-86317932D01*
X147893411Y-86205990D01*
X148136632Y-86043475D01*
X148343475Y-85836632D01*
X148460000Y-85662240D01*
X148576525Y-85836632D01*
X148783368Y-86043475D01*
X149026589Y-86205990D01*
X149296842Y-86317932D01*
X149583740Y-86375000D01*
X149876260Y-86375000D01*
X150163158Y-86317932D01*
X150433411Y-86205990D01*
X150676632Y-86043475D01*
X150883475Y-85836632D01*
X151000000Y-85662240D01*
X151116525Y-85836632D01*
X151323368Y-86043475D01*
X151566589Y-86205990D01*
X151836842Y-86317932D01*
X152123740Y-86375000D01*
X152416260Y-86375000D01*
X152703158Y-86317932D01*
X152973411Y-86205990D01*
X153216632Y-86043475D01*
X153423475Y-85836632D01*
X153540000Y-85662240D01*
X153656525Y-85836632D01*
X153863368Y-86043475D01*
X154106589Y-86205990D01*
X154376842Y-86317932D01*
X154663740Y-86375000D01*
X154956260Y-86375000D01*
X155243158Y-86317932D01*
X155513411Y-86205990D01*
X155756632Y-86043475D01*
X155963475Y-85836632D01*
X156080000Y-85662240D01*
X156196525Y-85836632D01*
X156403368Y-86043475D01*
X156646589Y-86205990D01*
X156916842Y-86317932D01*
X157203740Y-86375000D01*
X157496260Y-86375000D01*
X157783158Y-86317932D01*
X158053411Y-86205990D01*
X158296632Y-86043475D01*
X158503475Y-85836632D01*
X158620000Y-85662240D01*
X158736525Y-85836632D01*
X158943368Y-86043475D01*
X159186589Y-86205990D01*
X159456842Y-86317932D01*
X159743740Y-86375000D01*
X160036260Y-86375000D01*
X160323158Y-86317932D01*
X160593411Y-86205990D01*
X160836632Y-86043475D01*
X161043475Y-85836632D01*
X161160000Y-85662240D01*
X161276525Y-85836632D01*
X161483368Y-86043475D01*
X161726589Y-86205990D01*
X161996842Y-86317932D01*
X162283740Y-86375000D01*
X162576260Y-86375000D01*
X162863158Y-86317932D01*
X163133411Y-86205990D01*
X163376632Y-86043475D01*
X163583475Y-85836632D01*
X163705195Y-85654466D01*
X163774822Y-85771355D01*
X163969731Y-85987588D01*
X164203080Y-86161641D01*
X164465901Y-86286825D01*
X164613110Y-86331476D01*
X164843000Y-86210155D01*
X164843000Y-85017000D01*
X164823000Y-85017000D01*
X164823000Y-84763000D01*
X164843000Y-84763000D01*
X164843000Y-84743000D01*
X165097000Y-84743000D01*
X165097000Y-84763000D01*
X165117000Y-84763000D01*
X165117000Y-85017000D01*
X165097000Y-85017000D01*
X165097000Y-86210155D01*
X165326890Y-86331476D01*
X165474099Y-86286825D01*
X165736920Y-86161641D01*
X165970269Y-85987588D01*
X166165178Y-85771355D01*
X166234805Y-85654466D01*
X166356525Y-85836632D01*
X166563368Y-86043475D01*
X166806589Y-86205990D01*
X167076842Y-86317932D01*
X167363740Y-86375000D01*
X167656260Y-86375000D01*
X167943158Y-86317932D01*
X168115000Y-86246753D01*
X168114999Y-101993247D01*
X167943158Y-101922068D01*
X167656260Y-101865000D01*
X167363740Y-101865000D01*
X167076842Y-101922068D01*
X166806589Y-102034010D01*
X166563368Y-102196525D01*
X166356525Y-102403368D01*
X166240000Y-102577760D01*
X166123475Y-102403368D01*
X165916632Y-102196525D01*
X165673411Y-102034010D01*
X165403158Y-101922068D01*
X165116260Y-101865000D01*
X164823740Y-101865000D01*
X164536842Y-101922068D01*
X164266589Y-102034010D01*
X164023368Y-102196525D01*
X163816525Y-102403368D01*
X163700000Y-102577760D01*
X163583475Y-102403368D01*
X163376632Y-102196525D01*
X163133411Y-102034010D01*
X162863158Y-101922068D01*
X162576260Y-101865000D01*
X162283740Y-101865000D01*
X161996842Y-101922068D01*
X161726589Y-102034010D01*
X161483368Y-102196525D01*
X161276525Y-102403368D01*
X161160000Y-102577760D01*
X161043475Y-102403368D01*
X160836632Y-102196525D01*
X160593411Y-102034010D01*
X160323158Y-101922068D01*
X160036260Y-101865000D01*
X159743740Y-101865000D01*
X159456842Y-101922068D01*
X159186589Y-102034010D01*
X158943368Y-102196525D01*
X158736525Y-102403368D01*
X158620000Y-102577760D01*
X158503475Y-102403368D01*
X158296632Y-102196525D01*
X158053411Y-102034010D01*
X157783158Y-101922068D01*
X157496260Y-101865000D01*
X157203740Y-101865000D01*
X156916842Y-101922068D01*
X156646589Y-102034010D01*
X156403368Y-102196525D01*
X156196525Y-102403368D01*
X156080000Y-102577760D01*
X155963475Y-102403368D01*
X155756632Y-102196525D01*
X155513411Y-102034010D01*
X155243158Y-101922068D01*
X154956260Y-101865000D01*
X154663740Y-101865000D01*
X154376842Y-101922068D01*
X154106589Y-102034010D01*
X153863368Y-102196525D01*
X153656525Y-102403368D01*
X153540000Y-102577760D01*
X153423475Y-102403368D01*
X153216632Y-102196525D01*
X152973411Y-102034010D01*
X152703158Y-101922068D01*
X152416260Y-101865000D01*
X152123740Y-101865000D01*
X151836842Y-101922068D01*
X151566589Y-102034010D01*
X151323368Y-102196525D01*
X151116525Y-102403368D01*
X151000000Y-102577760D01*
X150883475Y-102403368D01*
X150676632Y-102196525D01*
X150433411Y-102034010D01*
X150163158Y-101922068D01*
X149876260Y-101865000D01*
X149583740Y-101865000D01*
X149296842Y-101922068D01*
X149026589Y-102034010D01*
X148783368Y-102196525D01*
X148576525Y-102403368D01*
X148460000Y-102577760D01*
X148343475Y-102403368D01*
X148136632Y-102196525D01*
X147893411Y-102034010D01*
X147623158Y-101922068D01*
X147336260Y-101865000D01*
X147043740Y-101865000D01*
X146756842Y-101922068D01*
X146486589Y-102034010D01*
X146243368Y-102196525D01*
X146036525Y-102403368D01*
X145920000Y-102577760D01*
X145803475Y-102403368D01*
X145596632Y-102196525D01*
X145353411Y-102034010D01*
X145083158Y-101922068D01*
X144796260Y-101865000D01*
X144503740Y-101865000D01*
X144216842Y-101922068D01*
X143946589Y-102034010D01*
X143703368Y-102196525D01*
X143496525Y-102403368D01*
X143380000Y-102577760D01*
X143263475Y-102403368D01*
X143056632Y-102196525D01*
X142813411Y-102034010D01*
X142543158Y-101922068D01*
X142256260Y-101865000D01*
X141963740Y-101865000D01*
X141676842Y-101922068D01*
X141406589Y-102034010D01*
X141163368Y-102196525D01*
X140956525Y-102403368D01*
X140840000Y-102577760D01*
X140723475Y-102403368D01*
X140516632Y-102196525D01*
X140273411Y-102034010D01*
X140003158Y-101922068D01*
X139716260Y-101865000D01*
X139423740Y-101865000D01*
X139136842Y-101922068D01*
X138866589Y-102034010D01*
X138623368Y-102196525D01*
X138416525Y-102403368D01*
X138300000Y-102577760D01*
X138183475Y-102403368D01*
X137976632Y-102196525D01*
X137733411Y-102034010D01*
X137463158Y-101922068D01*
X137176260Y-101865000D01*
X136883740Y-101865000D01*
X136596842Y-101922068D01*
X136326589Y-102034010D01*
X136083368Y-102196525D01*
X135876525Y-102403368D01*
X135760000Y-102577760D01*
X135643475Y-102403368D01*
X135436632Y-102196525D01*
X135193411Y-102034010D01*
X134923158Y-101922068D01*
X134636260Y-101865000D01*
X134343740Y-101865000D01*
X134056842Y-101922068D01*
X133786589Y-102034010D01*
X133543368Y-102196525D01*
X133336525Y-102403368D01*
X133220000Y-102577760D01*
X133103475Y-102403368D01*
X132896632Y-102196525D01*
X132653411Y-102034010D01*
X132383158Y-101922068D01*
X132096260Y-101865000D01*
X131803740Y-101865000D01*
X131516842Y-101922068D01*
X131246589Y-102034010D01*
X131003368Y-102196525D01*
X130796525Y-102403368D01*
X130680000Y-102577760D01*
X130563475Y-102403368D01*
X130356632Y-102196525D01*
X130113411Y-102034010D01*
X129843158Y-101922068D01*
X129556260Y-101865000D01*
X129263740Y-101865000D01*
X128976842Y-101922068D01*
X128706589Y-102034010D01*
X128463368Y-102196525D01*
X128256525Y-102403368D01*
X128094010Y-102646589D01*
X127982068Y-102916842D01*
X127925000Y-103203740D01*
X127925000Y-103496260D01*
X127982068Y-103783158D01*
X128094010Y-104053411D01*
X128256525Y-104296632D01*
X128463368Y-104503475D01*
X128637760Y-104620000D01*
X128463368Y-104736525D01*
X128256525Y-104943368D01*
X128094010Y-105186589D01*
X127982068Y-105456842D01*
X127925000Y-105743740D01*
X127925000Y-106036260D01*
X127982068Y-106323158D01*
X128094010Y-106593411D01*
X128256525Y-106836632D01*
X128463368Y-107043475D01*
X128706589Y-107205990D01*
X128976842Y-107317932D01*
X129263740Y-107375000D01*
X129556260Y-107375000D01*
X129843158Y-107317932D01*
X130113411Y-107205990D01*
X130356632Y-107043475D01*
X130563475Y-106836632D01*
X130680000Y-106662240D01*
X130796525Y-106836632D01*
X131003368Y-107043475D01*
X131246589Y-107205990D01*
X131516842Y-107317932D01*
X131803740Y-107375000D01*
X132096260Y-107375000D01*
X132383158Y-107317932D01*
X132653411Y-107205990D01*
X132896632Y-107043475D01*
X133103475Y-106836632D01*
X133220000Y-106662240D01*
X133336525Y-106836632D01*
X133543368Y-107043475D01*
X133786589Y-107205990D01*
X134056842Y-107317932D01*
X134343740Y-107375000D01*
X134636260Y-107375000D01*
X134923158Y-107317932D01*
X135193411Y-107205990D01*
X135436632Y-107043475D01*
X135643475Y-106836632D01*
X135760000Y-106662240D01*
X135876525Y-106836632D01*
X136083368Y-107043475D01*
X136326589Y-107205990D01*
X136596842Y-107317932D01*
X136883740Y-107375000D01*
X137176260Y-107375000D01*
X137463158Y-107317932D01*
X137733411Y-107205990D01*
X137976632Y-107043475D01*
X138183475Y-106836632D01*
X138300000Y-106662240D01*
X138416525Y-106836632D01*
X138623368Y-107043475D01*
X138866589Y-107205990D01*
X139136842Y-107317932D01*
X139423740Y-107375000D01*
X139716260Y-107375000D01*
X140003158Y-107317932D01*
X140273411Y-107205990D01*
X140516632Y-107043475D01*
X140723475Y-106836632D01*
X140845195Y-106654466D01*
X140914822Y-106771355D01*
X141109731Y-106987588D01*
X141343080Y-107161641D01*
X141605901Y-107286825D01*
X141753110Y-107331476D01*
X141983000Y-107210155D01*
X141983000Y-106017000D01*
X141963000Y-106017000D01*
X141963000Y-105763000D01*
X141983000Y-105763000D01*
X141983000Y-105743000D01*
X142237000Y-105743000D01*
X142237000Y-105763000D01*
X142257000Y-105763000D01*
X142257000Y-106017000D01*
X142237000Y-106017000D01*
X142237000Y-107210155D01*
X142466890Y-107331476D01*
X142614099Y-107286825D01*
X142876920Y-107161641D01*
X143110269Y-106987588D01*
X143305178Y-106771355D01*
X143374805Y-106654466D01*
X143496525Y-106836632D01*
X143703368Y-107043475D01*
X143946589Y-107205990D01*
X144216842Y-107317932D01*
X144503740Y-107375000D01*
X144796260Y-107375000D01*
X145083158Y-107317932D01*
X145353411Y-107205990D01*
X145596632Y-107043475D01*
X145803475Y-106836632D01*
X145920000Y-106662240D01*
X146036525Y-106836632D01*
X146243368Y-107043475D01*
X146486589Y-107205990D01*
X146756842Y-107317932D01*
X147043740Y-107375000D01*
X147336260Y-107375000D01*
X147623158Y-107317932D01*
X147893411Y-107205990D01*
X148136632Y-107043475D01*
X148343475Y-106836632D01*
X148460000Y-106662240D01*
X148576525Y-106836632D01*
X148783368Y-107043475D01*
X149026589Y-107205990D01*
X149296842Y-107317932D01*
X149583740Y-107375000D01*
X149876260Y-107375000D01*
X150163158Y-107317932D01*
X150433411Y-107205990D01*
X150676632Y-107043475D01*
X150883475Y-106836632D01*
X151000000Y-106662240D01*
X151116525Y-106836632D01*
X151323368Y-107043475D01*
X151566589Y-107205990D01*
X151836842Y-107317932D01*
X152123740Y-107375000D01*
X152416260Y-107375000D01*
X152703158Y-107317932D01*
X152973411Y-107205990D01*
X153216632Y-107043475D01*
X153423475Y-106836632D01*
X153540000Y-106662240D01*
X153656525Y-106836632D01*
X153863368Y-107043475D01*
X154106589Y-107205990D01*
X154376842Y-107317932D01*
X154663740Y-107375000D01*
X154956260Y-107375000D01*
X155243158Y-107317932D01*
X155513411Y-107205990D01*
X155756632Y-107043475D01*
X155963475Y-106836632D01*
X156080000Y-106662240D01*
X156196525Y-106836632D01*
X156403368Y-107043475D01*
X156646589Y-107205990D01*
X156916842Y-107317932D01*
X157203740Y-107375000D01*
X157496260Y-107375000D01*
X157783158Y-107317932D01*
X158053411Y-107205990D01*
X158296632Y-107043475D01*
X158503475Y-106836632D01*
X158620000Y-106662240D01*
X158736525Y-106836632D01*
X158943368Y-107043475D01*
X159186589Y-107205990D01*
X159456842Y-107317932D01*
X159743740Y-107375000D01*
X160036260Y-107375000D01*
X160323158Y-107317932D01*
X160593411Y-107205990D01*
X160836632Y-107043475D01*
X161043475Y-106836632D01*
X161160000Y-106662240D01*
X161276525Y-106836632D01*
X161483368Y-107043475D01*
X161726589Y-107205990D01*
X161996842Y-107317932D01*
X162283740Y-107375000D01*
X162576260Y-107375000D01*
X162863158Y-107317932D01*
X163133411Y-107205990D01*
X163376632Y-107043475D01*
X163583475Y-106836632D01*
X163705195Y-106654466D01*
X163774822Y-106771355D01*
X163969731Y-106987588D01*
X164203080Y-107161641D01*
X164465901Y-107286825D01*
X164613110Y-107331476D01*
X164843000Y-107210155D01*
X164843000Y-106017000D01*
X164823000Y-106017000D01*
X164823000Y-105763000D01*
X164843000Y-105763000D01*
X164843000Y-105743000D01*
X165097000Y-105743000D01*
X165097000Y-105763000D01*
X165117000Y-105763000D01*
X165117000Y-106017000D01*
X165097000Y-106017000D01*
X165097000Y-107210155D01*
X165326890Y-107331476D01*
X165474099Y-107286825D01*
X165736920Y-107161641D01*
X165970269Y-106987588D01*
X166165178Y-106771355D01*
X166234805Y-106654466D01*
X166356525Y-106836632D01*
X166563368Y-107043475D01*
X166806589Y-107205990D01*
X167076842Y-107317932D01*
X167363740Y-107375000D01*
X167656260Y-107375000D01*
X167943158Y-107317932D01*
X168114999Y-107246753D01*
X168114999Y-110597677D01*
X168111323Y-110634999D01*
X168114999Y-110672321D01*
X168114999Y-110672331D01*
X168125996Y-110783984D01*
X168149640Y-110861928D01*
X168169453Y-110927245D01*
X168240025Y-111059275D01*
X168279870Y-111107825D01*
X168334998Y-111175000D01*
X168364002Y-111198803D01*
X169148791Y-111983592D01*
X169105000Y-112203740D01*
X169105000Y-112496260D01*
X169162068Y-112783158D01*
X169274010Y-113053411D01*
X169436525Y-113296632D01*
X169643368Y-113503475D01*
X169886589Y-113665990D01*
X170156842Y-113777932D01*
X170443740Y-113835000D01*
X170736260Y-113835000D01*
X171023158Y-113777932D01*
X171293411Y-113665990D01*
X171536632Y-113503475D01*
X171743475Y-113296632D01*
X171860000Y-113122240D01*
X171976525Y-113296632D01*
X172183368Y-113503475D01*
X172426589Y-113665990D01*
X172696842Y-113777932D01*
X172983740Y-113835000D01*
X173276260Y-113835000D01*
X173563158Y-113777932D01*
X173833411Y-113665990D01*
X174076632Y-113503475D01*
X174208487Y-113371620D01*
X174230498Y-113444180D01*
X174289463Y-113554494D01*
X174368815Y-113651185D01*
X174465506Y-113730537D01*
X174575820Y-113789502D01*
X174695518Y-113825812D01*
X174820000Y-113838072D01*
X176395000Y-113838072D01*
X176394999Y-128961928D01*
X174820000Y-128961928D01*
X174695518Y-128974188D01*
X174575820Y-129010498D01*
X174465506Y-129069463D01*
X174368815Y-129148815D01*
X174289463Y-129245506D01*
X174230498Y-129355820D01*
X174208487Y-129428380D01*
X174076632Y-129296525D01*
X173833411Y-129134010D01*
X173563158Y-129022068D01*
X173276260Y-128965000D01*
X172983740Y-128965000D01*
X172696842Y-129022068D01*
X172426589Y-129134010D01*
X172183368Y-129296525D01*
X171976525Y-129503368D01*
X171854805Y-129685534D01*
X171785178Y-129568645D01*
X171590269Y-129352412D01*
X171356920Y-129178359D01*
X171094099Y-129053175D01*
X170946890Y-129008524D01*
X170717000Y-129129845D01*
X170717000Y-130323000D01*
X170737000Y-130323000D01*
X170737000Y-130577000D01*
X170717000Y-130577000D01*
X170717000Y-131770155D01*
X170946890Y-131891476D01*
X171094099Y-131846825D01*
X171356920Y-131721641D01*
X171590269Y-131547588D01*
X171785178Y-131331355D01*
X171854805Y-131214466D01*
X171976525Y-131396632D01*
X172183368Y-131603475D01*
X172426589Y-131765990D01*
X172696842Y-131877932D01*
X172983740Y-131935000D01*
X173276260Y-131935000D01*
X173563158Y-131877932D01*
X173833411Y-131765990D01*
X174076632Y-131603475D01*
X174208487Y-131471620D01*
X174230498Y-131544180D01*
X174289463Y-131654494D01*
X174368815Y-131751185D01*
X174465506Y-131830537D01*
X174575820Y-131889502D01*
X174695518Y-131925812D01*
X174820000Y-131938072D01*
X176394999Y-131938072D01*
X176394999Y-135458199D01*
X155083897Y-156769302D01*
X155054899Y-156793100D01*
X155031101Y-156822098D01*
X155031100Y-156822099D01*
X154959925Y-156908825D01*
X154889353Y-157040855D01*
X154845897Y-157184116D01*
X154831223Y-157333101D01*
X154834900Y-157370433D01*
X154834899Y-163942234D01*
X154666046Y-163862336D01*
X154391839Y-163793600D01*
X154109492Y-163779680D01*
X153829853Y-163821111D01*
X153630000Y-163892580D01*
X153630000Y-139247322D01*
X153633676Y-139209999D01*
X153630000Y-139172676D01*
X153630000Y-139172667D01*
X153619003Y-139061014D01*
X153575546Y-138917753D01*
X153504974Y-138785724D01*
X153491811Y-138769685D01*
X153433799Y-138698996D01*
X153433795Y-138698992D01*
X153410001Y-138669999D01*
X153381010Y-138646207D01*
X145541694Y-130806891D01*
X169148519Y-130806891D01*
X169245843Y-131081252D01*
X169394822Y-131331355D01*
X169589731Y-131547588D01*
X169823080Y-131721641D01*
X170085901Y-131846825D01*
X170233110Y-131891476D01*
X170463000Y-131770155D01*
X170463000Y-130577000D01*
X169269186Y-130577000D01*
X169148519Y-130806891D01*
X145541694Y-130806891D01*
X144827912Y-130093109D01*
X169148519Y-130093109D01*
X169269186Y-130323000D01*
X170463000Y-130323000D01*
X170463000Y-129129845D01*
X170233110Y-129008524D01*
X170085901Y-129053175D01*
X169823080Y-129178359D01*
X169589731Y-129352412D01*
X169394822Y-129568645D01*
X169245843Y-129818748D01*
X169148519Y-130093109D01*
X144827912Y-130093109D01*
X127050000Y-112315199D01*
X127050000Y-84045799D01*
X128078891Y-83016909D01*
X128094010Y-83053411D01*
G36*
X177236842Y-107317932D02*
G01*
X177523740Y-107375000D01*
X177816260Y-107375000D01*
X178085002Y-107321544D01*
X178085001Y-135546196D01*
X177914999Y-135716198D01*
X177914999Y-111587322D01*
X177918675Y-111549997D01*
X177914999Y-111512672D01*
X177914999Y-111512664D01*
X177904002Y-111401011D01*
X177860545Y-111257750D01*
X177789973Y-111125721D01*
X177695000Y-111009996D01*
X177666002Y-110986198D01*
X177065001Y-110385198D01*
X177065001Y-107246753D01*
X177236842Y-107317932D01*
G37*
X177236842Y-107317932D02*
X177523740Y-107375000D01*
X177816260Y-107375000D01*
X178085002Y-107321544D01*
X178085001Y-135546196D01*
X177914999Y-135716198D01*
X177914999Y-111587322D01*
X177918675Y-111549997D01*
X177914999Y-111512672D01*
X177914999Y-111512664D01*
X177904002Y-111401011D01*
X177860545Y-111257750D01*
X177789973Y-111125721D01*
X177695000Y-111009996D01*
X177666002Y-110986198D01*
X177065001Y-110385198D01*
X177065001Y-107246753D01*
X177236842Y-107317932D01*
G36*
X173976525Y-106836632D02*
G01*
X174183368Y-107043475D01*
X174426589Y-107205990D01*
X174696842Y-107317932D01*
X174983740Y-107375000D01*
X175276260Y-107375000D01*
X175545002Y-107321544D01*
X175545001Y-110662676D01*
X175541325Y-110699999D01*
X175545001Y-110737321D01*
X175545001Y-110737331D01*
X175555998Y-110848984D01*
X175559924Y-110861928D01*
X174820000Y-110861928D01*
X174695518Y-110874188D01*
X174575820Y-110910498D01*
X174465506Y-110969463D01*
X174368815Y-111048815D01*
X174289463Y-111145506D01*
X174230498Y-111255820D01*
X174208487Y-111328380D01*
X174076632Y-111196525D01*
X173833411Y-111034010D01*
X173563158Y-110922068D01*
X173276260Y-110865000D01*
X172983740Y-110865000D01*
X172763592Y-110908790D01*
X171985001Y-110130200D01*
X171985001Y-107246753D01*
X172156842Y-107317932D01*
X172443740Y-107375000D01*
X172736260Y-107375000D01*
X173023158Y-107317932D01*
X173293411Y-107205990D01*
X173536632Y-107043475D01*
X173743475Y-106836632D01*
X173860000Y-106662240D01*
X173976525Y-106836632D01*
G37*
X173976525Y-106836632D02*
X174183368Y-107043475D01*
X174426589Y-107205990D01*
X174696842Y-107317932D01*
X174983740Y-107375000D01*
X175276260Y-107375000D01*
X175545002Y-107321544D01*
X175545001Y-110662676D01*
X175541325Y-110699999D01*
X175545001Y-110737321D01*
X175545001Y-110737331D01*
X175555998Y-110848984D01*
X175559924Y-110861928D01*
X174820000Y-110861928D01*
X174695518Y-110874188D01*
X174575820Y-110910498D01*
X174465506Y-110969463D01*
X174368815Y-111048815D01*
X174289463Y-111145506D01*
X174230498Y-111255820D01*
X174208487Y-111328380D01*
X174076632Y-111196525D01*
X173833411Y-111034010D01*
X173563158Y-110922068D01*
X173276260Y-110865000D01*
X172983740Y-110865000D01*
X172763592Y-110908790D01*
X171985001Y-110130200D01*
X171985001Y-107246753D01*
X172156842Y-107317932D01*
X172443740Y-107375000D01*
X172736260Y-107375000D01*
X173023158Y-107317932D01*
X173293411Y-107205990D01*
X173536632Y-107043475D01*
X173743475Y-106836632D01*
X173860000Y-106662240D01*
X173976525Y-106836632D01*
G36*
X170465002Y-110407669D02*
G01*
X170461325Y-110445001D01*
X170465002Y-110482334D01*
X170471767Y-110551014D01*
X170475999Y-110593986D01*
X170519455Y-110737247D01*
X170587741Y-110865000D01*
X170443740Y-110865000D01*
X170223592Y-110908791D01*
X169634999Y-110320198D01*
X169634999Y-107321544D01*
X169903740Y-107375000D01*
X170196260Y-107375000D01*
X170465001Y-107321544D01*
X170465002Y-110407669D01*
G37*
X170465002Y-110407669D02*
X170461325Y-110445001D01*
X170465002Y-110482334D01*
X170471767Y-110551014D01*
X170475999Y-110593986D01*
X170519455Y-110737247D01*
X170587741Y-110865000D01*
X170443740Y-110865000D01*
X170223592Y-110908791D01*
X169634999Y-110320198D01*
X169634999Y-107321544D01*
X169903740Y-107375000D01*
X170196260Y-107375000D01*
X170465001Y-107321544D01*
X170465002Y-110407669D01*
G36*
X173976525Y-85836632D02*
G01*
X174183368Y-86043475D01*
X174426589Y-86205990D01*
X174696842Y-86317932D01*
X174983740Y-86375000D01*
X175276260Y-86375000D01*
X175563158Y-86317932D01*
X175684965Y-86267478D01*
X175700842Y-86286825D01*
X175765000Y-86365002D01*
X175794004Y-86388805D01*
X178085002Y-88679805D01*
X178085002Y-101861928D01*
X176820000Y-101861928D01*
X176695518Y-101874188D01*
X176575820Y-101910498D01*
X176465506Y-101969463D01*
X176368815Y-102048815D01*
X176289463Y-102145506D01*
X176230498Y-102255820D01*
X176208487Y-102328380D01*
X176076632Y-102196525D01*
X175833411Y-102034010D01*
X175563158Y-101922068D01*
X175276260Y-101865000D01*
X174983740Y-101865000D01*
X174696842Y-101922068D01*
X174426589Y-102034010D01*
X174183368Y-102196525D01*
X173976525Y-102403368D01*
X173860000Y-102577760D01*
X173743475Y-102403368D01*
X173536632Y-102196525D01*
X173293411Y-102034010D01*
X173023158Y-101922068D01*
X172736260Y-101865000D01*
X172443740Y-101865000D01*
X172156842Y-101922068D01*
X171886589Y-102034010D01*
X171643368Y-102196525D01*
X171436525Y-102403368D01*
X171320000Y-102577760D01*
X171203475Y-102403368D01*
X170996632Y-102196525D01*
X170753411Y-102034010D01*
X170483158Y-101922068D01*
X170196260Y-101865000D01*
X169903740Y-101865000D01*
X169634999Y-101918456D01*
X169634999Y-86321544D01*
X169903740Y-86375000D01*
X170196260Y-86375000D01*
X170483158Y-86317932D01*
X170753411Y-86205990D01*
X170996632Y-86043475D01*
X171203475Y-85836632D01*
X171320000Y-85662240D01*
X171436525Y-85836632D01*
X171643368Y-86043475D01*
X171886589Y-86205990D01*
X172156842Y-86317932D01*
X172443740Y-86375000D01*
X172736260Y-86375000D01*
X173023158Y-86317932D01*
X173293411Y-86205990D01*
X173536632Y-86043475D01*
X173743475Y-85836632D01*
X173860000Y-85662240D01*
X173976525Y-85836632D01*
G37*
X173976525Y-85836632D02*
X174183368Y-86043475D01*
X174426589Y-86205990D01*
X174696842Y-86317932D01*
X174983740Y-86375000D01*
X175276260Y-86375000D01*
X175563158Y-86317932D01*
X175684965Y-86267478D01*
X175700842Y-86286825D01*
X175765000Y-86365002D01*
X175794004Y-86388805D01*
X178085002Y-88679805D01*
X178085002Y-101861928D01*
X176820000Y-101861928D01*
X176695518Y-101874188D01*
X176575820Y-101910498D01*
X176465506Y-101969463D01*
X176368815Y-102048815D01*
X176289463Y-102145506D01*
X176230498Y-102255820D01*
X176208487Y-102328380D01*
X176076632Y-102196525D01*
X175833411Y-102034010D01*
X175563158Y-101922068D01*
X175276260Y-101865000D01*
X174983740Y-101865000D01*
X174696842Y-101922068D01*
X174426589Y-102034010D01*
X174183368Y-102196525D01*
X173976525Y-102403368D01*
X173860000Y-102577760D01*
X173743475Y-102403368D01*
X173536632Y-102196525D01*
X173293411Y-102034010D01*
X173023158Y-101922068D01*
X172736260Y-101865000D01*
X172443740Y-101865000D01*
X172156842Y-101922068D01*
X171886589Y-102034010D01*
X171643368Y-102196525D01*
X171436525Y-102403368D01*
X171320000Y-102577760D01*
X171203475Y-102403368D01*
X170996632Y-102196525D01*
X170753411Y-102034010D01*
X170483158Y-101922068D01*
X170196260Y-101865000D01*
X169903740Y-101865000D01*
X169634999Y-101918456D01*
X169634999Y-86321544D01*
X169903740Y-86375000D01*
X170196260Y-86375000D01*
X170483158Y-86317932D01*
X170753411Y-86205990D01*
X170996632Y-86043475D01*
X171203475Y-85836632D01*
X171320000Y-85662240D01*
X171436525Y-85836632D01*
X171643368Y-86043475D01*
X171886589Y-86205990D01*
X172156842Y-86317932D01*
X172443740Y-86375000D01*
X172736260Y-86375000D01*
X173023158Y-86317932D01*
X173293411Y-86205990D01*
X173536632Y-86043475D01*
X173743475Y-85836632D01*
X173860000Y-85662240D01*
X173976525Y-85836632D01*
M02*
