M48
; DRILL file {KiCad (5.1.5)-3} date 3/23/2023 6:14:15 PM
; FORMAT={-:-/ absolute / metric / decimal}
; #@! TF.CreationDate,2023-03-23T18:14:15-07:00
; #@! TF.GenerationSoftware,Kicad,Pcbnew,(5.1.5)-3
; #@! TF.FileFunction,Plated,1,4,PTH
FMAT,2
METRIC
T1C0.400
T2C1.000
T3C1.092
T4C1.300
T5C2.700
%
G90
G05
T1
X170.0Y-108.99
X171.71Y-90.47
X171.71Y-93.69
X173.84Y-109.01
X176.41Y-90.47
X176.46Y-93.74
X177.88Y-134.26
X177.92Y-108.93
T2
X170.59Y-130.45
X173.13Y-130.45
X175.67Y-130.45
X129.41Y-103.35
X129.41Y-105.89
X131.95Y-103.35
X131.95Y-105.89
X134.49Y-103.35
X134.49Y-105.89
X137.03Y-103.35
X137.03Y-105.89
X139.57Y-103.35
X139.57Y-105.89
X142.11Y-103.35
X142.11Y-105.89
X144.65Y-103.35
X144.65Y-105.89
X147.19Y-103.35
X147.19Y-105.89
X149.73Y-103.35
X149.73Y-105.89
X152.27Y-103.35
X152.27Y-105.89
X154.81Y-103.35
X154.81Y-105.89
X157.35Y-103.35
X157.35Y-105.89
X159.89Y-103.35
X159.89Y-105.89
X162.43Y-103.35
X162.43Y-105.89
X164.97Y-103.35
X164.97Y-105.89
X167.51Y-103.35
X167.51Y-105.89
X170.05Y-103.35
X170.05Y-105.89
X172.59Y-103.35
X172.59Y-105.89
X175.13Y-103.35
X175.13Y-105.89
X177.67Y-103.35
X177.67Y-105.89
X170.59Y-112.35
X173.13Y-112.35
X175.67Y-112.35
X129.41Y-82.35
X129.41Y-84.89
X131.95Y-82.35
X131.95Y-84.89
X134.49Y-82.35
X134.49Y-84.89
X137.03Y-82.35
X137.03Y-84.89
X139.57Y-82.35
X139.57Y-84.89
X142.11Y-82.35
X142.11Y-84.89
X144.65Y-82.35
X144.65Y-84.89
X147.19Y-82.35
X147.19Y-84.89
X149.73Y-82.35
X149.73Y-84.89
X152.27Y-82.35
X152.27Y-84.89
X154.81Y-82.35
X154.81Y-84.89
X157.35Y-82.35
X157.35Y-84.89
X159.89Y-82.35
X159.89Y-84.89
X162.43Y-82.35
X162.43Y-84.89
X164.97Y-82.35
X164.97Y-84.89
X167.51Y-82.35
X167.51Y-84.89
X170.05Y-82.35
X170.05Y-84.89
X172.59Y-82.35
X172.59Y-84.89
X175.13Y-82.35
X175.13Y-84.89
X177.67Y-82.35
X177.67Y-84.89
T3
X116.08Y-165.22
X116.08Y-167.76
X118.62Y-165.22
X118.62Y-167.76
X121.16Y-165.22
X121.16Y-167.76
X123.7Y-165.22
X123.7Y-167.76
X126.24Y-165.22
X126.24Y-167.76
X128.78Y-165.22
X128.78Y-167.76
X131.32Y-165.22
X131.32Y-167.76
X133.86Y-165.22
X133.86Y-167.76
X136.4Y-165.22
X136.4Y-167.76
X138.94Y-165.22
X138.94Y-167.76
X141.48Y-165.22
X141.48Y-167.76
X144.02Y-165.22
X144.02Y-167.76
X146.56Y-165.22
X146.56Y-167.76
X149.1Y-165.22
X149.1Y-167.76
X151.64Y-165.22
X151.64Y-167.76
X154.18Y-165.22
X154.18Y-167.76
X156.72Y-165.22
X156.72Y-167.76
X159.26Y-165.22
X159.26Y-167.76
X161.8Y-165.22
X161.8Y-167.76
X164.34Y-165.22
X164.34Y-167.76
T4
X107.96Y-101.56
X107.96Y-105.06
X107.96Y-94.36
X107.96Y-97.86
T5
X104.0Y-168.0
X176.0Y-168.0
T0
M30
