G04 #@! TF.GenerationSoftware,KiCad,Pcbnew,(5.1.5)-3*
G04 #@! TF.CreationDate,2023-03-23T18:14:07-07:00*
G04 #@! TF.ProjectId,breakout_pcb,62726561-6b6f-4757-945f-7063622e6b69,rev?*
G04 #@! TF.SameCoordinates,Original*
G04 #@! TF.FileFunction,Soldermask,Bot*
G04 #@! TF.FilePolarity,Negative*
%FSLAX46Y46*%
G04 Gerber Fmt 4.6, Leading zero omitted, Abs format (unit mm)*
G04 Created by KiCad (PCBNEW (5.1.5)-3) date 2023-03-23 18:14:07*
%MOMM*%
%LPD*%
G04 APERTURE LIST*
%ADD10C,0.150000*%
G04 APERTURE END LIST*
D10*
G36*
X176468412Y-165645135D02*
G01*
X176700346Y-165691269D01*
X177137300Y-165872262D01*
X177530548Y-166135022D01*
X177864978Y-166469452D01*
X178127738Y-166862700D01*
X178127739Y-166862702D01*
X178180749Y-166990680D01*
X178308731Y-167299654D01*
X178320109Y-167356854D01*
X178401000Y-167763521D01*
X178401000Y-168236479D01*
X178364278Y-168421092D01*
X178308731Y-168700346D01*
X178127738Y-169137300D01*
X177864978Y-169530548D01*
X177530548Y-169864978D01*
X177137300Y-170127738D01*
X176700346Y-170308731D01*
X176468412Y-170354866D01*
X176236479Y-170401000D01*
X175763521Y-170401000D01*
X175531588Y-170354866D01*
X175299654Y-170308731D01*
X174862700Y-170127738D01*
X174469452Y-169864978D01*
X174135022Y-169530548D01*
X173872262Y-169137300D01*
X173691269Y-168700346D01*
X173635722Y-168421092D01*
X173599000Y-168236479D01*
X173599000Y-167763521D01*
X173679891Y-167356854D01*
X173691269Y-167299654D01*
X173819251Y-166990680D01*
X173872261Y-166862702D01*
X173872262Y-166862700D01*
X174135022Y-166469452D01*
X174469452Y-166135022D01*
X174862700Y-165872262D01*
X175299654Y-165691269D01*
X175531588Y-165645135D01*
X175763521Y-165599000D01*
X176236479Y-165599000D01*
X176468412Y-165645135D01*
G37*
G36*
X104468412Y-165645135D02*
G01*
X104700346Y-165691269D01*
X105137300Y-165872262D01*
X105530548Y-166135022D01*
X105864978Y-166469452D01*
X106127738Y-166862700D01*
X106127739Y-166862702D01*
X106180749Y-166990680D01*
X106308731Y-167299654D01*
X106320109Y-167356854D01*
X106401000Y-167763521D01*
X106401000Y-168236479D01*
X106364278Y-168421092D01*
X106308731Y-168700346D01*
X106127738Y-169137300D01*
X105864978Y-169530548D01*
X105530548Y-169864978D01*
X105137300Y-170127738D01*
X104700346Y-170308731D01*
X104468412Y-170354866D01*
X104236479Y-170401000D01*
X103763521Y-170401000D01*
X103531588Y-170354866D01*
X103299654Y-170308731D01*
X102862700Y-170127738D01*
X102469452Y-169864978D01*
X102135022Y-169530548D01*
X101872262Y-169137300D01*
X101691269Y-168700346D01*
X101635722Y-168421092D01*
X101599000Y-168236479D01*
X101599000Y-167763521D01*
X101679891Y-167356854D01*
X101691269Y-167299654D01*
X101819251Y-166990680D01*
X101872261Y-166862702D01*
X101872262Y-166862700D01*
X102135022Y-166469452D01*
X102469452Y-166135022D01*
X102862700Y-165872262D01*
X103299654Y-165691269D01*
X103531588Y-165645135D01*
X103763521Y-165599000D01*
X104236479Y-165599000D01*
X104468412Y-165645135D01*
G37*
G36*
X146726042Y-166925254D02*
G01*
X146808257Y-166941607D01*
X146872414Y-166968182D01*
X146963146Y-167005764D01*
X147102544Y-167098907D01*
X147221093Y-167217456D01*
X147314236Y-167356854D01*
X147378393Y-167511744D01*
X147411100Y-167676173D01*
X147411100Y-167843827D01*
X147378393Y-168008256D01*
X147314236Y-168163146D01*
X147221093Y-168302544D01*
X147102544Y-168421093D01*
X146963146Y-168514236D01*
X146872414Y-168551818D01*
X146808257Y-168578393D01*
X146726042Y-168594746D01*
X146643827Y-168611100D01*
X146476173Y-168611100D01*
X146393958Y-168594746D01*
X146311743Y-168578393D01*
X146247586Y-168551818D01*
X146156854Y-168514236D01*
X146017456Y-168421093D01*
X145898907Y-168302544D01*
X145805764Y-168163146D01*
X145741607Y-168008256D01*
X145708900Y-167843827D01*
X145708900Y-167676173D01*
X145741607Y-167511744D01*
X145805764Y-167356854D01*
X145898907Y-167217456D01*
X146017456Y-167098907D01*
X146156854Y-167005764D01*
X146247586Y-166968182D01*
X146311743Y-166941607D01*
X146393958Y-166925254D01*
X146476173Y-166908900D01*
X146643827Y-166908900D01*
X146726042Y-166925254D01*
G37*
G36*
X161966042Y-166925254D02*
G01*
X162048257Y-166941607D01*
X162112414Y-166968182D01*
X162203146Y-167005764D01*
X162342544Y-167098907D01*
X162461093Y-167217456D01*
X162554236Y-167356854D01*
X162618393Y-167511744D01*
X162651100Y-167676173D01*
X162651100Y-167843827D01*
X162618393Y-168008256D01*
X162554236Y-168163146D01*
X162461093Y-168302544D01*
X162342544Y-168421093D01*
X162203146Y-168514236D01*
X162112414Y-168551818D01*
X162048257Y-168578393D01*
X161966042Y-168594746D01*
X161883827Y-168611100D01*
X161716173Y-168611100D01*
X161633958Y-168594746D01*
X161551743Y-168578393D01*
X161487586Y-168551818D01*
X161396854Y-168514236D01*
X161257456Y-168421093D01*
X161138907Y-168302544D01*
X161045764Y-168163146D01*
X160981607Y-168008256D01*
X160948900Y-167843827D01*
X160948900Y-167676173D01*
X160981607Y-167511744D01*
X161045764Y-167356854D01*
X161138907Y-167217456D01*
X161257456Y-167098907D01*
X161396854Y-167005764D01*
X161487586Y-166968182D01*
X161551743Y-166941607D01*
X161633958Y-166925254D01*
X161716173Y-166908900D01*
X161883827Y-166908900D01*
X161966042Y-166925254D01*
G37*
G36*
X156886042Y-166925254D02*
G01*
X156968257Y-166941607D01*
X157032414Y-166968182D01*
X157123146Y-167005764D01*
X157262544Y-167098907D01*
X157381093Y-167217456D01*
X157474236Y-167356854D01*
X157538393Y-167511744D01*
X157571100Y-167676173D01*
X157571100Y-167843827D01*
X157538393Y-168008256D01*
X157474236Y-168163146D01*
X157381093Y-168302544D01*
X157262544Y-168421093D01*
X157123146Y-168514236D01*
X157032414Y-168551818D01*
X156968257Y-168578393D01*
X156886042Y-168594746D01*
X156803827Y-168611100D01*
X156636173Y-168611100D01*
X156553958Y-168594746D01*
X156471743Y-168578393D01*
X156407586Y-168551818D01*
X156316854Y-168514236D01*
X156177456Y-168421093D01*
X156058907Y-168302544D01*
X155965764Y-168163146D01*
X155901607Y-168008256D01*
X155868900Y-167843827D01*
X155868900Y-167676173D01*
X155901607Y-167511744D01*
X155965764Y-167356854D01*
X156058907Y-167217456D01*
X156177456Y-167098907D01*
X156316854Y-167005764D01*
X156407586Y-166968182D01*
X156471743Y-166941607D01*
X156553958Y-166925254D01*
X156636173Y-166908900D01*
X156803827Y-166908900D01*
X156886042Y-166925254D01*
G37*
G36*
X154346042Y-166925254D02*
G01*
X154428257Y-166941607D01*
X154492414Y-166968182D01*
X154583146Y-167005764D01*
X154722544Y-167098907D01*
X154841093Y-167217456D01*
X154934236Y-167356854D01*
X154998393Y-167511744D01*
X155031100Y-167676173D01*
X155031100Y-167843827D01*
X154998393Y-168008256D01*
X154934236Y-168163146D01*
X154841093Y-168302544D01*
X154722544Y-168421093D01*
X154583146Y-168514236D01*
X154492414Y-168551818D01*
X154428257Y-168578393D01*
X154346042Y-168594746D01*
X154263827Y-168611100D01*
X154096173Y-168611100D01*
X154013958Y-168594746D01*
X153931743Y-168578393D01*
X153867586Y-168551818D01*
X153776854Y-168514236D01*
X153637456Y-168421093D01*
X153518907Y-168302544D01*
X153425764Y-168163146D01*
X153361607Y-168008256D01*
X153328900Y-167843827D01*
X153328900Y-167676173D01*
X153361607Y-167511744D01*
X153425764Y-167356854D01*
X153518907Y-167217456D01*
X153637456Y-167098907D01*
X153776854Y-167005764D01*
X153867586Y-166968182D01*
X153931743Y-166941607D01*
X154013958Y-166925254D01*
X154096173Y-166908900D01*
X154263827Y-166908900D01*
X154346042Y-166925254D01*
G37*
G36*
X151806042Y-166925254D02*
G01*
X151888257Y-166941607D01*
X151952414Y-166968182D01*
X152043146Y-167005764D01*
X152182544Y-167098907D01*
X152301093Y-167217456D01*
X152394236Y-167356854D01*
X152458393Y-167511744D01*
X152491100Y-167676173D01*
X152491100Y-167843827D01*
X152458393Y-168008256D01*
X152394236Y-168163146D01*
X152301093Y-168302544D01*
X152182544Y-168421093D01*
X152043146Y-168514236D01*
X151952414Y-168551818D01*
X151888257Y-168578393D01*
X151806042Y-168594746D01*
X151723827Y-168611100D01*
X151556173Y-168611100D01*
X151473958Y-168594746D01*
X151391743Y-168578393D01*
X151327586Y-168551818D01*
X151236854Y-168514236D01*
X151097456Y-168421093D01*
X150978907Y-168302544D01*
X150885764Y-168163146D01*
X150821607Y-168008256D01*
X150788900Y-167843827D01*
X150788900Y-167676173D01*
X150821607Y-167511744D01*
X150885764Y-167356854D01*
X150978907Y-167217456D01*
X151097456Y-167098907D01*
X151236854Y-167005764D01*
X151327586Y-166968182D01*
X151391743Y-166941607D01*
X151473958Y-166925254D01*
X151556173Y-166908900D01*
X151723827Y-166908900D01*
X151806042Y-166925254D01*
G37*
G36*
X149266042Y-166925254D02*
G01*
X149348257Y-166941607D01*
X149412414Y-166968182D01*
X149503146Y-167005764D01*
X149642544Y-167098907D01*
X149761093Y-167217456D01*
X149854236Y-167356854D01*
X149918393Y-167511744D01*
X149951100Y-167676173D01*
X149951100Y-167843827D01*
X149918393Y-168008256D01*
X149854236Y-168163146D01*
X149761093Y-168302544D01*
X149642544Y-168421093D01*
X149503146Y-168514236D01*
X149412414Y-168551818D01*
X149348257Y-168578393D01*
X149266042Y-168594746D01*
X149183827Y-168611100D01*
X149016173Y-168611100D01*
X148933958Y-168594746D01*
X148851743Y-168578393D01*
X148787586Y-168551818D01*
X148696854Y-168514236D01*
X148557456Y-168421093D01*
X148438907Y-168302544D01*
X148345764Y-168163146D01*
X148281607Y-168008256D01*
X148248900Y-167843827D01*
X148248900Y-167676173D01*
X148281607Y-167511744D01*
X148345764Y-167356854D01*
X148438907Y-167217456D01*
X148557456Y-167098907D01*
X148696854Y-167005764D01*
X148787586Y-166968182D01*
X148851743Y-166941607D01*
X148933958Y-166925254D01*
X149016173Y-166908900D01*
X149183827Y-166908900D01*
X149266042Y-166925254D01*
G37*
G36*
X144186042Y-166925254D02*
G01*
X144268257Y-166941607D01*
X144332414Y-166968182D01*
X144423146Y-167005764D01*
X144562544Y-167098907D01*
X144681093Y-167217456D01*
X144774236Y-167356854D01*
X144838393Y-167511744D01*
X144871100Y-167676173D01*
X144871100Y-167843827D01*
X144838393Y-168008256D01*
X144774236Y-168163146D01*
X144681093Y-168302544D01*
X144562544Y-168421093D01*
X144423146Y-168514236D01*
X144332414Y-168551818D01*
X144268257Y-168578393D01*
X144186042Y-168594746D01*
X144103827Y-168611100D01*
X143936173Y-168611100D01*
X143853958Y-168594746D01*
X143771743Y-168578393D01*
X143707586Y-168551818D01*
X143616854Y-168514236D01*
X143477456Y-168421093D01*
X143358907Y-168302544D01*
X143265764Y-168163146D01*
X143201607Y-168008256D01*
X143168900Y-167843827D01*
X143168900Y-167676173D01*
X143201607Y-167511744D01*
X143265764Y-167356854D01*
X143358907Y-167217456D01*
X143477456Y-167098907D01*
X143616854Y-167005764D01*
X143707586Y-166968182D01*
X143771743Y-166941607D01*
X143853958Y-166925254D01*
X143936173Y-166908900D01*
X144103827Y-166908900D01*
X144186042Y-166925254D01*
G37*
G36*
X141646042Y-166925254D02*
G01*
X141728257Y-166941607D01*
X141792414Y-166968182D01*
X141883146Y-167005764D01*
X142022544Y-167098907D01*
X142141093Y-167217456D01*
X142234236Y-167356854D01*
X142298393Y-167511744D01*
X142331100Y-167676173D01*
X142331100Y-167843827D01*
X142298393Y-168008256D01*
X142234236Y-168163146D01*
X142141093Y-168302544D01*
X142022544Y-168421093D01*
X141883146Y-168514236D01*
X141792414Y-168551818D01*
X141728257Y-168578393D01*
X141646042Y-168594746D01*
X141563827Y-168611100D01*
X141396173Y-168611100D01*
X141313958Y-168594746D01*
X141231743Y-168578393D01*
X141167586Y-168551818D01*
X141076854Y-168514236D01*
X140937456Y-168421093D01*
X140818907Y-168302544D01*
X140725764Y-168163146D01*
X140661607Y-168008256D01*
X140628900Y-167843827D01*
X140628900Y-167676173D01*
X140661607Y-167511744D01*
X140725764Y-167356854D01*
X140818907Y-167217456D01*
X140937456Y-167098907D01*
X141076854Y-167005764D01*
X141167586Y-166968182D01*
X141231743Y-166941607D01*
X141313958Y-166925254D01*
X141396173Y-166908900D01*
X141563827Y-166908900D01*
X141646042Y-166925254D01*
G37*
G36*
X159426042Y-166925254D02*
G01*
X159508257Y-166941607D01*
X159572414Y-166968182D01*
X159663146Y-167005764D01*
X159802544Y-167098907D01*
X159921093Y-167217456D01*
X160014236Y-167356854D01*
X160078393Y-167511744D01*
X160111100Y-167676173D01*
X160111100Y-167843827D01*
X160078393Y-168008256D01*
X160014236Y-168163146D01*
X159921093Y-168302544D01*
X159802544Y-168421093D01*
X159663146Y-168514236D01*
X159572414Y-168551818D01*
X159508257Y-168578393D01*
X159426042Y-168594746D01*
X159343827Y-168611100D01*
X159176173Y-168611100D01*
X159093958Y-168594746D01*
X159011743Y-168578393D01*
X158947586Y-168551818D01*
X158856854Y-168514236D01*
X158717456Y-168421093D01*
X158598907Y-168302544D01*
X158505764Y-168163146D01*
X158441607Y-168008256D01*
X158408900Y-167843827D01*
X158408900Y-167676173D01*
X158441607Y-167511744D01*
X158505764Y-167356854D01*
X158598907Y-167217456D01*
X158717456Y-167098907D01*
X158856854Y-167005764D01*
X158947586Y-166968182D01*
X159011743Y-166941607D01*
X159093958Y-166925254D01*
X159176173Y-166908900D01*
X159343827Y-166908900D01*
X159426042Y-166925254D01*
G37*
G36*
X136566042Y-166925254D02*
G01*
X136648257Y-166941607D01*
X136712414Y-166968182D01*
X136803146Y-167005764D01*
X136942544Y-167098907D01*
X137061093Y-167217456D01*
X137154236Y-167356854D01*
X137218393Y-167511744D01*
X137251100Y-167676173D01*
X137251100Y-167843827D01*
X137218393Y-168008256D01*
X137154236Y-168163146D01*
X137061093Y-168302544D01*
X136942544Y-168421093D01*
X136803146Y-168514236D01*
X136712414Y-168551818D01*
X136648257Y-168578393D01*
X136566042Y-168594746D01*
X136483827Y-168611100D01*
X136316173Y-168611100D01*
X136233958Y-168594746D01*
X136151743Y-168578393D01*
X136087586Y-168551818D01*
X135996854Y-168514236D01*
X135857456Y-168421093D01*
X135738907Y-168302544D01*
X135645764Y-168163146D01*
X135581607Y-168008256D01*
X135548900Y-167843827D01*
X135548900Y-167676173D01*
X135581607Y-167511744D01*
X135645764Y-167356854D01*
X135738907Y-167217456D01*
X135857456Y-167098907D01*
X135996854Y-167005764D01*
X136087586Y-166968182D01*
X136151743Y-166941607D01*
X136233958Y-166925254D01*
X136316173Y-166908900D01*
X136483827Y-166908900D01*
X136566042Y-166925254D01*
G37*
G36*
X131486042Y-166925254D02*
G01*
X131568257Y-166941607D01*
X131632414Y-166968182D01*
X131723146Y-167005764D01*
X131862544Y-167098907D01*
X131981093Y-167217456D01*
X132074236Y-167356854D01*
X132138393Y-167511744D01*
X132171100Y-167676173D01*
X132171100Y-167843827D01*
X132138393Y-168008256D01*
X132074236Y-168163146D01*
X131981093Y-168302544D01*
X131862544Y-168421093D01*
X131723146Y-168514236D01*
X131632414Y-168551818D01*
X131568257Y-168578393D01*
X131486042Y-168594746D01*
X131403827Y-168611100D01*
X131236173Y-168611100D01*
X131153958Y-168594746D01*
X131071743Y-168578393D01*
X131007586Y-168551818D01*
X130916854Y-168514236D01*
X130777456Y-168421093D01*
X130658907Y-168302544D01*
X130565764Y-168163146D01*
X130501607Y-168008256D01*
X130468900Y-167843827D01*
X130468900Y-167676173D01*
X130501607Y-167511744D01*
X130565764Y-167356854D01*
X130658907Y-167217456D01*
X130777456Y-167098907D01*
X130916854Y-167005764D01*
X131007586Y-166968182D01*
X131071743Y-166941607D01*
X131153958Y-166925254D01*
X131236173Y-166908900D01*
X131403827Y-166908900D01*
X131486042Y-166925254D01*
G37*
G36*
X139106042Y-166925254D02*
G01*
X139188257Y-166941607D01*
X139252414Y-166968182D01*
X139343146Y-167005764D01*
X139482544Y-167098907D01*
X139601093Y-167217456D01*
X139694236Y-167356854D01*
X139758393Y-167511744D01*
X139791100Y-167676173D01*
X139791100Y-167843827D01*
X139758393Y-168008256D01*
X139694236Y-168163146D01*
X139601093Y-168302544D01*
X139482544Y-168421093D01*
X139343146Y-168514236D01*
X139252414Y-168551818D01*
X139188257Y-168578393D01*
X139106042Y-168594746D01*
X139023827Y-168611100D01*
X138856173Y-168611100D01*
X138773958Y-168594746D01*
X138691743Y-168578393D01*
X138627586Y-168551818D01*
X138536854Y-168514236D01*
X138397456Y-168421093D01*
X138278907Y-168302544D01*
X138185764Y-168163146D01*
X138121607Y-168008256D01*
X138088900Y-167843827D01*
X138088900Y-167676173D01*
X138121607Y-167511744D01*
X138185764Y-167356854D01*
X138278907Y-167217456D01*
X138397456Y-167098907D01*
X138536854Y-167005764D01*
X138627586Y-166968182D01*
X138691743Y-166941607D01*
X138773958Y-166925254D01*
X138856173Y-166908900D01*
X139023827Y-166908900D01*
X139106042Y-166925254D01*
G37*
G36*
X164506042Y-166925254D02*
G01*
X164588257Y-166941607D01*
X164652414Y-166968182D01*
X164743146Y-167005764D01*
X164882544Y-167098907D01*
X165001093Y-167217456D01*
X165094236Y-167356854D01*
X165158393Y-167511744D01*
X165191100Y-167676173D01*
X165191100Y-167843827D01*
X165158393Y-168008256D01*
X165094236Y-168163146D01*
X165001093Y-168302544D01*
X164882544Y-168421093D01*
X164743146Y-168514236D01*
X164652414Y-168551818D01*
X164588257Y-168578393D01*
X164506042Y-168594746D01*
X164423827Y-168611100D01*
X164256173Y-168611100D01*
X164173958Y-168594746D01*
X164091743Y-168578393D01*
X164027586Y-168551818D01*
X163936854Y-168514236D01*
X163797456Y-168421093D01*
X163678907Y-168302544D01*
X163585764Y-168163146D01*
X163521607Y-168008256D01*
X163488900Y-167843827D01*
X163488900Y-167676173D01*
X163521607Y-167511744D01*
X163585764Y-167356854D01*
X163678907Y-167217456D01*
X163797456Y-167098907D01*
X163936854Y-167005764D01*
X164027586Y-166968182D01*
X164091743Y-166941607D01*
X164173958Y-166925254D01*
X164256173Y-166908900D01*
X164423827Y-166908900D01*
X164506042Y-166925254D01*
G37*
G36*
X116246042Y-166925254D02*
G01*
X116328257Y-166941607D01*
X116392414Y-166968182D01*
X116483146Y-167005764D01*
X116622544Y-167098907D01*
X116741093Y-167217456D01*
X116834236Y-167356854D01*
X116898393Y-167511744D01*
X116931100Y-167676173D01*
X116931100Y-167843827D01*
X116898393Y-168008256D01*
X116834236Y-168163146D01*
X116741093Y-168302544D01*
X116622544Y-168421093D01*
X116483146Y-168514236D01*
X116392414Y-168551818D01*
X116328257Y-168578393D01*
X116246042Y-168594746D01*
X116163827Y-168611100D01*
X115996173Y-168611100D01*
X115913958Y-168594746D01*
X115831743Y-168578393D01*
X115767586Y-168551818D01*
X115676854Y-168514236D01*
X115537456Y-168421093D01*
X115418907Y-168302544D01*
X115325764Y-168163146D01*
X115261607Y-168008256D01*
X115228900Y-167843827D01*
X115228900Y-167676173D01*
X115261607Y-167511744D01*
X115325764Y-167356854D01*
X115418907Y-167217456D01*
X115537456Y-167098907D01*
X115676854Y-167005764D01*
X115767586Y-166968182D01*
X115831743Y-166941607D01*
X115913958Y-166925254D01*
X115996173Y-166908900D01*
X116163827Y-166908900D01*
X116246042Y-166925254D01*
G37*
G36*
X118786042Y-166925254D02*
G01*
X118868257Y-166941607D01*
X118932414Y-166968182D01*
X119023146Y-167005764D01*
X119162544Y-167098907D01*
X119281093Y-167217456D01*
X119374236Y-167356854D01*
X119438393Y-167511744D01*
X119471100Y-167676173D01*
X119471100Y-167843827D01*
X119438393Y-168008256D01*
X119374236Y-168163146D01*
X119281093Y-168302544D01*
X119162544Y-168421093D01*
X119023146Y-168514236D01*
X118932414Y-168551818D01*
X118868257Y-168578393D01*
X118786042Y-168594746D01*
X118703827Y-168611100D01*
X118536173Y-168611100D01*
X118453958Y-168594746D01*
X118371743Y-168578393D01*
X118307586Y-168551818D01*
X118216854Y-168514236D01*
X118077456Y-168421093D01*
X117958907Y-168302544D01*
X117865764Y-168163146D01*
X117801607Y-168008256D01*
X117768900Y-167843827D01*
X117768900Y-167676173D01*
X117801607Y-167511744D01*
X117865764Y-167356854D01*
X117958907Y-167217456D01*
X118077456Y-167098907D01*
X118216854Y-167005764D01*
X118307586Y-166968182D01*
X118371743Y-166941607D01*
X118453958Y-166925254D01*
X118536173Y-166908900D01*
X118703827Y-166908900D01*
X118786042Y-166925254D01*
G37*
G36*
X121326042Y-166925254D02*
G01*
X121408257Y-166941607D01*
X121472414Y-166968182D01*
X121563146Y-167005764D01*
X121702544Y-167098907D01*
X121821093Y-167217456D01*
X121914236Y-167356854D01*
X121978393Y-167511744D01*
X122011100Y-167676173D01*
X122011100Y-167843827D01*
X121978393Y-168008256D01*
X121914236Y-168163146D01*
X121821093Y-168302544D01*
X121702544Y-168421093D01*
X121563146Y-168514236D01*
X121472414Y-168551818D01*
X121408257Y-168578393D01*
X121326042Y-168594746D01*
X121243827Y-168611100D01*
X121076173Y-168611100D01*
X120993958Y-168594746D01*
X120911743Y-168578393D01*
X120847586Y-168551818D01*
X120756854Y-168514236D01*
X120617456Y-168421093D01*
X120498907Y-168302544D01*
X120405764Y-168163146D01*
X120341607Y-168008256D01*
X120308900Y-167843827D01*
X120308900Y-167676173D01*
X120341607Y-167511744D01*
X120405764Y-167356854D01*
X120498907Y-167217456D01*
X120617456Y-167098907D01*
X120756854Y-167005764D01*
X120847586Y-166968182D01*
X120911743Y-166941607D01*
X120993958Y-166925254D01*
X121076173Y-166908900D01*
X121243827Y-166908900D01*
X121326042Y-166925254D01*
G37*
G36*
X123866042Y-166925254D02*
G01*
X123948257Y-166941607D01*
X124012414Y-166968182D01*
X124103146Y-167005764D01*
X124242544Y-167098907D01*
X124361093Y-167217456D01*
X124454236Y-167356854D01*
X124518393Y-167511744D01*
X124551100Y-167676173D01*
X124551100Y-167843827D01*
X124518393Y-168008256D01*
X124454236Y-168163146D01*
X124361093Y-168302544D01*
X124242544Y-168421093D01*
X124103146Y-168514236D01*
X124012414Y-168551818D01*
X123948257Y-168578393D01*
X123866042Y-168594746D01*
X123783827Y-168611100D01*
X123616173Y-168611100D01*
X123533958Y-168594746D01*
X123451743Y-168578393D01*
X123387586Y-168551818D01*
X123296854Y-168514236D01*
X123157456Y-168421093D01*
X123038907Y-168302544D01*
X122945764Y-168163146D01*
X122881607Y-168008256D01*
X122848900Y-167843827D01*
X122848900Y-167676173D01*
X122881607Y-167511744D01*
X122945764Y-167356854D01*
X123038907Y-167217456D01*
X123157456Y-167098907D01*
X123296854Y-167005764D01*
X123387586Y-166968182D01*
X123451743Y-166941607D01*
X123533958Y-166925254D01*
X123616173Y-166908900D01*
X123783827Y-166908900D01*
X123866042Y-166925254D01*
G37*
G36*
X126406042Y-166925254D02*
G01*
X126488257Y-166941607D01*
X126552414Y-166968182D01*
X126643146Y-167005764D01*
X126782544Y-167098907D01*
X126901093Y-167217456D01*
X126994236Y-167356854D01*
X127058393Y-167511744D01*
X127091100Y-167676173D01*
X127091100Y-167843827D01*
X127058393Y-168008256D01*
X126994236Y-168163146D01*
X126901093Y-168302544D01*
X126782544Y-168421093D01*
X126643146Y-168514236D01*
X126552414Y-168551818D01*
X126488257Y-168578393D01*
X126406042Y-168594746D01*
X126323827Y-168611100D01*
X126156173Y-168611100D01*
X126073958Y-168594746D01*
X125991743Y-168578393D01*
X125927586Y-168551818D01*
X125836854Y-168514236D01*
X125697456Y-168421093D01*
X125578907Y-168302544D01*
X125485764Y-168163146D01*
X125421607Y-168008256D01*
X125388900Y-167843827D01*
X125388900Y-167676173D01*
X125421607Y-167511744D01*
X125485764Y-167356854D01*
X125578907Y-167217456D01*
X125697456Y-167098907D01*
X125836854Y-167005764D01*
X125927586Y-166968182D01*
X125991743Y-166941607D01*
X126073958Y-166925254D01*
X126156173Y-166908900D01*
X126323827Y-166908900D01*
X126406042Y-166925254D01*
G37*
G36*
X128946042Y-166925254D02*
G01*
X129028257Y-166941607D01*
X129092414Y-166968182D01*
X129183146Y-167005764D01*
X129322544Y-167098907D01*
X129441093Y-167217456D01*
X129534236Y-167356854D01*
X129598393Y-167511744D01*
X129631100Y-167676173D01*
X129631100Y-167843827D01*
X129598393Y-168008256D01*
X129534236Y-168163146D01*
X129441093Y-168302544D01*
X129322544Y-168421093D01*
X129183146Y-168514236D01*
X129092414Y-168551818D01*
X129028257Y-168578393D01*
X128946042Y-168594746D01*
X128863827Y-168611100D01*
X128696173Y-168611100D01*
X128613958Y-168594746D01*
X128531743Y-168578393D01*
X128467586Y-168551818D01*
X128376854Y-168514236D01*
X128237456Y-168421093D01*
X128118907Y-168302544D01*
X128025764Y-168163146D01*
X127961607Y-168008256D01*
X127928900Y-167843827D01*
X127928900Y-167676173D01*
X127961607Y-167511744D01*
X128025764Y-167356854D01*
X128118907Y-167217456D01*
X128237456Y-167098907D01*
X128376854Y-167005764D01*
X128467586Y-166968182D01*
X128531743Y-166941607D01*
X128613958Y-166925254D01*
X128696173Y-166908900D01*
X128863827Y-166908900D01*
X128946042Y-166925254D01*
G37*
G36*
X134026042Y-166925254D02*
G01*
X134108257Y-166941607D01*
X134172414Y-166968182D01*
X134263146Y-167005764D01*
X134402544Y-167098907D01*
X134521093Y-167217456D01*
X134614236Y-167356854D01*
X134678393Y-167511744D01*
X134711100Y-167676173D01*
X134711100Y-167843827D01*
X134678393Y-168008256D01*
X134614236Y-168163146D01*
X134521093Y-168302544D01*
X134402544Y-168421093D01*
X134263146Y-168514236D01*
X134172414Y-168551818D01*
X134108257Y-168578393D01*
X134026042Y-168594746D01*
X133943827Y-168611100D01*
X133776173Y-168611100D01*
X133693958Y-168594746D01*
X133611743Y-168578393D01*
X133547586Y-168551818D01*
X133456854Y-168514236D01*
X133317456Y-168421093D01*
X133198907Y-168302544D01*
X133105764Y-168163146D01*
X133041607Y-168008256D01*
X133008900Y-167843827D01*
X133008900Y-167676173D01*
X133041607Y-167511744D01*
X133105764Y-167356854D01*
X133198907Y-167217456D01*
X133317456Y-167098907D01*
X133456854Y-167005764D01*
X133547586Y-166968182D01*
X133611743Y-166941607D01*
X133693958Y-166925254D01*
X133776173Y-166908900D01*
X133943827Y-166908900D01*
X134026042Y-166925254D01*
G37*
G36*
X146726041Y-164385253D02*
G01*
X146808257Y-164401607D01*
X146872414Y-164428182D01*
X146963146Y-164465764D01*
X147102544Y-164558907D01*
X147221093Y-164677456D01*
X147314236Y-164816854D01*
X147378393Y-164971744D01*
X147411100Y-165136173D01*
X147411100Y-165303827D01*
X147378393Y-165468256D01*
X147314236Y-165623146D01*
X147221093Y-165762544D01*
X147102544Y-165881093D01*
X146963146Y-165974236D01*
X146872414Y-166011818D01*
X146808257Y-166038393D01*
X146726042Y-166054746D01*
X146643827Y-166071100D01*
X146476173Y-166071100D01*
X146393958Y-166054746D01*
X146311743Y-166038393D01*
X146247586Y-166011818D01*
X146156854Y-165974236D01*
X146017456Y-165881093D01*
X145898907Y-165762544D01*
X145805764Y-165623146D01*
X145741607Y-165468256D01*
X145708900Y-165303827D01*
X145708900Y-165136173D01*
X145741607Y-164971744D01*
X145805764Y-164816854D01*
X145898907Y-164677456D01*
X146017456Y-164558907D01*
X146156854Y-164465764D01*
X146247586Y-164428182D01*
X146311743Y-164401607D01*
X146393959Y-164385253D01*
X146476173Y-164368900D01*
X146643827Y-164368900D01*
X146726041Y-164385253D01*
G37*
G36*
X116246041Y-164385253D02*
G01*
X116328257Y-164401607D01*
X116392414Y-164428182D01*
X116483146Y-164465764D01*
X116622544Y-164558907D01*
X116741093Y-164677456D01*
X116834236Y-164816854D01*
X116898393Y-164971744D01*
X116931100Y-165136173D01*
X116931100Y-165303827D01*
X116898393Y-165468256D01*
X116834236Y-165623146D01*
X116741093Y-165762544D01*
X116622544Y-165881093D01*
X116483146Y-165974236D01*
X116392414Y-166011818D01*
X116328257Y-166038393D01*
X116246042Y-166054746D01*
X116163827Y-166071100D01*
X115996173Y-166071100D01*
X115913958Y-166054746D01*
X115831743Y-166038393D01*
X115767586Y-166011818D01*
X115676854Y-165974236D01*
X115537456Y-165881093D01*
X115418907Y-165762544D01*
X115325764Y-165623146D01*
X115261607Y-165468256D01*
X115228900Y-165303827D01*
X115228900Y-165136173D01*
X115261607Y-164971744D01*
X115325764Y-164816854D01*
X115418907Y-164677456D01*
X115537456Y-164558907D01*
X115676854Y-164465764D01*
X115767586Y-164428182D01*
X115831743Y-164401607D01*
X115913959Y-164385253D01*
X115996173Y-164368900D01*
X116163827Y-164368900D01*
X116246041Y-164385253D01*
G37*
G36*
X118786041Y-164385253D02*
G01*
X118868257Y-164401607D01*
X118932414Y-164428182D01*
X119023146Y-164465764D01*
X119162544Y-164558907D01*
X119281093Y-164677456D01*
X119374236Y-164816854D01*
X119438393Y-164971744D01*
X119471100Y-165136173D01*
X119471100Y-165303827D01*
X119438393Y-165468256D01*
X119374236Y-165623146D01*
X119281093Y-165762544D01*
X119162544Y-165881093D01*
X119023146Y-165974236D01*
X118932414Y-166011818D01*
X118868257Y-166038393D01*
X118786042Y-166054746D01*
X118703827Y-166071100D01*
X118536173Y-166071100D01*
X118453958Y-166054746D01*
X118371743Y-166038393D01*
X118307586Y-166011818D01*
X118216854Y-165974236D01*
X118077456Y-165881093D01*
X117958907Y-165762544D01*
X117865764Y-165623146D01*
X117801607Y-165468256D01*
X117768900Y-165303827D01*
X117768900Y-165136173D01*
X117801607Y-164971744D01*
X117865764Y-164816854D01*
X117958907Y-164677456D01*
X118077456Y-164558907D01*
X118216854Y-164465764D01*
X118307586Y-164428182D01*
X118371743Y-164401607D01*
X118453959Y-164385253D01*
X118536173Y-164368900D01*
X118703827Y-164368900D01*
X118786041Y-164385253D01*
G37*
G36*
X121326041Y-164385253D02*
G01*
X121408257Y-164401607D01*
X121472414Y-164428182D01*
X121563146Y-164465764D01*
X121702544Y-164558907D01*
X121821093Y-164677456D01*
X121914236Y-164816854D01*
X121978393Y-164971744D01*
X122011100Y-165136173D01*
X122011100Y-165303827D01*
X121978393Y-165468256D01*
X121914236Y-165623146D01*
X121821093Y-165762544D01*
X121702544Y-165881093D01*
X121563146Y-165974236D01*
X121472414Y-166011818D01*
X121408257Y-166038393D01*
X121326042Y-166054746D01*
X121243827Y-166071100D01*
X121076173Y-166071100D01*
X120993958Y-166054746D01*
X120911743Y-166038393D01*
X120847586Y-166011818D01*
X120756854Y-165974236D01*
X120617456Y-165881093D01*
X120498907Y-165762544D01*
X120405764Y-165623146D01*
X120341607Y-165468256D01*
X120308900Y-165303827D01*
X120308900Y-165136173D01*
X120341607Y-164971744D01*
X120405764Y-164816854D01*
X120498907Y-164677456D01*
X120617456Y-164558907D01*
X120756854Y-164465764D01*
X120847586Y-164428182D01*
X120911743Y-164401607D01*
X120993959Y-164385253D01*
X121076173Y-164368900D01*
X121243827Y-164368900D01*
X121326041Y-164385253D01*
G37*
G36*
X123866041Y-164385253D02*
G01*
X123948257Y-164401607D01*
X124012414Y-164428182D01*
X124103146Y-164465764D01*
X124242544Y-164558907D01*
X124361093Y-164677456D01*
X124454236Y-164816854D01*
X124518393Y-164971744D01*
X124551100Y-165136173D01*
X124551100Y-165303827D01*
X124518393Y-165468256D01*
X124454236Y-165623146D01*
X124361093Y-165762544D01*
X124242544Y-165881093D01*
X124103146Y-165974236D01*
X124012414Y-166011818D01*
X123948257Y-166038393D01*
X123866042Y-166054746D01*
X123783827Y-166071100D01*
X123616173Y-166071100D01*
X123533958Y-166054746D01*
X123451743Y-166038393D01*
X123387586Y-166011818D01*
X123296854Y-165974236D01*
X123157456Y-165881093D01*
X123038907Y-165762544D01*
X122945764Y-165623146D01*
X122881607Y-165468256D01*
X122848900Y-165303827D01*
X122848900Y-165136173D01*
X122881607Y-164971744D01*
X122945764Y-164816854D01*
X123038907Y-164677456D01*
X123157456Y-164558907D01*
X123296854Y-164465764D01*
X123387586Y-164428182D01*
X123451743Y-164401607D01*
X123533959Y-164385253D01*
X123616173Y-164368900D01*
X123783827Y-164368900D01*
X123866041Y-164385253D01*
G37*
G36*
X126406041Y-164385253D02*
G01*
X126488257Y-164401607D01*
X126552414Y-164428182D01*
X126643146Y-164465764D01*
X126782544Y-164558907D01*
X126901093Y-164677456D01*
X126994236Y-164816854D01*
X127058393Y-164971744D01*
X127091100Y-165136173D01*
X127091100Y-165303827D01*
X127058393Y-165468256D01*
X126994236Y-165623146D01*
X126901093Y-165762544D01*
X126782544Y-165881093D01*
X126643146Y-165974236D01*
X126552414Y-166011818D01*
X126488257Y-166038393D01*
X126406042Y-166054746D01*
X126323827Y-166071100D01*
X126156173Y-166071100D01*
X126073958Y-166054746D01*
X125991743Y-166038393D01*
X125927586Y-166011818D01*
X125836854Y-165974236D01*
X125697456Y-165881093D01*
X125578907Y-165762544D01*
X125485764Y-165623146D01*
X125421607Y-165468256D01*
X125388900Y-165303827D01*
X125388900Y-165136173D01*
X125421607Y-164971744D01*
X125485764Y-164816854D01*
X125578907Y-164677456D01*
X125697456Y-164558907D01*
X125836854Y-164465764D01*
X125927586Y-164428182D01*
X125991743Y-164401607D01*
X126073959Y-164385253D01*
X126156173Y-164368900D01*
X126323827Y-164368900D01*
X126406041Y-164385253D01*
G37*
G36*
X128946041Y-164385253D02*
G01*
X129028257Y-164401607D01*
X129092414Y-164428182D01*
X129183146Y-164465764D01*
X129322544Y-164558907D01*
X129441093Y-164677456D01*
X129534236Y-164816854D01*
X129598393Y-164971744D01*
X129631100Y-165136173D01*
X129631100Y-165303827D01*
X129598393Y-165468256D01*
X129534236Y-165623146D01*
X129441093Y-165762544D01*
X129322544Y-165881093D01*
X129183146Y-165974236D01*
X129092414Y-166011818D01*
X129028257Y-166038393D01*
X128946042Y-166054746D01*
X128863827Y-166071100D01*
X128696173Y-166071100D01*
X128613958Y-166054746D01*
X128531743Y-166038393D01*
X128467586Y-166011818D01*
X128376854Y-165974236D01*
X128237456Y-165881093D01*
X128118907Y-165762544D01*
X128025764Y-165623146D01*
X127961607Y-165468256D01*
X127928900Y-165303827D01*
X127928900Y-165136173D01*
X127961607Y-164971744D01*
X128025764Y-164816854D01*
X128118907Y-164677456D01*
X128237456Y-164558907D01*
X128376854Y-164465764D01*
X128467586Y-164428182D01*
X128531743Y-164401607D01*
X128613959Y-164385253D01*
X128696173Y-164368900D01*
X128863827Y-164368900D01*
X128946041Y-164385253D01*
G37*
G36*
X131486041Y-164385253D02*
G01*
X131568257Y-164401607D01*
X131632414Y-164428182D01*
X131723146Y-164465764D01*
X131862544Y-164558907D01*
X131981093Y-164677456D01*
X132074236Y-164816854D01*
X132138393Y-164971744D01*
X132171100Y-165136173D01*
X132171100Y-165303827D01*
X132138393Y-165468256D01*
X132074236Y-165623146D01*
X131981093Y-165762544D01*
X131862544Y-165881093D01*
X131723146Y-165974236D01*
X131632414Y-166011818D01*
X131568257Y-166038393D01*
X131486042Y-166054746D01*
X131403827Y-166071100D01*
X131236173Y-166071100D01*
X131153958Y-166054746D01*
X131071743Y-166038393D01*
X131007586Y-166011818D01*
X130916854Y-165974236D01*
X130777456Y-165881093D01*
X130658907Y-165762544D01*
X130565764Y-165623146D01*
X130501607Y-165468256D01*
X130468900Y-165303827D01*
X130468900Y-165136173D01*
X130501607Y-164971744D01*
X130565764Y-164816854D01*
X130658907Y-164677456D01*
X130777456Y-164558907D01*
X130916854Y-164465764D01*
X131007586Y-164428182D01*
X131071743Y-164401607D01*
X131153959Y-164385253D01*
X131236173Y-164368900D01*
X131403827Y-164368900D01*
X131486041Y-164385253D01*
G37*
G36*
X134026041Y-164385253D02*
G01*
X134108257Y-164401607D01*
X134172414Y-164428182D01*
X134263146Y-164465764D01*
X134402544Y-164558907D01*
X134521093Y-164677456D01*
X134614236Y-164816854D01*
X134678393Y-164971744D01*
X134711100Y-165136173D01*
X134711100Y-165303827D01*
X134678393Y-165468256D01*
X134614236Y-165623146D01*
X134521093Y-165762544D01*
X134402544Y-165881093D01*
X134263146Y-165974236D01*
X134172414Y-166011818D01*
X134108257Y-166038393D01*
X134026042Y-166054746D01*
X133943827Y-166071100D01*
X133776173Y-166071100D01*
X133693958Y-166054746D01*
X133611743Y-166038393D01*
X133547586Y-166011818D01*
X133456854Y-165974236D01*
X133317456Y-165881093D01*
X133198907Y-165762544D01*
X133105764Y-165623146D01*
X133041607Y-165468256D01*
X133008900Y-165303827D01*
X133008900Y-165136173D01*
X133041607Y-164971744D01*
X133105764Y-164816854D01*
X133198907Y-164677456D01*
X133317456Y-164558907D01*
X133456854Y-164465764D01*
X133547586Y-164428182D01*
X133611743Y-164401607D01*
X133693959Y-164385253D01*
X133776173Y-164368900D01*
X133943827Y-164368900D01*
X134026041Y-164385253D01*
G37*
G36*
X136566041Y-164385253D02*
G01*
X136648257Y-164401607D01*
X136712414Y-164428182D01*
X136803146Y-164465764D01*
X136942544Y-164558907D01*
X137061093Y-164677456D01*
X137154236Y-164816854D01*
X137218393Y-164971744D01*
X137251100Y-165136173D01*
X137251100Y-165303827D01*
X137218393Y-165468256D01*
X137154236Y-165623146D01*
X137061093Y-165762544D01*
X136942544Y-165881093D01*
X136803146Y-165974236D01*
X136712414Y-166011818D01*
X136648257Y-166038393D01*
X136566042Y-166054746D01*
X136483827Y-166071100D01*
X136316173Y-166071100D01*
X136233958Y-166054746D01*
X136151743Y-166038393D01*
X136087586Y-166011818D01*
X135996854Y-165974236D01*
X135857456Y-165881093D01*
X135738907Y-165762544D01*
X135645764Y-165623146D01*
X135581607Y-165468256D01*
X135548900Y-165303827D01*
X135548900Y-165136173D01*
X135581607Y-164971744D01*
X135645764Y-164816854D01*
X135738907Y-164677456D01*
X135857456Y-164558907D01*
X135996854Y-164465764D01*
X136087586Y-164428182D01*
X136151743Y-164401607D01*
X136233959Y-164385253D01*
X136316173Y-164368900D01*
X136483827Y-164368900D01*
X136566041Y-164385253D01*
G37*
G36*
X141646041Y-164385253D02*
G01*
X141728257Y-164401607D01*
X141792414Y-164428182D01*
X141883146Y-164465764D01*
X142022544Y-164558907D01*
X142141093Y-164677456D01*
X142234236Y-164816854D01*
X142298393Y-164971744D01*
X142331100Y-165136173D01*
X142331100Y-165303827D01*
X142298393Y-165468256D01*
X142234236Y-165623146D01*
X142141093Y-165762544D01*
X142022544Y-165881093D01*
X141883146Y-165974236D01*
X141792414Y-166011818D01*
X141728257Y-166038393D01*
X141646042Y-166054746D01*
X141563827Y-166071100D01*
X141396173Y-166071100D01*
X141313958Y-166054746D01*
X141231743Y-166038393D01*
X141167586Y-166011818D01*
X141076854Y-165974236D01*
X140937456Y-165881093D01*
X140818907Y-165762544D01*
X140725764Y-165623146D01*
X140661607Y-165468256D01*
X140628900Y-165303827D01*
X140628900Y-165136173D01*
X140661607Y-164971744D01*
X140725764Y-164816854D01*
X140818907Y-164677456D01*
X140937456Y-164558907D01*
X141076854Y-164465764D01*
X141167586Y-164428182D01*
X141231743Y-164401607D01*
X141313959Y-164385253D01*
X141396173Y-164368900D01*
X141563827Y-164368900D01*
X141646041Y-164385253D01*
G37*
G36*
X144186041Y-164385253D02*
G01*
X144268257Y-164401607D01*
X144332414Y-164428182D01*
X144423146Y-164465764D01*
X144562544Y-164558907D01*
X144681093Y-164677456D01*
X144774236Y-164816854D01*
X144838393Y-164971744D01*
X144871100Y-165136173D01*
X144871100Y-165303827D01*
X144838393Y-165468256D01*
X144774236Y-165623146D01*
X144681093Y-165762544D01*
X144562544Y-165881093D01*
X144423146Y-165974236D01*
X144332414Y-166011818D01*
X144268257Y-166038393D01*
X144186042Y-166054746D01*
X144103827Y-166071100D01*
X143936173Y-166071100D01*
X143853958Y-166054746D01*
X143771743Y-166038393D01*
X143707586Y-166011818D01*
X143616854Y-165974236D01*
X143477456Y-165881093D01*
X143358907Y-165762544D01*
X143265764Y-165623146D01*
X143201607Y-165468256D01*
X143168900Y-165303827D01*
X143168900Y-165136173D01*
X143201607Y-164971744D01*
X143265764Y-164816854D01*
X143358907Y-164677456D01*
X143477456Y-164558907D01*
X143616854Y-164465764D01*
X143707586Y-164428182D01*
X143771743Y-164401607D01*
X143853959Y-164385253D01*
X143936173Y-164368900D01*
X144103827Y-164368900D01*
X144186041Y-164385253D01*
G37*
G36*
X156886041Y-164385253D02*
G01*
X156968257Y-164401607D01*
X157032414Y-164428182D01*
X157123146Y-164465764D01*
X157262544Y-164558907D01*
X157381093Y-164677456D01*
X157474236Y-164816854D01*
X157538393Y-164971744D01*
X157571100Y-165136173D01*
X157571100Y-165303827D01*
X157538393Y-165468256D01*
X157474236Y-165623146D01*
X157381093Y-165762544D01*
X157262544Y-165881093D01*
X157123146Y-165974236D01*
X157032414Y-166011818D01*
X156968257Y-166038393D01*
X156886042Y-166054746D01*
X156803827Y-166071100D01*
X156636173Y-166071100D01*
X156553958Y-166054746D01*
X156471743Y-166038393D01*
X156407586Y-166011818D01*
X156316854Y-165974236D01*
X156177456Y-165881093D01*
X156058907Y-165762544D01*
X155965764Y-165623146D01*
X155901607Y-165468256D01*
X155868900Y-165303827D01*
X155868900Y-165136173D01*
X155901607Y-164971744D01*
X155965764Y-164816854D01*
X156058907Y-164677456D01*
X156177456Y-164558907D01*
X156316854Y-164465764D01*
X156407586Y-164428182D01*
X156471743Y-164401607D01*
X156553959Y-164385253D01*
X156636173Y-164368900D01*
X156803827Y-164368900D01*
X156886041Y-164385253D01*
G37*
G36*
X161966041Y-164385253D02*
G01*
X162048257Y-164401607D01*
X162112414Y-164428182D01*
X162203146Y-164465764D01*
X162342544Y-164558907D01*
X162461093Y-164677456D01*
X162554236Y-164816854D01*
X162618393Y-164971744D01*
X162651100Y-165136173D01*
X162651100Y-165303827D01*
X162618393Y-165468256D01*
X162554236Y-165623146D01*
X162461093Y-165762544D01*
X162342544Y-165881093D01*
X162203146Y-165974236D01*
X162112414Y-166011818D01*
X162048257Y-166038393D01*
X161966042Y-166054746D01*
X161883827Y-166071100D01*
X161716173Y-166071100D01*
X161633958Y-166054746D01*
X161551743Y-166038393D01*
X161487586Y-166011818D01*
X161396854Y-165974236D01*
X161257456Y-165881093D01*
X161138907Y-165762544D01*
X161045764Y-165623146D01*
X160981607Y-165468256D01*
X160948900Y-165303827D01*
X160948900Y-165136173D01*
X160981607Y-164971744D01*
X161045764Y-164816854D01*
X161138907Y-164677456D01*
X161257456Y-164558907D01*
X161396854Y-164465764D01*
X161487586Y-164428182D01*
X161551743Y-164401607D01*
X161633959Y-164385253D01*
X161716173Y-164368900D01*
X161883827Y-164368900D01*
X161966041Y-164385253D01*
G37*
G36*
X149266041Y-164385253D02*
G01*
X149348257Y-164401607D01*
X149412414Y-164428182D01*
X149503146Y-164465764D01*
X149642544Y-164558907D01*
X149761093Y-164677456D01*
X149854236Y-164816854D01*
X149918393Y-164971744D01*
X149951100Y-165136173D01*
X149951100Y-165303827D01*
X149918393Y-165468256D01*
X149854236Y-165623146D01*
X149761093Y-165762544D01*
X149642544Y-165881093D01*
X149503146Y-165974236D01*
X149412414Y-166011818D01*
X149348257Y-166038393D01*
X149266042Y-166054746D01*
X149183827Y-166071100D01*
X149016173Y-166071100D01*
X148933958Y-166054746D01*
X148851743Y-166038393D01*
X148787586Y-166011818D01*
X148696854Y-165974236D01*
X148557456Y-165881093D01*
X148438907Y-165762544D01*
X148345764Y-165623146D01*
X148281607Y-165468256D01*
X148248900Y-165303827D01*
X148248900Y-165136173D01*
X148281607Y-164971744D01*
X148345764Y-164816854D01*
X148438907Y-164677456D01*
X148557456Y-164558907D01*
X148696854Y-164465764D01*
X148787586Y-164428182D01*
X148851743Y-164401607D01*
X148933959Y-164385253D01*
X149016173Y-164368900D01*
X149183827Y-164368900D01*
X149266041Y-164385253D01*
G37*
G36*
X159426041Y-164385253D02*
G01*
X159508257Y-164401607D01*
X159572414Y-164428182D01*
X159663146Y-164465764D01*
X159802544Y-164558907D01*
X159921093Y-164677456D01*
X160014236Y-164816854D01*
X160078393Y-164971744D01*
X160111100Y-165136173D01*
X160111100Y-165303827D01*
X160078393Y-165468256D01*
X160014236Y-165623146D01*
X159921093Y-165762544D01*
X159802544Y-165881093D01*
X159663146Y-165974236D01*
X159572414Y-166011818D01*
X159508257Y-166038393D01*
X159426042Y-166054746D01*
X159343827Y-166071100D01*
X159176173Y-166071100D01*
X159093958Y-166054746D01*
X159011743Y-166038393D01*
X158947586Y-166011818D01*
X158856854Y-165974236D01*
X158717456Y-165881093D01*
X158598907Y-165762544D01*
X158505764Y-165623146D01*
X158441607Y-165468256D01*
X158408900Y-165303827D01*
X158408900Y-165136173D01*
X158441607Y-164971744D01*
X158505764Y-164816854D01*
X158598907Y-164677456D01*
X158717456Y-164558907D01*
X158856854Y-164465764D01*
X158947586Y-164428182D01*
X159011743Y-164401607D01*
X159093959Y-164385253D01*
X159176173Y-164368900D01*
X159343827Y-164368900D01*
X159426041Y-164385253D01*
G37*
G36*
X151806041Y-164385253D02*
G01*
X151888257Y-164401607D01*
X151952414Y-164428182D01*
X152043146Y-164465764D01*
X152182544Y-164558907D01*
X152301093Y-164677456D01*
X152394236Y-164816854D01*
X152458393Y-164971744D01*
X152491100Y-165136173D01*
X152491100Y-165303827D01*
X152458393Y-165468256D01*
X152394236Y-165623146D01*
X152301093Y-165762544D01*
X152182544Y-165881093D01*
X152043146Y-165974236D01*
X151952414Y-166011818D01*
X151888257Y-166038393D01*
X151806042Y-166054746D01*
X151723827Y-166071100D01*
X151556173Y-166071100D01*
X151473958Y-166054746D01*
X151391743Y-166038393D01*
X151327586Y-166011818D01*
X151236854Y-165974236D01*
X151097456Y-165881093D01*
X150978907Y-165762544D01*
X150885764Y-165623146D01*
X150821607Y-165468256D01*
X150788900Y-165303827D01*
X150788900Y-165136173D01*
X150821607Y-164971744D01*
X150885764Y-164816854D01*
X150978907Y-164677456D01*
X151097456Y-164558907D01*
X151236854Y-164465764D01*
X151327586Y-164428182D01*
X151391743Y-164401607D01*
X151473959Y-164385253D01*
X151556173Y-164368900D01*
X151723827Y-164368900D01*
X151806041Y-164385253D01*
G37*
G36*
X154346041Y-164385253D02*
G01*
X154428257Y-164401607D01*
X154492414Y-164428182D01*
X154583146Y-164465764D01*
X154722544Y-164558907D01*
X154841093Y-164677456D01*
X154934236Y-164816854D01*
X154998393Y-164971744D01*
X155031100Y-165136173D01*
X155031100Y-165303827D01*
X154998393Y-165468256D01*
X154934236Y-165623146D01*
X154841093Y-165762544D01*
X154722544Y-165881093D01*
X154583146Y-165974236D01*
X154492414Y-166011818D01*
X154428257Y-166038393D01*
X154346042Y-166054746D01*
X154263827Y-166071100D01*
X154096173Y-166071100D01*
X154013958Y-166054746D01*
X153931743Y-166038393D01*
X153867586Y-166011818D01*
X153776854Y-165974236D01*
X153637456Y-165881093D01*
X153518907Y-165762544D01*
X153425764Y-165623146D01*
X153361607Y-165468256D01*
X153328900Y-165303827D01*
X153328900Y-165136173D01*
X153361607Y-164971744D01*
X153425764Y-164816854D01*
X153518907Y-164677456D01*
X153637456Y-164558907D01*
X153776854Y-164465764D01*
X153867586Y-164428182D01*
X153931743Y-164401607D01*
X154013959Y-164385253D01*
X154096173Y-164368900D01*
X154263827Y-164368900D01*
X154346041Y-164385253D01*
G37*
G36*
X164506041Y-164385253D02*
G01*
X164588257Y-164401607D01*
X164652414Y-164428182D01*
X164743146Y-164465764D01*
X164882544Y-164558907D01*
X165001093Y-164677456D01*
X165094236Y-164816854D01*
X165158393Y-164971744D01*
X165191100Y-165136173D01*
X165191100Y-165303827D01*
X165158393Y-165468256D01*
X165094236Y-165623146D01*
X165001093Y-165762544D01*
X164882544Y-165881093D01*
X164743146Y-165974236D01*
X164652414Y-166011818D01*
X164588257Y-166038393D01*
X164506042Y-166054746D01*
X164423827Y-166071100D01*
X164256173Y-166071100D01*
X164173958Y-166054746D01*
X164091743Y-166038393D01*
X164027586Y-166011818D01*
X163936854Y-165974236D01*
X163797456Y-165881093D01*
X163678907Y-165762544D01*
X163585764Y-165623146D01*
X163521607Y-165468256D01*
X163488900Y-165303827D01*
X163488900Y-165136173D01*
X163521607Y-164971744D01*
X163585764Y-164816854D01*
X163678907Y-164677456D01*
X163797456Y-164558907D01*
X163936854Y-164465764D01*
X164027586Y-164428182D01*
X164091743Y-164401607D01*
X164173959Y-164385253D01*
X164256173Y-164368900D01*
X164423827Y-164368900D01*
X164506041Y-164385253D01*
G37*
G36*
X139106041Y-164385253D02*
G01*
X139188257Y-164401607D01*
X139252414Y-164428182D01*
X139343146Y-164465764D01*
X139482544Y-164558907D01*
X139601093Y-164677456D01*
X139694236Y-164816854D01*
X139758393Y-164971744D01*
X139791100Y-165136173D01*
X139791100Y-165303827D01*
X139758393Y-165468256D01*
X139694236Y-165623146D01*
X139601093Y-165762544D01*
X139482544Y-165881093D01*
X139343146Y-165974236D01*
X139252414Y-166011818D01*
X139188257Y-166038393D01*
X139106042Y-166054746D01*
X139023827Y-166071100D01*
X138856173Y-166071100D01*
X138773958Y-166054746D01*
X138691743Y-166038393D01*
X138627586Y-166011818D01*
X138536854Y-165974236D01*
X138397456Y-165881093D01*
X138278907Y-165762544D01*
X138185764Y-165623146D01*
X138121607Y-165468256D01*
X138088900Y-165303827D01*
X138088900Y-165136173D01*
X138121607Y-164971744D01*
X138185764Y-164816854D01*
X138278907Y-164677456D01*
X138397456Y-164558907D01*
X138536854Y-164465764D01*
X138627586Y-164428182D01*
X138691743Y-164401607D01*
X138773959Y-164385253D01*
X138856173Y-164368900D01*
X139023827Y-164368900D01*
X139106041Y-164385253D01*
G37*
G36*
X173243512Y-129553927D02*
G01*
X173392812Y-129583624D01*
X173556784Y-129651544D01*
X173704354Y-129750147D01*
X173829853Y-129875646D01*
X173928456Y-130023216D01*
X173996376Y-130187188D01*
X174031000Y-130361259D01*
X174031000Y-130538741D01*
X173996376Y-130712812D01*
X173928456Y-130876784D01*
X173829853Y-131024354D01*
X173704354Y-131149853D01*
X173556784Y-131248456D01*
X173392812Y-131316376D01*
X173243512Y-131346073D01*
X173218742Y-131351000D01*
X173041258Y-131351000D01*
X173016488Y-131346073D01*
X172867188Y-131316376D01*
X172703216Y-131248456D01*
X172555646Y-131149853D01*
X172430147Y-131024354D01*
X172331544Y-130876784D01*
X172263624Y-130712812D01*
X172229000Y-130538741D01*
X172229000Y-130361259D01*
X172263624Y-130187188D01*
X172331544Y-130023216D01*
X172430147Y-129875646D01*
X172555646Y-129750147D01*
X172703216Y-129651544D01*
X172867188Y-129583624D01*
X173016488Y-129553927D01*
X173041258Y-129549000D01*
X173218742Y-129549000D01*
X173243512Y-129553927D01*
G37*
G36*
X176571000Y-131351000D02*
G01*
X174769000Y-131351000D01*
X174769000Y-129549000D01*
X176571000Y-129549000D01*
X176571000Y-131351000D01*
G37*
G36*
X170703512Y-129553927D02*
G01*
X170852812Y-129583624D01*
X171016784Y-129651544D01*
X171164354Y-129750147D01*
X171289853Y-129875646D01*
X171388456Y-130023216D01*
X171456376Y-130187188D01*
X171491000Y-130361259D01*
X171491000Y-130538741D01*
X171456376Y-130712812D01*
X171388456Y-130876784D01*
X171289853Y-131024354D01*
X171164354Y-131149853D01*
X171016784Y-131248456D01*
X170852812Y-131316376D01*
X170703512Y-131346073D01*
X170678742Y-131351000D01*
X170501258Y-131351000D01*
X170476488Y-131346073D01*
X170327188Y-131316376D01*
X170163216Y-131248456D01*
X170015646Y-131149853D01*
X169890147Y-131024354D01*
X169791544Y-130876784D01*
X169723624Y-130712812D01*
X169689000Y-130538741D01*
X169689000Y-130361259D01*
X169723624Y-130187188D01*
X169791544Y-130023216D01*
X169890147Y-129875646D01*
X170015646Y-129750147D01*
X170163216Y-129651544D01*
X170327188Y-129583624D01*
X170476488Y-129553927D01*
X170501258Y-129549000D01*
X170678742Y-129549000D01*
X170703512Y-129553927D01*
G37*
G36*
X176571000Y-113251000D02*
G01*
X174769000Y-113251000D01*
X174769000Y-111449000D01*
X176571000Y-111449000D01*
X176571000Y-113251000D01*
G37*
G36*
X170703512Y-111453927D02*
G01*
X170852812Y-111483624D01*
X171016784Y-111551544D01*
X171164354Y-111650147D01*
X171289853Y-111775646D01*
X171388456Y-111923216D01*
X171456376Y-112087188D01*
X171491000Y-112261259D01*
X171491000Y-112438741D01*
X171456376Y-112612812D01*
X171388456Y-112776784D01*
X171289853Y-112924354D01*
X171164354Y-113049853D01*
X171016784Y-113148456D01*
X170852812Y-113216376D01*
X170703512Y-113246073D01*
X170678742Y-113251000D01*
X170501258Y-113251000D01*
X170476488Y-113246073D01*
X170327188Y-113216376D01*
X170163216Y-113148456D01*
X170015646Y-113049853D01*
X169890147Y-112924354D01*
X169791544Y-112776784D01*
X169723624Y-112612812D01*
X169689000Y-112438741D01*
X169689000Y-112261259D01*
X169723624Y-112087188D01*
X169791544Y-111923216D01*
X169890147Y-111775646D01*
X170015646Y-111650147D01*
X170163216Y-111551544D01*
X170327188Y-111483624D01*
X170476488Y-111453927D01*
X170501258Y-111449000D01*
X170678742Y-111449000D01*
X170703512Y-111453927D01*
G37*
G36*
X173243512Y-111453927D02*
G01*
X173392812Y-111483624D01*
X173556784Y-111551544D01*
X173704354Y-111650147D01*
X173829853Y-111775646D01*
X173928456Y-111923216D01*
X173996376Y-112087188D01*
X174031000Y-112261259D01*
X174031000Y-112438741D01*
X173996376Y-112612812D01*
X173928456Y-112776784D01*
X173829853Y-112924354D01*
X173704354Y-113049853D01*
X173556784Y-113148456D01*
X173392812Y-113216376D01*
X173243512Y-113246073D01*
X173218742Y-113251000D01*
X173041258Y-113251000D01*
X173016488Y-113246073D01*
X172867188Y-113216376D01*
X172703216Y-113148456D01*
X172555646Y-113049853D01*
X172430147Y-112924354D01*
X172331544Y-112776784D01*
X172263624Y-112612812D01*
X172229000Y-112438741D01*
X172229000Y-112261259D01*
X172263624Y-112087188D01*
X172331544Y-111923216D01*
X172430147Y-111775646D01*
X172555646Y-111650147D01*
X172703216Y-111551544D01*
X172867188Y-111483624D01*
X173016488Y-111453927D01*
X173041258Y-111449000D01*
X173218742Y-111449000D01*
X173243512Y-111453927D01*
G37*
G36*
X175243512Y-104993927D02*
G01*
X175392812Y-105023624D01*
X175556784Y-105091544D01*
X175704354Y-105190147D01*
X175829853Y-105315646D01*
X175928456Y-105463216D01*
X175996376Y-105627188D01*
X176031000Y-105801259D01*
X176031000Y-105978741D01*
X175996376Y-106152812D01*
X175928456Y-106316784D01*
X175829853Y-106464354D01*
X175704354Y-106589853D01*
X175556784Y-106688456D01*
X175392812Y-106756376D01*
X175243512Y-106786073D01*
X175218742Y-106791000D01*
X175041258Y-106791000D01*
X175016488Y-106786073D01*
X174867188Y-106756376D01*
X174703216Y-106688456D01*
X174555646Y-106589853D01*
X174430147Y-106464354D01*
X174331544Y-106316784D01*
X174263624Y-106152812D01*
X174229000Y-105978741D01*
X174229000Y-105801259D01*
X174263624Y-105627188D01*
X174331544Y-105463216D01*
X174430147Y-105315646D01*
X174555646Y-105190147D01*
X174703216Y-105091544D01*
X174867188Y-105023624D01*
X175016488Y-104993927D01*
X175041258Y-104989000D01*
X175218742Y-104989000D01*
X175243512Y-104993927D01*
G37*
G36*
X172703512Y-104993927D02*
G01*
X172852812Y-105023624D01*
X173016784Y-105091544D01*
X173164354Y-105190147D01*
X173289853Y-105315646D01*
X173388456Y-105463216D01*
X173456376Y-105627188D01*
X173491000Y-105801259D01*
X173491000Y-105978741D01*
X173456376Y-106152812D01*
X173388456Y-106316784D01*
X173289853Y-106464354D01*
X173164354Y-106589853D01*
X173016784Y-106688456D01*
X172852812Y-106756376D01*
X172703512Y-106786073D01*
X172678742Y-106791000D01*
X172501258Y-106791000D01*
X172476488Y-106786073D01*
X172327188Y-106756376D01*
X172163216Y-106688456D01*
X172015646Y-106589853D01*
X171890147Y-106464354D01*
X171791544Y-106316784D01*
X171723624Y-106152812D01*
X171689000Y-105978741D01*
X171689000Y-105801259D01*
X171723624Y-105627188D01*
X171791544Y-105463216D01*
X171890147Y-105315646D01*
X172015646Y-105190147D01*
X172163216Y-105091544D01*
X172327188Y-105023624D01*
X172476488Y-104993927D01*
X172501258Y-104989000D01*
X172678742Y-104989000D01*
X172703512Y-104993927D01*
G37*
G36*
X170163512Y-104993927D02*
G01*
X170312812Y-105023624D01*
X170476784Y-105091544D01*
X170624354Y-105190147D01*
X170749853Y-105315646D01*
X170848456Y-105463216D01*
X170916376Y-105627188D01*
X170951000Y-105801259D01*
X170951000Y-105978741D01*
X170916376Y-106152812D01*
X170848456Y-106316784D01*
X170749853Y-106464354D01*
X170624354Y-106589853D01*
X170476784Y-106688456D01*
X170312812Y-106756376D01*
X170163512Y-106786073D01*
X170138742Y-106791000D01*
X169961258Y-106791000D01*
X169936488Y-106786073D01*
X169787188Y-106756376D01*
X169623216Y-106688456D01*
X169475646Y-106589853D01*
X169350147Y-106464354D01*
X169251544Y-106316784D01*
X169183624Y-106152812D01*
X169149000Y-105978741D01*
X169149000Y-105801259D01*
X169183624Y-105627188D01*
X169251544Y-105463216D01*
X169350147Y-105315646D01*
X169475646Y-105190147D01*
X169623216Y-105091544D01*
X169787188Y-105023624D01*
X169936488Y-104993927D01*
X169961258Y-104989000D01*
X170138742Y-104989000D01*
X170163512Y-104993927D01*
G37*
G36*
X167623512Y-104993927D02*
G01*
X167772812Y-105023624D01*
X167936784Y-105091544D01*
X168084354Y-105190147D01*
X168209853Y-105315646D01*
X168308456Y-105463216D01*
X168376376Y-105627188D01*
X168411000Y-105801259D01*
X168411000Y-105978741D01*
X168376376Y-106152812D01*
X168308456Y-106316784D01*
X168209853Y-106464354D01*
X168084354Y-106589853D01*
X167936784Y-106688456D01*
X167772812Y-106756376D01*
X167623512Y-106786073D01*
X167598742Y-106791000D01*
X167421258Y-106791000D01*
X167396488Y-106786073D01*
X167247188Y-106756376D01*
X167083216Y-106688456D01*
X166935646Y-106589853D01*
X166810147Y-106464354D01*
X166711544Y-106316784D01*
X166643624Y-106152812D01*
X166609000Y-105978741D01*
X166609000Y-105801259D01*
X166643624Y-105627188D01*
X166711544Y-105463216D01*
X166810147Y-105315646D01*
X166935646Y-105190147D01*
X167083216Y-105091544D01*
X167247188Y-105023624D01*
X167396488Y-104993927D01*
X167421258Y-104989000D01*
X167598742Y-104989000D01*
X167623512Y-104993927D01*
G37*
G36*
X165083512Y-104993927D02*
G01*
X165232812Y-105023624D01*
X165396784Y-105091544D01*
X165544354Y-105190147D01*
X165669853Y-105315646D01*
X165768456Y-105463216D01*
X165836376Y-105627188D01*
X165871000Y-105801259D01*
X165871000Y-105978741D01*
X165836376Y-106152812D01*
X165768456Y-106316784D01*
X165669853Y-106464354D01*
X165544354Y-106589853D01*
X165396784Y-106688456D01*
X165232812Y-106756376D01*
X165083512Y-106786073D01*
X165058742Y-106791000D01*
X164881258Y-106791000D01*
X164856488Y-106786073D01*
X164707188Y-106756376D01*
X164543216Y-106688456D01*
X164395646Y-106589853D01*
X164270147Y-106464354D01*
X164171544Y-106316784D01*
X164103624Y-106152812D01*
X164069000Y-105978741D01*
X164069000Y-105801259D01*
X164103624Y-105627188D01*
X164171544Y-105463216D01*
X164270147Y-105315646D01*
X164395646Y-105190147D01*
X164543216Y-105091544D01*
X164707188Y-105023624D01*
X164856488Y-104993927D01*
X164881258Y-104989000D01*
X165058742Y-104989000D01*
X165083512Y-104993927D01*
G37*
G36*
X162543512Y-104993927D02*
G01*
X162692812Y-105023624D01*
X162856784Y-105091544D01*
X163004354Y-105190147D01*
X163129853Y-105315646D01*
X163228456Y-105463216D01*
X163296376Y-105627188D01*
X163331000Y-105801259D01*
X163331000Y-105978741D01*
X163296376Y-106152812D01*
X163228456Y-106316784D01*
X163129853Y-106464354D01*
X163004354Y-106589853D01*
X162856784Y-106688456D01*
X162692812Y-106756376D01*
X162543512Y-106786073D01*
X162518742Y-106791000D01*
X162341258Y-106791000D01*
X162316488Y-106786073D01*
X162167188Y-106756376D01*
X162003216Y-106688456D01*
X161855646Y-106589853D01*
X161730147Y-106464354D01*
X161631544Y-106316784D01*
X161563624Y-106152812D01*
X161529000Y-105978741D01*
X161529000Y-105801259D01*
X161563624Y-105627188D01*
X161631544Y-105463216D01*
X161730147Y-105315646D01*
X161855646Y-105190147D01*
X162003216Y-105091544D01*
X162167188Y-105023624D01*
X162316488Y-104993927D01*
X162341258Y-104989000D01*
X162518742Y-104989000D01*
X162543512Y-104993927D01*
G37*
G36*
X160003512Y-104993927D02*
G01*
X160152812Y-105023624D01*
X160316784Y-105091544D01*
X160464354Y-105190147D01*
X160589853Y-105315646D01*
X160688456Y-105463216D01*
X160756376Y-105627188D01*
X160791000Y-105801259D01*
X160791000Y-105978741D01*
X160756376Y-106152812D01*
X160688456Y-106316784D01*
X160589853Y-106464354D01*
X160464354Y-106589853D01*
X160316784Y-106688456D01*
X160152812Y-106756376D01*
X160003512Y-106786073D01*
X159978742Y-106791000D01*
X159801258Y-106791000D01*
X159776488Y-106786073D01*
X159627188Y-106756376D01*
X159463216Y-106688456D01*
X159315646Y-106589853D01*
X159190147Y-106464354D01*
X159091544Y-106316784D01*
X159023624Y-106152812D01*
X158989000Y-105978741D01*
X158989000Y-105801259D01*
X159023624Y-105627188D01*
X159091544Y-105463216D01*
X159190147Y-105315646D01*
X159315646Y-105190147D01*
X159463216Y-105091544D01*
X159627188Y-105023624D01*
X159776488Y-104993927D01*
X159801258Y-104989000D01*
X159978742Y-104989000D01*
X160003512Y-104993927D01*
G37*
G36*
X157463512Y-104993927D02*
G01*
X157612812Y-105023624D01*
X157776784Y-105091544D01*
X157924354Y-105190147D01*
X158049853Y-105315646D01*
X158148456Y-105463216D01*
X158216376Y-105627188D01*
X158251000Y-105801259D01*
X158251000Y-105978741D01*
X158216376Y-106152812D01*
X158148456Y-106316784D01*
X158049853Y-106464354D01*
X157924354Y-106589853D01*
X157776784Y-106688456D01*
X157612812Y-106756376D01*
X157463512Y-106786073D01*
X157438742Y-106791000D01*
X157261258Y-106791000D01*
X157236488Y-106786073D01*
X157087188Y-106756376D01*
X156923216Y-106688456D01*
X156775646Y-106589853D01*
X156650147Y-106464354D01*
X156551544Y-106316784D01*
X156483624Y-106152812D01*
X156449000Y-105978741D01*
X156449000Y-105801259D01*
X156483624Y-105627188D01*
X156551544Y-105463216D01*
X156650147Y-105315646D01*
X156775646Y-105190147D01*
X156923216Y-105091544D01*
X157087188Y-105023624D01*
X157236488Y-104993927D01*
X157261258Y-104989000D01*
X157438742Y-104989000D01*
X157463512Y-104993927D01*
G37*
G36*
X154923512Y-104993927D02*
G01*
X155072812Y-105023624D01*
X155236784Y-105091544D01*
X155384354Y-105190147D01*
X155509853Y-105315646D01*
X155608456Y-105463216D01*
X155676376Y-105627188D01*
X155711000Y-105801259D01*
X155711000Y-105978741D01*
X155676376Y-106152812D01*
X155608456Y-106316784D01*
X155509853Y-106464354D01*
X155384354Y-106589853D01*
X155236784Y-106688456D01*
X155072812Y-106756376D01*
X154923512Y-106786073D01*
X154898742Y-106791000D01*
X154721258Y-106791000D01*
X154696488Y-106786073D01*
X154547188Y-106756376D01*
X154383216Y-106688456D01*
X154235646Y-106589853D01*
X154110147Y-106464354D01*
X154011544Y-106316784D01*
X153943624Y-106152812D01*
X153909000Y-105978741D01*
X153909000Y-105801259D01*
X153943624Y-105627188D01*
X154011544Y-105463216D01*
X154110147Y-105315646D01*
X154235646Y-105190147D01*
X154383216Y-105091544D01*
X154547188Y-105023624D01*
X154696488Y-104993927D01*
X154721258Y-104989000D01*
X154898742Y-104989000D01*
X154923512Y-104993927D01*
G37*
G36*
X152383512Y-104993927D02*
G01*
X152532812Y-105023624D01*
X152696784Y-105091544D01*
X152844354Y-105190147D01*
X152969853Y-105315646D01*
X153068456Y-105463216D01*
X153136376Y-105627188D01*
X153171000Y-105801259D01*
X153171000Y-105978741D01*
X153136376Y-106152812D01*
X153068456Y-106316784D01*
X152969853Y-106464354D01*
X152844354Y-106589853D01*
X152696784Y-106688456D01*
X152532812Y-106756376D01*
X152383512Y-106786073D01*
X152358742Y-106791000D01*
X152181258Y-106791000D01*
X152156488Y-106786073D01*
X152007188Y-106756376D01*
X151843216Y-106688456D01*
X151695646Y-106589853D01*
X151570147Y-106464354D01*
X151471544Y-106316784D01*
X151403624Y-106152812D01*
X151369000Y-105978741D01*
X151369000Y-105801259D01*
X151403624Y-105627188D01*
X151471544Y-105463216D01*
X151570147Y-105315646D01*
X151695646Y-105190147D01*
X151843216Y-105091544D01*
X152007188Y-105023624D01*
X152156488Y-104993927D01*
X152181258Y-104989000D01*
X152358742Y-104989000D01*
X152383512Y-104993927D01*
G37*
G36*
X147303512Y-104993927D02*
G01*
X147452812Y-105023624D01*
X147616784Y-105091544D01*
X147764354Y-105190147D01*
X147889853Y-105315646D01*
X147988456Y-105463216D01*
X148056376Y-105627188D01*
X148091000Y-105801259D01*
X148091000Y-105978741D01*
X148056376Y-106152812D01*
X147988456Y-106316784D01*
X147889853Y-106464354D01*
X147764354Y-106589853D01*
X147616784Y-106688456D01*
X147452812Y-106756376D01*
X147303512Y-106786073D01*
X147278742Y-106791000D01*
X147101258Y-106791000D01*
X147076488Y-106786073D01*
X146927188Y-106756376D01*
X146763216Y-106688456D01*
X146615646Y-106589853D01*
X146490147Y-106464354D01*
X146391544Y-106316784D01*
X146323624Y-106152812D01*
X146289000Y-105978741D01*
X146289000Y-105801259D01*
X146323624Y-105627188D01*
X146391544Y-105463216D01*
X146490147Y-105315646D01*
X146615646Y-105190147D01*
X146763216Y-105091544D01*
X146927188Y-105023624D01*
X147076488Y-104993927D01*
X147101258Y-104989000D01*
X147278742Y-104989000D01*
X147303512Y-104993927D01*
G37*
G36*
X144763512Y-104993927D02*
G01*
X144912812Y-105023624D01*
X145076784Y-105091544D01*
X145224354Y-105190147D01*
X145349853Y-105315646D01*
X145448456Y-105463216D01*
X145516376Y-105627188D01*
X145551000Y-105801259D01*
X145551000Y-105978741D01*
X145516376Y-106152812D01*
X145448456Y-106316784D01*
X145349853Y-106464354D01*
X145224354Y-106589853D01*
X145076784Y-106688456D01*
X144912812Y-106756376D01*
X144763512Y-106786073D01*
X144738742Y-106791000D01*
X144561258Y-106791000D01*
X144536488Y-106786073D01*
X144387188Y-106756376D01*
X144223216Y-106688456D01*
X144075646Y-106589853D01*
X143950147Y-106464354D01*
X143851544Y-106316784D01*
X143783624Y-106152812D01*
X143749000Y-105978741D01*
X143749000Y-105801259D01*
X143783624Y-105627188D01*
X143851544Y-105463216D01*
X143950147Y-105315646D01*
X144075646Y-105190147D01*
X144223216Y-105091544D01*
X144387188Y-105023624D01*
X144536488Y-104993927D01*
X144561258Y-104989000D01*
X144738742Y-104989000D01*
X144763512Y-104993927D01*
G37*
G36*
X142223512Y-104993927D02*
G01*
X142372812Y-105023624D01*
X142536784Y-105091544D01*
X142684354Y-105190147D01*
X142809853Y-105315646D01*
X142908456Y-105463216D01*
X142976376Y-105627188D01*
X143011000Y-105801259D01*
X143011000Y-105978741D01*
X142976376Y-106152812D01*
X142908456Y-106316784D01*
X142809853Y-106464354D01*
X142684354Y-106589853D01*
X142536784Y-106688456D01*
X142372812Y-106756376D01*
X142223512Y-106786073D01*
X142198742Y-106791000D01*
X142021258Y-106791000D01*
X141996488Y-106786073D01*
X141847188Y-106756376D01*
X141683216Y-106688456D01*
X141535646Y-106589853D01*
X141410147Y-106464354D01*
X141311544Y-106316784D01*
X141243624Y-106152812D01*
X141209000Y-105978741D01*
X141209000Y-105801259D01*
X141243624Y-105627188D01*
X141311544Y-105463216D01*
X141410147Y-105315646D01*
X141535646Y-105190147D01*
X141683216Y-105091544D01*
X141847188Y-105023624D01*
X141996488Y-104993927D01*
X142021258Y-104989000D01*
X142198742Y-104989000D01*
X142223512Y-104993927D01*
G37*
G36*
X139683512Y-104993927D02*
G01*
X139832812Y-105023624D01*
X139996784Y-105091544D01*
X140144354Y-105190147D01*
X140269853Y-105315646D01*
X140368456Y-105463216D01*
X140436376Y-105627188D01*
X140471000Y-105801259D01*
X140471000Y-105978741D01*
X140436376Y-106152812D01*
X140368456Y-106316784D01*
X140269853Y-106464354D01*
X140144354Y-106589853D01*
X139996784Y-106688456D01*
X139832812Y-106756376D01*
X139683512Y-106786073D01*
X139658742Y-106791000D01*
X139481258Y-106791000D01*
X139456488Y-106786073D01*
X139307188Y-106756376D01*
X139143216Y-106688456D01*
X138995646Y-106589853D01*
X138870147Y-106464354D01*
X138771544Y-106316784D01*
X138703624Y-106152812D01*
X138669000Y-105978741D01*
X138669000Y-105801259D01*
X138703624Y-105627188D01*
X138771544Y-105463216D01*
X138870147Y-105315646D01*
X138995646Y-105190147D01*
X139143216Y-105091544D01*
X139307188Y-105023624D01*
X139456488Y-104993927D01*
X139481258Y-104989000D01*
X139658742Y-104989000D01*
X139683512Y-104993927D01*
G37*
G36*
X137143512Y-104993927D02*
G01*
X137292812Y-105023624D01*
X137456784Y-105091544D01*
X137604354Y-105190147D01*
X137729853Y-105315646D01*
X137828456Y-105463216D01*
X137896376Y-105627188D01*
X137931000Y-105801259D01*
X137931000Y-105978741D01*
X137896376Y-106152812D01*
X137828456Y-106316784D01*
X137729853Y-106464354D01*
X137604354Y-106589853D01*
X137456784Y-106688456D01*
X137292812Y-106756376D01*
X137143512Y-106786073D01*
X137118742Y-106791000D01*
X136941258Y-106791000D01*
X136916488Y-106786073D01*
X136767188Y-106756376D01*
X136603216Y-106688456D01*
X136455646Y-106589853D01*
X136330147Y-106464354D01*
X136231544Y-106316784D01*
X136163624Y-106152812D01*
X136129000Y-105978741D01*
X136129000Y-105801259D01*
X136163624Y-105627188D01*
X136231544Y-105463216D01*
X136330147Y-105315646D01*
X136455646Y-105190147D01*
X136603216Y-105091544D01*
X136767188Y-105023624D01*
X136916488Y-104993927D01*
X136941258Y-104989000D01*
X137118742Y-104989000D01*
X137143512Y-104993927D01*
G37*
G36*
X134603512Y-104993927D02*
G01*
X134752812Y-105023624D01*
X134916784Y-105091544D01*
X135064354Y-105190147D01*
X135189853Y-105315646D01*
X135288456Y-105463216D01*
X135356376Y-105627188D01*
X135391000Y-105801259D01*
X135391000Y-105978741D01*
X135356376Y-106152812D01*
X135288456Y-106316784D01*
X135189853Y-106464354D01*
X135064354Y-106589853D01*
X134916784Y-106688456D01*
X134752812Y-106756376D01*
X134603512Y-106786073D01*
X134578742Y-106791000D01*
X134401258Y-106791000D01*
X134376488Y-106786073D01*
X134227188Y-106756376D01*
X134063216Y-106688456D01*
X133915646Y-106589853D01*
X133790147Y-106464354D01*
X133691544Y-106316784D01*
X133623624Y-106152812D01*
X133589000Y-105978741D01*
X133589000Y-105801259D01*
X133623624Y-105627188D01*
X133691544Y-105463216D01*
X133790147Y-105315646D01*
X133915646Y-105190147D01*
X134063216Y-105091544D01*
X134227188Y-105023624D01*
X134376488Y-104993927D01*
X134401258Y-104989000D01*
X134578742Y-104989000D01*
X134603512Y-104993927D01*
G37*
G36*
X129523512Y-104993927D02*
G01*
X129672812Y-105023624D01*
X129836784Y-105091544D01*
X129984354Y-105190147D01*
X130109853Y-105315646D01*
X130208456Y-105463216D01*
X130276376Y-105627188D01*
X130311000Y-105801259D01*
X130311000Y-105978741D01*
X130276376Y-106152812D01*
X130208456Y-106316784D01*
X130109853Y-106464354D01*
X129984354Y-106589853D01*
X129836784Y-106688456D01*
X129672812Y-106756376D01*
X129523512Y-106786073D01*
X129498742Y-106791000D01*
X129321258Y-106791000D01*
X129296488Y-106786073D01*
X129147188Y-106756376D01*
X128983216Y-106688456D01*
X128835646Y-106589853D01*
X128710147Y-106464354D01*
X128611544Y-106316784D01*
X128543624Y-106152812D01*
X128509000Y-105978741D01*
X128509000Y-105801259D01*
X128543624Y-105627188D01*
X128611544Y-105463216D01*
X128710147Y-105315646D01*
X128835646Y-105190147D01*
X128983216Y-105091544D01*
X129147188Y-105023624D01*
X129296488Y-104993927D01*
X129321258Y-104989000D01*
X129498742Y-104989000D01*
X129523512Y-104993927D01*
G37*
G36*
X132063512Y-104993927D02*
G01*
X132212812Y-105023624D01*
X132376784Y-105091544D01*
X132524354Y-105190147D01*
X132649853Y-105315646D01*
X132748456Y-105463216D01*
X132816376Y-105627188D01*
X132851000Y-105801259D01*
X132851000Y-105978741D01*
X132816376Y-106152812D01*
X132748456Y-106316784D01*
X132649853Y-106464354D01*
X132524354Y-106589853D01*
X132376784Y-106688456D01*
X132212812Y-106756376D01*
X132063512Y-106786073D01*
X132038742Y-106791000D01*
X131861258Y-106791000D01*
X131836488Y-106786073D01*
X131687188Y-106756376D01*
X131523216Y-106688456D01*
X131375646Y-106589853D01*
X131250147Y-106464354D01*
X131151544Y-106316784D01*
X131083624Y-106152812D01*
X131049000Y-105978741D01*
X131049000Y-105801259D01*
X131083624Y-105627188D01*
X131151544Y-105463216D01*
X131250147Y-105315646D01*
X131375646Y-105190147D01*
X131523216Y-105091544D01*
X131687188Y-105023624D01*
X131836488Y-104993927D01*
X131861258Y-104989000D01*
X132038742Y-104989000D01*
X132063512Y-104993927D01*
G37*
G36*
X177783512Y-104993927D02*
G01*
X177932812Y-105023624D01*
X178096784Y-105091544D01*
X178244354Y-105190147D01*
X178369853Y-105315646D01*
X178468456Y-105463216D01*
X178536376Y-105627188D01*
X178571000Y-105801259D01*
X178571000Y-105978741D01*
X178536376Y-106152812D01*
X178468456Y-106316784D01*
X178369853Y-106464354D01*
X178244354Y-106589853D01*
X178096784Y-106688456D01*
X177932812Y-106756376D01*
X177783512Y-106786073D01*
X177758742Y-106791000D01*
X177581258Y-106791000D01*
X177556488Y-106786073D01*
X177407188Y-106756376D01*
X177243216Y-106688456D01*
X177095646Y-106589853D01*
X176970147Y-106464354D01*
X176871544Y-106316784D01*
X176803624Y-106152812D01*
X176769000Y-105978741D01*
X176769000Y-105801259D01*
X176803624Y-105627188D01*
X176871544Y-105463216D01*
X176970147Y-105315646D01*
X177095646Y-105190147D01*
X177243216Y-105091544D01*
X177407188Y-105023624D01*
X177556488Y-104993927D01*
X177581258Y-104989000D01*
X177758742Y-104989000D01*
X177783512Y-104993927D01*
G37*
G36*
X149843512Y-104993927D02*
G01*
X149992812Y-105023624D01*
X150156784Y-105091544D01*
X150304354Y-105190147D01*
X150429853Y-105315646D01*
X150528456Y-105463216D01*
X150596376Y-105627188D01*
X150631000Y-105801259D01*
X150631000Y-105978741D01*
X150596376Y-106152812D01*
X150528456Y-106316784D01*
X150429853Y-106464354D01*
X150304354Y-106589853D01*
X150156784Y-106688456D01*
X149992812Y-106756376D01*
X149843512Y-106786073D01*
X149818742Y-106791000D01*
X149641258Y-106791000D01*
X149616488Y-106786073D01*
X149467188Y-106756376D01*
X149303216Y-106688456D01*
X149155646Y-106589853D01*
X149030147Y-106464354D01*
X148931544Y-106316784D01*
X148863624Y-106152812D01*
X148829000Y-105978741D01*
X148829000Y-105801259D01*
X148863624Y-105627188D01*
X148931544Y-105463216D01*
X149030147Y-105315646D01*
X149155646Y-105190147D01*
X149303216Y-105091544D01*
X149467188Y-105023624D01*
X149616488Y-104993927D01*
X149641258Y-104989000D01*
X149818742Y-104989000D01*
X149843512Y-104993927D01*
G37*
G36*
X108259272Y-104073428D02*
G01*
X108445991Y-104150770D01*
X108445993Y-104150771D01*
X108614037Y-104263054D01*
X108756946Y-104405963D01*
X108869229Y-104574007D01*
X108869230Y-104574009D01*
X108946572Y-104760728D01*
X108986000Y-104958947D01*
X108986000Y-105161053D01*
X108946572Y-105359272D01*
X108903516Y-105463218D01*
X108869229Y-105545993D01*
X108756946Y-105714037D01*
X108614037Y-105856946D01*
X108445993Y-105969229D01*
X108445992Y-105969230D01*
X108445991Y-105969230D01*
X108259272Y-106046572D01*
X108061053Y-106086000D01*
X107858947Y-106086000D01*
X107660728Y-106046572D01*
X107474009Y-105969230D01*
X107474008Y-105969230D01*
X107474007Y-105969229D01*
X107305963Y-105856946D01*
X107163054Y-105714037D01*
X107050771Y-105545993D01*
X107016484Y-105463218D01*
X106973428Y-105359272D01*
X106934000Y-105161053D01*
X106934000Y-104958947D01*
X106973428Y-104760728D01*
X107050770Y-104574009D01*
X107050771Y-104574007D01*
X107163054Y-104405963D01*
X107305963Y-104263054D01*
X107474007Y-104150771D01*
X107474009Y-104150770D01*
X107660728Y-104073428D01*
X107858947Y-104034000D01*
X108061053Y-104034000D01*
X108259272Y-104073428D01*
G37*
G36*
X162543512Y-102453927D02*
G01*
X162692812Y-102483624D01*
X162856784Y-102551544D01*
X163004354Y-102650147D01*
X163129853Y-102775646D01*
X163228456Y-102923216D01*
X163296376Y-103087188D01*
X163331000Y-103261259D01*
X163331000Y-103438741D01*
X163296376Y-103612812D01*
X163228456Y-103776784D01*
X163129853Y-103924354D01*
X163004354Y-104049853D01*
X162856784Y-104148456D01*
X162692812Y-104216376D01*
X162543512Y-104246073D01*
X162518742Y-104251000D01*
X162341258Y-104251000D01*
X162316488Y-104246073D01*
X162167188Y-104216376D01*
X162003216Y-104148456D01*
X161855646Y-104049853D01*
X161730147Y-103924354D01*
X161631544Y-103776784D01*
X161563624Y-103612812D01*
X161529000Y-103438741D01*
X161529000Y-103261259D01*
X161563624Y-103087188D01*
X161631544Y-102923216D01*
X161730147Y-102775646D01*
X161855646Y-102650147D01*
X162003216Y-102551544D01*
X162167188Y-102483624D01*
X162316488Y-102453927D01*
X162341258Y-102449000D01*
X162518742Y-102449000D01*
X162543512Y-102453927D01*
G37*
G36*
X152383512Y-102453927D02*
G01*
X152532812Y-102483624D01*
X152696784Y-102551544D01*
X152844354Y-102650147D01*
X152969853Y-102775646D01*
X153068456Y-102923216D01*
X153136376Y-103087188D01*
X153171000Y-103261259D01*
X153171000Y-103438741D01*
X153136376Y-103612812D01*
X153068456Y-103776784D01*
X152969853Y-103924354D01*
X152844354Y-104049853D01*
X152696784Y-104148456D01*
X152532812Y-104216376D01*
X152383512Y-104246073D01*
X152358742Y-104251000D01*
X152181258Y-104251000D01*
X152156488Y-104246073D01*
X152007188Y-104216376D01*
X151843216Y-104148456D01*
X151695646Y-104049853D01*
X151570147Y-103924354D01*
X151471544Y-103776784D01*
X151403624Y-103612812D01*
X151369000Y-103438741D01*
X151369000Y-103261259D01*
X151403624Y-103087188D01*
X151471544Y-102923216D01*
X151570147Y-102775646D01*
X151695646Y-102650147D01*
X151843216Y-102551544D01*
X152007188Y-102483624D01*
X152156488Y-102453927D01*
X152181258Y-102449000D01*
X152358742Y-102449000D01*
X152383512Y-102453927D01*
G37*
G36*
X147303512Y-102453927D02*
G01*
X147452812Y-102483624D01*
X147616784Y-102551544D01*
X147764354Y-102650147D01*
X147889853Y-102775646D01*
X147988456Y-102923216D01*
X148056376Y-103087188D01*
X148091000Y-103261259D01*
X148091000Y-103438741D01*
X148056376Y-103612812D01*
X147988456Y-103776784D01*
X147889853Y-103924354D01*
X147764354Y-104049853D01*
X147616784Y-104148456D01*
X147452812Y-104216376D01*
X147303512Y-104246073D01*
X147278742Y-104251000D01*
X147101258Y-104251000D01*
X147076488Y-104246073D01*
X146927188Y-104216376D01*
X146763216Y-104148456D01*
X146615646Y-104049853D01*
X146490147Y-103924354D01*
X146391544Y-103776784D01*
X146323624Y-103612812D01*
X146289000Y-103438741D01*
X146289000Y-103261259D01*
X146323624Y-103087188D01*
X146391544Y-102923216D01*
X146490147Y-102775646D01*
X146615646Y-102650147D01*
X146763216Y-102551544D01*
X146927188Y-102483624D01*
X147076488Y-102453927D01*
X147101258Y-102449000D01*
X147278742Y-102449000D01*
X147303512Y-102453927D01*
G37*
G36*
X154923512Y-102453927D02*
G01*
X155072812Y-102483624D01*
X155236784Y-102551544D01*
X155384354Y-102650147D01*
X155509853Y-102775646D01*
X155608456Y-102923216D01*
X155676376Y-103087188D01*
X155711000Y-103261259D01*
X155711000Y-103438741D01*
X155676376Y-103612812D01*
X155608456Y-103776784D01*
X155509853Y-103924354D01*
X155384354Y-104049853D01*
X155236784Y-104148456D01*
X155072812Y-104216376D01*
X154923512Y-104246073D01*
X154898742Y-104251000D01*
X154721258Y-104251000D01*
X154696488Y-104246073D01*
X154547188Y-104216376D01*
X154383216Y-104148456D01*
X154235646Y-104049853D01*
X154110147Y-103924354D01*
X154011544Y-103776784D01*
X153943624Y-103612812D01*
X153909000Y-103438741D01*
X153909000Y-103261259D01*
X153943624Y-103087188D01*
X154011544Y-102923216D01*
X154110147Y-102775646D01*
X154235646Y-102650147D01*
X154383216Y-102551544D01*
X154547188Y-102483624D01*
X154696488Y-102453927D01*
X154721258Y-102449000D01*
X154898742Y-102449000D01*
X154923512Y-102453927D01*
G37*
G36*
X144763512Y-102453927D02*
G01*
X144912812Y-102483624D01*
X145076784Y-102551544D01*
X145224354Y-102650147D01*
X145349853Y-102775646D01*
X145448456Y-102923216D01*
X145516376Y-103087188D01*
X145551000Y-103261259D01*
X145551000Y-103438741D01*
X145516376Y-103612812D01*
X145448456Y-103776784D01*
X145349853Y-103924354D01*
X145224354Y-104049853D01*
X145076784Y-104148456D01*
X144912812Y-104216376D01*
X144763512Y-104246073D01*
X144738742Y-104251000D01*
X144561258Y-104251000D01*
X144536488Y-104246073D01*
X144387188Y-104216376D01*
X144223216Y-104148456D01*
X144075646Y-104049853D01*
X143950147Y-103924354D01*
X143851544Y-103776784D01*
X143783624Y-103612812D01*
X143749000Y-103438741D01*
X143749000Y-103261259D01*
X143783624Y-103087188D01*
X143851544Y-102923216D01*
X143950147Y-102775646D01*
X144075646Y-102650147D01*
X144223216Y-102551544D01*
X144387188Y-102483624D01*
X144536488Y-102453927D01*
X144561258Y-102449000D01*
X144738742Y-102449000D01*
X144763512Y-102453927D01*
G37*
G36*
X157463512Y-102453927D02*
G01*
X157612812Y-102483624D01*
X157776784Y-102551544D01*
X157924354Y-102650147D01*
X158049853Y-102775646D01*
X158148456Y-102923216D01*
X158216376Y-103087188D01*
X158251000Y-103261259D01*
X158251000Y-103438741D01*
X158216376Y-103612812D01*
X158148456Y-103776784D01*
X158049853Y-103924354D01*
X157924354Y-104049853D01*
X157776784Y-104148456D01*
X157612812Y-104216376D01*
X157463512Y-104246073D01*
X157438742Y-104251000D01*
X157261258Y-104251000D01*
X157236488Y-104246073D01*
X157087188Y-104216376D01*
X156923216Y-104148456D01*
X156775646Y-104049853D01*
X156650147Y-103924354D01*
X156551544Y-103776784D01*
X156483624Y-103612812D01*
X156449000Y-103438741D01*
X156449000Y-103261259D01*
X156483624Y-103087188D01*
X156551544Y-102923216D01*
X156650147Y-102775646D01*
X156775646Y-102650147D01*
X156923216Y-102551544D01*
X157087188Y-102483624D01*
X157236488Y-102453927D01*
X157261258Y-102449000D01*
X157438742Y-102449000D01*
X157463512Y-102453927D01*
G37*
G36*
X142223512Y-102453927D02*
G01*
X142372812Y-102483624D01*
X142536784Y-102551544D01*
X142684354Y-102650147D01*
X142809853Y-102775646D01*
X142908456Y-102923216D01*
X142976376Y-103087188D01*
X143011000Y-103261259D01*
X143011000Y-103438741D01*
X142976376Y-103612812D01*
X142908456Y-103776784D01*
X142809853Y-103924354D01*
X142684354Y-104049853D01*
X142536784Y-104148456D01*
X142372812Y-104216376D01*
X142223512Y-104246073D01*
X142198742Y-104251000D01*
X142021258Y-104251000D01*
X141996488Y-104246073D01*
X141847188Y-104216376D01*
X141683216Y-104148456D01*
X141535646Y-104049853D01*
X141410147Y-103924354D01*
X141311544Y-103776784D01*
X141243624Y-103612812D01*
X141209000Y-103438741D01*
X141209000Y-103261259D01*
X141243624Y-103087188D01*
X141311544Y-102923216D01*
X141410147Y-102775646D01*
X141535646Y-102650147D01*
X141683216Y-102551544D01*
X141847188Y-102483624D01*
X141996488Y-102453927D01*
X142021258Y-102449000D01*
X142198742Y-102449000D01*
X142223512Y-102453927D01*
G37*
G36*
X160003512Y-102453927D02*
G01*
X160152812Y-102483624D01*
X160316784Y-102551544D01*
X160464354Y-102650147D01*
X160589853Y-102775646D01*
X160688456Y-102923216D01*
X160756376Y-103087188D01*
X160791000Y-103261259D01*
X160791000Y-103438741D01*
X160756376Y-103612812D01*
X160688456Y-103776784D01*
X160589853Y-103924354D01*
X160464354Y-104049853D01*
X160316784Y-104148456D01*
X160152812Y-104216376D01*
X160003512Y-104246073D01*
X159978742Y-104251000D01*
X159801258Y-104251000D01*
X159776488Y-104246073D01*
X159627188Y-104216376D01*
X159463216Y-104148456D01*
X159315646Y-104049853D01*
X159190147Y-103924354D01*
X159091544Y-103776784D01*
X159023624Y-103612812D01*
X158989000Y-103438741D01*
X158989000Y-103261259D01*
X159023624Y-103087188D01*
X159091544Y-102923216D01*
X159190147Y-102775646D01*
X159315646Y-102650147D01*
X159463216Y-102551544D01*
X159627188Y-102483624D01*
X159776488Y-102453927D01*
X159801258Y-102449000D01*
X159978742Y-102449000D01*
X160003512Y-102453927D01*
G37*
G36*
X139683512Y-102453927D02*
G01*
X139832812Y-102483624D01*
X139996784Y-102551544D01*
X140144354Y-102650147D01*
X140269853Y-102775646D01*
X140368456Y-102923216D01*
X140436376Y-103087188D01*
X140471000Y-103261259D01*
X140471000Y-103438741D01*
X140436376Y-103612812D01*
X140368456Y-103776784D01*
X140269853Y-103924354D01*
X140144354Y-104049853D01*
X139996784Y-104148456D01*
X139832812Y-104216376D01*
X139683512Y-104246073D01*
X139658742Y-104251000D01*
X139481258Y-104251000D01*
X139456488Y-104246073D01*
X139307188Y-104216376D01*
X139143216Y-104148456D01*
X138995646Y-104049853D01*
X138870147Y-103924354D01*
X138771544Y-103776784D01*
X138703624Y-103612812D01*
X138669000Y-103438741D01*
X138669000Y-103261259D01*
X138703624Y-103087188D01*
X138771544Y-102923216D01*
X138870147Y-102775646D01*
X138995646Y-102650147D01*
X139143216Y-102551544D01*
X139307188Y-102483624D01*
X139456488Y-102453927D01*
X139481258Y-102449000D01*
X139658742Y-102449000D01*
X139683512Y-102453927D01*
G37*
G36*
X149843512Y-102453927D02*
G01*
X149992812Y-102483624D01*
X150156784Y-102551544D01*
X150304354Y-102650147D01*
X150429853Y-102775646D01*
X150528456Y-102923216D01*
X150596376Y-103087188D01*
X150631000Y-103261259D01*
X150631000Y-103438741D01*
X150596376Y-103612812D01*
X150528456Y-103776784D01*
X150429853Y-103924354D01*
X150304354Y-104049853D01*
X150156784Y-104148456D01*
X149992812Y-104216376D01*
X149843512Y-104246073D01*
X149818742Y-104251000D01*
X149641258Y-104251000D01*
X149616488Y-104246073D01*
X149467188Y-104216376D01*
X149303216Y-104148456D01*
X149155646Y-104049853D01*
X149030147Y-103924354D01*
X148931544Y-103776784D01*
X148863624Y-103612812D01*
X148829000Y-103438741D01*
X148829000Y-103261259D01*
X148863624Y-103087188D01*
X148931544Y-102923216D01*
X149030147Y-102775646D01*
X149155646Y-102650147D01*
X149303216Y-102551544D01*
X149467188Y-102483624D01*
X149616488Y-102453927D01*
X149641258Y-102449000D01*
X149818742Y-102449000D01*
X149843512Y-102453927D01*
G37*
G36*
X165083512Y-102453927D02*
G01*
X165232812Y-102483624D01*
X165396784Y-102551544D01*
X165544354Y-102650147D01*
X165669853Y-102775646D01*
X165768456Y-102923216D01*
X165836376Y-103087188D01*
X165871000Y-103261259D01*
X165871000Y-103438741D01*
X165836376Y-103612812D01*
X165768456Y-103776784D01*
X165669853Y-103924354D01*
X165544354Y-104049853D01*
X165396784Y-104148456D01*
X165232812Y-104216376D01*
X165083512Y-104246073D01*
X165058742Y-104251000D01*
X164881258Y-104251000D01*
X164856488Y-104246073D01*
X164707188Y-104216376D01*
X164543216Y-104148456D01*
X164395646Y-104049853D01*
X164270147Y-103924354D01*
X164171544Y-103776784D01*
X164103624Y-103612812D01*
X164069000Y-103438741D01*
X164069000Y-103261259D01*
X164103624Y-103087188D01*
X164171544Y-102923216D01*
X164270147Y-102775646D01*
X164395646Y-102650147D01*
X164543216Y-102551544D01*
X164707188Y-102483624D01*
X164856488Y-102453927D01*
X164881258Y-102449000D01*
X165058742Y-102449000D01*
X165083512Y-102453927D01*
G37*
G36*
X137143512Y-102453927D02*
G01*
X137292812Y-102483624D01*
X137456784Y-102551544D01*
X137604354Y-102650147D01*
X137729853Y-102775646D01*
X137828456Y-102923216D01*
X137896376Y-103087188D01*
X137931000Y-103261259D01*
X137931000Y-103438741D01*
X137896376Y-103612812D01*
X137828456Y-103776784D01*
X137729853Y-103924354D01*
X137604354Y-104049853D01*
X137456784Y-104148456D01*
X137292812Y-104216376D01*
X137143512Y-104246073D01*
X137118742Y-104251000D01*
X136941258Y-104251000D01*
X136916488Y-104246073D01*
X136767188Y-104216376D01*
X136603216Y-104148456D01*
X136455646Y-104049853D01*
X136330147Y-103924354D01*
X136231544Y-103776784D01*
X136163624Y-103612812D01*
X136129000Y-103438741D01*
X136129000Y-103261259D01*
X136163624Y-103087188D01*
X136231544Y-102923216D01*
X136330147Y-102775646D01*
X136455646Y-102650147D01*
X136603216Y-102551544D01*
X136767188Y-102483624D01*
X136916488Y-102453927D01*
X136941258Y-102449000D01*
X137118742Y-102449000D01*
X137143512Y-102453927D01*
G37*
G36*
X178571000Y-104251000D02*
G01*
X176769000Y-104251000D01*
X176769000Y-102449000D01*
X178571000Y-102449000D01*
X178571000Y-104251000D01*
G37*
G36*
X175243512Y-102453927D02*
G01*
X175392812Y-102483624D01*
X175556784Y-102551544D01*
X175704354Y-102650147D01*
X175829853Y-102775646D01*
X175928456Y-102923216D01*
X175996376Y-103087188D01*
X176031000Y-103261259D01*
X176031000Y-103438741D01*
X175996376Y-103612812D01*
X175928456Y-103776784D01*
X175829853Y-103924354D01*
X175704354Y-104049853D01*
X175556784Y-104148456D01*
X175392812Y-104216376D01*
X175243512Y-104246073D01*
X175218742Y-104251000D01*
X175041258Y-104251000D01*
X175016488Y-104246073D01*
X174867188Y-104216376D01*
X174703216Y-104148456D01*
X174555646Y-104049853D01*
X174430147Y-103924354D01*
X174331544Y-103776784D01*
X174263624Y-103612812D01*
X174229000Y-103438741D01*
X174229000Y-103261259D01*
X174263624Y-103087188D01*
X174331544Y-102923216D01*
X174430147Y-102775646D01*
X174555646Y-102650147D01*
X174703216Y-102551544D01*
X174867188Y-102483624D01*
X175016488Y-102453927D01*
X175041258Y-102449000D01*
X175218742Y-102449000D01*
X175243512Y-102453927D01*
G37*
G36*
X172703512Y-102453927D02*
G01*
X172852812Y-102483624D01*
X173016784Y-102551544D01*
X173164354Y-102650147D01*
X173289853Y-102775646D01*
X173388456Y-102923216D01*
X173456376Y-103087188D01*
X173491000Y-103261259D01*
X173491000Y-103438741D01*
X173456376Y-103612812D01*
X173388456Y-103776784D01*
X173289853Y-103924354D01*
X173164354Y-104049853D01*
X173016784Y-104148456D01*
X172852812Y-104216376D01*
X172703512Y-104246073D01*
X172678742Y-104251000D01*
X172501258Y-104251000D01*
X172476488Y-104246073D01*
X172327188Y-104216376D01*
X172163216Y-104148456D01*
X172015646Y-104049853D01*
X171890147Y-103924354D01*
X171791544Y-103776784D01*
X171723624Y-103612812D01*
X171689000Y-103438741D01*
X171689000Y-103261259D01*
X171723624Y-103087188D01*
X171791544Y-102923216D01*
X171890147Y-102775646D01*
X172015646Y-102650147D01*
X172163216Y-102551544D01*
X172327188Y-102483624D01*
X172476488Y-102453927D01*
X172501258Y-102449000D01*
X172678742Y-102449000D01*
X172703512Y-102453927D01*
G37*
G36*
X129523512Y-102453927D02*
G01*
X129672812Y-102483624D01*
X129836784Y-102551544D01*
X129984354Y-102650147D01*
X130109853Y-102775646D01*
X130208456Y-102923216D01*
X130276376Y-103087188D01*
X130311000Y-103261259D01*
X130311000Y-103438741D01*
X130276376Y-103612812D01*
X130208456Y-103776784D01*
X130109853Y-103924354D01*
X129984354Y-104049853D01*
X129836784Y-104148456D01*
X129672812Y-104216376D01*
X129523512Y-104246073D01*
X129498742Y-104251000D01*
X129321258Y-104251000D01*
X129296488Y-104246073D01*
X129147188Y-104216376D01*
X128983216Y-104148456D01*
X128835646Y-104049853D01*
X128710147Y-103924354D01*
X128611544Y-103776784D01*
X128543624Y-103612812D01*
X128509000Y-103438741D01*
X128509000Y-103261259D01*
X128543624Y-103087188D01*
X128611544Y-102923216D01*
X128710147Y-102775646D01*
X128835646Y-102650147D01*
X128983216Y-102551544D01*
X129147188Y-102483624D01*
X129296488Y-102453927D01*
X129321258Y-102449000D01*
X129498742Y-102449000D01*
X129523512Y-102453927D01*
G37*
G36*
X170163512Y-102453927D02*
G01*
X170312812Y-102483624D01*
X170476784Y-102551544D01*
X170624354Y-102650147D01*
X170749853Y-102775646D01*
X170848456Y-102923216D01*
X170916376Y-103087188D01*
X170951000Y-103261259D01*
X170951000Y-103438741D01*
X170916376Y-103612812D01*
X170848456Y-103776784D01*
X170749853Y-103924354D01*
X170624354Y-104049853D01*
X170476784Y-104148456D01*
X170312812Y-104216376D01*
X170163512Y-104246073D01*
X170138742Y-104251000D01*
X169961258Y-104251000D01*
X169936488Y-104246073D01*
X169787188Y-104216376D01*
X169623216Y-104148456D01*
X169475646Y-104049853D01*
X169350147Y-103924354D01*
X169251544Y-103776784D01*
X169183624Y-103612812D01*
X169149000Y-103438741D01*
X169149000Y-103261259D01*
X169183624Y-103087188D01*
X169251544Y-102923216D01*
X169350147Y-102775646D01*
X169475646Y-102650147D01*
X169623216Y-102551544D01*
X169787188Y-102483624D01*
X169936488Y-102453927D01*
X169961258Y-102449000D01*
X170138742Y-102449000D01*
X170163512Y-102453927D01*
G37*
G36*
X132063512Y-102453927D02*
G01*
X132212812Y-102483624D01*
X132376784Y-102551544D01*
X132524354Y-102650147D01*
X132649853Y-102775646D01*
X132748456Y-102923216D01*
X132816376Y-103087188D01*
X132851000Y-103261259D01*
X132851000Y-103438741D01*
X132816376Y-103612812D01*
X132748456Y-103776784D01*
X132649853Y-103924354D01*
X132524354Y-104049853D01*
X132376784Y-104148456D01*
X132212812Y-104216376D01*
X132063512Y-104246073D01*
X132038742Y-104251000D01*
X131861258Y-104251000D01*
X131836488Y-104246073D01*
X131687188Y-104216376D01*
X131523216Y-104148456D01*
X131375646Y-104049853D01*
X131250147Y-103924354D01*
X131151544Y-103776784D01*
X131083624Y-103612812D01*
X131049000Y-103438741D01*
X131049000Y-103261259D01*
X131083624Y-103087188D01*
X131151544Y-102923216D01*
X131250147Y-102775646D01*
X131375646Y-102650147D01*
X131523216Y-102551544D01*
X131687188Y-102483624D01*
X131836488Y-102453927D01*
X131861258Y-102449000D01*
X132038742Y-102449000D01*
X132063512Y-102453927D01*
G37*
G36*
X167623512Y-102453927D02*
G01*
X167772812Y-102483624D01*
X167936784Y-102551544D01*
X168084354Y-102650147D01*
X168209853Y-102775646D01*
X168308456Y-102923216D01*
X168376376Y-103087188D01*
X168411000Y-103261259D01*
X168411000Y-103438741D01*
X168376376Y-103612812D01*
X168308456Y-103776784D01*
X168209853Y-103924354D01*
X168084354Y-104049853D01*
X167936784Y-104148456D01*
X167772812Y-104216376D01*
X167623512Y-104246073D01*
X167598742Y-104251000D01*
X167421258Y-104251000D01*
X167396488Y-104246073D01*
X167247188Y-104216376D01*
X167083216Y-104148456D01*
X166935646Y-104049853D01*
X166810147Y-103924354D01*
X166711544Y-103776784D01*
X166643624Y-103612812D01*
X166609000Y-103438741D01*
X166609000Y-103261259D01*
X166643624Y-103087188D01*
X166711544Y-102923216D01*
X166810147Y-102775646D01*
X166935646Y-102650147D01*
X167083216Y-102551544D01*
X167247188Y-102483624D01*
X167396488Y-102453927D01*
X167421258Y-102449000D01*
X167598742Y-102449000D01*
X167623512Y-102453927D01*
G37*
G36*
X134603512Y-102453927D02*
G01*
X134752812Y-102483624D01*
X134916784Y-102551544D01*
X135064354Y-102650147D01*
X135189853Y-102775646D01*
X135288456Y-102923216D01*
X135356376Y-103087188D01*
X135391000Y-103261259D01*
X135391000Y-103438741D01*
X135356376Y-103612812D01*
X135288456Y-103776784D01*
X135189853Y-103924354D01*
X135064354Y-104049853D01*
X134916784Y-104148456D01*
X134752812Y-104216376D01*
X134603512Y-104246073D01*
X134578742Y-104251000D01*
X134401258Y-104251000D01*
X134376488Y-104246073D01*
X134227188Y-104216376D01*
X134063216Y-104148456D01*
X133915646Y-104049853D01*
X133790147Y-103924354D01*
X133691544Y-103776784D01*
X133623624Y-103612812D01*
X133589000Y-103438741D01*
X133589000Y-103261259D01*
X133623624Y-103087188D01*
X133691544Y-102923216D01*
X133790147Y-102775646D01*
X133915646Y-102650147D01*
X134063216Y-102551544D01*
X134227188Y-102483624D01*
X134376488Y-102453927D01*
X134401258Y-102449000D01*
X134578742Y-102449000D01*
X134603512Y-102453927D01*
G37*
G36*
X108259272Y-100573428D02*
G01*
X108445991Y-100650770D01*
X108445993Y-100650771D01*
X108614037Y-100763054D01*
X108756946Y-100905963D01*
X108869229Y-101074007D01*
X108869230Y-101074009D01*
X108946572Y-101260728D01*
X108986000Y-101458947D01*
X108986000Y-101661053D01*
X108946572Y-101859272D01*
X108869230Y-102045991D01*
X108869229Y-102045993D01*
X108756946Y-102214037D01*
X108614037Y-102356946D01*
X108445993Y-102469229D01*
X108445992Y-102469230D01*
X108445991Y-102469230D01*
X108259272Y-102546572D01*
X108061053Y-102586000D01*
X107858947Y-102586000D01*
X107660728Y-102546572D01*
X107474009Y-102469230D01*
X107474008Y-102469230D01*
X107474007Y-102469229D01*
X107305963Y-102356946D01*
X107163054Y-102214037D01*
X107050771Y-102045993D01*
X107050770Y-102045991D01*
X106973428Y-101859272D01*
X106934000Y-101661053D01*
X106934000Y-101458947D01*
X106973428Y-101260728D01*
X107050770Y-101074009D01*
X107050771Y-101074007D01*
X107163054Y-100905963D01*
X107305963Y-100763054D01*
X107474007Y-100650771D01*
X107474009Y-100650770D01*
X107660728Y-100573428D01*
X107858947Y-100534000D01*
X108061053Y-100534000D01*
X108259272Y-100573428D01*
G37*
G36*
X108259272Y-96873428D02*
G01*
X108445991Y-96950770D01*
X108445993Y-96950771D01*
X108614037Y-97063054D01*
X108756946Y-97205963D01*
X108869229Y-97374007D01*
X108869230Y-97374009D01*
X108946572Y-97560728D01*
X108986000Y-97758947D01*
X108986000Y-97961053D01*
X108946572Y-98159272D01*
X108869230Y-98345991D01*
X108869229Y-98345993D01*
X108756946Y-98514037D01*
X108614037Y-98656946D01*
X108445993Y-98769229D01*
X108445992Y-98769230D01*
X108445991Y-98769230D01*
X108259272Y-98846572D01*
X108061053Y-98886000D01*
X107858947Y-98886000D01*
X107660728Y-98846572D01*
X107474009Y-98769230D01*
X107474008Y-98769230D01*
X107474007Y-98769229D01*
X107305963Y-98656946D01*
X107163054Y-98514037D01*
X107050771Y-98345993D01*
X107050770Y-98345991D01*
X106973428Y-98159272D01*
X106934000Y-97961053D01*
X106934000Y-97758947D01*
X106973428Y-97560728D01*
X107050770Y-97374009D01*
X107050771Y-97374007D01*
X107163054Y-97205963D01*
X107305963Y-97063054D01*
X107474007Y-96950771D01*
X107474009Y-96950770D01*
X107660728Y-96873428D01*
X107858947Y-96834000D01*
X108061053Y-96834000D01*
X108259272Y-96873428D01*
G37*
G36*
X108259272Y-93373428D02*
G01*
X108445991Y-93450770D01*
X108445993Y-93450771D01*
X108614037Y-93563054D01*
X108756946Y-93705963D01*
X108869229Y-93874007D01*
X108869230Y-93874009D01*
X108946572Y-94060728D01*
X108986000Y-94258947D01*
X108986000Y-94461053D01*
X108946572Y-94659272D01*
X108869230Y-94845991D01*
X108869229Y-94845993D01*
X108756946Y-95014037D01*
X108614037Y-95156946D01*
X108445993Y-95269229D01*
X108445992Y-95269230D01*
X108445991Y-95269230D01*
X108259272Y-95346572D01*
X108061053Y-95386000D01*
X107858947Y-95386000D01*
X107660728Y-95346572D01*
X107474009Y-95269230D01*
X107474008Y-95269230D01*
X107474007Y-95269229D01*
X107305963Y-95156946D01*
X107163054Y-95014037D01*
X107050771Y-94845993D01*
X107050770Y-94845991D01*
X106973428Y-94659272D01*
X106934000Y-94461053D01*
X106934000Y-94258947D01*
X106973428Y-94060728D01*
X107050770Y-93874009D01*
X107050771Y-93874007D01*
X107163054Y-93705963D01*
X107305963Y-93563054D01*
X107474007Y-93450771D01*
X107474009Y-93450770D01*
X107660728Y-93373428D01*
X107858947Y-93334000D01*
X108061053Y-93334000D01*
X108259272Y-93373428D01*
G37*
G36*
X152383512Y-83993927D02*
G01*
X152532812Y-84023624D01*
X152696784Y-84091544D01*
X152844354Y-84190147D01*
X152969853Y-84315646D01*
X153068456Y-84463216D01*
X153136376Y-84627188D01*
X153171000Y-84801259D01*
X153171000Y-84978741D01*
X153136376Y-85152812D01*
X153068456Y-85316784D01*
X152969853Y-85464354D01*
X152844354Y-85589853D01*
X152696784Y-85688456D01*
X152532812Y-85756376D01*
X152383512Y-85786073D01*
X152358742Y-85791000D01*
X152181258Y-85791000D01*
X152156488Y-85786073D01*
X152007188Y-85756376D01*
X151843216Y-85688456D01*
X151695646Y-85589853D01*
X151570147Y-85464354D01*
X151471544Y-85316784D01*
X151403624Y-85152812D01*
X151369000Y-84978741D01*
X151369000Y-84801259D01*
X151403624Y-84627188D01*
X151471544Y-84463216D01*
X151570147Y-84315646D01*
X151695646Y-84190147D01*
X151843216Y-84091544D01*
X152007188Y-84023624D01*
X152156488Y-83993927D01*
X152181258Y-83989000D01*
X152358742Y-83989000D01*
X152383512Y-83993927D01*
G37*
G36*
X139683512Y-83993927D02*
G01*
X139832812Y-84023624D01*
X139996784Y-84091544D01*
X140144354Y-84190147D01*
X140269853Y-84315646D01*
X140368456Y-84463216D01*
X140436376Y-84627188D01*
X140471000Y-84801259D01*
X140471000Y-84978741D01*
X140436376Y-85152812D01*
X140368456Y-85316784D01*
X140269853Y-85464354D01*
X140144354Y-85589853D01*
X139996784Y-85688456D01*
X139832812Y-85756376D01*
X139683512Y-85786073D01*
X139658742Y-85791000D01*
X139481258Y-85791000D01*
X139456488Y-85786073D01*
X139307188Y-85756376D01*
X139143216Y-85688456D01*
X138995646Y-85589853D01*
X138870147Y-85464354D01*
X138771544Y-85316784D01*
X138703624Y-85152812D01*
X138669000Y-84978741D01*
X138669000Y-84801259D01*
X138703624Y-84627188D01*
X138771544Y-84463216D01*
X138870147Y-84315646D01*
X138995646Y-84190147D01*
X139143216Y-84091544D01*
X139307188Y-84023624D01*
X139456488Y-83993927D01*
X139481258Y-83989000D01*
X139658742Y-83989000D01*
X139683512Y-83993927D01*
G37*
G36*
X149843512Y-83993927D02*
G01*
X149992812Y-84023624D01*
X150156784Y-84091544D01*
X150304354Y-84190147D01*
X150429853Y-84315646D01*
X150528456Y-84463216D01*
X150596376Y-84627188D01*
X150631000Y-84801259D01*
X150631000Y-84978741D01*
X150596376Y-85152812D01*
X150528456Y-85316784D01*
X150429853Y-85464354D01*
X150304354Y-85589853D01*
X150156784Y-85688456D01*
X149992812Y-85756376D01*
X149843512Y-85786073D01*
X149818742Y-85791000D01*
X149641258Y-85791000D01*
X149616488Y-85786073D01*
X149467188Y-85756376D01*
X149303216Y-85688456D01*
X149155646Y-85589853D01*
X149030147Y-85464354D01*
X148931544Y-85316784D01*
X148863624Y-85152812D01*
X148829000Y-84978741D01*
X148829000Y-84801259D01*
X148863624Y-84627188D01*
X148931544Y-84463216D01*
X149030147Y-84315646D01*
X149155646Y-84190147D01*
X149303216Y-84091544D01*
X149467188Y-84023624D01*
X149616488Y-83993927D01*
X149641258Y-83989000D01*
X149818742Y-83989000D01*
X149843512Y-83993927D01*
G37*
G36*
X129523512Y-83993927D02*
G01*
X129672812Y-84023624D01*
X129836784Y-84091544D01*
X129984354Y-84190147D01*
X130109853Y-84315646D01*
X130208456Y-84463216D01*
X130276376Y-84627188D01*
X130311000Y-84801259D01*
X130311000Y-84978741D01*
X130276376Y-85152812D01*
X130208456Y-85316784D01*
X130109853Y-85464354D01*
X129984354Y-85589853D01*
X129836784Y-85688456D01*
X129672812Y-85756376D01*
X129523512Y-85786073D01*
X129498742Y-85791000D01*
X129321258Y-85791000D01*
X129296488Y-85786073D01*
X129147188Y-85756376D01*
X128983216Y-85688456D01*
X128835646Y-85589853D01*
X128710147Y-85464354D01*
X128611544Y-85316784D01*
X128543624Y-85152812D01*
X128509000Y-84978741D01*
X128509000Y-84801259D01*
X128543624Y-84627188D01*
X128611544Y-84463216D01*
X128710147Y-84315646D01*
X128835646Y-84190147D01*
X128983216Y-84091544D01*
X129147188Y-84023624D01*
X129296488Y-83993927D01*
X129321258Y-83989000D01*
X129498742Y-83989000D01*
X129523512Y-83993927D01*
G37*
G36*
X142223512Y-83993927D02*
G01*
X142372812Y-84023624D01*
X142536784Y-84091544D01*
X142684354Y-84190147D01*
X142809853Y-84315646D01*
X142908456Y-84463216D01*
X142976376Y-84627188D01*
X143011000Y-84801259D01*
X143011000Y-84978741D01*
X142976376Y-85152812D01*
X142908456Y-85316784D01*
X142809853Y-85464354D01*
X142684354Y-85589853D01*
X142536784Y-85688456D01*
X142372812Y-85756376D01*
X142223512Y-85786073D01*
X142198742Y-85791000D01*
X142021258Y-85791000D01*
X141996488Y-85786073D01*
X141847188Y-85756376D01*
X141683216Y-85688456D01*
X141535646Y-85589853D01*
X141410147Y-85464354D01*
X141311544Y-85316784D01*
X141243624Y-85152812D01*
X141209000Y-84978741D01*
X141209000Y-84801259D01*
X141243624Y-84627188D01*
X141311544Y-84463216D01*
X141410147Y-84315646D01*
X141535646Y-84190147D01*
X141683216Y-84091544D01*
X141847188Y-84023624D01*
X141996488Y-83993927D01*
X142021258Y-83989000D01*
X142198742Y-83989000D01*
X142223512Y-83993927D01*
G37*
G36*
X147303512Y-83993927D02*
G01*
X147452812Y-84023624D01*
X147616784Y-84091544D01*
X147764354Y-84190147D01*
X147889853Y-84315646D01*
X147988456Y-84463216D01*
X148056376Y-84627188D01*
X148091000Y-84801259D01*
X148091000Y-84978741D01*
X148056376Y-85152812D01*
X147988456Y-85316784D01*
X147889853Y-85464354D01*
X147764354Y-85589853D01*
X147616784Y-85688456D01*
X147452812Y-85756376D01*
X147303512Y-85786073D01*
X147278742Y-85791000D01*
X147101258Y-85791000D01*
X147076488Y-85786073D01*
X146927188Y-85756376D01*
X146763216Y-85688456D01*
X146615646Y-85589853D01*
X146490147Y-85464354D01*
X146391544Y-85316784D01*
X146323624Y-85152812D01*
X146289000Y-84978741D01*
X146289000Y-84801259D01*
X146323624Y-84627188D01*
X146391544Y-84463216D01*
X146490147Y-84315646D01*
X146615646Y-84190147D01*
X146763216Y-84091544D01*
X146927188Y-84023624D01*
X147076488Y-83993927D01*
X147101258Y-83989000D01*
X147278742Y-83989000D01*
X147303512Y-83993927D01*
G37*
G36*
X144763512Y-83993927D02*
G01*
X144912812Y-84023624D01*
X145076784Y-84091544D01*
X145224354Y-84190147D01*
X145349853Y-84315646D01*
X145448456Y-84463216D01*
X145516376Y-84627188D01*
X145551000Y-84801259D01*
X145551000Y-84978741D01*
X145516376Y-85152812D01*
X145448456Y-85316784D01*
X145349853Y-85464354D01*
X145224354Y-85589853D01*
X145076784Y-85688456D01*
X144912812Y-85756376D01*
X144763512Y-85786073D01*
X144738742Y-85791000D01*
X144561258Y-85791000D01*
X144536488Y-85786073D01*
X144387188Y-85756376D01*
X144223216Y-85688456D01*
X144075646Y-85589853D01*
X143950147Y-85464354D01*
X143851544Y-85316784D01*
X143783624Y-85152812D01*
X143749000Y-84978741D01*
X143749000Y-84801259D01*
X143783624Y-84627188D01*
X143851544Y-84463216D01*
X143950147Y-84315646D01*
X144075646Y-84190147D01*
X144223216Y-84091544D01*
X144387188Y-84023624D01*
X144536488Y-83993927D01*
X144561258Y-83989000D01*
X144738742Y-83989000D01*
X144763512Y-83993927D01*
G37*
G36*
X177783512Y-83993927D02*
G01*
X177932812Y-84023624D01*
X178096784Y-84091544D01*
X178244354Y-84190147D01*
X178369853Y-84315646D01*
X178468456Y-84463216D01*
X178536376Y-84627188D01*
X178571000Y-84801259D01*
X178571000Y-84978741D01*
X178536376Y-85152812D01*
X178468456Y-85316784D01*
X178369853Y-85464354D01*
X178244354Y-85589853D01*
X178096784Y-85688456D01*
X177932812Y-85756376D01*
X177783512Y-85786073D01*
X177758742Y-85791000D01*
X177581258Y-85791000D01*
X177556488Y-85786073D01*
X177407188Y-85756376D01*
X177243216Y-85688456D01*
X177095646Y-85589853D01*
X176970147Y-85464354D01*
X176871544Y-85316784D01*
X176803624Y-85152812D01*
X176769000Y-84978741D01*
X176769000Y-84801259D01*
X176803624Y-84627188D01*
X176871544Y-84463216D01*
X176970147Y-84315646D01*
X177095646Y-84190147D01*
X177243216Y-84091544D01*
X177407188Y-84023624D01*
X177556488Y-83993927D01*
X177581258Y-83989000D01*
X177758742Y-83989000D01*
X177783512Y-83993927D01*
G37*
G36*
X175243512Y-83993927D02*
G01*
X175392812Y-84023624D01*
X175556784Y-84091544D01*
X175704354Y-84190147D01*
X175829853Y-84315646D01*
X175928456Y-84463216D01*
X175996376Y-84627188D01*
X176031000Y-84801259D01*
X176031000Y-84978741D01*
X175996376Y-85152812D01*
X175928456Y-85316784D01*
X175829853Y-85464354D01*
X175704354Y-85589853D01*
X175556784Y-85688456D01*
X175392812Y-85756376D01*
X175243512Y-85786073D01*
X175218742Y-85791000D01*
X175041258Y-85791000D01*
X175016488Y-85786073D01*
X174867188Y-85756376D01*
X174703216Y-85688456D01*
X174555646Y-85589853D01*
X174430147Y-85464354D01*
X174331544Y-85316784D01*
X174263624Y-85152812D01*
X174229000Y-84978741D01*
X174229000Y-84801259D01*
X174263624Y-84627188D01*
X174331544Y-84463216D01*
X174430147Y-84315646D01*
X174555646Y-84190147D01*
X174703216Y-84091544D01*
X174867188Y-84023624D01*
X175016488Y-83993927D01*
X175041258Y-83989000D01*
X175218742Y-83989000D01*
X175243512Y-83993927D01*
G37*
G36*
X165083512Y-83993927D02*
G01*
X165232812Y-84023624D01*
X165396784Y-84091544D01*
X165544354Y-84190147D01*
X165669853Y-84315646D01*
X165768456Y-84463216D01*
X165836376Y-84627188D01*
X165871000Y-84801259D01*
X165871000Y-84978741D01*
X165836376Y-85152812D01*
X165768456Y-85316784D01*
X165669853Y-85464354D01*
X165544354Y-85589853D01*
X165396784Y-85688456D01*
X165232812Y-85756376D01*
X165083512Y-85786073D01*
X165058742Y-85791000D01*
X164881258Y-85791000D01*
X164856488Y-85786073D01*
X164707188Y-85756376D01*
X164543216Y-85688456D01*
X164395646Y-85589853D01*
X164270147Y-85464354D01*
X164171544Y-85316784D01*
X164103624Y-85152812D01*
X164069000Y-84978741D01*
X164069000Y-84801259D01*
X164103624Y-84627188D01*
X164171544Y-84463216D01*
X164270147Y-84315646D01*
X164395646Y-84190147D01*
X164543216Y-84091544D01*
X164707188Y-84023624D01*
X164856488Y-83993927D01*
X164881258Y-83989000D01*
X165058742Y-83989000D01*
X165083512Y-83993927D01*
G37*
G36*
X157463512Y-83993927D02*
G01*
X157612812Y-84023624D01*
X157776784Y-84091544D01*
X157924354Y-84190147D01*
X158049853Y-84315646D01*
X158148456Y-84463216D01*
X158216376Y-84627188D01*
X158251000Y-84801259D01*
X158251000Y-84978741D01*
X158216376Y-85152812D01*
X158148456Y-85316784D01*
X158049853Y-85464354D01*
X157924354Y-85589853D01*
X157776784Y-85688456D01*
X157612812Y-85756376D01*
X157463512Y-85786073D01*
X157438742Y-85791000D01*
X157261258Y-85791000D01*
X157236488Y-85786073D01*
X157087188Y-85756376D01*
X156923216Y-85688456D01*
X156775646Y-85589853D01*
X156650147Y-85464354D01*
X156551544Y-85316784D01*
X156483624Y-85152812D01*
X156449000Y-84978741D01*
X156449000Y-84801259D01*
X156483624Y-84627188D01*
X156551544Y-84463216D01*
X156650147Y-84315646D01*
X156775646Y-84190147D01*
X156923216Y-84091544D01*
X157087188Y-84023624D01*
X157236488Y-83993927D01*
X157261258Y-83989000D01*
X157438742Y-83989000D01*
X157463512Y-83993927D01*
G37*
G36*
X154923512Y-83993927D02*
G01*
X155072812Y-84023624D01*
X155236784Y-84091544D01*
X155384354Y-84190147D01*
X155509853Y-84315646D01*
X155608456Y-84463216D01*
X155676376Y-84627188D01*
X155711000Y-84801259D01*
X155711000Y-84978741D01*
X155676376Y-85152812D01*
X155608456Y-85316784D01*
X155509853Y-85464354D01*
X155384354Y-85589853D01*
X155236784Y-85688456D01*
X155072812Y-85756376D01*
X154923512Y-85786073D01*
X154898742Y-85791000D01*
X154721258Y-85791000D01*
X154696488Y-85786073D01*
X154547188Y-85756376D01*
X154383216Y-85688456D01*
X154235646Y-85589853D01*
X154110147Y-85464354D01*
X154011544Y-85316784D01*
X153943624Y-85152812D01*
X153909000Y-84978741D01*
X153909000Y-84801259D01*
X153943624Y-84627188D01*
X154011544Y-84463216D01*
X154110147Y-84315646D01*
X154235646Y-84190147D01*
X154383216Y-84091544D01*
X154547188Y-84023624D01*
X154696488Y-83993927D01*
X154721258Y-83989000D01*
X154898742Y-83989000D01*
X154923512Y-83993927D01*
G37*
G36*
X167623512Y-83993927D02*
G01*
X167772812Y-84023624D01*
X167936784Y-84091544D01*
X168084354Y-84190147D01*
X168209853Y-84315646D01*
X168308456Y-84463216D01*
X168376376Y-84627188D01*
X168411000Y-84801259D01*
X168411000Y-84978741D01*
X168376376Y-85152812D01*
X168308456Y-85316784D01*
X168209853Y-85464354D01*
X168084354Y-85589853D01*
X167936784Y-85688456D01*
X167772812Y-85756376D01*
X167623512Y-85786073D01*
X167598742Y-85791000D01*
X167421258Y-85791000D01*
X167396488Y-85786073D01*
X167247188Y-85756376D01*
X167083216Y-85688456D01*
X166935646Y-85589853D01*
X166810147Y-85464354D01*
X166711544Y-85316784D01*
X166643624Y-85152812D01*
X166609000Y-84978741D01*
X166609000Y-84801259D01*
X166643624Y-84627188D01*
X166711544Y-84463216D01*
X166810147Y-84315646D01*
X166935646Y-84190147D01*
X167083216Y-84091544D01*
X167247188Y-84023624D01*
X167396488Y-83993927D01*
X167421258Y-83989000D01*
X167598742Y-83989000D01*
X167623512Y-83993927D01*
G37*
G36*
X170163512Y-83993927D02*
G01*
X170312812Y-84023624D01*
X170476784Y-84091544D01*
X170624354Y-84190147D01*
X170749853Y-84315646D01*
X170848456Y-84463216D01*
X170916376Y-84627188D01*
X170951000Y-84801259D01*
X170951000Y-84978741D01*
X170916376Y-85152812D01*
X170848456Y-85316784D01*
X170749853Y-85464354D01*
X170624354Y-85589853D01*
X170476784Y-85688456D01*
X170312812Y-85756376D01*
X170163512Y-85786073D01*
X170138742Y-85791000D01*
X169961258Y-85791000D01*
X169936488Y-85786073D01*
X169787188Y-85756376D01*
X169623216Y-85688456D01*
X169475646Y-85589853D01*
X169350147Y-85464354D01*
X169251544Y-85316784D01*
X169183624Y-85152812D01*
X169149000Y-84978741D01*
X169149000Y-84801259D01*
X169183624Y-84627188D01*
X169251544Y-84463216D01*
X169350147Y-84315646D01*
X169475646Y-84190147D01*
X169623216Y-84091544D01*
X169787188Y-84023624D01*
X169936488Y-83993927D01*
X169961258Y-83989000D01*
X170138742Y-83989000D01*
X170163512Y-83993927D01*
G37*
G36*
X137143512Y-83993927D02*
G01*
X137292812Y-84023624D01*
X137456784Y-84091544D01*
X137604354Y-84190147D01*
X137729853Y-84315646D01*
X137828456Y-84463216D01*
X137896376Y-84627188D01*
X137931000Y-84801259D01*
X137931000Y-84978741D01*
X137896376Y-85152812D01*
X137828456Y-85316784D01*
X137729853Y-85464354D01*
X137604354Y-85589853D01*
X137456784Y-85688456D01*
X137292812Y-85756376D01*
X137143512Y-85786073D01*
X137118742Y-85791000D01*
X136941258Y-85791000D01*
X136916488Y-85786073D01*
X136767188Y-85756376D01*
X136603216Y-85688456D01*
X136455646Y-85589853D01*
X136330147Y-85464354D01*
X136231544Y-85316784D01*
X136163624Y-85152812D01*
X136129000Y-84978741D01*
X136129000Y-84801259D01*
X136163624Y-84627188D01*
X136231544Y-84463216D01*
X136330147Y-84315646D01*
X136455646Y-84190147D01*
X136603216Y-84091544D01*
X136767188Y-84023624D01*
X136916488Y-83993927D01*
X136941258Y-83989000D01*
X137118742Y-83989000D01*
X137143512Y-83993927D01*
G37*
G36*
X134603512Y-83993927D02*
G01*
X134752812Y-84023624D01*
X134916784Y-84091544D01*
X135064354Y-84190147D01*
X135189853Y-84315646D01*
X135288456Y-84463216D01*
X135356376Y-84627188D01*
X135391000Y-84801259D01*
X135391000Y-84978741D01*
X135356376Y-85152812D01*
X135288456Y-85316784D01*
X135189853Y-85464354D01*
X135064354Y-85589853D01*
X134916784Y-85688456D01*
X134752812Y-85756376D01*
X134603512Y-85786073D01*
X134578742Y-85791000D01*
X134401258Y-85791000D01*
X134376488Y-85786073D01*
X134227188Y-85756376D01*
X134063216Y-85688456D01*
X133915646Y-85589853D01*
X133790147Y-85464354D01*
X133691544Y-85316784D01*
X133623624Y-85152812D01*
X133589000Y-84978741D01*
X133589000Y-84801259D01*
X133623624Y-84627188D01*
X133691544Y-84463216D01*
X133790147Y-84315646D01*
X133915646Y-84190147D01*
X134063216Y-84091544D01*
X134227188Y-84023624D01*
X134376488Y-83993927D01*
X134401258Y-83989000D01*
X134578742Y-83989000D01*
X134603512Y-83993927D01*
G37*
G36*
X162543512Y-83993927D02*
G01*
X162692812Y-84023624D01*
X162856784Y-84091544D01*
X163004354Y-84190147D01*
X163129853Y-84315646D01*
X163228456Y-84463216D01*
X163296376Y-84627188D01*
X163331000Y-84801259D01*
X163331000Y-84978741D01*
X163296376Y-85152812D01*
X163228456Y-85316784D01*
X163129853Y-85464354D01*
X163004354Y-85589853D01*
X162856784Y-85688456D01*
X162692812Y-85756376D01*
X162543512Y-85786073D01*
X162518742Y-85791000D01*
X162341258Y-85791000D01*
X162316488Y-85786073D01*
X162167188Y-85756376D01*
X162003216Y-85688456D01*
X161855646Y-85589853D01*
X161730147Y-85464354D01*
X161631544Y-85316784D01*
X161563624Y-85152812D01*
X161529000Y-84978741D01*
X161529000Y-84801259D01*
X161563624Y-84627188D01*
X161631544Y-84463216D01*
X161730147Y-84315646D01*
X161855646Y-84190147D01*
X162003216Y-84091544D01*
X162167188Y-84023624D01*
X162316488Y-83993927D01*
X162341258Y-83989000D01*
X162518742Y-83989000D01*
X162543512Y-83993927D01*
G37*
G36*
X172703512Y-83993927D02*
G01*
X172852812Y-84023624D01*
X173016784Y-84091544D01*
X173164354Y-84190147D01*
X173289853Y-84315646D01*
X173388456Y-84463216D01*
X173456376Y-84627188D01*
X173491000Y-84801259D01*
X173491000Y-84978741D01*
X173456376Y-85152812D01*
X173388456Y-85316784D01*
X173289853Y-85464354D01*
X173164354Y-85589853D01*
X173016784Y-85688456D01*
X172852812Y-85756376D01*
X172703512Y-85786073D01*
X172678742Y-85791000D01*
X172501258Y-85791000D01*
X172476488Y-85786073D01*
X172327188Y-85756376D01*
X172163216Y-85688456D01*
X172015646Y-85589853D01*
X171890147Y-85464354D01*
X171791544Y-85316784D01*
X171723624Y-85152812D01*
X171689000Y-84978741D01*
X171689000Y-84801259D01*
X171723624Y-84627188D01*
X171791544Y-84463216D01*
X171890147Y-84315646D01*
X172015646Y-84190147D01*
X172163216Y-84091544D01*
X172327188Y-84023624D01*
X172476488Y-83993927D01*
X172501258Y-83989000D01*
X172678742Y-83989000D01*
X172703512Y-83993927D01*
G37*
G36*
X160003512Y-83993927D02*
G01*
X160152812Y-84023624D01*
X160316784Y-84091544D01*
X160464354Y-84190147D01*
X160589853Y-84315646D01*
X160688456Y-84463216D01*
X160756376Y-84627188D01*
X160791000Y-84801259D01*
X160791000Y-84978741D01*
X160756376Y-85152812D01*
X160688456Y-85316784D01*
X160589853Y-85464354D01*
X160464354Y-85589853D01*
X160316784Y-85688456D01*
X160152812Y-85756376D01*
X160003512Y-85786073D01*
X159978742Y-85791000D01*
X159801258Y-85791000D01*
X159776488Y-85786073D01*
X159627188Y-85756376D01*
X159463216Y-85688456D01*
X159315646Y-85589853D01*
X159190147Y-85464354D01*
X159091544Y-85316784D01*
X159023624Y-85152812D01*
X158989000Y-84978741D01*
X158989000Y-84801259D01*
X159023624Y-84627188D01*
X159091544Y-84463216D01*
X159190147Y-84315646D01*
X159315646Y-84190147D01*
X159463216Y-84091544D01*
X159627188Y-84023624D01*
X159776488Y-83993927D01*
X159801258Y-83989000D01*
X159978742Y-83989000D01*
X160003512Y-83993927D01*
G37*
G36*
X132063512Y-83993927D02*
G01*
X132212812Y-84023624D01*
X132376784Y-84091544D01*
X132524354Y-84190147D01*
X132649853Y-84315646D01*
X132748456Y-84463216D01*
X132816376Y-84627188D01*
X132851000Y-84801259D01*
X132851000Y-84978741D01*
X132816376Y-85152812D01*
X132748456Y-85316784D01*
X132649853Y-85464354D01*
X132524354Y-85589853D01*
X132376784Y-85688456D01*
X132212812Y-85756376D01*
X132063512Y-85786073D01*
X132038742Y-85791000D01*
X131861258Y-85791000D01*
X131836488Y-85786073D01*
X131687188Y-85756376D01*
X131523216Y-85688456D01*
X131375646Y-85589853D01*
X131250147Y-85464354D01*
X131151544Y-85316784D01*
X131083624Y-85152812D01*
X131049000Y-84978741D01*
X131049000Y-84801259D01*
X131083624Y-84627188D01*
X131151544Y-84463216D01*
X131250147Y-84315646D01*
X131375646Y-84190147D01*
X131523216Y-84091544D01*
X131687188Y-84023624D01*
X131836488Y-83993927D01*
X131861258Y-83989000D01*
X132038742Y-83989000D01*
X132063512Y-83993927D01*
G37*
G36*
X160003512Y-81453927D02*
G01*
X160152812Y-81483624D01*
X160316784Y-81551544D01*
X160464354Y-81650147D01*
X160589853Y-81775646D01*
X160688456Y-81923216D01*
X160756376Y-82087188D01*
X160791000Y-82261259D01*
X160791000Y-82438741D01*
X160756376Y-82612812D01*
X160688456Y-82776784D01*
X160589853Y-82924354D01*
X160464354Y-83049853D01*
X160316784Y-83148456D01*
X160152812Y-83216376D01*
X160003512Y-83246073D01*
X159978742Y-83251000D01*
X159801258Y-83251000D01*
X159776488Y-83246073D01*
X159627188Y-83216376D01*
X159463216Y-83148456D01*
X159315646Y-83049853D01*
X159190147Y-82924354D01*
X159091544Y-82776784D01*
X159023624Y-82612812D01*
X158989000Y-82438741D01*
X158989000Y-82261259D01*
X159023624Y-82087188D01*
X159091544Y-81923216D01*
X159190147Y-81775646D01*
X159315646Y-81650147D01*
X159463216Y-81551544D01*
X159627188Y-81483624D01*
X159776488Y-81453927D01*
X159801258Y-81449000D01*
X159978742Y-81449000D01*
X160003512Y-81453927D01*
G37*
G36*
X165083512Y-81453927D02*
G01*
X165232812Y-81483624D01*
X165396784Y-81551544D01*
X165544354Y-81650147D01*
X165669853Y-81775646D01*
X165768456Y-81923216D01*
X165836376Y-82087188D01*
X165871000Y-82261259D01*
X165871000Y-82438741D01*
X165836376Y-82612812D01*
X165768456Y-82776784D01*
X165669853Y-82924354D01*
X165544354Y-83049853D01*
X165396784Y-83148456D01*
X165232812Y-83216376D01*
X165083512Y-83246073D01*
X165058742Y-83251000D01*
X164881258Y-83251000D01*
X164856488Y-83246073D01*
X164707188Y-83216376D01*
X164543216Y-83148456D01*
X164395646Y-83049853D01*
X164270147Y-82924354D01*
X164171544Y-82776784D01*
X164103624Y-82612812D01*
X164069000Y-82438741D01*
X164069000Y-82261259D01*
X164103624Y-82087188D01*
X164171544Y-81923216D01*
X164270147Y-81775646D01*
X164395646Y-81650147D01*
X164543216Y-81551544D01*
X164707188Y-81483624D01*
X164856488Y-81453927D01*
X164881258Y-81449000D01*
X165058742Y-81449000D01*
X165083512Y-81453927D01*
G37*
G36*
X167623512Y-81453927D02*
G01*
X167772812Y-81483624D01*
X167936784Y-81551544D01*
X168084354Y-81650147D01*
X168209853Y-81775646D01*
X168308456Y-81923216D01*
X168376376Y-82087188D01*
X168411000Y-82261259D01*
X168411000Y-82438741D01*
X168376376Y-82612812D01*
X168308456Y-82776784D01*
X168209853Y-82924354D01*
X168084354Y-83049853D01*
X167936784Y-83148456D01*
X167772812Y-83216376D01*
X167623512Y-83246073D01*
X167598742Y-83251000D01*
X167421258Y-83251000D01*
X167396488Y-83246073D01*
X167247188Y-83216376D01*
X167083216Y-83148456D01*
X166935646Y-83049853D01*
X166810147Y-82924354D01*
X166711544Y-82776784D01*
X166643624Y-82612812D01*
X166609000Y-82438741D01*
X166609000Y-82261259D01*
X166643624Y-82087188D01*
X166711544Y-81923216D01*
X166810147Y-81775646D01*
X166935646Y-81650147D01*
X167083216Y-81551544D01*
X167247188Y-81483624D01*
X167396488Y-81453927D01*
X167421258Y-81449000D01*
X167598742Y-81449000D01*
X167623512Y-81453927D01*
G37*
G36*
X170163512Y-81453927D02*
G01*
X170312812Y-81483624D01*
X170476784Y-81551544D01*
X170624354Y-81650147D01*
X170749853Y-81775646D01*
X170848456Y-81923216D01*
X170916376Y-82087188D01*
X170951000Y-82261259D01*
X170951000Y-82438741D01*
X170916376Y-82612812D01*
X170848456Y-82776784D01*
X170749853Y-82924354D01*
X170624354Y-83049853D01*
X170476784Y-83148456D01*
X170312812Y-83216376D01*
X170163512Y-83246073D01*
X170138742Y-83251000D01*
X169961258Y-83251000D01*
X169936488Y-83246073D01*
X169787188Y-83216376D01*
X169623216Y-83148456D01*
X169475646Y-83049853D01*
X169350147Y-82924354D01*
X169251544Y-82776784D01*
X169183624Y-82612812D01*
X169149000Y-82438741D01*
X169149000Y-82261259D01*
X169183624Y-82087188D01*
X169251544Y-81923216D01*
X169350147Y-81775646D01*
X169475646Y-81650147D01*
X169623216Y-81551544D01*
X169787188Y-81483624D01*
X169936488Y-81453927D01*
X169961258Y-81449000D01*
X170138742Y-81449000D01*
X170163512Y-81453927D01*
G37*
G36*
X172703512Y-81453927D02*
G01*
X172852812Y-81483624D01*
X173016784Y-81551544D01*
X173164354Y-81650147D01*
X173289853Y-81775646D01*
X173388456Y-81923216D01*
X173456376Y-82087188D01*
X173491000Y-82261259D01*
X173491000Y-82438741D01*
X173456376Y-82612812D01*
X173388456Y-82776784D01*
X173289853Y-82924354D01*
X173164354Y-83049853D01*
X173016784Y-83148456D01*
X172852812Y-83216376D01*
X172703512Y-83246073D01*
X172678742Y-83251000D01*
X172501258Y-83251000D01*
X172476488Y-83246073D01*
X172327188Y-83216376D01*
X172163216Y-83148456D01*
X172015646Y-83049853D01*
X171890147Y-82924354D01*
X171791544Y-82776784D01*
X171723624Y-82612812D01*
X171689000Y-82438741D01*
X171689000Y-82261259D01*
X171723624Y-82087188D01*
X171791544Y-81923216D01*
X171890147Y-81775646D01*
X172015646Y-81650147D01*
X172163216Y-81551544D01*
X172327188Y-81483624D01*
X172476488Y-81453927D01*
X172501258Y-81449000D01*
X172678742Y-81449000D01*
X172703512Y-81453927D01*
G37*
G36*
X175243512Y-81453927D02*
G01*
X175392812Y-81483624D01*
X175556784Y-81551544D01*
X175704354Y-81650147D01*
X175829853Y-81775646D01*
X175928456Y-81923216D01*
X175996376Y-82087188D01*
X176031000Y-82261259D01*
X176031000Y-82438741D01*
X175996376Y-82612812D01*
X175928456Y-82776784D01*
X175829853Y-82924354D01*
X175704354Y-83049853D01*
X175556784Y-83148456D01*
X175392812Y-83216376D01*
X175243512Y-83246073D01*
X175218742Y-83251000D01*
X175041258Y-83251000D01*
X175016488Y-83246073D01*
X174867188Y-83216376D01*
X174703216Y-83148456D01*
X174555646Y-83049853D01*
X174430147Y-82924354D01*
X174331544Y-82776784D01*
X174263624Y-82612812D01*
X174229000Y-82438741D01*
X174229000Y-82261259D01*
X174263624Y-82087188D01*
X174331544Y-81923216D01*
X174430147Y-81775646D01*
X174555646Y-81650147D01*
X174703216Y-81551544D01*
X174867188Y-81483624D01*
X175016488Y-81453927D01*
X175041258Y-81449000D01*
X175218742Y-81449000D01*
X175243512Y-81453927D01*
G37*
G36*
X178571000Y-83251000D02*
G01*
X176769000Y-83251000D01*
X176769000Y-81449000D01*
X178571000Y-81449000D01*
X178571000Y-83251000D01*
G37*
G36*
X157463512Y-81453927D02*
G01*
X157612812Y-81483624D01*
X157776784Y-81551544D01*
X157924354Y-81650147D01*
X158049853Y-81775646D01*
X158148456Y-81923216D01*
X158216376Y-82087188D01*
X158251000Y-82261259D01*
X158251000Y-82438741D01*
X158216376Y-82612812D01*
X158148456Y-82776784D01*
X158049853Y-82924354D01*
X157924354Y-83049853D01*
X157776784Y-83148456D01*
X157612812Y-83216376D01*
X157463512Y-83246073D01*
X157438742Y-83251000D01*
X157261258Y-83251000D01*
X157236488Y-83246073D01*
X157087188Y-83216376D01*
X156923216Y-83148456D01*
X156775646Y-83049853D01*
X156650147Y-82924354D01*
X156551544Y-82776784D01*
X156483624Y-82612812D01*
X156449000Y-82438741D01*
X156449000Y-82261259D01*
X156483624Y-82087188D01*
X156551544Y-81923216D01*
X156650147Y-81775646D01*
X156775646Y-81650147D01*
X156923216Y-81551544D01*
X157087188Y-81483624D01*
X157236488Y-81453927D01*
X157261258Y-81449000D01*
X157438742Y-81449000D01*
X157463512Y-81453927D01*
G37*
G36*
X129523512Y-81453927D02*
G01*
X129672812Y-81483624D01*
X129836784Y-81551544D01*
X129984354Y-81650147D01*
X130109853Y-81775646D01*
X130208456Y-81923216D01*
X130276376Y-82087188D01*
X130311000Y-82261259D01*
X130311000Y-82438741D01*
X130276376Y-82612812D01*
X130208456Y-82776784D01*
X130109853Y-82924354D01*
X129984354Y-83049853D01*
X129836784Y-83148456D01*
X129672812Y-83216376D01*
X129523512Y-83246073D01*
X129498742Y-83251000D01*
X129321258Y-83251000D01*
X129296488Y-83246073D01*
X129147188Y-83216376D01*
X128983216Y-83148456D01*
X128835646Y-83049853D01*
X128710147Y-82924354D01*
X128611544Y-82776784D01*
X128543624Y-82612812D01*
X128509000Y-82438741D01*
X128509000Y-82261259D01*
X128543624Y-82087188D01*
X128611544Y-81923216D01*
X128710147Y-81775646D01*
X128835646Y-81650147D01*
X128983216Y-81551544D01*
X129147188Y-81483624D01*
X129296488Y-81453927D01*
X129321258Y-81449000D01*
X129498742Y-81449000D01*
X129523512Y-81453927D01*
G37*
G36*
X152383512Y-81453927D02*
G01*
X152532812Y-81483624D01*
X152696784Y-81551544D01*
X152844354Y-81650147D01*
X152969853Y-81775646D01*
X153068456Y-81923216D01*
X153136376Y-82087188D01*
X153171000Y-82261259D01*
X153171000Y-82438741D01*
X153136376Y-82612812D01*
X153068456Y-82776784D01*
X152969853Y-82924354D01*
X152844354Y-83049853D01*
X152696784Y-83148456D01*
X152532812Y-83216376D01*
X152383512Y-83246073D01*
X152358742Y-83251000D01*
X152181258Y-83251000D01*
X152156488Y-83246073D01*
X152007188Y-83216376D01*
X151843216Y-83148456D01*
X151695646Y-83049853D01*
X151570147Y-82924354D01*
X151471544Y-82776784D01*
X151403624Y-82612812D01*
X151369000Y-82438741D01*
X151369000Y-82261259D01*
X151403624Y-82087188D01*
X151471544Y-81923216D01*
X151570147Y-81775646D01*
X151695646Y-81650147D01*
X151843216Y-81551544D01*
X152007188Y-81483624D01*
X152156488Y-81453927D01*
X152181258Y-81449000D01*
X152358742Y-81449000D01*
X152383512Y-81453927D01*
G37*
G36*
X149843512Y-81453927D02*
G01*
X149992812Y-81483624D01*
X150156784Y-81551544D01*
X150304354Y-81650147D01*
X150429853Y-81775646D01*
X150528456Y-81923216D01*
X150596376Y-82087188D01*
X150631000Y-82261259D01*
X150631000Y-82438741D01*
X150596376Y-82612812D01*
X150528456Y-82776784D01*
X150429853Y-82924354D01*
X150304354Y-83049853D01*
X150156784Y-83148456D01*
X149992812Y-83216376D01*
X149843512Y-83246073D01*
X149818742Y-83251000D01*
X149641258Y-83251000D01*
X149616488Y-83246073D01*
X149467188Y-83216376D01*
X149303216Y-83148456D01*
X149155646Y-83049853D01*
X149030147Y-82924354D01*
X148931544Y-82776784D01*
X148863624Y-82612812D01*
X148829000Y-82438741D01*
X148829000Y-82261259D01*
X148863624Y-82087188D01*
X148931544Y-81923216D01*
X149030147Y-81775646D01*
X149155646Y-81650147D01*
X149303216Y-81551544D01*
X149467188Y-81483624D01*
X149616488Y-81453927D01*
X149641258Y-81449000D01*
X149818742Y-81449000D01*
X149843512Y-81453927D01*
G37*
G36*
X147303512Y-81453927D02*
G01*
X147452812Y-81483624D01*
X147616784Y-81551544D01*
X147764354Y-81650147D01*
X147889853Y-81775646D01*
X147988456Y-81923216D01*
X148056376Y-82087188D01*
X148091000Y-82261259D01*
X148091000Y-82438741D01*
X148056376Y-82612812D01*
X147988456Y-82776784D01*
X147889853Y-82924354D01*
X147764354Y-83049853D01*
X147616784Y-83148456D01*
X147452812Y-83216376D01*
X147303512Y-83246073D01*
X147278742Y-83251000D01*
X147101258Y-83251000D01*
X147076488Y-83246073D01*
X146927188Y-83216376D01*
X146763216Y-83148456D01*
X146615646Y-83049853D01*
X146490147Y-82924354D01*
X146391544Y-82776784D01*
X146323624Y-82612812D01*
X146289000Y-82438741D01*
X146289000Y-82261259D01*
X146323624Y-82087188D01*
X146391544Y-81923216D01*
X146490147Y-81775646D01*
X146615646Y-81650147D01*
X146763216Y-81551544D01*
X146927188Y-81483624D01*
X147076488Y-81453927D01*
X147101258Y-81449000D01*
X147278742Y-81449000D01*
X147303512Y-81453927D01*
G37*
G36*
X144763512Y-81453927D02*
G01*
X144912812Y-81483624D01*
X145076784Y-81551544D01*
X145224354Y-81650147D01*
X145349853Y-81775646D01*
X145448456Y-81923216D01*
X145516376Y-82087188D01*
X145551000Y-82261259D01*
X145551000Y-82438741D01*
X145516376Y-82612812D01*
X145448456Y-82776784D01*
X145349853Y-82924354D01*
X145224354Y-83049853D01*
X145076784Y-83148456D01*
X144912812Y-83216376D01*
X144763512Y-83246073D01*
X144738742Y-83251000D01*
X144561258Y-83251000D01*
X144536488Y-83246073D01*
X144387188Y-83216376D01*
X144223216Y-83148456D01*
X144075646Y-83049853D01*
X143950147Y-82924354D01*
X143851544Y-82776784D01*
X143783624Y-82612812D01*
X143749000Y-82438741D01*
X143749000Y-82261259D01*
X143783624Y-82087188D01*
X143851544Y-81923216D01*
X143950147Y-81775646D01*
X144075646Y-81650147D01*
X144223216Y-81551544D01*
X144387188Y-81483624D01*
X144536488Y-81453927D01*
X144561258Y-81449000D01*
X144738742Y-81449000D01*
X144763512Y-81453927D01*
G37*
G36*
X142223512Y-81453927D02*
G01*
X142372812Y-81483624D01*
X142536784Y-81551544D01*
X142684354Y-81650147D01*
X142809853Y-81775646D01*
X142908456Y-81923216D01*
X142976376Y-82087188D01*
X143011000Y-82261259D01*
X143011000Y-82438741D01*
X142976376Y-82612812D01*
X142908456Y-82776784D01*
X142809853Y-82924354D01*
X142684354Y-83049853D01*
X142536784Y-83148456D01*
X142372812Y-83216376D01*
X142223512Y-83246073D01*
X142198742Y-83251000D01*
X142021258Y-83251000D01*
X141996488Y-83246073D01*
X141847188Y-83216376D01*
X141683216Y-83148456D01*
X141535646Y-83049853D01*
X141410147Y-82924354D01*
X141311544Y-82776784D01*
X141243624Y-82612812D01*
X141209000Y-82438741D01*
X141209000Y-82261259D01*
X141243624Y-82087188D01*
X141311544Y-81923216D01*
X141410147Y-81775646D01*
X141535646Y-81650147D01*
X141683216Y-81551544D01*
X141847188Y-81483624D01*
X141996488Y-81453927D01*
X142021258Y-81449000D01*
X142198742Y-81449000D01*
X142223512Y-81453927D01*
G37*
G36*
X139683512Y-81453927D02*
G01*
X139832812Y-81483624D01*
X139996784Y-81551544D01*
X140144354Y-81650147D01*
X140269853Y-81775646D01*
X140368456Y-81923216D01*
X140436376Y-82087188D01*
X140471000Y-82261259D01*
X140471000Y-82438741D01*
X140436376Y-82612812D01*
X140368456Y-82776784D01*
X140269853Y-82924354D01*
X140144354Y-83049853D01*
X139996784Y-83148456D01*
X139832812Y-83216376D01*
X139683512Y-83246073D01*
X139658742Y-83251000D01*
X139481258Y-83251000D01*
X139456488Y-83246073D01*
X139307188Y-83216376D01*
X139143216Y-83148456D01*
X138995646Y-83049853D01*
X138870147Y-82924354D01*
X138771544Y-82776784D01*
X138703624Y-82612812D01*
X138669000Y-82438741D01*
X138669000Y-82261259D01*
X138703624Y-82087188D01*
X138771544Y-81923216D01*
X138870147Y-81775646D01*
X138995646Y-81650147D01*
X139143216Y-81551544D01*
X139307188Y-81483624D01*
X139456488Y-81453927D01*
X139481258Y-81449000D01*
X139658742Y-81449000D01*
X139683512Y-81453927D01*
G37*
G36*
X137143512Y-81453927D02*
G01*
X137292812Y-81483624D01*
X137456784Y-81551544D01*
X137604354Y-81650147D01*
X137729853Y-81775646D01*
X137828456Y-81923216D01*
X137896376Y-82087188D01*
X137931000Y-82261259D01*
X137931000Y-82438741D01*
X137896376Y-82612812D01*
X137828456Y-82776784D01*
X137729853Y-82924354D01*
X137604354Y-83049853D01*
X137456784Y-83148456D01*
X137292812Y-83216376D01*
X137143512Y-83246073D01*
X137118742Y-83251000D01*
X136941258Y-83251000D01*
X136916488Y-83246073D01*
X136767188Y-83216376D01*
X136603216Y-83148456D01*
X136455646Y-83049853D01*
X136330147Y-82924354D01*
X136231544Y-82776784D01*
X136163624Y-82612812D01*
X136129000Y-82438741D01*
X136129000Y-82261259D01*
X136163624Y-82087188D01*
X136231544Y-81923216D01*
X136330147Y-81775646D01*
X136455646Y-81650147D01*
X136603216Y-81551544D01*
X136767188Y-81483624D01*
X136916488Y-81453927D01*
X136941258Y-81449000D01*
X137118742Y-81449000D01*
X137143512Y-81453927D01*
G37*
G36*
X134603512Y-81453927D02*
G01*
X134752812Y-81483624D01*
X134916784Y-81551544D01*
X135064354Y-81650147D01*
X135189853Y-81775646D01*
X135288456Y-81923216D01*
X135356376Y-82087188D01*
X135391000Y-82261259D01*
X135391000Y-82438741D01*
X135356376Y-82612812D01*
X135288456Y-82776784D01*
X135189853Y-82924354D01*
X135064354Y-83049853D01*
X134916784Y-83148456D01*
X134752812Y-83216376D01*
X134603512Y-83246073D01*
X134578742Y-83251000D01*
X134401258Y-83251000D01*
X134376488Y-83246073D01*
X134227188Y-83216376D01*
X134063216Y-83148456D01*
X133915646Y-83049853D01*
X133790147Y-82924354D01*
X133691544Y-82776784D01*
X133623624Y-82612812D01*
X133589000Y-82438741D01*
X133589000Y-82261259D01*
X133623624Y-82087188D01*
X133691544Y-81923216D01*
X133790147Y-81775646D01*
X133915646Y-81650147D01*
X134063216Y-81551544D01*
X134227188Y-81483624D01*
X134376488Y-81453927D01*
X134401258Y-81449000D01*
X134578742Y-81449000D01*
X134603512Y-81453927D01*
G37*
G36*
X132063512Y-81453927D02*
G01*
X132212812Y-81483624D01*
X132376784Y-81551544D01*
X132524354Y-81650147D01*
X132649853Y-81775646D01*
X132748456Y-81923216D01*
X132816376Y-82087188D01*
X132851000Y-82261259D01*
X132851000Y-82438741D01*
X132816376Y-82612812D01*
X132748456Y-82776784D01*
X132649853Y-82924354D01*
X132524354Y-83049853D01*
X132376784Y-83148456D01*
X132212812Y-83216376D01*
X132063512Y-83246073D01*
X132038742Y-83251000D01*
X131861258Y-83251000D01*
X131836488Y-83246073D01*
X131687188Y-83216376D01*
X131523216Y-83148456D01*
X131375646Y-83049853D01*
X131250147Y-82924354D01*
X131151544Y-82776784D01*
X131083624Y-82612812D01*
X131049000Y-82438741D01*
X131049000Y-82261259D01*
X131083624Y-82087188D01*
X131151544Y-81923216D01*
X131250147Y-81775646D01*
X131375646Y-81650147D01*
X131523216Y-81551544D01*
X131687188Y-81483624D01*
X131836488Y-81453927D01*
X131861258Y-81449000D01*
X132038742Y-81449000D01*
X132063512Y-81453927D01*
G37*
G36*
X154923512Y-81453927D02*
G01*
X155072812Y-81483624D01*
X155236784Y-81551544D01*
X155384354Y-81650147D01*
X155509853Y-81775646D01*
X155608456Y-81923216D01*
X155676376Y-82087188D01*
X155711000Y-82261259D01*
X155711000Y-82438741D01*
X155676376Y-82612812D01*
X155608456Y-82776784D01*
X155509853Y-82924354D01*
X155384354Y-83049853D01*
X155236784Y-83148456D01*
X155072812Y-83216376D01*
X154923512Y-83246073D01*
X154898742Y-83251000D01*
X154721258Y-83251000D01*
X154696488Y-83246073D01*
X154547188Y-83216376D01*
X154383216Y-83148456D01*
X154235646Y-83049853D01*
X154110147Y-82924354D01*
X154011544Y-82776784D01*
X153943624Y-82612812D01*
X153909000Y-82438741D01*
X153909000Y-82261259D01*
X153943624Y-82087188D01*
X154011544Y-81923216D01*
X154110147Y-81775646D01*
X154235646Y-81650147D01*
X154383216Y-81551544D01*
X154547188Y-81483624D01*
X154696488Y-81453927D01*
X154721258Y-81449000D01*
X154898742Y-81449000D01*
X154923512Y-81453927D01*
G37*
G36*
X162543512Y-81453927D02*
G01*
X162692812Y-81483624D01*
X162856784Y-81551544D01*
X163004354Y-81650147D01*
X163129853Y-81775646D01*
X163228456Y-81923216D01*
X163296376Y-82087188D01*
X163331000Y-82261259D01*
X163331000Y-82438741D01*
X163296376Y-82612812D01*
X163228456Y-82776784D01*
X163129853Y-82924354D01*
X163004354Y-83049853D01*
X162856784Y-83148456D01*
X162692812Y-83216376D01*
X162543512Y-83246073D01*
X162518742Y-83251000D01*
X162341258Y-83251000D01*
X162316488Y-83246073D01*
X162167188Y-83216376D01*
X162003216Y-83148456D01*
X161855646Y-83049853D01*
X161730147Y-82924354D01*
X161631544Y-82776784D01*
X161563624Y-82612812D01*
X161529000Y-82438741D01*
X161529000Y-82261259D01*
X161563624Y-82087188D01*
X161631544Y-81923216D01*
X161730147Y-81775646D01*
X161855646Y-81650147D01*
X162003216Y-81551544D01*
X162167188Y-81483624D01*
X162316488Y-81453927D01*
X162341258Y-81449000D01*
X162518742Y-81449000D01*
X162543512Y-81453927D01*
G37*
M02*
